<?xml version="1.0" encoding="UTF-8" standalone="no"?>
<!DOCTYPE svg PUBLIC "-//W3C//DTD SVG 1.1//EN" "http://www.w3.org/Graphics/SVG/1.1/DTD/svg11.dtd">
<svg xmlns="http://www.w3.org/2000/svg" version="1.1" viewBox="0 0 624 117">
<g stroke-width="2.00" fill="none" stroke-linecap="butt">
<path stroke="#808080" vector-effect="non-scaling-stroke" d="
  M 590.49 51.40
  L 584.79 35.64
  A 1.01 0.99 46.5 0 1 584.80 34.93
  Q 587.25 28.80 586.59 22.22
  A 1.06 1.04 -69.6 0 0 586.34 21.66
  C 583.21 18.11 577.00 16.88 572.66 17.78
  C 564.63 19.45 559.24 28.44 559.37 36.32
  Q 559.47 42.42 556.40 46.22
  A 1.05 1.03 -25.0 0 0 556.19 46.78
  C 555.62 55.30 553.56 63.82 552.77 71.90
  Q 551.70 82.81 549.64 93.71
  A 1.01 0.99 28.8 0 0 549.91 94.60
  Q 554.22 98.97 555.69 104.96
  Q 556.17 106.93 557.44 105.34
  Q 561.36 100.42 566.99 97.72
  A 1.03 1.01 -11.3 0 0 567.56 96.88
  Q 568.34 84.21 573.71 72.80
  Q 574.48 71.17 575.45 72.68
  Q 578.44 77.28 579.11 79.43
  Q 581.60 87.42 586.46 94.20
  C 589.35 98.24 594.51 97.61 598.90 96.45
  A 1.02 0.95 -76.1 0 0 599.42 96.11
  Q 618.63 72.40 616.12 43.32
  Q 615.80 39.53 616.11 35.72
  C 616.89 26.42 616.17 17.33 613.19 8.45
  C 612.70 7.00 612.06 1.79 609.75 2.89
  A 1.02 1.00 86.0 0 0 609.23 3.50
  L 608.61 5.56
  A 0.99 0.98 -10.9 0 1 608.28 6.04
  Q 605.56 8.24 604.10 11.43
  A 0.97 0.93 -6.3 0 1 603.75 11.85
  Q 599.26 14.86 597.33 19.90
  A 1.06 1.03 -44.1 0 0 597.31 20.56
  Q 598.45 24.20 597.71 27.94
  Q 595.37 39.69 592.40 51.30
  Q 591.60 54.45 590.49 51.40"
/>
<path stroke="#808080" vector-effect="non-scaling-stroke" d="
  M 142.35 6.03
  Q 142.19 4.99 141.20 4.73
  A 1.02 1.01 -59.8 0 0 140.24 4.99
  C 137.92 7.30 135.15 9.22 133.80 12.25
  C 131.51 17.39 130.17 22.85 128.13 27.75
  Q 127.04 30.36 126.53 33.46
  C 125.63 38.91 123.24 43.26 122.18 48.59
  Q 120.90 55.04 117.11 60.52
  A 1.09 1.00 -30.1 0 0 116.93 61.10
  Q 116.96 65.12 115.66 68.89
  A 1.05 1.05 0.0 0 1 115.32 69.37
  C 112.51 71.47 109.66 68.33 108.42 65.95
  Q 107.47 64.12 107.71 61.37
  C 108.38 53.58 108.22 45.57 108.68 38.02
  C 108.93 33.71 110.05 26.62 108.12 22.72
  Q 105.72 17.85 105.05 12.37
  A 1.00 1.00 0.0 0 0 104.78 11.80
  Q 101.56 8.43 96.97 6.91
  A 1.02 1.01 28.4 0 0 95.86 7.24
  C 93.54 10.22 89.91 13.30 88.77 16.81
  C 85.58 26.64 82.81 37.84 82.96 48.22
  C 83.01 51.61 84.10 55.92 83.99 60.00
  C 83.79 66.81 82.53 75.16 83.98 81.21
  C 87.26 94.88 97.35 103.75 112.00 99.73
  Q 113.99 99.19 117.92 97.80
  A 1.00 1.00 0.0 0 1 119.05 98.15
  L 125.46 106.79
  A 0.99 0.98 63.1 0 0 126.56 107.15
  C 133.79 104.87 146.44 97.44 144.35 88.18
  Q 142.98 82.10 142.94 76.23
  Q 142.92 71.98 144.63 65.33
  C 147.10 55.78 148.54 45.89 151.84 36.60
  Q 154.96 27.83 155.91 18.52
  C 156.52 12.58 150.88 6.84 145.01 7.05
  Q 144.03 7.08 143.09 6.84
  A 0.99 0.99 0.0 0 1 142.35 6.03"
/>
<path stroke="#808080" vector-effect="non-scaling-stroke" d="
  M 468.55 6.39
  L 467.75 5.26
  A 1.00 1.00 0.0 0 0 466.26 5.10
  C 463.91 7.26 460.80 9.50 459.68 12.62
  C 457.14 19.67 453.89 26.90 452.45 34.26
  C 451.46 39.32 449.20 43.32 448.25 48.33
  Q 447.02 54.78 443.33 60.25
  Q 443.20 60.44 443.17 60.67
  L 442.00 68.83
  A 1.00 1.00 0.0 0 1 441.40 69.61
  C 437.79 71.12 436.54 68.79 434.74 66.43
  Q 433.39 64.66 433.50 63.50
  Q 434.27 55.80 434.31 48.07
  C 434.35 40.89 435.02 33.93 435.09 26.82
  Q 435.11 24.90 434.14 22.88
  Q 431.80 17.97 431.09 12.49
  A 1.06 1.04 -71.1 0 0 430.83 11.95
  Q 427.65 8.43 423.11 6.97
  A 1.03 1.03 0.0 0 0 422.06 7.24
  C 419.13 10.42 415.77 13.57 414.43 17.84
  C 411.29 27.87 407.97 40.61 409.22 51.06
  Q 410.38 60.76 409.64 70.02
  C 408.98 78.24 409.60 82.76 413.31 89.43
  C 420.58 102.54 430.97 102.38 443.93 97.80
  A 1.00 1.00 0.0 0 1 445.06 98.15
  L 451.50 106.88
  A 1.00 1.00 0.0 0 0 452.62 107.23
  C 459.93 104.81 472.28 97.51 470.28 88.19
  C 468.70 80.88 468.34 74.38 470.29 66.77
  C 472.87 56.73 474.45 46.36 477.84 36.57
  Q 481.20 26.85 481.94 15.49
  Q 481.95 15.24 481.85 15.01
  Q 478.08 6.70 469.38 6.81
  A 0.99 0.98 -17.8 0 1 468.55 6.39"
/>
<path stroke="#808080" vector-effect="non-scaling-stroke" d="
  M 14.15 14.82
  C 13.20 30.38 13.05 39.89 8.22 52.13
  C 6.04 57.68 7.67 59.45 9.19 64.47
  A 1.09 1.00 46.4 0 1 9.20 65.02
  C 7.84 69.93 6.70 74.26 6.44 79.71
  Q 5.98 89.26 2.95 98.14
  A 1.01 1.00 -64.7 0 0 3.37 99.32
  Q 16.07 107.17 30.15 104.56
  Q 33.01 104.03 35.89 104.12
  C 53.11 104.63 58.09 96.48 66.22 82.96
  Q 78.36 62.76 61.37 47.63
  A 1.00 0.99 -43.6 0 1 61.41 46.11
  Q 65.92 42.45 69.20 37.65
  C 74.67 29.67 71.19 23.75 64.86 18.21
  A 1.02 1.00 28.2 0 1 64.55 17.21
  L 64.68 16.68
  A 1.00 0.99 23.8 0 0 64.26 15.61
  Q 50.79 6.67 34.77 5.09
  C 27.72 4.40 19.48 9.59 14.47 14.14
  A 0.99 0.97 70.9 0 0 14.15 14.82"
/>
<path stroke="#808080" vector-effect="non-scaling-stroke" d="
  M 166.19 73.56
  Q 167.26 74.28 170.57 74.91
  A 1.00 0.98 89.5 0 1 171.36 75.70
  C 173.05 84.40 179.68 99.07 188.86 102.09
  Q 203.61 106.94 218.58 101.48
  Q 220.60 100.74 222.07 102.16
  Q 226.47 106.41 232.72 105.99
  A 1.00 0.99 5.8 0 0 233.61 105.27
  Q 235.71 98.10 234.80 90.65
  A 1.00 0.98 61.0 0 1 235.00 89.92
  Q 241.16 81.81 242.27 79.72
  C 250.62 64.01 253.12 45.45 244.60 29.29
  A 0.99 0.96 -57.2 0 1 244.49 28.73
  C 244.76 26.10 244.71 24.46 242.98 22.29
  Q 230.55 6.76 210.75 5.10
  C 201.44 4.31 188.01 14.17 181.75 20.55
  A 1.00 1.00 0.0 0 1 180.64 20.77
  C 171.93 17.07 170.66 24.04 166.91 29.41
  A 0.97 0.96 58.5 0 0 166.74 30.12
  C 168.24 40.88 169.47 47.96 164.19 57.90
  C 161.75 62.51 161.30 70.31 166.19 73.56"
/>
<path stroke="#808080" vector-effect="non-scaling-stroke" d="
  M 290.19 27.68
  Q 290.10 27.96 290.04 28.26
  Q 285.21 52.37 282.31 76.83
  A 1.03 1.01 -5.6 0 1 281.60 77.67
  C 277.37 78.96 268.95 79.76 268.15 73.44
  A 1.00 1.00 0.0 0 0 266.71 72.67
  Q 256.90 77.57 255.24 88.55
  Q 254.82 91.31 257.72 92.60
  Q 271.97 98.95 287.29 102.08
  A 0.99 0.99 0.0 0 1 288.07 102.86
  L 288.39 104.45
  A 1.01 1.01 0.0 0 0 289.40 105.26
  C 294.07 105.14 298.31 104.11 303.12 104.07
  Q 308.16 104.04 313.29 102.71
  A 1.01 1.00 -87.1 0 0 313.99 102.07
  L 316.29 95.22
  A 1.01 1.00 -66.4 0 0 315.83 94.03
  Q 307.32 89.26 301.81 81.29
  A 1.01 0.99 31.9 0 1 301.64 80.59
  Q 304.77 56.83 308.98 33.24
  A 0.99 0.99 0.0 0 1 310.00 32.42
  C 316.91 32.67 326.85 30.03 327.97 21.85
  C 328.55 17.53 325.19 12.79 322.39 9.66
  A 0.99 0.96 72.5 0 0 321.80 9.34
  C 307.35 7.13 292.02 7.39 278.49 5.10
  A 1.01 0.99 -60.0 0 0 277.67 5.33
  Q 271.59 10.59 270.81 18.42
  C 270.46 21.96 272.50 25.14 273.50 28.35
  Q 274.37 31.15 277.27 29.97
  Q 283.06 27.61 289.31 26.64
  A 0.81 0.80 -85.6 0 1 290.19 27.68"
/>
<path stroke="#ffbc80" vector-effect="non-scaling-stroke" d="
  M 599.79 33.46
  L 593.29 58.50"
/>
<path stroke="#ffc480" vector-effect="non-scaling-stroke" d="
  M 593.29 58.50
  Q 591.36 60.49 590.18 57.46
  Q 585.95 46.63 582.11 35.60
  A 0.97 0.96 46.8 0 1 582.13 34.89
  C 583.90 30.63 586.75 21.72 579.49 20.79"
/>
<path stroke="#ffcd80" vector-effect="non-scaling-stroke" d="
  M 579.49 20.79
  Q 575.93 19.19 571.71 20.75"
/>
<path stroke="#ffd380" vector-effect="non-scaling-stroke" d="
  M 571.71 20.75
  Q 568.42 22.17 566.21 25.00"
/>
<path stroke="#ffe180" vector-effect="non-scaling-stroke" d="
  M 566.21 25.00
  C 562.25 28.71 561.87 35.16 561.96 40.24
  C 562.02 43.72 559.14 45.87 558.67 49.58
  Q 557.84 56.19 556.75 62.76
  C 555.13 72.44 554.51 82.85 552.42 92.88
  A 1.02 0.99 30.3 0 0 552.66 93.75
  Q 555.27 96.66 556.86 100.21
  A 1.01 1.00 58.7 0 0 558.40 100.59
  L 564.68 95.58
  A 0.99 0.98 75.7 0 0 565.05 94.95
  L 566.94 82.27"
/>
<path stroke="#ffd380" vector-effect="non-scaling-stroke" d="
  M 566.94 82.27
  L 573.29 68.25"
/>
<path stroke="#ffcd80" vector-effect="non-scaling-stroke" d="
  M 573.29 68.25
  C 575.23 66.10 576.64 69.97 578.00 71.11"
/>
<path stroke="#ffc480" vector-effect="non-scaling-stroke" d="
  M 578.00 71.11
  Q 582.05 81.06 587.19 90.47
  C 588.95 93.67 591.10 95.45 594.75 94.48"
/>
<path stroke="#ffbc80" vector-effect="non-scaling-stroke" d="
  M 594.75 94.48
  C 598.67 94.76 601.02 90.04 602.29 87.75"
/>
<path stroke="#ffb180" vector-effect="non-scaling-stroke" d="
  M 602.29 87.75
  Q 616.27 67.22 613.40 42.66
  Q 613.03 39.54 613.41 36.34
  Q 615.06 22.42 610.75 9.06
  Q 610.09 7.02 608.95 8.83
  Q 606.47 12.78 602.92 16.13
  C 600.45 18.48 599.52 20.31 600.67 23.54
  Q 600.74 23.75 600.72 23.97
  L 599.79 33.46"
/>
<path stroke="#ff6d00" vector-effect="non-scaling-stroke" d="
  M 602.29 87.75
  L 600.92 86.11
  A 1.02 1.00 -64.4 0 1 600.69 85.44
  Q 601.41 59.44 599.79 33.46"
/>
<path stroke="#ff8000" vector-effect="non-scaling-stroke" d="
  M 593.29 58.50
  Q 594.45 59.10 594.47 60.51
  Q 594.75 77.47 594.75 94.48"
/>
<path stroke="#ff9200" vector-effect="non-scaling-stroke" d="
  M 579.49 20.79
  Q 579.10 44.36 579.21 67.93
  Q 579.22 69.22 578.00 71.11"
/>
<path stroke="#ffa100" vector-effect="non-scaling-stroke" d="
  M 573.29 68.25
  L 573.07 22.02
  A 1.00 0.99 23.2 0 0 572.79 21.33
  Q 572.37 20.89 571.71 20.75"
/>
<path stroke="#ffb500" vector-effect="non-scaling-stroke" d="
  M 566.94 82.27
  Q 565.78 53.65 566.21 25.00"
/>
<path stroke="#808080" vector-effect="non-scaling-stroke" d="
  M 371.62 24.25
  Q 362.11 17.50 357.33 6.81
  A 0.98 0.97 83.1 0 0 356.60 6.23
  L 353.56 5.68
  A 1.01 1.00 20.0 0 0 352.52 6.16
  L 351.99 7.08
  A 0.97 0.97 0.0 0 1 351.57 7.47
  C 346.84 9.86 341.22 13.93 338.50 18.81
  C 337.56 20.50 338.22 22.33 339.01 23.92
  A 1.00 1.00 0.0 0 0 339.85 24.47
  L 340.93 24.53
  A 0.95 0.95 0.0 0 1 341.44 24.70
  Q 345.91 27.72 349.63 31.59
  C 352.24 34.31 355.67 36.14 358.19 39.23
  A 1.00 1.00 0.0 0 1 358.42 39.92
  C 358.06 46.25 360.84 49.37 363.67 54.64
  A 0.98 0.96 -52.5 0 1 363.76 55.36
  C 361.24 65.43 360.78 73.46 357.17 80.58
  Q 357.05 80.82 357.06 81.09
  Q 357.41 87.85 358.10 94.59
  C 358.50 98.51 361.57 102.48 363.53 105.81
  A 1.00 1.00 0.0 0 0 365.10 106.01
  C 368.49 102.59 370.32 98.08 372.66 94.62
  C 375.18 90.91 377.08 87.69 378.20 83.11
  C 379.59 77.35 383.71 68.37 383.46 62.83
  Q 383.25 57.94 384.74 53.25
  Q 385.46 50.98 387.15 38.79
  A 1.00 0.98 -16.7 0 1 387.50 38.16
  Q 399.61 28.03 402.12 12.33
  A 1.01 1.00 12.8 0 0 401.41 11.21
  Q 391.74 8.35 383.31 13.85
  Q 377.61 17.57 373.02 24.01
  A 1.00 1.00 0.0 0 1 371.62 24.25"
/>
<path stroke="#808080" vector-effect="non-scaling-stroke" d="
  M 506.89 76.30
  L 518.10 74.13
  A 1.00 0.99 89.2 0 1 519.27 75.28
  Q 518.14 82.00 517.75 89.26
  C 517.57 92.54 519.46 94.48 520.37 96.72
  Q 522.32 101.54 524.14 105.60
  Q 524.87 107.24 525.88 105.76
  Q 553.74 64.66 533.48 19.07
  A 0.99 0.99 0.0 0 1 533.42 18.43
  L 534.59 13.58
  A 1.01 1.00 -70.5 0 0 534.05 12.44
  Q 528.71 9.88 524.49 5.70
  A 0.99 0.99 0.0 0 0 523.23 5.58
  Q 517.84 9.20 512.42 12.81
  C 505.58 17.36 501.18 34.83 498.68 42.46
  A 1.07 1.06 83.2 0 1 498.25 43.01
  C 495.84 44.48 493.34 45.37 491.95 47.89
  Q 488.89 53.43 490.27 59.93
  A 1.03 1.01 52.4 0 1 490.19 60.58
  C 487.03 66.99 483.30 74.13 482.69 81.35
  Q 482.04 88.88 481.63 96.77
  A 1.01 0.99 -62.6 0 0 481.83 97.43
  Q 485.91 102.68 492.07 104.77
  A 1.02 1.00 34.0 0 0 493.04 104.59
  C 496.30 101.83 499.98 98.79 501.21 94.53
  Q 503.73 85.78 506.12 77.02
  A 1.00 0.99 1.9 0 1 506.89 76.30"
/>
<path stroke="#ffbc80" vector-effect="non-scaling-stroke" d="
  M 132.37 25.98
  Q 128.89 31.20 128.38 36.87
  Q 128.18 39.00 127.58 40.52
  C 124.83 47.43 123.92 54.98 119.71 61.75"
/>
<path stroke="#ffc480" vector-effect="non-scaling-stroke" d="
  M 119.71 61.75
  C 119.42 66.53 118.85 73.15 112.29 72.75"
/>
<path stroke="#ffda80" vector-effect="non-scaling-stroke" d="
  M 112.29 72.75
  C 102.07 68.32 105.81 60.41 105.73 51.49
  Q 105.61 38.88 106.77 26.30
  A 1.03 1.01 34.5 0 0 106.66 25.73
  Q 104.09 20.94 103.05 15.62
  Q 102.56 13.10 101.32 11.97
  Q 99.10 9.95 96.52 10.71"
/>
<path stroke="#ffe180" vector-effect="non-scaling-stroke" d="
  M 96.52 10.71
  Q 92.08 15.14 91.53 16.80
  C 88.10 27.10 84.27 41.64 85.98 52.44
  C 88.47 68.04 80.72 83.61 95.96 95.50"
/>
<path stroke="#ffda80" vector-effect="non-scaling-stroke" d="
  M 95.96 95.50
  Q 103.61 100.04 111.93 97.00"
/>
<path stroke="#ffc480" vector-effect="non-scaling-stroke" d="
  M 111.93 97.00
  C 115.00 96.30 118.90 93.32 121.16 96.28"
/>
<path stroke="#ffbc80" vector-effect="non-scaling-stroke" d="
  M 121.16 96.28
  L 126.42 103.74
  A 1.02 1.00 64.5 0 0 127.50 104.13
  Q 131.10 103.15 133.07 101.01"
/>
<path stroke="#ffb180" vector-effect="non-scaling-stroke" d="
  M 133.07 101.01
  C 136.77 99.05 142.92 94.26 141.99 89.74
  C 140.27 81.40 139.59 74.21 141.88 65.90
  C 144.60 56.04 145.71 45.73 149.27 36.11
  C 152.07 28.52 158.76 7.85 142.24 9.41
  Q 141.59 9.47 140.95 9.01
  A 1.00 0.99 43.4 0 0 139.74 9.04
  Q 136.87 11.34 135.22 15.74
  Q 132.76 22.31 132.37 25.98"
/>
<path stroke="#ff6d00" vector-effect="non-scaling-stroke" d="
  M 133.07 101.01
  Q 133.42 63.48 132.37 25.98"
/>
<path stroke="#ff8000" vector-effect="non-scaling-stroke" d="
  M 121.16 96.28
  Q 122.00 80.27 120.92 63.03
  Q 120.85 61.93 120.18 62.81
  Q 119.60 63.57 119.71 61.75"
/>
<path stroke="#ff9e00" vector-effect="non-scaling-stroke" d="
  M 112.29 72.75
  Q 111.05 84.87 111.93 97.00"
/>
<path stroke="#ffbb00" vector-effect="non-scaling-stroke" d="
  M 95.96 95.50
  Q 97.06 94.90 96.30 94.47
  C 96.40 93.32 96.74 92.27 96.75 91.17
  Q 96.91 50.98 96.52 10.71"
/>
<path stroke="#ffbc80" vector-effect="non-scaling-stroke" d="
  M 458.25 24.71
  C 456.95 27.78 455.66 30.41 455.13 33.91
  C 454.41 38.71 452.21 43.57 451.22 47.27
  C 449.76 52.70 449.11 56.08 445.61 61.72
  A 1.04 1.01 60.6 0 0 445.46 62.29
  Q 445.74 68.39 442.16 72.32"
/>
<path stroke="#ffcd80" vector-effect="non-scaling-stroke" d="
  M 442.16 72.32
  Q 435.36 73.67 432.11 67.41"
/>
<path stroke="#ffda80" vector-effect="non-scaling-stroke" d="
  M 432.11 67.41
  Q 430.47 62.96 431.14 58.08
  C 432.54 47.82 431.83 37.02 432.75 26.57
  A 0.93 0.93 0.0 0 0 432.65 26.04
  Q 430.25 21.10 429.07 15.74
  Q 428.42 12.74 427.09 11.60
  Q 424.59 9.45 421.42 11.52"
/>
<path stroke="#ffe180" vector-effect="non-scaling-stroke" d="
  M 421.42 11.52
  C 419.57 14.03 417.80 15.87 416.86 18.88
  C 413.74 28.84 410.60 41.32 411.90 51.96
  C 414.14 70.33 407.06 84.53 422.50 95.96"
/>
<path stroke="#ffda80" vector-effect="non-scaling-stroke" d="
  M 422.50 95.96
  Q 425.59 97.92 429.25 97.96"
/>
<path stroke="#ffcd80" vector-effect="non-scaling-stroke" d="
  M 429.25 97.96
  Q 436.53 98.46 443.04 95.25"
/>
<path stroke="#ffbc80" vector-effect="non-scaling-stroke" d="
  M 443.04 95.25
  Q 445.33 93.80 446.46 95.61
  C 448.26 98.52 450.52 101.18 452.34 103.79
  A 1.02 1.01 -27.2 0 0 453.50 104.16
  Q 458.43 102.38 460.51 100.05"
/>
<path stroke="#ffb180" vector-effect="non-scaling-stroke" d="
  M 460.51 100.05
  C 463.33 98.42 468.87 94.05 467.99 89.74
  C 466.28 81.35 465.66 74.35 467.87 65.89
  C 470.05 57.54 471.36 48.80 473.72 40.68
  C 475.86 33.31 478.41 26.80 479.20 19.02
  C 479.85 12.68 474.06 8.60 468.24 9.44
  A 1.02 0.98 62.2 0 1 467.40 9.16
  C 463.71 5.55 458.68 23.11 458.25 24.71"
/>
<path stroke="#ff6d00" vector-effect="non-scaling-stroke" d="
  M 460.51 100.05
  Q 460.06 65.54 460.25 31.02
  C 460.25 29.79 459.66 24.83 458.25 24.71"
/>
<path stroke="#ff8a00" vector-effect="non-scaling-stroke" d="
  M 443.04 95.25
  L 442.16 72.32"
/>
<path stroke="#ffa800" vector-effect="non-scaling-stroke" d="
  M 432.11 67.41
  L 431.76 96.62
  A 1.01 1.00 84.2 0 1 430.97 97.59
  L 429.25 97.96"
/>
<path stroke="#ffbb00" vector-effect="non-scaling-stroke" d="
  M 422.50 95.96
  Q 423.07 55.70 422.56 15.44
  Q 422.53 12.82 421.42 11.52"
/>
<path stroke="#ffd380" vector-effect="non-scaling-stroke" d="
  M 30.41 7.87
  Q 23.06 10.10 18.61 14.47"
/>
<path stroke="#ffe180" vector-effect="non-scaling-stroke" d="
  M 18.61 14.47
  Q 15.87 15.41 16.75 17.77
  Q 16.85 18.01 16.80 18.28
  Q 16.18 22.22 15.85 29.43
  Q 15.31 41.36 10.62 53.32
  C 8.10 59.74 13.67 62.27 11.26 68.16
  C 9.01 73.69 8.81 80.86 8.34 86.79
  C 8.05 90.49 7.18 93.52 6.10 96.90
  A 0.99 0.99 0.0 0 0 6.52 98.05
  Q 11.88 101.42 18.77 102.31"
/>
<path stroke="#ffd380" vector-effect="non-scaling-stroke" d="
  M 18.77 102.31
  C 23.77 103.45 28.52 102.03 33.50 101.47"
/>
<path stroke="#ffc480" vector-effect="non-scaling-stroke" d="
  M 33.50 101.47
  Q 38.56 101.87 44.36 100.75"
/>
<path stroke="#ffb180" vector-effect="non-scaling-stroke" d="
  M 44.36 100.75
  Q 53.54 98.76 58.31 91.07
  C 66.51 77.85 74.78 66.18 62.61 52.88
  Q 60.23 50.28 57.78 47.49
  A 1.01 1.00 48.5 0 1 57.86 46.08
  Q 63.76 40.86 65.78 38.04
  Q 73.97 26.58 62.25 19.86
  A 1.01 1.00 -75.0 0 1 61.75 18.99
  L 61.75 17.60
  A 1.00 0.99 -74.4 0 0 61.28 16.75
  Q 55.34 13.02 48.34 10.75"
/>
<path stroke="#ffc480" vector-effect="non-scaling-stroke" d="
  M 48.34 10.75
  Q 39.69 7.28 30.41 7.87"
/>
<path stroke="#ff7500" vector-effect="non-scaling-stroke" d="
  M 48.34 10.75
  Q 47.36 18.96 47.44 27.19
  A 1.07 1.02 -26.8 0 1 47.21 27.84
  Q 46.75 28.39 46.00 28.71"
/>
<path stroke="#ffc480" vector-effect="non-scaling-stroke" d="
  M 46.00 28.71
  Q 38.94 25.21 31.04 26.00"
/>
<path stroke="#ff9800" vector-effect="non-scaling-stroke" d="
  M 31.04 26.00
  L 30.41 7.87"
/>
<path stroke="#ffd380" vector-effect="non-scaling-stroke" d="
  M 31.04 26.00
  C 29.90 29.22 30.01 32.76 29.71 35.45
  Q 28.99 42.17 28.45 48.51
  A 1.00 1.00 0.0 0 0 29.55 49.59
  L 37.83 48.68"
/>
<path stroke="#ff9800" vector-effect="non-scaling-stroke" d="
  M 37.83 48.68
  L 37.19 63.26"
/>
<path stroke="#ffd380" vector-effect="non-scaling-stroke" d="
  M 37.19 63.26
  Q 31.69 63.16 27.22 65.03
  A 1.04 1.00 -0.4 0 0 26.69 65.55
  C 24.82 69.85 21.06 81.79 25.80 85.20
  Q 28.23 86.95 33.95 87.49"
/>
<path stroke="#ff9800" vector-effect="non-scaling-stroke" d="
  M 33.95 87.49
  Q 35.11 94.58 33.50 101.47"
/>
<path stroke="#ffb500" vector-effect="non-scaling-stroke" d="
  M 18.77 102.31
  Q 19.45 58.37 18.61 14.47"
/>
<path stroke="#ffc480" vector-effect="non-scaling-stroke" d="
  M 45.68 46.21
  Q 41.88 47.97 37.83 48.68"
/>
<path stroke="#ff7500" vector-effect="non-scaling-stroke" d="
  M 44.36 100.75
  Q 45.77 92.46 43.49 84.42"
/>
<path stroke="#ffb180" vector-effect="non-scaling-stroke" d="
  M 43.49 84.42
  C 49.56 77.86 53.77 69.74 49.00 60.96"
/>
<path stroke="#ff7500" vector-effect="non-scaling-stroke" d="
  M 49.00 60.96
  C 47.83 60.97 47.24 60.59 47.18 59.35
  Q 46.87 52.67 45.68 46.21"
/>
<path stroke="#ffb180" vector-effect="non-scaling-stroke" d="
  M 45.68 46.21
  C 48.88 40.66 52.38 33.24 46.00 28.71"
/>
<path stroke="#ffc480" vector-effect="non-scaling-stroke" d="
  M 43.49 84.42
  Q 38.77 87.98 33.95 87.49"
/>
<path stroke="#ffc480" vector-effect="non-scaling-stroke" d="
  M 49.00 60.96
  L 37.19 63.26"
/>
<path stroke="#ffc480" vector-effect="non-scaling-stroke" d="
  M 205.61 8.41
  Q 199.06 10.55 193.94 14.03"
/>
<path stroke="#ffcd80" vector-effect="non-scaling-stroke" d="
  M 193.94 14.03
  Q 188.69 17.13 185.03 21.22"
/>
<path stroke="#ffda80" vector-effect="non-scaling-stroke" d="
  M 185.03 21.22
  L 181.74 23.92
  A 1.01 1.00 45.7 0 1 180.45 23.90
  C 174.43 18.72 171.61 26.51 169.60 30.40
  A 1.01 0.98 52.2 0 0 169.52 31.12
  Q 173.52 45.74 166.69 58.76
  C 164.79 62.38 164.89 64.83 165.50 68.60
  Q 166.02 71.80 168.92 71.91
  L 172.49 72.04
  A 1.00 0.99 -3.1 0 1 173.44 72.89
  Q 175.45 86.16 184.48 96.03"
/>
<path stroke="#ffcd80" vector-effect="non-scaling-stroke" d="
  M 184.48 96.03
  C 188.39 100.39 194.25 101.08 199.48 101.72"
/>
<path stroke="#ffbc80" vector-effect="non-scaling-stroke" d="
  M 199.48 101.72
  L 207.42 101.59"
/>
<path stroke="#ffb180" vector-effect="non-scaling-stroke" d="
  M 207.42 101.59
  C 212.85 100.86 216.84 98.76 222.34 99.07
  A 1.00 0.99 71.0 0 1 223.05 99.42
  Q 226.03 102.97 230.64 103.28
  A 1.01 1.00 8.8 0 0 231.69 102.52
  Q 233.16 96.46 232.06 90.24
  Q 231.85 89.07 232.71 88.25"
/>
<path stroke="#ff9c80" vector-effect="non-scaling-stroke" d="
  M 232.71 88.25
  C 246.06 73.45 252.20 49.92 242.74 31.34
  C 241.68 29.26 241.70 27.33 241.76 25.12
  A 1.05 1.02 25.8 0 0 241.52 24.46
  Q 237.59 19.75 232.72 15.97"
/>
<path stroke="#ffb180" vector-effect="non-scaling-stroke" d="
  M 232.72 15.97
  Q 223.93 9.10 212.75 8.04"
/>
<path stroke="#ffbc80" vector-effect="non-scaling-stroke" d="
  M 212.75 8.04
  Q 208.95 7.08 205.61 8.41"
/>
<path stroke="#ff6d00" vector-effect="non-scaling-stroke" d="
  M 212.75 8.04
  Q 214.15 9.19 213.02 10.50
  A 1.02 0.99 63.4 0 0 212.79 11.22
  Q 213.18 17.10 212.18 22.64"
/>
<path stroke="#ffbc80" vector-effect="non-scaling-stroke" d="
  M 212.18 22.64
  Q 209.19 22.32 206.65 23.89"
/>
<path stroke="#ff8000" vector-effect="non-scaling-stroke" d="
  M 206.65 23.89
  L 205.61 8.41"
/>
<path stroke="#ff4d00" vector-effect="non-scaling-stroke" d="
  M 232.72 15.97
  Q 231.22 16.62 231.23 19.25
  C 231.25 22.11 232.01 33.10 231.05 35.07
  Q 230.95 35.27 230.85 35.46
  A 0.52 0.52 0.0 0 1 230.03 35.56
  Q 229.65 35.16 228.96 35.50"
/>
<path stroke="#ffb180" vector-effect="non-scaling-stroke" d="
  M 228.96 35.50
  Q 223.49 24.99 212.18 22.64"
/>
<path stroke="#ffb180" vector-effect="non-scaling-stroke" d="
  M 231.65 71.30
  L 225.95 75.94
  A 1.00 1.00 0.0 0 1 224.42 75.61
  L 218.73 64.18
  A 1.00 0.99 68.9 0 0 217.57 63.66
  Q 210.77 65.51 205.59 70.31
  A 1.00 0.99 -39.2 0 0 205.45 71.62
  Q 209.61 77.44 211.80 84.25
  A 1.00 1.00 0.0 0 1 211.37 85.41
  Q 209.50 86.56 207.13 86.71"
/>
<path stroke="#ffbc80" vector-effect="non-scaling-stroke" d="
  M 207.13 86.71
  L 200.55 86.99"
/>
<path stroke="#ffc480" vector-effect="non-scaling-stroke" d="
  M 206.65 23.89
  Q 200.51 27.40 195.25 33.26"
/>
<path stroke="#ff9200" vector-effect="non-scaling-stroke" d="
  M 195.25 33.26
  L 193.94 14.03"
/>
<path stroke="#ff4d00" vector-effect="non-scaling-stroke" d="
  M 232.71 88.25
  Q 232.45 87.88 231.98 87.68
  A 0.99 0.99 0.0 0 1 231.37 86.78
  L 231.15 74.97
  A 0.97 0.95 21.2 0 0 230.82 74.25
  Q 229.51 73.06 231.14 72.28
  A 1.05 1.01 -86.2 0 0 231.57 71.89
  Q 232.24 70.74 231.65 71.30"
/>
<path stroke="#ff9c80" vector-effect="non-scaling-stroke" d="
  M 231.65 71.30
  Q 234.36 62.96 233.11 52.07
  Q 231.96 42.11 228.96 35.50"
/>
<path stroke="#ffcd80" vector-effect="non-scaling-stroke" d="
  M 195.25 33.26
  Q 188.09 44.20 187.86 59.01
  C 187.70 69.54 186.21 85.16 200.55 86.99"
/>
<path stroke="#ff8a00" vector-effect="non-scaling-stroke" d="
  M 200.55 86.99
  L 199.48 101.72"
/>
<path stroke="#ffa800" vector-effect="non-scaling-stroke" d="
  M 184.48 96.03
  Q 185.79 93.56 185.77 90.75
  Q 185.66 73.58 185.88 56.43
  C 185.92 53.61 185.50 50.15 185.64 46.99
  Q 186.22 34.11 185.03 21.22"
/>
<path stroke="#ff6d00" vector-effect="non-scaling-stroke" d="
  M 207.42 101.59
  Q 205.77 94.27 207.13 86.71"
/>
<path stroke="#ffbc80" vector-effect="non-scaling-stroke" d="
  M 292.86 24.16
  Q 293.25 27.00 292.54 29.50"
/>
<path stroke="#ffc480" vector-effect="non-scaling-stroke" d="
  M 292.54 29.50
  Q 287.84 52.87 284.77 78.94
  A 1.00 0.98 86.2 0 1 284.04 79.79
  L 279.07 81.10"
/>
<path stroke="#ffda80" vector-effect="non-scaling-stroke" d="
  M 279.07 81.10
  C 274.98 80.95 270.67 81.52 267.32 78.20
  Q 267.20 78.09 267.12 77.94
  L 266.66 77.01
  A 1.00 1.00 0.0 0 0 265.19 76.64
  Q 259.48 80.64 258.04 87.52
  Q 257.57 89.74 259.64 90.66
  Q 269.55 95.05 279.75 97.54"
/>
<path stroke="#ffc480" vector-effect="non-scaling-stroke" d="
  M 279.75 97.54
  L 289.39 100.11
  A 1.01 1.01 0.0 0 1 290.04 100.65
  L 290.68 102.02
  A 1.00 0.99 -12.7 0 0 291.60 102.60
  Q 293.64 102.55 294.42 101.98"
/>
<path stroke="#ffbc80" vector-effect="non-scaling-stroke" d="
  M 294.42 101.98
  C 299.06 101.70 303.37 101.32 307.61 101.31
  Q 312.90 101.30 313.14 95.96
  A 0.99 0.98 -73.6 0 0 312.66 95.06
  Q 304.33 90.06 299.13 81.83
  A 1.02 1.01 33.2 0 1 298.99 81.16
  C 300.77 68.99 302.32 56.58 304.41 44.63
  Q 305.69 37.30 306.76 30.03"
/>
<path stroke="#ffb180" vector-effect="non-scaling-stroke" d="
  M 306.76 30.03
  C 316.96 30.15 333.31 26.65 321.18 12.46
  A 1.02 0.99 76.6 0 0 320.69 12.15
  Q 313.71 10.17 306.50 10.54"
/>
<path stroke="#ffbc80" vector-effect="non-scaling-stroke" d="
  M 306.50 10.54
  L 293.50 9.29"
/>
<path stroke="#ffcd80" vector-effect="non-scaling-stroke" d="
  M 293.50 9.29
  L 279.19 8.01
  A 1.01 1.01 0.0 0 0 278.40 8.29
  C 274.77 11.84 272.27 17.21 274.07 22.28
  Q 274.86 24.48 275.82 26.70
  A 1.00 0.99 65.9 0 0 277.14 27.21
  Q 284.52 23.98 292.86 24.16"
/>
<path stroke="#ff8a00" vector-effect="non-scaling-stroke" d="
  M 293.50 9.29
  Q 293.94 16.96 292.86 24.16"
/>
<path stroke="#ff6d00" vector-effect="non-scaling-stroke" d="
  M 306.50 10.54
  Q 304.50 20.36 306.76 30.03"
/>
<path stroke="#ff8000" vector-effect="non-scaling-stroke" d="
  M 294.42 101.98
  Q 294.23 66.99 294.11 32.03
  C 294.11 30.88 293.50 29.99 292.54 29.50"
/>
<path stroke="#ff9e00" vector-effect="non-scaling-stroke" d="
  M 279.75 97.54
  C 280.65 93.08 279.97 89.12 279.85 84.68
  Q 279.79 82.81 279.07 81.10"
/>
<path stroke="#ffcd80" vector-effect="non-scaling-stroke" d="
  M 514.30 14.60
  Q 509.80 19.21 507.64 24.17
  Q 504.40 31.59 502.79 40.14"
/>
<path stroke="#ffda80" vector-effect="non-scaling-stroke" d="
  M 502.79 40.14
  Q 501.05 42.12 500.78 44.14
  A 1.03 1.02 -11.4 0 1 500.29 44.87
  L 495.00 47.98
  A 0.98 0.94 88.6 0 0 494.61 48.41
  C 493.53 50.64 492.01 53.72 492.49 56.25
  C 492.95 58.65 493.33 60.08 492.19 62.46
  C 489.50 68.08 485.91 74.66 485.42 80.95
  Q 484.84 88.31 484.27 95.70
  A 1.07 1.04 -62.4 0 0 484.47 96.38
  Q 487.18 99.98 491.32 101.73
  A 1.00 0.99 -51.5 0 0 492.30 101.61
  Q 497.43 97.85 498.75 94.23
  Q 500.06 90.62 503.90 74.49"
/>
<path stroke="#ffcd80" vector-effect="non-scaling-stroke" d="
  M 503.90 74.49
  L 510.00 72.96"
/>
<path stroke="#ffc480" vector-effect="non-scaling-stroke" d="
  M 510.00 72.96
  L 519.88 71.06"
/>
<path stroke="#ffbc80" vector-effect="non-scaling-stroke" d="
  M 519.88 71.06
  Q 522.77 70.40 522.23 72.99
  Q 521.69 75.59 520.29 88.41
  C 520.00 91.06 522.00 93.51 522.83 95.60
  Q 523.75 97.93 524.63 100.23
  Q 525.36 102.16 526.42 100.38
  Q 531.60 91.71 534.91 82.26"
/>
<path stroke="#ffb180" vector-effect="non-scaling-stroke" d="
  M 534.91 82.26
  Q 543.93 56.78 535.27 31.17"
/>
<path stroke="#ffbc80" vector-effect="non-scaling-stroke" d="
  M 535.27 31.17
  L 530.72 19.31
  A 1.05 1.00 43.7 0 1 530.69 18.67
  L 531.68 15.22
  A 1.00 0.99 25.9 0 0 531.30 14.14
  L 524.00 8.91
  A 1.00 0.98 45.5 0 0 522.86 8.89
  L 514.30 14.60"
/>
<path stroke="#ff6d00" vector-effect="non-scaling-stroke" d="
  M 535.27 31.17
  Q 533.31 34.09 533.45 38.25
  Q 533.93 53.31 533.56 76.18
  Q 533.53 78.28 534.91 82.26"
/>
<path stroke="#ff8000" vector-effect="non-scaling-stroke" d="
  M 519.88 71.06
  Q 519.16 64.01 519.50 57.04"
/>
<path stroke="#ffbc80" vector-effect="non-scaling-stroke" d="
  M 519.50 57.04
  Q 523.02 57.61 522.24 54.75
  C 521.30 51.32 520.64 47.86 519.59 44.48
  C 519.09 42.88 518.65 39.36 516.29 42.75"
/>
<path stroke="#ff8a00" vector-effect="non-scaling-stroke" d="
  M 516.29 42.75
  Q 515.77 42.20 516.07 41.88
  Q 516.72 41.19 516.51 41.17
  L 516.16 41.14
  A 1.00 0.99 -3.4 0 1 515.26 40.35
  Q 515.09 39.50 515.11 38.93
  Q 515.55 26.74 514.30 14.60"
/>
<path stroke="#ffc480" vector-effect="non-scaling-stroke" d="
  M 519.50 57.04
  Q 515.08 57.83 510.64 57.02"
/>
<path stroke="#ffcd80" vector-effect="non-scaling-stroke" d="
  M 516.29 42.75
  L 510.64 57.02"
/>
<path stroke="#ff9200" vector-effect="non-scaling-stroke" d="
  M 510.64 57.02
  Q 510.08 56.94 510.33 57.58
  A 1.07 0.95 41.7 0 1 510.39 58.10
  Q 509.24 65.49 510.00 72.96"
/>
<path stroke="#ffa800" vector-effect="non-scaling-stroke" d="
  M 503.90 74.49
  Q 504.28 57.30 502.79 40.14"
/>
<path stroke="#ffcd80" vector-effect="non-scaling-stroke" d="
  M 355.16 33.09
  Q 358.32 35.08 360.76 37.97
  A 1.00 0.96 27.4 0 1 360.99 38.65
  C 360.76 45.71 363.17 48.44 366.58 54.26
  A 0.99 0.98 38.0 0 1 366.68 55.04
  Q 364.22 63.73 362.48 73.57
  C 361.89 76.98 359.96 79.71 360.06 83.23
  Q 360.18 87.86 360.31 92.51
  Q 360.44 97.02 364.17 101.34
  A 1.00 0.99 -49.2 0 0 365.77 101.22
  Q 366.87 99.48 367.79 97.64
  C 369.62 94.00 374.13 88.52 374.75 85.99
  Q 376.72 77.83 379.25 69.79"
/>
<path stroke="#ffbc80" vector-effect="non-scaling-stroke" d="
  M 379.25 69.79
  C 381.50 64.59 380.49 60.38 381.64 55.25
  Q 383.61 46.46 384.63 37.47"
/>
<path stroke="#ffb180" vector-effect="non-scaling-stroke" d="
  M 384.63 37.47
  Q 389.53 33.21 393.26 28.03
  Q 397.70 21.89 398.99 14.37
  A 0.99 0.99 0.0 0 0 398.18 13.22
  Q 389.99 11.83 383.90 16.75"
/>
<path stroke="#ffbc80" vector-effect="non-scaling-stroke" d="
  M 383.90 16.75
  Q 379.23 19.86 376.42 23.93"
/>
<path stroke="#ffcd80" vector-effect="non-scaling-stroke" d="
  M 376.42 23.93
  L 373.51 27.59
  A 1.00 1.00 0.0 0 1 372.18 27.80
  Q 362.73 21.53 356.53 11.67"
/>
<path stroke="#ffe180" vector-effect="non-scaling-stroke" d="
  M 356.53 11.67
  L 355.51 8.78
  A 0.81 0.79 76.1 0 0 354.65 8.25
  Q 354.01 8.34 353.74 9.03
  A 1.04 1.01 -2.0 0 1 353.23 9.56
  Q 345.64 13.12 340.75 19.92
  A 1.01 1.00 34.6 0 0 341.02 21.34
  Q 348.51 26.26 355.16 33.09"
/>
<path stroke="#ffaf00" vector-effect="non-scaling-stroke" d="
  M 356.53 11.67
  L 355.16 33.09"
/>
<path stroke="#ff8a00" vector-effect="non-scaling-stroke" d="
  M 376.42 23.93
  Q 377.80 25.63 377.77 28.26
  Q 377.61 44.32 377.86 67.79
  A 0.81 0.79 -84.0 0 0 378.47 68.56
  Q 379.29 68.76 379.25 69.79"
/>
<path stroke="#ff6d00" vector-effect="non-scaling-stroke" d="
  M 384.63 37.47
  Q 385.04 27.11 383.90 16.75"
/>
<path stroke="#808080" vector-effect="non-scaling-stroke" d="
  M 190.56 72.29
  C 190.91 81.25 198.00 86.16 206.58 83.95
  Q 206.83 83.89 207.08 83.96
  Q 207.38 84.04 207.67 84.02
  A 1.00 0.99 77.5 0 0 208.54 82.65
  Q 206.37 77.27 202.88 72.58
  Q 201.60 70.87 203.08 69.32
  Q 209.63 62.44 219.07 60.74
  A 0.99 0.98 -18.4 0 1 220.14 61.27
  L 225.25 71.51
  A 1.01 1.00 60.5 0 0 226.69 71.91
  Q 230.90 69.21 230.85 65.04
  C 230.68 51.06 231.00 32.83 215.35 26.07
  Q 211.82 24.55 209.51 25.50
  C 190.06 33.56 189.88 54.80 190.56 72.29"
/>
<path stroke="#808080" vector-effect="non-scaling-stroke" d="
  M 31.94 41.94
  Q 31.91 43.15 31.37 45.79
  A 1.00 1.00 0.0 0 0 32.55 46.97
  L 42.91 44.81
  A 1.01 0.97 -77.9 0 0 43.53 44.39
  C 47.50 38.57 49.85 30.79 39.76 29.24
  Q 35.81 28.63 34.06 28.46
  A 1.00 1.00 0.0 0 0 32.97 29.32
  Q 32.11 35.64 31.94 41.94"
/>
<path stroke="#808080" vector-effect="non-scaling-stroke" d="
  M 516.60 48.87
  L 514.71 53.47
  A 1.00 1.00 0.0 0 0 515.68 54.85
  L 518.25 54.74
  A 1.01 1.01 0.0 0 0 519.18 53.51
  L 518.11 48.99
  Q 517.54 46.56 516.60 48.87"
/>
<path stroke="#808080" vector-effect="non-scaling-stroke" d="
  M 32.93 84.90
  C 39.62 85.70 43.36 81.64 46.42 76.20
  Q 49.31 71.05 47.92 64.80
  A 1.00 0.99 76.1 0 0 46.69 64.05
  Q 39.36 66.01 36.25 66.03
  Q 31.38 66.07 28.73 67.37
  A 1.02 1.01 83.8 0 0 28.19 68.05
  L 25.78 78.70
  Q 25.17 81.38 28.10 83.40
  Q 29.72 84.51 32.93 84.90"
/>
</g>
<path fill="#000000" d="
  M 610.56 0.00
  L 610.81 0.00
  C 614.71 1.12 613.78 3.90 615.20 6.82
  A 1.01 0.99 81.1 0 0 615.94 7.37
  Q 617.93 7.71 618.42 8.82
  Q 622.45 17.97 624.00 31.31
  L 624.00 39.81
  Q 622.48 46.44 624.00 53.06
  L 624.00 63.31
  Q 621.25 87.27 605.69 105.57
  A 1.01 0.94 -76.3 0 1 605.20 105.89
  Q 598.73 107.67 592.19 105.80
  A 0.96 0.96 0.0 0 1 591.68 105.47
  Q 585.01 97.12 579.80 87.86
  Q 578.65 85.81 577.97 88.07
  Q 575.40 96.68 574.78 105.65
  A 1.01 1.01 0.0 0 1 574.19 106.50
  Q 568.00 109.27 563.88 114.61
  A 1.06 1.03 12.3 0 1 563.28 114.98
  C 558.94 115.83 558.21 112.60 557.34 109.06
  A 1.06 1.05 -82.0 0 0 556.87 108.43
  L 553.98 106.75
  A 1.02 1.01 -81.7 0 1 553.50 106.10
  Q 552.17 100.03 547.68 95.72
  A 1.02 1.01 -65.2 0 1 547.38 94.89
  C 548.18 87.58 549.72 80.39 550.33 73.18
  C 550.63 69.49 550.81 66.09 551.62 62.34
  Q 553.38 54.28 553.93 46.03
  A 1.04 0.95 67.4 0 1 554.12 45.50
  C 555.76 43.31 556.94 41.50 556.93 38.57
  Q 556.93 32.29 558.24 28.51
  C 560.80 21.09 568.78 14.07 577.13 15.06
  C 582.02 15.64 589.06 17.78 589.20 23.85
  A 1.00 0.98 8.8 0 0 589.89 24.77
  Q 594.73 26.36 593.95 31.73
  A 0.41 0.40 8.4 0 0 594.30 32.19
  L 594.58 32.23
  A 0.21 0.21 0.0 0 0 594.82 32.05
  L 595.82 24.03
  A 1.03 0.98 35.2 0 0 595.70 23.42
  C 593.56 19.58 596.87 14.45 599.93 12.04
  C 602.61 9.91 603.36 6.97 606.26 4.80
  A 0.99 0.97 76.2 0 0 606.64 4.16
  Q 607.17 0.81 610.56 0.00
  Z
  M 590.49 51.40
  L 584.79 35.64
  A 1.01 0.99 46.5 0 1 584.80 34.93
  Q 587.25 28.80 586.59 22.22
  A 1.06 1.04 -69.6 0 0 586.34 21.66
  C 583.21 18.11 577.00 16.88 572.66 17.78
  C 564.63 19.45 559.24 28.44 559.37 36.32
  Q 559.47 42.42 556.40 46.22
  A 1.05 1.03 -25.0 0 0 556.19 46.78
  C 555.62 55.30 553.56 63.82 552.77 71.90
  Q 551.70 82.81 549.64 93.71
  A 1.01 0.99 28.8 0 0 549.91 94.60
  Q 554.22 98.97 555.69 104.96
  Q 556.17 106.93 557.44 105.34
  Q 561.36 100.42 566.99 97.72
  A 1.03 1.01 -11.3 0 0 567.56 96.88
  Q 568.34 84.21 573.71 72.80
  Q 574.48 71.17 575.45 72.68
  Q 578.44 77.28 579.11 79.43
  Q 581.60 87.42 586.46 94.20
  C 589.35 98.24 594.51 97.61 598.90 96.45
  A 1.02 0.95 -76.1 0 0 599.42 96.11
  Q 618.63 72.40 616.12 43.32
  Q 615.80 39.53 616.11 35.72
  C 616.89 26.42 616.17 17.33 613.19 8.45
  C 612.70 7.00 612.06 1.79 609.75 2.89
  A 1.02 1.00 86.0 0 0 609.23 3.50
  L 608.61 5.56
  A 0.99 0.98 -10.9 0 1 608.28 6.04
  Q 605.56 8.24 604.10 11.43
  A 0.97 0.93 -6.3 0 1 603.75 11.85
  Q 599.26 14.86 597.33 19.90
  A 1.06 1.03 -44.1 0 0 597.31 20.56
  Q 598.45 24.20 597.71 27.94
  Q 595.37 39.69 592.40 51.30
  Q 591.60 54.45 590.49 51.40
  Z"
/>
<path fill="#000000" d="
  M 131.69 117.00
  L 130.91 117.03
  Q 126.38 113.29 123.18 108.33
  A 1.00 1.00 0.0 0 0 121.98 107.94
  C 108.56 113.09 98.97 110.42 90.75 98.90
  C 85.23 91.16 80.77 84.71 81.02 75.38
  C 81.23 67.38 81.81 60.00 80.90 51.73
  C 79.69 40.62 82.74 27.68 86.35 16.57
  C 87.72 12.33 91.02 9.22 93.90 6.11
  Q 95.94 3.92 98.71 5.05
  C 103.76 7.11 106.58 8.95 108.13 14.34
  A 1.03 1.00 -84.4 0 0 108.62 14.95
  Q 113.17 17.37 113.02 22.74
  Q 112.96 24.83 116.48 31.50
  A 1.01 0.93 35.2 0 1 116.59 32.02
  C 116.47 34.26 115.16 57.93 116.68 57.31
  A 0.52 0.49 -89.4 0 0 116.96 57.02
  C 119.15 51.25 120.12 45.28 122.52 39.59
  Q 123.44 37.42 123.78 34.76
  C 124.46 29.37 127.01 25.53 128.35 20.51
  C 129.21 17.30 131.14 10.68 133.31 8.37
  C 135.72 5.81 140.53 -0.30 144.19 4.04
  A 1.05 1.03 -16.4 0 0 144.85 4.39
  Q 153.50 5.35 157.37 12.66
  C 159.21 16.13 162.84 18.51 163.01 22.64
  C 163.36 31.01 161.16 39.50 157.99 47.79
  C 156.46 51.78 155.64 56.76 154.95 61.22
  C 153.88 68.11 150.34 75.36 150.37 82.33
  Q 150.40 88.19 152.04 95.98
  C 154.13 105.89 139.31 114.53 131.69 117.00
  Z
  M 142.35 6.03
  Q 142.19 4.99 141.20 4.73
  A 1.02 1.01 -59.8 0 0 140.24 4.99
  C 137.92 7.30 135.15 9.22 133.80 12.25
  C 131.51 17.39 130.17 22.85 128.13 27.75
  Q 127.04 30.36 126.53 33.46
  C 125.63 38.91 123.24 43.26 122.18 48.59
  Q 120.90 55.04 117.11 60.52
  A 1.09 1.00 -30.1 0 0 116.93 61.10
  Q 116.96 65.12 115.66 68.89
  A 1.05 1.05 0.0 0 1 115.32 69.37
  C 112.51 71.47 109.66 68.33 108.42 65.95
  Q 107.47 64.12 107.71 61.37
  C 108.38 53.58 108.22 45.57 108.68 38.02
  C 108.93 33.71 110.05 26.62 108.12 22.72
  Q 105.72 17.85 105.05 12.37
  A 1.00 1.00 0.0 0 0 104.78 11.80
  Q 101.56 8.43 96.97 6.91
  A 1.02 1.01 28.4 0 0 95.86 7.24
  C 93.54 10.22 89.91 13.30 88.77 16.81
  C 85.58 26.64 82.81 37.84 82.96 48.22
  C 83.01 51.61 84.10 55.92 83.99 60.00
  C 83.79 66.81 82.53 75.16 83.98 81.21
  C 87.26 94.88 97.35 103.75 112.00 99.73
  Q 113.99 99.19 117.92 97.80
  A 1.00 1.00 0.0 0 1 119.05 98.15
  L 125.46 106.79
  A 0.99 0.98 63.1 0 0 126.56 107.15
  C 133.79 104.87 146.44 97.44 144.35 88.18
  Q 142.98 82.10 142.94 76.23
  Q 142.92 71.98 144.63 65.33
  C 147.10 55.78 148.54 45.89 151.84 36.60
  Q 154.96 27.83 155.91 18.52
  C 156.52 12.58 150.88 6.84 145.01 7.05
  Q 144.03 7.08 143.09 6.84
  A 0.99 0.99 0.0 0 1 142.35 6.03
  Z"
/>
<path fill="#000000" d="
  M 457.69 117.00
  L 457.17 117.02
  Q 452.36 113.46 449.17 108.36
  A 1.01 1.00 -25.3 0 0 447.99 107.94
  C 435.02 112.49 425.25 111.02 417.29 99.58
  C 413.64 94.34 409.91 89.70 407.92 83.15
  C 405.93 76.58 407.23 67.77 407.42 60.85
  C 407.61 54.28 406.14 47.04 407.02 40.00
  Q 408.52 28.04 412.63 15.83
  C 413.92 12.01 417.35 9.03 419.88 6.14
  Q 421.79 3.97 424.49 4.98
  C 428.26 6.39 433.55 9.26 433.91 13.83
  A 0.99 0.96 17.0 0 0 434.30 14.54
  C 439.27 18.38 437.87 18.96 439.45 24.15
  Q 440.58 27.85 442.36 31.27
  Q 442.48 31.50 442.47 31.76
  L 441.91 54.53
  Q 441.77 59.98 443.83 54.93
  Q 445.30 51.34 446.01 47.01
  C 446.64 43.10 449.10 39.39 449.70 35.13
  C 450.60 28.80 453.19 24.90 454.67 19.34
  C 455.52 16.17 457.56 9.97 459.90 7.73
  C 462.93 4.83 466.49 -0.07 470.20 4.06
  A 1.02 0.99 71.5 0 0 470.84 4.39
  Q 479.73 5.37 483.59 13.08
  C 484.72 15.35 486.41 16.70 487.77 18.80
  C 491.70 24.86 486.44 41.28 484.04 47.66
  C 482.54 51.63 481.65 56.63 480.97 61.06
  C 479.96 67.73 476.64 74.62 476.41 81.22
  Q 476.20 87.61 478.00 95.75
  C 480.24 105.82 465.41 114.48 457.69 117.00
  Z
  M 468.55 6.39
  L 467.75 5.26
  A 1.00 1.00 0.0 0 0 466.26 5.10
  C 463.91 7.26 460.80 9.50 459.68 12.62
  C 457.14 19.67 453.89 26.90 452.45 34.26
  C 451.46 39.32 449.20 43.32 448.25 48.33
  Q 447.02 54.78 443.33 60.25
  Q 443.20 60.44 443.17 60.67
  L 442.00 68.83
  A 1.00 1.00 0.0 0 1 441.40 69.61
  C 437.79 71.12 436.54 68.79 434.74 66.43
  Q 433.39 64.66 433.50 63.50
  Q 434.27 55.80 434.31 48.07
  C 434.35 40.89 435.02 33.93 435.09 26.82
  Q 435.11 24.90 434.14 22.88
  Q 431.80 17.97 431.09 12.49
  A 1.06 1.04 -71.1 0 0 430.83 11.95
  Q 427.65 8.43 423.11 6.97
  A 1.03 1.03 0.0 0 0 422.06 7.24
  C 419.13 10.42 415.77 13.57 414.43 17.84
  C 411.29 27.87 407.97 40.61 409.22 51.06
  Q 410.38 60.76 409.64 70.02
  C 408.98 78.24 409.60 82.76 413.31 89.43
  C 420.58 102.54 430.97 102.38 443.93 97.80
  A 1.00 1.00 0.0 0 1 445.06 98.15
  L 451.50 106.88
  A 1.00 1.00 0.0 0 0 452.62 107.23
  C 459.93 104.81 472.28 97.51 470.28 88.19
  C 468.70 80.88 468.34 74.38 470.29 66.77
  C 472.87 56.73 474.45 46.36 477.84 36.57
  Q 481.20 26.85 481.94 15.49
  Q 481.95 15.24 481.85 15.01
  Q 478.08 6.70 469.38 6.81
  A 0.99 0.98 -17.8 0 1 468.55 6.39
  Z"
/>
<path fill="#000000" d="
  M 35.90 114.22
  Q 21.21 116.87 7.93 109.02
  Q 5.24 107.42 5.91 104.37
  A 1.00 1.00 0.0 0 0 5.44 103.29
  C 2.31 101.45 -0.53 100.20 1.05 95.61
  Q 4.03 87.00 3.98 77.86
  C 3.96 74.28 5.58 68.51 6.84 65.16
  A 1.03 1.01 -49.2 0 0 6.79 64.35
  C 4.39 59.75 4.34 55.85 6.29 50.69
  C 10.96 38.40 10.81 26.48 11.98 13.63
  A 1.02 0.97 72.8 0 1 12.29 13.00
  C 17.61 7.93 26.20 2.34 33.82 2.80
  Q 51.62 3.87 66.32 14.25
  A 0.99 0.97 10.7 0 1 66.71 14.81
  L 67.28 16.98
  A 1.02 0.97 -81.8 0 0 67.67 17.53
  C 71.54 20.33 72.24 23.73 75.23 26.95
  C 83.46 35.82 77.43 46.45 70.15 53.15
  A 1.00 0.99 -42.3 0 0 70.08 54.55
  Q 86.06 72.56 73.04 91.88
  Q 71.09 94.79 69.02 98.51
  Q 60.43 113.95 42.04 113.71
  Q 38.95 113.67 35.90 114.22
  Z
  M 14.15 14.82
  C 13.20 30.38 13.05 39.89 8.22 52.13
  C 6.04 57.68 7.67 59.45 9.19 64.47
  A 1.09 1.00 46.4 0 1 9.20 65.02
  C 7.84 69.93 6.70 74.26 6.44 79.71
  Q 5.98 89.26 2.95 98.14
  A 1.01 1.00 -64.7 0 0 3.37 99.32
  Q 16.07 107.17 30.15 104.56
  Q 33.01 104.03 35.89 104.12
  C 53.11 104.63 58.09 96.48 66.22 82.96
  Q 78.36 62.76 61.37 47.63
  A 1.00 0.99 -43.6 0 1 61.41 46.11
  Q 65.92 42.45 69.20 37.65
  C 74.67 29.67 71.19 23.75 64.86 18.21
  A 1.02 1.00 28.2 0 1 64.55 17.21
  L 64.68 16.68
  A 1.00 0.99 23.8 0 0 64.26 15.61
  Q 50.79 6.67 34.77 5.09
  C 27.72 4.40 19.48 9.59 14.47 14.14
  A 0.99 0.97 70.9 0 0 14.15 14.82
  Z"
/>
<path fill="#000000" d="
  M 163.64 74.59
  Q 161.94 73.32 161.18 71.33
  C 158.88 65.35 159.97 61.12 162.89 55.16
  C 167.40 45.95 165.76 39.29 164.23 29.64
  A 1.00 0.98 -32.1 0 1 164.41 28.89
  C 166.40 26.16 167.72 22.16 169.86 20.30
  Q 173.64 17.01 180.70 17.78
  A 1.01 0.99 -64.1 0 0 181.51 17.49
  C 188.61 10.47 201.33 2.08 211.94 2.79
  C 223.69 3.58 235.13 9.87 243.07 18.44
  C 245.26 20.81 247.06 24.82 249.77 27.76
  C 251.98 30.18 252.48 32.29 252.00 35.45
  A 1.08 1.02 -56.0 0 0 252.10 36.05
  C 262.20 56.15 256.75 81.14 242.48 97.67
  A 1.03 0.99 -28.9 0 0 242.24 98.44
  Q 243.23 106.60 240.49 114.39
  A 1.02 1.02 0.0 0 1 239.75 115.04
  Q 231.33 116.76 225.38 111.10
  A 1.02 1.01 -32.9 0 0 224.34 110.88
  Q 208.84 116.53 193.94 111.89
  C 188.81 110.29 186.48 107.62 183.25 103.52
  Q 175.35 93.49 170.89 83.72
  A 1.07 1.05 5.1 0 0 170.54 83.31
  Q 168.58 81.97 167.15 80.09
  C 165.90 78.47 165.97 76.33 163.64 74.59
  Z
  M 166.19 73.56
  Q 167.26 74.28 170.57 74.91
  A 1.00 0.98 89.5 0 1 171.36 75.70
  C 173.05 84.40 179.68 99.07 188.86 102.09
  Q 203.61 106.94 218.58 101.48
  Q 220.60 100.74 222.07 102.16
  Q 226.47 106.41 232.72 105.99
  A 1.00 0.99 5.8 0 0 233.61 105.27
  Q 235.71 98.10 234.80 90.65
  A 1.00 0.98 61.0 0 1 235.00 89.92
  Q 241.16 81.81 242.27 79.72
  C 250.62 64.01 253.12 45.45 244.60 29.29
  A 0.99 0.96 -57.2 0 1 244.49 28.73
  C 244.76 26.10 244.71 24.46 242.98 22.29
  Q 230.55 6.76 210.75 5.10
  C 201.44 4.31 188.01 14.17 181.75 20.55
  A 1.00 1.00 0.0 0 1 180.64 20.77
  C 171.93 17.07 170.66 24.04 166.91 29.41
  A 0.97 0.96 58.5 0 0 166.74 30.12
  C 168.24 40.88 169.47 47.96 164.19 57.90
  C 161.75 62.51 161.30 70.31 166.19 73.56
  Z"
/>
<path fill="#000000" d="
  M 280.05 75.20
  C 280.90 71.27 280.68 67.51 281.74 63.62
  C 282.23 61.82 281.88 59.91 282.30 58.18
  C 283.99 51.37 283.46 44.90 285.91 39.27
  C 286.05 38.95 286.06 38.76 285.88 38.49
  A 0.34 0.33 55.6 0 0 285.42 38.40
  C 280.72 41.55 276.71 39.98 275.71 34.34
  Q 275.39 32.53 273.56 32.31
  C 271.59 32.07 268.15 21.31 268.29 19.35
  Q 268.98 9.50 276.76 2.74
  A 0.98 0.97 -60.3 0 1 277.59 2.51
  C 288.35 4.42 299.53 4.81 310.44 5.57
  C 314.14 5.83 322.87 6.10 325.55 9.71
  Q 330.26 16.07 334.28 22.87
  C 337.32 28.01 334.44 35.20 329.97 38.21
  Q 324.85 41.66 317.07 42.02
  A 1.00 0.99 4.1 0 0 316.14 42.82
  Q 313.65 55.30 312.06 67.91
  C 311.42 72.97 309.64 79.96 309.50 86.22
  A 1.01 0.97 -71.0 0 0 309.87 87.02
  C 312.56 89.20 319.36 92.20 318.34 96.05
  A 1.01 1.00 24.3 0 0 318.76 97.15
  L 321.69 99.05
  Q 324.33 100.76 323.64 102.80
  L 320.91 110.97
  A 1.04 1.03 89.5 0 1 320.30 111.60
  C 312.65 114.33 304.65 113.13 297.05 114.80
  Q 293.79 115.52 291.80 113.72
  A 1.09 1.02 15.1 0 1 291.49 113.22
  C 291.16 111.89 290.72 111.32 289.33 111.02
  Q 276.74 108.25 264.00 103.03
  Q 260.50 101.59 258.31 98.90
  A 1.05 1.02 23.6 0 1 258.09 98.36
  L 257.84 95.69
  A 1.01 1.01 0.0 0 0 257.21 94.85
  Q 251.66 92.69 253.24 86.24
  Q 255.74 76.07 264.29 71.23
  C 267.71 69.30 271.08 70.56 270.93 74.88
  A 1.01 1.00 -88.9 0 0 271.92 75.92
  L 279.06 75.98
  A 1.00 0.99 6.3 0 0 280.05 75.20
  Z
  M 290.19 27.68
  Q 290.10 27.96 290.04 28.26
  Q 285.21 52.37 282.31 76.83
  A 1.03 1.01 -5.6 0 1 281.60 77.67
  C 277.37 78.96 268.95 79.76 268.15 73.44
  A 1.00 1.00 0.0 0 0 266.71 72.67
  Q 256.90 77.57 255.24 88.55
  Q 254.82 91.31 257.72 92.60
  Q 271.97 98.95 287.29 102.08
  A 0.99 0.99 0.0 0 1 288.07 102.86
  L 288.39 104.45
  A 1.01 1.01 0.0 0 0 289.40 105.26
  C 294.07 105.14 298.31 104.11 303.12 104.07
  Q 308.16 104.04 313.29 102.71
  A 1.01 1.00 -87.1 0 0 313.99 102.07
  L 316.29 95.22
  A 1.01 1.00 -66.4 0 0 315.83 94.03
  Q 307.32 89.26 301.81 81.29
  A 1.01 0.99 31.9 0 1 301.64 80.59
  Q 304.77 56.83 308.98 33.24
  A 0.99 0.99 0.0 0 1 310.00 32.42
  C 316.91 32.67 326.85 30.03 327.97 21.85
  C 328.55 17.53 325.19 12.79 322.39 9.66
  A 0.99 0.96 72.5 0 0 321.80 9.34
  C 307.35 7.13 292.02 7.39 278.49 5.10
  A 1.01 0.99 -60.0 0 0 277.67 5.33
  Q 271.59 10.59 270.81 18.42
  C 270.46 21.96 272.50 25.14 273.50 28.35
  Q 274.37 31.15 277.27 29.97
  Q 283.06 27.61 289.31 26.64
  A 0.81 0.80 -85.6 0 1 290.19 27.68
  Z"
/>
<path fill="#ffffff" d="
  M 590.49 51.40
  Q 591.60 54.45 592.40 51.30
  Q 595.37 39.69 597.71 27.94
  Q 598.45 24.20 597.31 20.56
  A 1.06 1.03 -44.1 0 1 597.33 19.90
  Q 599.26 14.86 603.75 11.85
  A 0.97 0.93 -6.3 0 0 604.10 11.43
  Q 605.56 8.24 608.28 6.04
  A 0.99 0.98 -10.9 0 0 608.61 5.56
  L 609.23 3.50
  A 1.02 1.00 86.0 0 1 609.75 2.89
  C 612.06 1.79 612.70 7.00 613.19 8.45
  C 616.17 17.33 616.89 26.42 616.11 35.72
  Q 615.80 39.53 616.12 43.32
  Q 618.63 72.40 599.42 96.11
  A 1.02 0.95 -76.1 0 1 598.90 96.45
  C 594.51 97.61 589.35 98.24 586.46 94.20
  Q 581.60 87.42 579.11 79.43
  Q 578.44 77.28 575.45 72.68
  Q 574.48 71.17 573.71 72.80
  Q 568.34 84.21 567.56 96.88
  A 1.03 1.01 -11.3 0 1 566.99 97.72
  Q 561.36 100.42 557.44 105.34
  Q 556.17 106.93 555.69 104.96
  Q 554.22 98.97 549.91 94.60
  A 1.01 0.99 28.8 0 1 549.64 93.71
  Q 551.70 82.81 552.77 71.90
  C 553.56 63.82 555.62 55.30 556.19 46.78
  A 1.05 1.03 -25.0 0 1 556.40 46.22
  Q 559.47 42.42 559.37 36.32
  C 559.24 28.44 564.63 19.45 572.66 17.78
  C 577.00 16.88 583.21 18.11 586.34 21.66
  A 1.06 1.04 -69.6 0 1 586.59 22.22
  Q 587.25 28.80 584.80 34.93
  A 1.01 0.99 46.5 0 0 584.79 35.64
  L 590.49 51.40
  Z
  M 599.79 33.46
  L 593.29 58.50
  Q 591.36 60.49 590.18 57.46
  Q 585.95 46.63 582.11 35.60
  A 0.97 0.96 46.8 0 1 582.13 34.89
  C 583.90 30.63 586.75 21.72 579.49 20.79
  Q 575.93 19.19 571.71 20.75
  Q 568.42 22.17 566.21 25.00
  C 562.25 28.71 561.87 35.16 561.96 40.24
  C 562.02 43.72 559.14 45.87 558.67 49.58
  Q 557.84 56.19 556.75 62.76
  C 555.13 72.44 554.51 82.85 552.42 92.88
  A 1.02 0.99 30.3 0 0 552.66 93.75
  Q 555.27 96.66 556.86 100.21
  A 1.01 1.00 58.7 0 0 558.40 100.59
  L 564.68 95.58
  A 0.99 0.98 75.7 0 0 565.05 94.95
  L 566.94 82.27
  L 573.29 68.25
  C 575.23 66.10 576.64 69.97 578.00 71.11
  Q 582.05 81.06 587.19 90.47
  C 588.95 93.67 591.10 95.45 594.75 94.48
  C 598.67 94.76 601.02 90.04 602.29 87.75
  Q 616.27 67.22 613.40 42.66
  Q 613.03 39.54 613.41 36.34
  Q 615.06 22.42 610.75 9.06
  Q 610.09 7.02 608.95 8.83
  Q 606.47 12.78 602.92 16.13
  C 600.45 18.48 599.52 20.31 600.67 23.54
  Q 600.74 23.75 600.72 23.97
  L 599.79 33.46
  Z"
/>
<path fill="#000000" d="
  M 371.22 20.96
  A 1.00 0.99 -54.0 0 0 372.58 20.74
  C 379.53 11.66 389.57 5.60 401.33 8.75
  C 404.20 9.52 404.92 11.84 403.90 14.42
  A 1.00 0.99 -81.4 0 0 404.90 15.78
  Q 407.64 15.58 409.61 18.22
  A 1.04 1.03 -59.3 0 1 409.80 18.98
  Q 407.12 35.83 394.68 46.85
  A 0.97 0.96 -17.4 0 0 394.35 47.48
  Q 393.43 55.47 391.55 63.23
  C 390.65 66.95 391.62 70.53 390.56 73.99
  C 388.91 79.38 386.84 84.65 385.81 90.26
  C 385.01 94.59 380.90 103.05 377.82 105.74
  A 1.08 1.03 79.7 0 0 377.53 106.18
  C 376.27 109.90 371.57 118.64 366.47 114.22
  Q 365.74 113.59 364.96 111.55
  C 363.67 108.17 360.26 107.25 359.81 103.78
  A 1.00 0.95 21.2 0 0 359.56 103.25
  C 354.56 97.61 355.19 90.95 354.87 82.49
  Q 354.79 80.44 355.67 78.32
  Q 357.87 73.05 358.65 67.40
  C 359.21 63.35 360.50 59.72 361.19 55.77
  A 1.15 1.10 39.8 0 0 361.13 55.22
  C 359.43 51.06 357.01 48.69 355.93 43.77
  A 0.99 0.98 12.1 0 0 355.55 43.19
  C 353.52 41.67 352.53 39.60 350.69 38.16
  Q 348.15 36.19 345.56 34.30
  A 1.03 1.02 66.1 0 0 345.07 34.11
  Q 341.31 33.75 340.87 27.95
  A 1.00 0.99 88.4 0 0 339.90 27.03
  C 335.49 26.90 334.95 19.28 336.93 16.68
  Q 341.66 10.48 348.05 6.72
  C 352.81 3.92 353.22 1.14 359.25 5.22
  A 0.94 0.93 -80.8 0 1 359.65 5.78
  Q 360.74 9.74 363.96 12.04
  A 1.09 1.05 -83.4 0 1 364.29 12.47
  Q 366.51 17.70 371.22 20.96
  Z
  M 371.62 24.25
  Q 362.11 17.50 357.33 6.81
  A 0.98 0.97 83.1 0 0 356.60 6.23
  L 353.56 5.68
  A 1.01 1.00 20.0 0 0 352.52 6.16
  L 351.99 7.08
  A 0.97 0.97 0.0 0 1 351.57 7.47
  C 346.84 9.86 341.22 13.93 338.50 18.81
  C 337.56 20.50 338.22 22.33 339.01 23.92
  A 1.00 1.00 0.0 0 0 339.85 24.47
  L 340.93 24.53
  A 0.95 0.95 0.0 0 1 341.44 24.70
  Q 345.91 27.72 349.63 31.59
  C 352.24 34.31 355.67 36.14 358.19 39.23
  A 1.00 1.00 0.0 0 1 358.42 39.92
  C 358.06 46.25 360.84 49.37 363.67 54.64
  A 0.98 0.96 -52.5 0 1 363.76 55.36
  C 361.24 65.43 360.78 73.46 357.17 80.58
  Q 357.05 80.82 357.06 81.09
  Q 357.41 87.85 358.10 94.59
  C 358.50 98.51 361.57 102.48 363.53 105.81
  A 1.00 1.00 0.0 0 0 365.10 106.01
  C 368.49 102.59 370.32 98.08 372.66 94.62
  C 375.18 90.91 377.08 87.69 378.20 83.11
  C 379.59 77.35 383.71 68.37 383.46 62.83
  Q 383.25 57.94 384.74 53.25
  Q 385.46 50.98 387.15 38.79
  A 1.00 0.98 -16.7 0 1 387.50 38.16
  Q 399.61 28.03 402.12 12.33
  A 1.01 1.00 12.8 0 0 401.41 11.21
  Q 391.74 8.35 383.31 13.85
  Q 377.61 17.57 373.02 24.01
  A 1.00 1.00 0.0 0 1 371.62 24.25
  Z"
/>
<path fill="#000000" d="
  M 514.56 85.22
  Q 513.91 85.28 513.45 85.81
  Q 513.09 86.22 512.81 87.28
  Q 510.53 95.79 507.91 104.18
  C 506.86 107.54 502.55 110.77 500.21 113.14
  Q 498.54 114.82 496.27 114.12
  Q 488.13 111.57 484.37 104.53
  C 483.22 102.38 482.58 101.42 480.92 100.02
  Q 479.16 98.54 479.30 96.25
  Q 479.81 87.95 480.43 79.99
  C 480.96 73.31 485.08 65.78 487.87 59.72
  A 1.01 0.97 54.4 0 0 487.95 59.17
  C 487.62 56.71 486.93 54.49 487.74 52.09
  Q 489.02 48.29 491.03 44.85
  Q 491.16 44.64 491.37 44.51
  L 496.24 41.45
  A 0.99 0.98 83.0 0 0 496.65 40.92
  C 498.93 34.12 500.80 26.56 504.25 20.34
  Q 506.35 16.57 508.89 12.40
  Q 509.01 12.21 509.19 12.08
  L 523.36 2.71
  A 1.01 1.01 0.0 0 1 524.60 2.82
  Q 529.00 6.93 534.42 10.05
  C 536.50 11.25 537.50 12.48 536.89 14.85
  A 1.00 1.00 0.0 0 0 537.34 15.95
  L 540.72 18.02
  Q 543.05 19.45 541.99 21.74
  C 541.02 23.84 540.63 25.61 541.67 27.90
  C 554.55 56.32 550.98 88.63 533.17 114.18
  C 529.11 120.00 525.86 111.10 524.61 108.76
  A 1.03 1.00 -5.6 0 0 524.00 108.27
  C 521.44 107.53 519.51 100.85 518.56 98.46
  C 516.91 94.30 514.26 91.98 515.62 86.46
  A 1.01 1.00 -85.6 0 0 514.56 85.22
  Z
  M 506.89 76.30
  L 518.10 74.13
  A 1.00 0.99 89.2 0 1 519.27 75.28
  Q 518.14 82.00 517.75 89.26
  C 517.57 92.54 519.46 94.48 520.37 96.72
  Q 522.32 101.54 524.14 105.60
  Q 524.87 107.24 525.88 105.76
  Q 553.74 64.66 533.48 19.07
  A 0.99 0.99 0.0 0 1 533.42 18.43
  L 534.59 13.58
  A 1.01 1.00 -70.5 0 0 534.05 12.44
  Q 528.71 9.88 524.49 5.70
  A 0.99 0.99 0.0 0 0 523.23 5.58
  Q 517.84 9.20 512.42 12.81
  C 505.58 17.36 501.18 34.83 498.68 42.46
  A 1.07 1.06 83.2 0 1 498.25 43.01
  C 495.84 44.48 493.34 45.37 491.95 47.89
  Q 488.89 53.43 490.27 59.93
  A 1.03 1.01 52.4 0 1 490.19 60.58
  C 487.03 66.99 483.30 74.13 482.69 81.35
  Q 482.04 88.88 481.63 96.77
  A 1.01 0.99 -62.6 0 0 481.83 97.43
  Q 485.91 102.68 492.07 104.77
  A 1.02 1.00 34.0 0 0 493.04 104.59
  C 496.30 101.83 499.98 98.79 501.21 94.53
  Q 503.73 85.78 506.12 77.02
  A 1.00 0.99 1.9 0 1 506.89 76.30
  Z"
/>
<path fill="#ffffff" d="
  M 143.09 6.84
  Q 144.03 7.08 145.01 7.05
  C 150.88 6.84 156.52 12.58 155.91 18.52
  Q 154.96 27.83 151.84 36.60
  C 148.54 45.89 147.10 55.78 144.63 65.33
  Q 142.92 71.98 142.94 76.23
  Q 142.98 82.10 144.35 88.18
  C 146.44 97.44 133.79 104.87 126.56 107.15
  A 0.99 0.98 63.1 0 1 125.46 106.79
  L 119.05 98.15
  A 1.00 1.00 0.0 0 0 117.92 97.80
  Q 113.99 99.19 112.00 99.73
  C 97.35 103.75 87.26 94.88 83.98 81.21
  C 82.53 75.16 83.79 66.81 83.99 60.00
  C 84.10 55.92 83.01 51.61 82.96 48.22
  C 82.81 37.84 85.58 26.64 88.77 16.81
  C 89.91 13.30 93.54 10.22 95.86 7.24
  A 1.02 1.01 28.4 0 1 96.97 6.91
  Q 101.56 8.43 104.78 11.80
  A 1.00 1.00 0.0 0 1 105.05 12.37
  Q 105.72 17.85 108.12 22.72
  C 110.05 26.62 108.93 33.71 108.68 38.02
  C 108.22 45.57 108.38 53.58 107.71 61.37
  Q 107.47 64.12 108.42 65.95
  C 109.66 68.33 112.51 71.47 115.32 69.37
  A 1.05 1.05 0.0 0 0 115.66 68.89
  Q 116.96 65.12 116.93 61.10
  A 1.09 1.00 -30.1 0 1 117.11 60.52
  Q 120.90 55.04 122.18 48.59
  C 123.24 43.26 125.63 38.91 126.53 33.46
  Q 127.04 30.36 128.13 27.75
  C 130.17 22.85 131.51 17.39 133.80 12.25
  C 135.15 9.22 137.92 7.30 140.24 4.99
  A 1.02 1.01 -59.8 0 1 141.20 4.73
  Q 142.19 4.99 142.35 6.03
  A 0.99 0.99 0.0 0 0 143.09 6.84
  Z
  M 132.37 25.98
  Q 128.89 31.20 128.38 36.87
  Q 128.18 39.00 127.58 40.52
  C 124.83 47.43 123.92 54.98 119.71 61.75
  C 119.42 66.53 118.85 73.15 112.29 72.75
  C 102.07 68.32 105.81 60.41 105.73 51.49
  Q 105.61 38.88 106.77 26.30
  A 1.03 1.01 34.5 0 0 106.66 25.73
  Q 104.09 20.94 103.05 15.62
  Q 102.56 13.10 101.32 11.97
  Q 99.10 9.95 96.52 10.71
  Q 92.08 15.14 91.53 16.80
  C 88.10 27.10 84.27 41.64 85.98 52.44
  C 88.47 68.04 80.72 83.61 95.96 95.50
  Q 103.61 100.04 111.93 97.00
  C 115.00 96.30 118.90 93.32 121.16 96.28
  L 126.42 103.74
  A 1.02 1.00 64.5 0 0 127.50 104.13
  Q 131.10 103.15 133.07 101.01
  C 136.77 99.05 142.92 94.26 141.99 89.74
  C 140.27 81.40 139.59 74.21 141.88 65.90
  C 144.60 56.04 145.71 45.73 149.27 36.11
  C 152.07 28.52 158.76 7.85 142.24 9.41
  Q 141.59 9.47 140.95 9.01
  A 1.00 0.99 43.4 0 0 139.74 9.04
  Q 136.87 11.34 135.22 15.74
  Q 132.76 22.31 132.37 25.98
  Z"
/>
<path fill="#ffffff" d="
  M 469.38 6.81
  Q 478.08 6.70 481.85 15.01
  Q 481.95 15.24 481.94 15.49
  Q 481.20 26.85 477.84 36.57
  C 474.45 46.36 472.87 56.73 470.29 66.77
  C 468.34 74.38 468.70 80.88 470.28 88.19
  C 472.28 97.51 459.93 104.81 452.62 107.23
  A 1.00 1.00 0.0 0 1 451.50 106.88
  L 445.06 98.15
  A 1.00 1.00 0.0 0 0 443.93 97.80
  C 430.97 102.38 420.58 102.54 413.31 89.43
  C 409.60 82.76 408.98 78.24 409.64 70.02
  Q 410.38 60.76 409.22 51.06
  C 407.97 40.61 411.29 27.87 414.43 17.84
  C 415.77 13.57 419.13 10.42 422.06 7.24
  A 1.03 1.03 0.0 0 1 423.11 6.97
  Q 427.65 8.43 430.83 11.95
  A 1.06 1.04 -71.1 0 1 431.09 12.49
  Q 431.80 17.97 434.14 22.88
  Q 435.11 24.90 435.09 26.82
  C 435.02 33.93 434.35 40.89 434.31 48.07
  Q 434.27 55.80 433.50 63.50
  Q 433.39 64.66 434.74 66.43
  C 436.54 68.79 437.79 71.12 441.40 69.61
  A 1.00 1.00 0.0 0 0 442.00 68.83
  L 443.17 60.67
  Q 443.20 60.44 443.33 60.25
  Q 447.02 54.78 448.25 48.33
  C 449.20 43.32 451.46 39.32 452.45 34.26
  C 453.89 26.90 457.14 19.67 459.68 12.62
  C 460.80 9.50 463.91 7.26 466.26 5.10
  A 1.00 1.00 0.0 0 1 467.75 5.26
  L 468.55 6.39
  A 0.99 0.98 -17.8 0 0 469.38 6.81
  Z
  M 458.25 24.71
  C 456.95 27.78 455.66 30.41 455.13 33.91
  C 454.41 38.71 452.21 43.57 451.22 47.27
  C 449.76 52.70 449.11 56.08 445.61 61.72
  A 1.04 1.01 60.6 0 0 445.46 62.29
  Q 445.74 68.39 442.16 72.32
  Q 435.36 73.67 432.11 67.41
  Q 430.47 62.96 431.14 58.08
  C 432.54 47.82 431.83 37.02 432.75 26.57
  A 0.93 0.93 0.0 0 0 432.65 26.04
  Q 430.25 21.10 429.07 15.74
  Q 428.42 12.74 427.09 11.60
  Q 424.59 9.45 421.42 11.52
  C 419.57 14.03 417.80 15.87 416.86 18.88
  C 413.74 28.84 410.60 41.32 411.90 51.96
  C 414.14 70.33 407.06 84.53 422.50 95.96
  Q 425.59 97.92 429.25 97.96
  Q 436.53 98.46 443.04 95.25
  Q 445.33 93.80 446.46 95.61
  C 448.26 98.52 450.52 101.18 452.34 103.79
  A 1.02 1.01 -27.2 0 0 453.50 104.16
  Q 458.43 102.38 460.51 100.05
  C 463.33 98.42 468.87 94.05 467.99 89.74
  C 466.28 81.35 465.66 74.35 467.87 65.89
  C 470.05 57.54 471.36 48.80 473.72 40.68
  C 475.86 33.31 478.41 26.80 479.20 19.02
  C 479.85 12.68 474.06 8.60 468.24 9.44
  A 1.02 0.98 62.2 0 1 467.40 9.16
  C 463.71 5.55 458.68 23.11 458.25 24.71
  Z"
/>
<path fill="#ffffff" d="
  M 8.22 52.13
  C 13.05 39.89 13.20 30.38 14.15 14.82
  A 0.99 0.97 70.9 0 1 14.47 14.14
  C 19.48 9.59 27.72 4.40 34.77 5.09
  Q 50.79 6.67 64.26 15.61
  A 1.00 0.99 23.8 0 1 64.68 16.68
  L 64.55 17.21
  A 1.02 1.00 28.2 0 0 64.86 18.21
  C 71.19 23.75 74.67 29.67 69.20 37.65
  Q 65.92 42.45 61.41 46.11
  A 1.00 0.99 -43.6 0 0 61.37 47.63
  Q 78.36 62.76 66.22 82.96
  C 58.09 96.48 53.11 104.63 35.89 104.12
  Q 33.01 104.03 30.15 104.56
  Q 16.07 107.17 3.37 99.32
  A 1.01 1.00 -64.7 0 1 2.95 98.14
  Q 5.98 89.26 6.44 79.71
  C 6.70 74.26 7.84 69.93 9.20 65.02
  A 1.09 1.00 46.4 0 0 9.19 64.47
  C 7.67 59.45 6.04 57.68 8.22 52.13
  Z
  M 30.41 7.87
  Q 23.06 10.10 18.61 14.47
  Q 15.87 15.41 16.75 17.77
  Q 16.85 18.01 16.80 18.28
  Q 16.18 22.22 15.85 29.43
  Q 15.31 41.36 10.62 53.32
  C 8.10 59.74 13.67 62.27 11.26 68.16
  C 9.01 73.69 8.81 80.86 8.34 86.79
  C 8.05 90.49 7.18 93.52 6.10 96.90
  A 0.99 0.99 0.0 0 0 6.52 98.05
  Q 11.88 101.42 18.77 102.31
  C 23.77 103.45 28.52 102.03 33.50 101.47
  Q 38.56 101.87 44.36 100.75
  Q 53.54 98.76 58.31 91.07
  C 66.51 77.85 74.78 66.18 62.61 52.88
  Q 60.23 50.28 57.78 47.49
  A 1.01 1.00 48.5 0 1 57.86 46.08
  Q 63.76 40.86 65.78 38.04
  Q 73.97 26.58 62.25 19.86
  A 1.01 1.00 -75.0 0 1 61.75 18.99
  L 61.75 17.60
  A 1.00 0.99 -74.4 0 0 61.28 16.75
  Q 55.34 13.02 48.34 10.75
  Q 39.69 7.28 30.41 7.87
  Z"
/>
<path fill="#ffffff" d="
  M 166.19 73.56
  C 161.30 70.31 161.75 62.51 164.19 57.90
  C 169.47 47.96 168.24 40.88 166.74 30.12
  A 0.97 0.96 58.5 0 1 166.91 29.41
  C 170.66 24.04 171.93 17.07 180.64 20.77
  A 1.00 1.00 0.0 0 0 181.75 20.55
  C 188.01 14.17 201.44 4.31 210.75 5.10
  Q 230.55 6.76 242.98 22.29
  C 244.71 24.46 244.76 26.10 244.49 28.73
  A 0.99 0.96 -57.2 0 0 244.60 29.29
  C 253.12 45.45 250.62 64.01 242.27 79.72
  Q 241.16 81.81 235.00 89.92
  A 1.00 0.98 61.0 0 0 234.80 90.65
  Q 235.71 98.10 233.61 105.27
  A 1.00 0.99 5.8 0 1 232.72 105.99
  Q 226.47 106.41 222.07 102.16
  Q 220.60 100.74 218.58 101.48
  Q 203.61 106.94 188.86 102.09
  C 179.68 99.07 173.05 84.40 171.36 75.70
  A 1.00 0.98 89.5 0 0 170.57 74.91
  Q 167.26 74.28 166.19 73.56
  Z
  M 205.61 8.41
  Q 199.06 10.55 193.94 14.03
  Q 188.69 17.13 185.03 21.22
  L 181.74 23.92
  A 1.01 1.00 45.7 0 1 180.45 23.90
  C 174.43 18.72 171.61 26.51 169.60 30.40
  A 1.01 0.98 52.2 0 0 169.52 31.12
  Q 173.52 45.74 166.69 58.76
  C 164.79 62.38 164.89 64.83 165.50 68.60
  Q 166.02 71.80 168.92 71.91
  L 172.49 72.04
  A 1.00 0.99 -3.1 0 1 173.44 72.89
  Q 175.45 86.16 184.48 96.03
  C 188.39 100.39 194.25 101.08 199.48 101.72
  L 207.42 101.59
  C 212.85 100.86 216.84 98.76 222.34 99.07
  A 1.00 0.99 71.0 0 1 223.05 99.42
  Q 226.03 102.97 230.64 103.28
  A 1.01 1.00 8.8 0 0 231.69 102.52
  Q 233.16 96.46 232.06 90.24
  Q 231.85 89.07 232.71 88.25
  C 246.06 73.45 252.20 49.92 242.74 31.34
  C 241.68 29.26 241.70 27.33 241.76 25.12
  A 1.05 1.02 25.8 0 0 241.52 24.46
  Q 237.59 19.75 232.72 15.97
  Q 223.93 9.10 212.75 8.04
  Q 208.95 7.08 205.61 8.41
  Z"
/>
<path fill="#ffffff" d="
  M 289.31 26.64
  Q 283.06 27.61 277.27 29.97
  Q 274.37 31.15 273.50 28.35
  C 272.50 25.14 270.46 21.96 270.81 18.42
  Q 271.59 10.59 277.67 5.33
  A 1.01 0.99 -60.0 0 1 278.49 5.10
  C 292.02 7.39 307.35 7.13 321.80 9.34
  A 0.99 0.96 72.5 0 1 322.39 9.66
  C 325.19 12.79 328.55 17.53 327.97 21.85
  C 326.85 30.03 316.91 32.67 310.00 32.42
  A 0.99 0.99 0.0 0 0 308.98 33.24
  Q 304.77 56.83 301.64 80.59
  A 1.01 0.99 31.9 0 0 301.81 81.29
  Q 307.32 89.26 315.83 94.03
  A 1.01 1.00 -66.4 0 1 316.29 95.22
  L 313.99 102.07
  A 1.01 1.00 -87.1 0 1 313.29 102.71
  Q 308.16 104.04 303.12 104.07
  C 298.31 104.11 294.07 105.14 289.40 105.26
  A 1.01 1.01 0.0 0 1 288.39 104.45
  L 288.07 102.86
  A 0.99 0.99 0.0 0 0 287.29 102.08
  Q 271.97 98.95 257.72 92.60
  Q 254.82 91.31 255.24 88.55
  Q 256.90 77.57 266.71 72.67
  A 1.00 1.00 0.0 0 1 268.15 73.44
  C 268.95 79.76 277.37 78.96 281.60 77.67
  A 1.03 1.01 -5.6 0 0 282.31 76.83
  Q 285.21 52.37 290.04 28.26
  Q 290.10 27.96 290.19 27.68
  A 0.81 0.80 -85.6 0 0 289.31 26.64
  Z
  M 292.86 24.16
  Q 293.25 27.00 292.54 29.50
  Q 287.84 52.87 284.77 78.94
  A 1.00 0.98 86.2 0 1 284.04 79.79
  L 279.07 81.10
  C 274.98 80.95 270.67 81.52 267.32 78.20
  Q 267.20 78.09 267.12 77.94
  L 266.66 77.01
  A 1.00 1.00 0.0 0 0 265.19 76.64
  Q 259.48 80.64 258.04 87.52
  Q 257.57 89.74 259.64 90.66
  Q 269.55 95.05 279.75 97.54
  L 289.39 100.11
  A 1.01 1.01 0.0 0 1 290.04 100.65
  L 290.68 102.02
  A 1.00 0.99 -12.7 0 0 291.60 102.60
  Q 293.64 102.55 294.42 101.98
  C 299.06 101.70 303.37 101.32 307.61 101.31
  Q 312.90 101.30 313.14 95.96
  A 0.99 0.98 -73.6 0 0 312.66 95.06
  Q 304.33 90.06 299.13 81.83
  A 1.02 1.01 33.2 0 1 298.99 81.16
  C 300.77 68.99 302.32 56.58 304.41 44.63
  Q 305.69 37.30 306.76 30.03
  C 316.96 30.15 333.31 26.65 321.18 12.46
  A 1.02 0.99 76.6 0 0 320.69 12.15
  Q 313.71 10.17 306.50 10.54
  L 293.50 9.29
  L 279.19 8.01
  A 1.01 1.01 0.0 0 0 278.40 8.29
  C 274.77 11.84 272.27 17.21 274.07 22.28
  Q 274.86 24.48 275.82 26.70
  A 1.00 0.99 65.9 0 0 277.14 27.21
  Q 284.52 23.98 292.86 24.16
  Z"
/>
<path fill="#ffffff" d="
  M 506.12 77.02
  Q 503.73 85.78 501.21 94.53
  C 499.98 98.79 496.30 101.83 493.04 104.59
  A 1.02 1.00 34.0 0 1 492.07 104.77
  Q 485.91 102.68 481.83 97.43
  A 1.01 0.99 -62.6 0 1 481.63 96.77
  Q 482.04 88.88 482.69 81.35
  C 483.30 74.13 487.03 66.99 490.19 60.58
  A 1.03 1.01 52.4 0 0 490.27 59.93
  Q 488.89 53.43 491.95 47.89
  C 493.34 45.37 495.84 44.48 498.25 43.01
  A 1.07 1.06 83.2 0 0 498.68 42.46
  C 501.18 34.83 505.58 17.36 512.42 12.81
  Q 517.84 9.20 523.23 5.58
  A 0.99 0.99 0.0 0 1 524.49 5.70
  Q 528.71 9.88 534.05 12.44
  A 1.01 1.00 -70.5 0 1 534.59 13.58
  L 533.42 18.43
  A 0.99 0.99 0.0 0 0 533.48 19.07
  Q 553.74 64.66 525.88 105.76
  Q 524.87 107.24 524.14 105.60
  Q 522.32 101.54 520.37 96.72
  C 519.46 94.48 517.57 92.54 517.75 89.26
  Q 518.14 82.00 519.27 75.28
  A 1.00 0.99 89.2 0 0 518.10 74.13
  L 506.89 76.30
  A 1.00 0.99 1.9 0 0 506.12 77.02
  Z
  M 514.30 14.60
  Q 509.80 19.21 507.64 24.17
  Q 504.40 31.59 502.79 40.14
  Q 501.05 42.12 500.78 44.14
  A 1.03 1.02 -11.4 0 1 500.29 44.87
  L 495.00 47.98
  A 0.98 0.94 88.6 0 0 494.61 48.41
  C 493.53 50.64 492.01 53.72 492.49 56.25
  C 492.95 58.65 493.33 60.08 492.19 62.46
  C 489.50 68.08 485.91 74.66 485.42 80.95
  Q 484.84 88.31 484.27 95.70
  A 1.07 1.04 -62.4 0 0 484.47 96.38
  Q 487.18 99.98 491.32 101.73
  A 1.00 0.99 -51.5 0 0 492.30 101.61
  Q 497.43 97.85 498.75 94.23
  Q 500.06 90.62 503.90 74.49
  L 510.00 72.96
  L 519.88 71.06
  Q 522.77 70.40 522.23 72.99
  Q 521.69 75.59 520.29 88.41
  C 520.00 91.06 522.00 93.51 522.83 95.60
  Q 523.75 97.93 524.63 100.23
  Q 525.36 102.16 526.42 100.38
  Q 531.60 91.71 534.91 82.26
  Q 543.93 56.78 535.27 31.17
  L 530.72 19.31
  A 1.05 1.00 43.7 0 1 530.69 18.67
  L 531.68 15.22
  A 1.00 0.99 25.9 0 0 531.30 14.14
  L 524.00 8.91
  A 1.00 0.98 45.5 0 0 522.86 8.89
  L 514.30 14.60
  Z"
/>
<path fill="#ffffff" d="
  M 373.02 24.01
  Q 377.61 17.57 383.31 13.85
  Q 391.74 8.35 401.41 11.21
  A 1.01 1.00 12.8 0 1 402.12 12.33
  Q 399.61 28.03 387.50 38.16
  A 1.00 0.98 -16.7 0 0 387.15 38.79
  Q 385.46 50.98 384.74 53.25
  Q 383.25 57.94 383.46 62.83
  C 383.71 68.37 379.59 77.35 378.20 83.11
  C 377.08 87.69 375.18 90.91 372.66 94.62
  C 370.32 98.08 368.49 102.59 365.10 106.01
  A 1.00 1.00 0.0 0 1 363.53 105.81
  C 361.57 102.48 358.50 98.51 358.10 94.59
  Q 357.41 87.85 357.06 81.09
  Q 357.05 80.82 357.17 80.58
  C 360.78 73.46 361.24 65.43 363.76 55.36
  A 0.98 0.96 -52.5 0 0 363.67 54.64
  C 360.84 49.37 358.06 46.25 358.42 39.92
  A 1.00 1.00 0.0 0 0 358.19 39.23
  C 355.67 36.14 352.24 34.31 349.63 31.59
  Q 345.91 27.72 341.44 24.70
  A 0.95 0.95 0.0 0 0 340.93 24.53
  L 339.85 24.47
  A 1.00 1.00 0.0 0 1 339.01 23.92
  C 338.22 22.33 337.56 20.50 338.50 18.81
  C 341.22 13.93 346.84 9.86 351.57 7.47
  A 0.97 0.97 0.0 0 0 351.99 7.08
  L 352.52 6.16
  A 1.01 1.00 20.0 0 1 353.56 5.68
  L 356.60 6.23
  A 0.98 0.97 83.1 0 1 357.33 6.81
  Q 362.11 17.50 371.62 24.25
  A 1.00 1.00 0.0 0 0 373.02 24.01
  Z
  M 355.16 33.09
  Q 358.32 35.08 360.76 37.97
  A 1.00 0.96 27.4 0 1 360.99 38.65
  C 360.76 45.71 363.17 48.44 366.58 54.26
  A 0.99 0.98 38.0 0 1 366.68 55.04
  Q 364.22 63.73 362.48 73.57
  C 361.89 76.98 359.96 79.71 360.06 83.23
  Q 360.18 87.86 360.31 92.51
  Q 360.44 97.02 364.17 101.34
  A 1.00 0.99 -49.2 0 0 365.77 101.22
  Q 366.87 99.48 367.79 97.64
  C 369.62 94.00 374.13 88.52 374.75 85.99
  Q 376.72 77.83 379.25 69.79
  C 381.50 64.59 380.49 60.38 381.64 55.25
  Q 383.61 46.46 384.63 37.47
  Q 389.53 33.21 393.26 28.03
  Q 397.70 21.89 398.99 14.37
  A 0.99 0.99 0.0 0 0 398.18 13.22
  Q 389.99 11.83 383.90 16.75
  Q 379.23 19.86 376.42 23.93
  L 373.51 27.59
  A 1.00 1.00 0.0 0 1 372.18 27.80
  Q 362.73 21.53 356.53 11.67
  L 355.51 8.78
  A 0.81 0.79 76.1 0 0 354.65 8.25
  Q 354.01 8.34 353.74 9.03
  A 1.04 1.01 -2.0 0 1 353.23 9.56
  Q 345.64 13.12 340.75 19.92
  A 1.01 1.00 34.6 0 0 341.02 21.34
  Q 348.51 26.26 355.16 33.09
  Z"
/>
<path fill="#ff8800" d="
  M 48.34 10.75
  Q 47.36 18.96 47.44 27.19
  A 1.07 1.02 -26.8 0 1 47.21 27.84
  Q 46.75 28.39 46.00 28.71
  Q 38.94 25.21 31.04 26.00
  L 30.41 7.87
  Q 39.69 7.28 48.34 10.75
  Z"
/>
<path fill="#ff7800" d="
  M 212.75 8.04
  Q 214.15 9.19 213.02 10.50
  A 1.02 0.99 63.4 0 0 212.79 11.22
  Q 213.18 17.10 212.18 22.64
  Q 209.19 22.32 206.65 23.89
  L 205.61 8.41
  Q 208.95 7.08 212.75 8.04
  Z"
/>
<path fill="#ffa700" d="
  M 30.41 7.87
  L 31.04 26.00
  C 29.90 29.22 30.01 32.76 29.71 35.45
  Q 28.99 42.17 28.45 48.51
  A 1.00 1.00 0.0 0 0 29.55 49.59
  L 37.83 48.68
  L 37.19 63.26
  Q 31.69 63.16 27.22 65.03
  A 1.04 1.00 -0.4 0 0 26.69 65.55
  C 24.82 69.85 21.06 81.79 25.80 85.20
  Q 28.23 86.95 33.95 87.49
  Q 35.11 94.58 33.50 101.47
  C 28.52 102.03 23.77 103.45 18.77 102.31
  Q 19.45 58.37 18.61 14.47
  Q 23.06 10.10 30.41 7.87
  Z"
/>
<path fill="#ff6200" d="
  M 212.75 8.04
  Q 223.93 9.10 232.72 15.97
  Q 231.22 16.62 231.23 19.25
  C 231.25 22.11 232.01 33.10 231.05 35.07
  Q 230.95 35.27 230.85 35.46
  A 0.52 0.52 0.0 0 1 230.03 35.56
  Q 229.65 35.16 228.96 35.50
  Q 223.49 24.99 212.18 22.64
  Q 213.18 17.10 212.79 11.22
  A 1.02 0.99 63.4 0 1 213.02 10.50
  Q 214.15 9.19 212.75 8.04
  Z"
/>
<path fill="#ff9b00" d="
  M 293.50 9.29
  Q 293.94 16.96 292.86 24.16
  Q 284.52 23.98 277.14 27.21
  A 1.00 0.99 65.9 0 1 275.82 26.70
  Q 274.86 24.48 274.07 22.28
  C 272.27 17.21 274.77 11.84 278.40 8.29
  A 1.01 1.01 0.0 0 1 279.19 8.01
  L 293.50 9.29
  Z"
/>
<path fill="#ffc200" d="
  M 356.53 11.67
  L 355.16 33.09
  Q 348.51 26.26 341.02 21.34
  A 1.01 1.00 34.6 0 1 340.75 19.92
  Q 345.64 13.12 353.23 9.56
  A 1.04 1.01 -2.0 0 0 353.74 9.03
  Q 354.01 8.34 354.65 8.25
  A 0.81 0.79 76.1 0 1 355.51 8.78
  L 356.53 11.67
  Z"
/>
<path fill="#ff6200" d="
  M 602.29 87.75
  L 600.92 86.11
  A 1.02 1.00 -64.4 0 1 600.69 85.44
  Q 601.41 59.44 599.79 33.46
  L 600.72 23.97
  Q 600.74 23.75 600.67 23.54
  C 599.52 20.31 600.45 18.48 602.92 16.13
  Q 606.47 12.78 608.95 8.83
  Q 610.09 7.02 610.75 9.06
  Q 615.06 22.42 613.41 36.34
  Q 613.03 39.54 613.40 42.66
  Q 616.27 67.22 602.29 87.75
  Z"
/>
<path fill="#ff6200" d="
  M 133.07 101.01
  Q 133.42 63.48 132.37 25.98
  Q 132.76 22.31 135.22 15.74
  Q 136.87 11.34 139.74 9.04
  A 1.00 0.99 43.4 0 1 140.95 9.01
  Q 141.59 9.47 142.24 9.41
  C 158.76 7.85 152.07 28.52 149.27 36.11
  C 145.71 45.73 144.60 56.04 141.88 65.90
  C 139.59 74.21 140.27 81.40 141.99 89.74
  C 142.92 94.26 136.77 99.05 133.07 101.01
  Z"
/>
<path fill="#ff8800" d="
  M 205.61 8.41
  L 206.65 23.89
  Q 200.51 27.40 195.25 33.26
  L 193.94 14.03
  Q 199.06 10.55 205.61 8.41
  Z"
/>
<path fill="#ff6200" d="
  M 460.51 100.05
  Q 460.06 65.54 460.25 31.02
  C 460.25 29.79 459.66 24.83 458.25 24.71
  C 458.68 23.11 463.71 5.55 467.40 9.16
  A 1.02 0.98 62.2 0 0 468.24 9.44
  C 474.06 8.60 479.85 12.68 479.20 19.02
  C 478.41 26.80 475.86 33.31 473.72 40.68
  C 471.36 48.80 470.05 57.54 467.87 65.89
  C 465.66 74.35 466.28 81.35 467.99 89.74
  C 468.87 94.05 463.33 98.42 460.51 100.05
  Z"
/>
<path fill="#ff7800" d="
  M 535.27 31.17
  Q 533.31 34.09 533.45 38.25
  Q 533.93 53.31 533.56 76.18
  Q 533.53 78.28 534.91 82.26
  Q 531.60 91.71 526.42 100.38
  Q 525.36 102.16 524.63 100.23
  Q 523.75 97.93 522.83 95.60
  C 522.00 93.51 520.00 91.06 520.29 88.41
  Q 521.69 75.59 522.23 72.99
  Q 522.77 70.40 519.88 71.06
  Q 519.16 64.01 519.50 57.04
  Q 523.02 57.61 522.24 54.75
  C 521.30 51.32 520.64 47.86 519.59 44.48
  C 519.09 42.88 518.65 39.36 516.29 42.75
  Q 515.77 42.20 516.07 41.88
  Q 516.72 41.19 516.51 41.17
  L 516.16 41.14
  A 1.00 0.99 -3.4 0 1 515.26 40.35
  Q 515.09 39.50 515.11 38.93
  Q 515.55 26.74 514.30 14.60
  L 522.86 8.89
  A 1.00 0.98 45.5 0 1 524.00 8.91
  L 531.30 14.14
  A 1.00 0.99 25.9 0 1 531.68 15.22
  L 530.69 18.67
  A 1.05 1.00 43.7 0 0 530.72 19.31
  L 535.27 31.17
  Z"
/>
<path fill="#ff7800" d="
  M 293.50 9.29
  L 306.50 10.54
  Q 304.50 20.36 306.76 30.03
  Q 305.69 37.30 304.41 44.63
  C 302.32 56.58 300.77 68.99 298.99 81.16
  A 1.02 1.01 33.2 0 0 299.13 81.83
  Q 304.33 90.06 312.66 95.06
  A 0.99 0.98 -73.6 0 1 313.14 95.96
  Q 312.90 101.30 307.61 101.31
  C 303.37 101.32 299.06 101.70 294.42 101.98
  Q 294.23 66.99 294.11 32.03
  C 294.11 30.88 293.50 29.99 292.54 29.50
  Q 293.25 27.00 292.86 24.16
  Q 293.94 16.96 293.50 9.29
  Z"
/>
<path fill="#ffb400" d="
  M 112.29 72.75
  Q 111.05 84.87 111.93 97.00
  Q 103.61 100.04 95.96 95.50
  Q 97.06 94.90 96.30 94.47
  C 96.40 93.32 96.74 92.27 96.75 91.17
  Q 96.91 50.98 96.52 10.71
  Q 99.10 9.95 101.32 11.97
  Q 102.56 13.10 103.05 15.62
  Q 104.09 20.94 106.66 25.73
  A 1.03 1.01 34.5 0 1 106.77 26.30
  Q 105.61 38.88 105.73 51.49
  C 105.81 60.41 102.07 68.32 112.29 72.75
  Z"
/>
<path fill="#ffb400" d="
  M 432.11 67.41
  L 431.76 96.62
  A 1.01 1.00 84.2 0 1 430.97 97.59
  L 429.25 97.96
  Q 425.59 97.92 422.50 95.96
  Q 423.07 55.70 422.56 15.44
  Q 422.53 12.82 421.42 11.52
  Q 424.59 9.45 427.09 11.60
  Q 428.42 12.74 429.07 15.74
  Q 430.25 21.10 432.65 26.04
  A 0.93 0.93 0.0 0 1 432.75 26.57
  C 431.83 37.02 432.54 47.82 431.14 58.08
  Q 430.47 62.96 432.11 67.41
  Z"
/>
<path fill="#ff6200" d="
  M 306.50 10.54
  Q 313.71 10.17 320.69 12.15
  A 1.02 0.99 76.6 0 1 321.18 12.46
  C 333.31 26.65 316.96 30.15 306.76 30.03
  Q 304.50 20.36 306.50 10.54
  Z"
/>
<path fill="#ff6200" d="
  M 48.34 10.75
  Q 55.34 13.02 61.28 16.75
  A 1.00 0.99 -74.4 0 1 61.75 17.60
  L 61.75 18.99
  A 1.01 1.00 -75.0 0 0 62.25 19.86
  Q 73.97 26.58 65.78 38.04
  Q 63.76 40.86 57.86 46.08
  A 1.01 1.00 48.5 0 0 57.78 47.49
  Q 60.23 50.28 62.61 52.88
  C 74.78 66.18 66.51 77.85 58.31 91.07
  Q 53.54 98.76 44.36 100.75
  Q 45.77 92.46 43.49 84.42
  C 49.56 77.86 53.77 69.74 49.00 60.96
  C 47.83 60.97 47.24 60.59 47.18 59.35
  Q 46.87 52.67 45.68 46.21
  C 48.88 40.66 52.38 33.24 46.00 28.71
  Q 46.75 28.39 47.21 27.84
  A 1.07 1.02 -26.8 0 0 47.44 27.19
  Q 47.36 18.96 48.34 10.75
  Z"
/>
<path fill="#ffc200" d="
  M 96.52 10.71
  Q 96.91 50.98 96.75 91.17
  C 96.74 92.27 96.40 93.32 96.30 94.47
  Q 97.06 94.90 95.96 95.50
  C 80.72 83.61 88.47 68.04 85.98 52.44
  C 84.27 41.64 88.10 27.10 91.53 16.80
  Q 92.08 15.14 96.52 10.71
  Z"
/>
<path fill="#ff9b00" d="
  M 356.53 11.67
  Q 362.73 21.53 372.18 27.80
  A 1.00 1.00 0.0 0 0 373.51 27.59
  L 376.42 23.93
  Q 377.80 25.63 377.77 28.26
  Q 377.61 44.32 377.86 67.79
  A 0.81 0.79 -84.0 0 0 378.47 68.56
  Q 379.29 68.76 379.25 69.79
  Q 376.72 77.83 374.75 85.99
  C 374.13 88.52 369.62 94.00 367.79 97.64
  Q 366.87 99.48 365.77 101.22
  A 1.00 0.99 -49.2 0 1 364.17 101.34
  Q 360.44 97.02 360.31 92.51
  Q 360.18 87.86 360.06 83.23
  C 359.96 79.71 361.89 76.98 362.48 73.57
  Q 364.22 63.73 366.68 55.04
  A 0.99 0.98 38.0 0 0 366.58 54.26
  C 363.17 48.44 360.76 45.71 360.99 38.65
  A 1.00 0.96 27.4 0 0 360.76 37.97
  Q 358.32 35.08 355.16 33.09
  L 356.53 11.67
  Z"
/>
<path fill="#ffc200" d="
  M 421.42 11.52
  Q 422.53 12.82 422.56 15.44
  Q 423.07 55.70 422.50 95.96
  C 407.06 84.53 414.14 70.33 411.90 51.96
  C 410.60 41.32 413.74 28.84 416.86 18.88
  C 417.80 15.87 419.57 14.03 421.42 11.52
  Z"
/>
<path fill="#ff6200" d="
  M 384.63 37.47
  Q 385.04 27.11 383.90 16.75
  Q 389.99 11.83 398.18 13.22
  A 0.99 0.99 0.0 0 1 398.99 14.37
  Q 397.70 21.89 393.26 28.03
  Q 389.53 33.21 384.63 37.47
  Z"
/>
<path fill="#ff9b00" d="
  M 193.94 14.03
  L 195.25 33.26
  Q 188.09 44.20 187.86 59.01
  C 187.70 69.54 186.21 85.16 200.55 86.99
  L 199.48 101.72
  C 194.25 101.08 188.39 100.39 184.48 96.03
  Q 185.79 93.56 185.77 90.75
  Q 185.66 73.58 185.88 56.43
  C 185.92 53.61 185.50 50.15 185.64 46.99
  Q 186.22 34.11 185.03 21.22
  Q 188.69 17.13 193.94 14.03
  Z"
/>
<path fill="#ffc200" d="
  M 18.61 14.47
  Q 19.45 58.37 18.77 102.31
  Q 11.88 101.42 6.52 98.05
  A 0.99 0.99 0.0 0 1 6.10 96.90
  C 7.18 93.52 8.05 90.49 8.34 86.79
  C 8.81 80.86 9.01 73.69 11.26 68.16
  C 13.67 62.27 8.10 59.74 10.62 53.32
  Q 15.31 41.36 15.85 29.43
  Q 16.18 22.22 16.80 18.28
  Q 16.85 18.01 16.75 17.77
  Q 15.87 15.41 18.61 14.47
  Z"
/>
<path fill="#ff9b00" d="
  M 514.30 14.60
  Q 515.55 26.74 515.11 38.93
  Q 515.09 39.50 515.26 40.35
  A 1.00 0.99 -3.4 0 0 516.16 41.14
  L 516.51 41.17
  Q 516.72 41.19 516.07 41.88
  Q 515.77 42.20 516.29 42.75
  L 510.64 57.02
  Q 510.08 56.94 510.33 57.58
  A 1.07 0.95 41.7 0 1 510.39 58.10
  Q 509.24 65.49 510.00 72.96
  L 503.90 74.49
  Q 504.28 57.30 502.79 40.14
  Q 504.40 31.59 507.64 24.17
  Q 509.80 19.21 514.30 14.60
  Z"
/>
<path fill="#ff3800" d="
  M 232.72 15.97
  Q 237.59 19.75 241.52 24.46
  A 1.05 1.02 25.8 0 1 241.76 25.12
  C 241.70 27.33 241.68 29.26 242.74 31.34
  C 252.20 49.92 246.06 73.45 232.71 88.25
  Q 232.45 87.88 231.98 87.68
  A 0.99 0.99 0.0 0 1 231.37 86.78
  L 231.15 74.97
  A 0.97 0.95 21.2 0 0 230.82 74.25
  Q 229.51 73.06 231.14 72.28
  A 1.05 1.01 -86.2 0 0 231.57 71.89
  Q 232.24 70.74 231.65 71.30
  Q 234.36 62.96 233.11 52.07
  Q 231.96 42.11 228.96 35.50
  Q 229.65 35.16 230.03 35.56
  A 0.52 0.52 0.0 0 0 230.85 35.46
  Q 230.95 35.27 231.05 35.07
  C 232.01 33.10 231.25 22.11 231.23 19.25
  Q 231.22 16.62 232.72 15.97
  Z"
/>
<path fill="#ff7800" d="
  M 383.90 16.75
  Q 385.04 27.11 384.63 37.47
  Q 383.61 46.46 381.64 55.25
  C 380.49 60.38 381.50 64.59 379.25 69.79
  Q 379.29 68.76 378.47 68.56
  A 0.81 0.79 -84.0 0 1 377.86 67.79
  Q 377.61 44.32 377.77 28.26
  Q 377.80 25.63 376.42 23.93
  Q 379.23 19.86 383.90 16.75
  Z"
/>
<path fill="#ff9b00" d="
  M 579.49 20.79
  Q 579.10 44.36 579.21 67.93
  Q 579.22 69.22 578.00 71.11
  C 576.64 69.97 575.23 66.10 573.29 68.25
  L 573.07 22.02
  A 1.00 0.99 23.2 0 0 572.79 21.33
  Q 572.37 20.89 571.71 20.75
  Q 575.93 19.19 579.49 20.79
  Z"
/>
<path fill="#ffa700" d="
  M 571.71 20.75
  Q 572.37 20.89 572.79 21.33
  A 1.00 0.99 23.2 0 1 573.07 22.02
  L 573.29 68.25
  L 566.94 82.27
  Q 565.78 53.65 566.21 25.00
  Q 568.42 22.17 571.71 20.75
  Z"
/>
<path fill="#ff8800" d="
  M 579.49 20.79
  C 586.75 21.72 583.90 30.63 582.13 34.89
  A 0.97 0.96 46.8 0 0 582.11 35.60
  Q 585.95 46.63 590.18 57.46
  Q 591.36 60.49 593.29 58.50
  Q 594.45 59.10 594.47 60.51
  Q 594.75 77.47 594.75 94.48
  C 591.10 95.45 588.95 93.67 587.19 90.47
  Q 582.05 81.06 578.00 71.11
  Q 579.22 69.22 579.21 67.93
  Q 579.10 44.36 579.49 20.79
  Z"
/>
<path fill="#ffb400" d="
  M 185.03 21.22
  Q 186.22 34.11 185.64 46.99
  C 185.50 50.15 185.92 53.61 185.88 56.43
  Q 185.66 73.58 185.77 90.75
  Q 185.79 93.56 184.48 96.03
  Q 175.45 86.16 173.44 72.89
  A 1.00 0.99 -3.1 0 0 172.49 72.04
  L 168.92 71.91
  Q 166.02 71.80 165.50 68.60
  C 164.89 64.83 164.79 62.38 166.69 58.76
  Q 173.52 45.74 169.52 31.12
  A 1.01 0.98 52.2 0 1 169.60 30.40
  C 171.61 26.51 174.43 18.72 180.45 23.90
  A 1.01 1.00 45.7 0 0 181.74 23.92
  L 185.03 21.22
  Z"
/>
<path fill="#ffffff" d="
  M 212.18 22.64
  Q 223.49 24.99 228.96 35.50
  Q 231.96 42.11 233.11 52.07
  Q 234.36 62.96 231.65 71.30
  L 225.95 75.94
  A 1.00 1.00 0.0 0 1 224.42 75.61
  L 218.73 64.18
  A 1.00 0.99 68.9 0 0 217.57 63.66
  Q 210.77 65.51 205.59 70.31
  A 1.00 0.99 -39.2 0 0 205.45 71.62
  Q 209.61 77.44 211.80 84.25
  A 1.00 1.00 0.0 0 1 211.37 85.41
  Q 209.50 86.56 207.13 86.71
  L 200.55 86.99
  C 186.21 85.16 187.70 69.54 187.86 59.01
  Q 188.09 44.20 195.25 33.26
  Q 200.51 27.40 206.65 23.89
  Q 209.19 22.32 212.18 22.64
  Z
  M 190.56 72.29
  C 190.91 81.25 198.00 86.16 206.58 83.95
  Q 206.83 83.89 207.08 83.96
  Q 207.38 84.04 207.67 84.02
  A 1.00 0.99 77.5 0 0 208.54 82.65
  Q 206.37 77.27 202.88 72.58
  Q 201.60 70.87 203.08 69.32
  Q 209.63 62.44 219.07 60.74
  A 0.99 0.98 -18.4 0 1 220.14 61.27
  L 225.25 71.51
  A 1.01 1.00 60.5 0 0 226.69 71.91
  Q 230.90 69.21 230.85 65.04
  C 230.68 51.06 231.00 32.83 215.35 26.07
  Q 211.82 24.55 209.51 25.50
  C 190.06 33.56 189.88 54.80 190.56 72.29
  Z"
/>
<path fill="#ff7800" d="
  M 458.25 24.71
  C 459.66 24.83 460.25 29.79 460.25 31.02
  Q 460.06 65.54 460.51 100.05
  Q 458.43 102.38 453.50 104.16
  A 1.02 1.01 -27.2 0 1 452.34 103.79
  C 450.52 101.18 448.26 98.52 446.46 95.61
  Q 445.33 93.80 443.04 95.25
  L 442.16 72.32
  Q 445.74 68.39 445.46 62.29
  A 1.04 1.01 60.6 0 1 445.61 61.72
  C 449.11 56.08 449.76 52.70 451.22 47.27
  C 452.21 43.57 454.41 38.71 455.13 33.91
  C 455.66 30.41 456.95 27.78 458.25 24.71
  Z"
/>
<path fill="#ffc200" d="
  M 566.21 25.00
  Q 565.78 53.65 566.94 82.27
  L 565.05 94.95
  A 0.99 0.98 75.7 0 1 564.68 95.58
  L 558.40 100.59
  A 1.01 1.00 58.7 0 1 556.86 100.21
  Q 555.27 96.66 552.66 93.75
  A 1.02 0.99 30.3 0 1 552.42 92.88
  C 554.51 82.85 555.13 72.44 556.75 62.76
  Q 557.84 56.19 558.67 49.58
  C 559.14 45.87 562.02 43.72 561.96 40.24
  C 561.87 35.16 562.25 28.71 566.21 25.00
  Z"
/>
<path fill="#000000" d="
  M 206.58 83.95
  C 198.00 86.16 190.91 81.25 190.56 72.29
  C 189.88 54.80 190.06 33.56 209.51 25.50
  Q 211.82 24.55 215.35 26.07
  C 231.00 32.83 230.68 51.06 230.85 65.04
  Q 230.90 69.21 226.69 71.91
  A 1.01 1.00 60.5 0 1 225.25 71.51
  L 220.14 61.27
  A 0.99 0.98 -18.4 0 0 219.07 60.74
  Q 209.63 62.44 203.08 69.32
  Q 201.60 70.87 202.88 72.58
  Q 206.37 77.27 208.54 82.65
  A 1.00 0.99 77.5 0 1 207.67 84.02
  Q 207.38 84.04 207.08 83.96
  Q 206.83 83.89 206.58 83.95
  Z
  M 226.54 66.52
  C 227.59 68.61 228.16 67.08 228.26 65.94
  Q 229.38 53.87 226.26 42.24
  C 224.85 37.00 218.13 33.28 213.12 36.12
  C 195.59 46.06 198.30 63.92 197.96 80.82
  A 1.00 0.99 -88.5 0 0 198.92 81.84
  L 204.08 82.03
  Q 205.81 82.09 205.00 80.56
  Q 203.13 77.05 200.99 73.93
  C 195.61 66.09 214.36 59.06 219.27 58.29
  Q 221.97 57.88 222.65 60.67
  Q 223.49 64.14 226.24 66.17
  Q 226.43 66.31 226.54 66.52
  Z"
/>
<path fill="#ffffff" d="
  M 46.00 28.71
  C 52.38 33.24 48.88 40.66 45.68 46.21
  Q 41.88 47.97 37.83 48.68
  L 29.55 49.59
  A 1.00 1.00 0.0 0 1 28.45 48.51
  Q 28.99 42.17 29.71 35.45
  C 30.01 32.76 29.90 29.22 31.04 26.00
  Q 38.94 25.21 46.00 28.71
  Z
  M 31.94 41.94
  Q 31.91 43.15 31.37 45.79
  A 1.00 1.00 0.0 0 0 32.55 46.97
  L 42.91 44.81
  A 1.01 0.97 -77.9 0 0 43.53 44.39
  C 47.50 38.57 49.85 30.79 39.76 29.24
  Q 35.81 28.63 34.06 28.46
  A 1.00 1.00 0.0 0 0 32.97 29.32
  Q 32.11 35.64 31.94 41.94
  Z"
/>
<path fill="#ff7800" d="
  M 132.37 25.98
  Q 133.42 63.48 133.07 101.01
  Q 131.10 103.15 127.50 104.13
  A 1.02 1.00 64.5 0 1 126.42 103.74
  L 121.16 96.28
  Q 122.00 80.27 120.92 63.03
  Q 120.85 61.93 120.18 62.81
  Q 119.60 63.57 119.71 61.75
  C 123.92 54.98 124.83 47.43 127.58 40.52
  Q 128.18 39.00 128.38 36.87
  Q 128.89 31.20 132.37 25.98
  Z"
/>
<path fill="#000000" d="
  M 31.94 41.94
  Q 32.11 35.64 32.97 29.32
  A 1.00 1.00 0.0 0 1 34.06 28.46
  Q 35.81 28.63 39.76 29.24
  C 49.85 30.79 47.50 38.57 43.53 44.39
  A 1.01 0.97 -77.9 0 1 42.91 44.81
  L 32.55 46.97
  A 1.00 1.00 0.0 0 1 31.37 45.79
  Q 31.91 43.15 31.94 41.94
  Z
  M 41.11 38.07
  A 1.00 0.99 -86.7 0 0 40.00 39.06
  L 40.01 41.67
  Q 40.01 44.21 41.74 42.34
  Q 42.85 41.15 43.50 39.64
  A 0.99 0.99 0.0 0 0 42.70 38.25
  L 41.11 38.07
  Z"
/>
<path fill="#ff8800" d="
  M 292.54 29.50
  C 293.50 29.99 294.11 30.88 294.11 32.03
  Q 294.23 66.99 294.42 101.98
  Q 293.64 102.55 291.60 102.60
  A 1.00 0.99 -12.7 0 1 290.68 102.02
  L 290.04 100.65
  A 1.01 1.01 0.0 0 0 289.39 100.11
  L 279.75 97.54
  C 280.65 93.08 279.97 89.12 279.85 84.68
  Q 279.79 82.81 279.07 81.10
  L 284.04 79.79
  A 1.00 0.98 86.2 0 0 284.77 78.94
  Q 287.84 52.87 292.54 29.50
  Z"
/>
<path fill="#ff6200" d="
  M 535.27 31.17
  Q 543.93 56.78 534.91 82.26
  Q 533.53 78.28 533.56 76.18
  Q 533.93 53.31 533.45 38.25
  Q 533.31 34.09 535.27 31.17
  Z"
/>
<path fill="#ff7800" d="
  M 599.79 33.46
  Q 601.41 59.44 600.69 85.44
  A 1.02 1.00 -64.4 0 0 600.92 86.11
  L 602.29 87.75
  C 601.02 90.04 598.67 94.76 594.75 94.48
  Q 594.75 77.47 594.47 60.51
  Q 594.45 59.10 593.29 58.50
  L 599.79 33.46
  Z"
/>
<path fill="#ffb400" d="
  M 502.79 40.14
  Q 504.28 57.30 503.90 74.49
  Q 500.06 90.62 498.75 94.23
  Q 497.43 97.85 492.30 101.61
  A 1.00 0.99 -51.5 0 1 491.32 101.73
  Q 487.18 99.98 484.47 96.38
  A 1.07 1.04 -62.4 0 1 484.27 95.70
  Q 484.84 88.31 485.42 80.95
  C 485.91 74.66 489.50 68.08 492.19 62.46
  C 493.33 60.08 492.95 58.65 492.49 56.25
  C 492.01 53.72 493.53 50.64 494.61 48.41
  A 0.98 0.94 88.6 0 1 495.00 47.98
  L 500.29 44.87
  A 1.03 1.02 -11.4 0 0 500.78 44.14
  Q 501.05 42.12 502.79 40.14
  Z"
/>
<path fill="#ffffff" d="
  M 519.50 57.04
  Q 515.08 57.83 510.64 57.02
  L 516.29 42.75
  C 518.65 39.36 519.09 42.88 519.59 44.48
  C 520.64 47.86 521.30 51.32 522.24 54.75
  Q 523.02 57.61 519.50 57.04
  Z
  M 516.60 48.87
  L 514.71 53.47
  A 1.00 1.00 0.0 0 0 515.68 54.85
  L 518.25 54.74
  A 1.01 1.01 0.0 0 0 519.18 53.51
  L 518.11 48.99
  Q 517.54 46.56 516.60 48.87
  Z"
/>
<path fill="#ff8800" d="
  M 45.68 46.21
  Q 46.87 52.67 47.18 59.35
  C 47.24 60.59 47.83 60.97 49.00 60.96
  L 37.19 63.26
  L 37.83 48.68
  Q 41.88 47.97 45.68 46.21
  Z"
/>
<path fill="#000000" d="
  M 516.60 48.87
  Q 517.54 46.56 518.11 48.99
  L 519.18 53.51
  A 1.01 1.01 0.0 0 1 518.25 54.74
  L 515.68 54.85
  A 1.00 1.00 0.0 0 1 514.71 53.47
  L 516.60 48.87
  Z"
/>
<path fill="#ff8800" d="
  M 510.64 57.02
  Q 515.08 57.83 519.50 57.04
  Q 519.16 64.01 519.88 71.06
  L 510.00 72.96
  Q 509.24 65.49 510.39 58.10
  A 1.07 0.95 41.7 0 0 510.33 57.58
  Q 510.08 56.94 510.64 57.02
  Z"
/>
<path fill="#ffffff" d="
  M 49.00 60.96
  C 53.77 69.74 49.56 77.86 43.49 84.42
  Q 38.77 87.98 33.95 87.49
  Q 28.23 86.95 25.80 85.20
  C 21.06 81.79 24.82 69.85 26.69 65.55
  A 1.04 1.00 -0.4 0 1 27.22 65.03
  Q 31.69 63.16 37.19 63.26
  L 49.00 60.96
  Z
  M 32.93 84.90
  C 39.62 85.70 43.36 81.64 46.42 76.20
  Q 49.31 71.05 47.92 64.80
  A 1.00 0.99 76.1 0 0 46.69 64.05
  Q 39.36 66.01 36.25 66.03
  Q 31.38 66.07 28.73 67.37
  A 1.02 1.01 83.8 0 0 28.19 68.05
  L 25.78 78.70
  Q 25.17 81.38 28.10 83.40
  Q 29.72 84.51 32.93 84.90
  Z"
/>
<path fill="#ff8800" d="
  M 119.71 61.75
  Q 119.60 63.57 120.18 62.81
  Q 120.85 61.93 120.92 63.03
  Q 122.00 80.27 121.16 96.28
  C 118.90 93.32 115.00 96.30 111.93 97.00
  Q 111.05 84.87 112.29 72.75
  C 118.85 73.15 119.42 66.53 119.71 61.75
  Z"
/>
<path fill="#ff6200" d="
  M 231.65 71.30
  Q 232.24 70.74 231.57 71.89
  A 1.05 1.01 -86.2 0 1 231.14 72.28
  Q 229.51 73.06 230.82 74.25
  A 0.97 0.95 21.2 0 1 231.15 74.97
  L 231.37 86.78
  A 0.99 0.99 0.0 0 0 231.98 87.68
  Q 232.45 87.88 232.71 88.25
  Q 231.85 89.07 232.06 90.24
  Q 233.16 96.46 231.69 102.52
  A 1.01 1.00 8.8 0 1 230.64 103.28
  Q 226.03 102.97 223.05 99.42
  A 1.00 0.99 71.0 0 0 222.34 99.07
  C 216.84 98.76 212.85 100.86 207.42 101.59
  Q 205.77 94.27 207.13 86.71
  Q 209.50 86.56 211.37 85.41
  A 1.00 1.00 0.0 0 0 211.80 84.25
  Q 209.61 77.44 205.45 71.62
  A 1.00 0.99 -39.2 0 1 205.59 70.31
  Q 210.77 65.51 217.57 63.66
  A 1.00 0.99 68.9 0 1 218.73 64.18
  L 224.42 75.61
  A 1.00 1.00 0.0 0 0 225.95 75.94
  L 231.65 71.30
  Z"
/>
<path fill="#000000" d="
  M 32.93 84.90
  Q 29.72 84.51 28.10 83.40
  Q 25.17 81.38 25.78 78.70
  L 28.19 68.05
  A 1.02 1.01 83.8 0 1 28.73 67.37
  Q 31.38 66.07 36.25 66.03
  Q 39.36 66.01 46.69 64.05
  A 1.00 0.99 76.1 0 1 47.92 64.80
  Q 49.31 71.05 46.42 76.20
  C 43.36 81.64 39.62 85.70 32.93 84.90
  Z
  M 43.09 76.83
  Q 43.93 75.20 42.10 75.37
  L 36.28 75.94
  A 1.02 1.01 -84.2 0 0 35.42 76.65
  L 33.95 81.60
  A 1.00 1.00 0.0 0 0 35.12 82.87
  Q 40.59 81.69 43.09 76.83
  Z"
/>
<path fill="#ff9b00" d="
  M 432.11 67.41
  Q 435.36 73.67 442.16 72.32
  L 443.04 95.25
  Q 436.53 98.46 429.25 97.96
  L 430.97 97.59
  A 1.01 1.00 84.2 0 0 431.76 96.62
  L 432.11 67.41
  Z"
/>
<path fill="#ffb400" d="
  M 279.07 81.10
  Q 279.79 82.81 279.85 84.68
  C 279.97 89.12 280.65 93.08 279.75 97.54
  Q 269.55 95.05 259.64 90.66
  Q 257.57 89.74 258.04 87.52
  Q 259.48 80.64 265.19 76.64
  A 1.00 1.00 0.0 0 1 266.66 77.01
  L 267.12 77.94
  Q 267.20 78.09 267.32 78.20
  C 270.67 81.52 274.98 80.95 279.07 81.10
  Z"
/>
<path fill="#ff8800" d="
  M 43.49 84.42
  Q 45.77 92.46 44.36 100.75
  Q 38.56 101.87 33.50 101.47
  Q 35.11 94.58 33.95 87.49
  Q 38.77 87.98 43.49 84.42
  Z"
/>
<path fill="#ff7800" d="
  M 207.13 86.71
  Q 205.77 94.27 207.42 101.59
  L 199.48 101.72
  L 200.55 86.99
  L 207.13 86.71
  Z"
/>
</svg>
