<svg xmlns="http://www.w3.org/2000/svg" version="1.1" viewBox="0 0 210 78">

  <path fill="currentColor"
    d="   M 184.48 24.23   L 189.14 23.74   A 1.01 1.01 0.0 0 1 190.15 24.30   L 190.68 25.43   A 1.00 0.99 73.9 0 1 189.90 26.85   L 186.01 27.31   Q 183.08 27.66 181.50 29.74   L 178.08 34.22   A 1.00 0.99 -67.0 0 0 178.72 35.81   Q 179.54 35.94 180.34 36.04   C 182.70 36.34 183.67 37.47 184.38 39.55   A 1.00 1.00 0.0 0 0 186.06 39.91   C 186.89 39.01 189.77 35.64 189.70 34.26   Q 189.67 33.66 189.16 33.52   Q 187.91 33.17 189.13 32.74   Q 191.55 31.88 193.73 33.63   A 0.99 0.98 -69.7 0 1 194.10 34.44   Q 193.88 41.50 187.08 43.48   A 1.05 1.00 5.5 0 0 186.48 43.95   C 185.04 46.52 188.17 46.27 189.41 47.06   C 194.66 50.42 201.90 53.56 204.07 59.88   Q 204.82 62.08 202.71 61.12   C 200.01 59.90 198.86 57.63 196.84 56.17   Q 192.09 52.76 187.50 50.15   A 1.00 0.99 15.2 0 0 186.01 51.00   Q 185.92 57.87 180.51 62.03   A 1.01 0.99 31.0 0 1 179.72 62.22   Q 177.02 61.70 174.68 60.44   Q 169.90 57.86 175.22 58.95   L 177.99 59.52   A 1.01 0.99 21.2 0 0 179.03 59.07   Q 180.76 56.34 181.95 51.71   Q 183.02 47.54 180.09 45.91   A 1.01 1.00 -60.9 0 0 178.73 46.30   L 173.57 55.63   A 1.00 1.00 0.0 0 1 172.03 55.89   L 170.57 54.57   A 1.00 0.99 32.3 0 1 170.31 53.46   L 173.92 44.49   Q 174.73 42.48 172.81 43.48   Q 172.61 43.59 172.42 43.72   C 171.32 44.48 169.21 50.44 168.46 52.04   A 0.99 0.99 0.0 0 1 167.10 52.50   Q 166.24 52.05 165.70 51.24   A 1.01 1.01 0.0 0 1 165.60 50.35   L 168.48 42.57   A 1.03 1.02 44.6 0 0 168.47 41.85   L 167.87 40.35   A 1.00 1.00 0.0 0 1 168.08 39.27   L 174.65 32.65   Q 177.33 29.95 173.79 31.34   L 166.77 34.10   A 1.00 1.00 0.0 0 1 165.62 33.79   L 164.10 31.88   Q 162.89 30.35 164.83 30.26   Q 167.48 30.12 169.90 28.86   A 1.01 1.00 -29.0 0 0 170.30 27.47   L 168.94 25.10   A 1.01 1.00 -43.1 0 1 168.98 24.04   Q 172.40 19.04 174.78 13.49   A 1.00 1.00 0.0 0 0 174.30 12.20   Q 172.08 11.11 174.73 10.80   Q 179.38 10.27 179.09 14.39   A 1.00 0.99 89.3 0 0 180.18 15.46   L 182.81 15.20   A 1.03 1.00 -27.5 0 1 183.55 15.42   C 185.28 16.85 186.05 19.15 184.91 21.24   Q 184.42 22.14 183.77 22.93   Q 182.55 24.44 184.48 24.23   Z   M 178.84 17.97   A 0.56 0.56 0.0 0 0 177.97 18.07   L 175.32 22.40   A 0.56 0.56 0.0 0 0 175.80 23.25   L 177.49 23.24   A 0.56 0.56 0.0 0 0 177.97 22.97   L 179.93 19.67   A 0.56 0.56 0.0 0 0 179.85 18.99   L 178.84 17.97   Z   M 178.00 40.45   A 1.00 0.99 -86.2 0 1 178.74 41.30   L 178.98 43.29   Q 179.19 45.04 180.58 43.97   Q 182.99 42.12 180.51 39.10   A 1.00 0.98 70.2 0 0 179.74 38.73   C 179.00 38.73 171.45 40.23 172.35 41.63   A 0.21 0.20 53.4 0 0 172.66 41.68   Q 174.98 39.67 178.00 40.45   Z" />
  <path fill="currentColor"
    d="   M 108.81 13.69   Q 112.85 14.13 113.76 18.12   A 1.00 1.00 0.0 0 1 113.30 19.20   L 113.05 19.35   A 1.01 1.00 52.6 0 1 111.83 19.18   Q 109.91 17.23 107.17 16.71   A 1.03 1.02 78.6 0 1 106.50 16.26   L 105.46 14.59   Q 103.99 12.25 106.62 13.11   Q 108.17 13.62 108.81 13.69   Z" />
  <path fill="currentColor"
    d="   M 32.49 35.47   Q 32.70 47.60 31.42 59.62   Q 31.19 61.88 29.68 60.18   Q 25.58 55.56 26.11 49.90   Q 26.46 46.06 27.37 49.81   L 27.74 51.35   Q 28.01 52.47 28.25 51.35   Q 28.29 51.17 28.27 50.88   Q 28.24 50.37 28.26 50.12   Q 29.84 30.96 28.87 20.43   Q 28.68 18.40 25.96 14.83   A 0.81 0.79 -51.0 0 1 25.88 13.99   C 26.76 12.17 31.64 17.12 32.71 18.19   A 1.04 1.01 23.5 0 1 33.00 18.90   L 33.00 31.12   A 1.01 1.00 -82.5 0 0 33.74 32.09   C 37.85 33.20 49.11 32.62 48.74 39.75   Q 48.66 41.12 48.19 42.37   A 1.00 1.00 0.0 0 1 46.48 42.65   Q 43.07 38.50 38.14 36.61   Q 37.32 36.29 35.51 35.21   Q 34.66 34.70 33.72 34.48   A 1.00 1.00 0.0 0 0 32.49 35.47   Z" />
  <path fill="currentColor"
    d="   M 158.01 26.53   Q 158.80 26.84 159.40 27.42   C 161.45 29.43 159.84 33.78 158.50 35.76   Q 156.62 38.52 154.88 41.36   A 1.01 1.00 21.7 0 0 155.53 42.86   C 158.71 43.53 158.62 48.18 157.58 50.42   A 0.21 0.19 -47.9 0 0 157.58 50.61   Q 157.77 50.96 158.09 50.38   Q 158.85 48.97 159.61 47.55   Q 161.44 44.13 161.11 48.00   Q 160.50 55.23 156.99 61.72   A 1.01 1.00 35.9 0 1 155.42 61.97   L 153.49 60.16   A 1.01 1.01 0.0 0 1 153.19 59.26   L 155.67 44.91   A 0.79 0.79 0.0 0 0 155.34 44.12   C 153.74 43.01 151.76 50.47 149.92 44.01   A 1.03 1.00 -35.9 0 1 150.07 43.15   Q 154.32 37.24 156.80 30.42   Q 157.47 28.57 155.58 29.12   L 151.37 30.34   A 1.00 0.99 65.8 0 1 150.25 29.91   L 148.66 27.42   A 1.01 1.00 53.4 0 1 148.84 26.13   L 157.84 18.25   A 0.80 0.80 0.0 0 0 158.02 17.27   L 157.83 16.92   A 0.80 0.80 0.0 0 1 158.42 15.75   Q 162.11 15.20 163.30 18.56   A 1.00 0.99 58.3 0 1 163.06 19.60   L 157.68 24.88   A 1.01 1.00 -56.6 0 0 158.01 26.53   Z" />
  <path fill="currentColor"
    d="   M 102.78 37.03   Q 96.27 47.62 88.22 57.11   Q 86.23 59.46 84.80 60.42   Q 84.02 60.95 83.19 61.36   Q 78.57 63.61 82.00 59.79   Q 94.46 45.94 103.39 29.55   A 1.01 1.00 -68.6 0 0 102.76 28.10   Q 99.33 27.23 97.25 24.61   C 97.00 24.29 96.64 22.93 97.43 23.12   A 0.41 0.41 0.0 0 1 97.70 23.32   Q 99.03 25.73 101.69 24.70   Q 109.83 21.55 115.36 20.15   C 118.61 19.32 120.84 20.30 122.22 23.28   A 1.01 0.99 -33.9 0 1 121.98 24.44   L 115.63 30.18   A 1.00 0.99 64.0 0 0 115.32 31.10   L 115.39 31.48   A 1.01 1.01 0.0 0 1 114.78 32.59   C 111.41 33.95 107.18 36.43 103.60 36.55   A 1.00 1.00 0.0 0 0 102.78 37.03   Z   M 114.00 25.98   Q 116.77 22.76 112.86 24.41   L 105.57 27.48   A 1.01 1.00 -24.9 0 0 105.06 28.85   Q 105.49 29.69 105.39 30.61   Q 105.21 32.43 106.84 31.60   Q 110.98 29.50 114.00 25.98   Z" />
  <path fill="currentColor"
    d="   M 122.42 53.80   L 123.68 54.19   A 1.02 0.98 -5.3 0 1 124.24 54.64   Q 126.71 58.81 121.59 56.66   Q 118.88 55.53 116.04 57.34   Q 115.87 57.44 115.67 57.48   L 110.43 58.38   A 0.97 0.95 56.9 0 1 109.71 58.22   Q 107.85 56.97 109.09 54.92   A 1.03 1.00 -78.4 0 1 109.76 54.46   L 114.01 53.65   A 1.02 1.00 11.4 0 0 114.64 53.24   L 118.68 47.40   Q 120.30 45.07 117.58 45.87   Q 111.22 47.75 106.97 53.03   A 1.02 0.97 65.7 0 0 106.75 53.66   L 106.75 59.41   A 1.00 0.99 78.2 0 1 106.16 60.32   C 101.29 62.49 100.87 44.37 100.99 42.12   A 1.00 1.00 0.0 0 1 102.45 41.29   Q 105.41 42.86 104.70 46.23   Q 104.57 46.86 104.67 47.86   Q 104.86 49.81 106.32 48.51   Q 111.15 44.23 117.45 42.51   Q 121.84 41.31 124.31 44.79   A 0.99 0.97 -62.9 0 1 124.50 45.40   Q 124.38 49.34 121.96 52.20   A 1.00 1.00 0.0 0 0 122.42 53.80   Z" />
</svg>