<?xml version="1.0" encoding="UTF-8" standalone="no"?>
<!DOCTYPE svg PUBLIC "-//W3C//DTD SVG 1.1//EN" "http://www.w3.org/Graphics/SVG/1.1/DTD/svg11.dtd">
<svg xmlns="http://www.w3.org/2000/svg" version="1.1" viewBox="0.00 0.00 286.00 303.00">
<g stroke-width="2.00" fill="none" stroke-linecap="butt">
<path stroke="#fdefc3" vector-effect="non-scaling-stroke" d="
  M 122.73 49.51
  C 114.03 43.57 100.48 48.47 93.75 54.61
  C 90.46 57.61 86.56 63.14 84.17 66.44
  Q 77.25 76.01 66.23 79.46
  C 53.00 83.61 42.45 88.27 38.55 102.67
  C 35.91 112.40 38.84 122.56 35.16 132.28
  C 32.11 140.35 25.00 146.38 21.86 154.53
  Q 17.79 165.12 21.66 175.57
  C 23.87 181.57 29.55 188.54 33.35 194.88
  Q 36.54 200.21 35.95 205.75"
/>
<path stroke="#abd6a4" vector-effect="non-scaling-stroke" d="
  M 35.95 205.75
  Q 29.62 205.71 23.85 205.72
  Q 18.84 205.74 16.40 207.14
  Q 11.11 210.19 12.25 217.51
  Q 15.01 235.13 17.83 252.75
  Q 19.02 260.18 29.14 261.47"
/>
<path stroke="#a2c5a5" vector-effect="non-scaling-stroke" d="
  M 29.14 261.47
  L 37.43 269.62
  A 2.27 2.27 0.0 0 1 38.09 271.50
  Q 37.10 280.00 35.88 288.49
  Q 35.42 291.69 35.53 294.48
  A 1.44 1.44 0.0 0 0 37.49 295.76
  Q 59.88 286.98 80.74 274.61"
/>
<path stroke="#fdfff9" vector-effect="non-scaling-stroke" d="
  M 80.74 274.61
  L 94.76 283.85
  Q 95.06 284.05 95.21 284.38
  Q 95.34 284.66 95.64 284.84
  Q 100.44 287.72 105.74 289.47
  C 108.54 290.40 111.88 290.80 114.95 291.35
  C 117.44 291.80 119.72 291.39 122.24 291.46
  C 126.85 291.59 131.03 290.34 135.57 290.04
  A 0.88 0.02 -23.5 0 0 136.31 289.74
  Q 136.49 289.66 136.76 289.65
  Q 144.42 289.25 150.35 289.86
  Q 150.83 289.91 151.21 290.21
  Q 151.56 290.48 152.05 290.35
  Q 152.44 290.25 152.84 290.31
  C 157.58 291.04 162.11 291.02 166.87 291.25
  Q 168.65 291.34 171.03 290.66
  Q 173.13 290.06 175.34 289.93
  Q 175.81 289.91 176.15 289.60
  Q 176.59 289.19 177.26 289.41
  A 1.18 1.16 -52.5 0 0 178.26 289.27
  C 180.31 287.89 182.52 287.72 184.44 286.45
  Q 186.36 285.17 188.32 283.94
  C 189.10 283.44 189.45 282.58 190.56 282.38
  Q 191.01 282.30 191.37 282.02
  L 202.13 273.66"
/>
<path stroke="#a2c5a5" vector-effect="non-scaling-stroke" d="
  M 202.13 273.66
  C 215.70 282.43 230.73 289.18 245.55 295.45
  Q 247.12 296.11 248.21 295.40
  A 1.36 1.35 -19.8 0 0 248.83 294.10
  L 246.17 271.59
  A 2.51 2.50 -24.8 0 1 246.95 269.48
  L 256.02 260.99"
/>
<path stroke="#abd6a4" vector-effect="non-scaling-stroke" d="
  M 256.02 260.99
  Q 257.22 260.60 258.87 260.56
  C 264.65 260.41 268.04 257.74 269.02 251.74
  Q 271.65 235.50 274.35 219.27
  C 275.47 212.55 273.37 206.17 265.75 205.78
  Q 261.01 205.54 247.20 205.65"
/>
<path stroke="#fdefc3" vector-effect="non-scaling-stroke" d="
  M 247.20 205.65
  Q 247.67 203.70 248.14 201.79
  C 249.69 195.46 254.53 189.24 259.28 182.27
  Q 268.35 168.96 262.19 153.96
  C 259.08 146.40 252.31 140.31 249.48 133.25
  C 245.75 123.95 248.04 114.76 246.20 105.30
  Q 242.85 88.07 225.46 82.13
  C 214.94 78.53 206.64 75.88 199.92 66.31
  C 191.08 53.72 182.92 45.13 166.00 47.42
  Q 160.70 48.13 158.60 51.16"
/>
<path stroke="#8fd6b8" vector-effect="non-scaling-stroke" d="
  M 158.60 51.16
  L 145.50 20.97"
/>
<path stroke="#9be5c1" vector-effect="non-scaling-stroke" d="
  M 145.50 20.97
  L 140.72 9.49
  A 0.58 0.58 0.0 0 0 139.65 9.49
  L 122.73 49.51"
/>
<path stroke="#2bbc7a" vector-effect="non-scaling-stroke" d="
  M 145.50 20.97
  Q 144.55 20.48 144.02 20.76
  Q 143.49 21.03 143.64 21.84
  Q 143.77 22.56 144.25 23.38
  C 145.95 26.27 146.82 31.93 147.53 35.64
  C 148.63 41.31 150.35 46.80 151.70 52.38
  Q 151.81 52.81 152.14 53.10
  L 152.53 53.44"
/>
<path stroke="#99d585" vector-effect="non-scaling-stroke" d="
  M 152.53 53.44
  Q 152.11 53.62 151.90 53.91"
/>
<path stroke="#2bbc7a" vector-effect="non-scaling-stroke" d="
  M 151.90 53.91
  Q 142.21 52.93 132.49 54.36
  Q 132.00 54.44 131.82 54.90
  Q 130.41 58.63 127.92 61.71
  C 126.85 63.03 125.08 66.49 124.68 68.02
  C 123.86 71.18 123.53 73.89 122.14 77.02
  Q 119.76 82.38 119.61 87.66"
/>
<path stroke="#9be5c1" vector-effect="non-scaling-stroke" d="
  M 119.61 87.66
  L 113.91 88.10
  A 0.73 0.72 10.2 0 1 113.19 87.07
  L 125.01 61.89"
/>
<path stroke="#99d585" vector-effect="non-scaling-stroke" d="
  M 125.01 61.89
  L 128.12 54.64
  A 0.67 0.67 0.0 0 0 127.50 53.70
  L 121.98 53.72
  Q 121.31 53.72 121.53 53.08
  L 122.73 49.51"
/>
<path stroke="#a8c668" vector-effect="non-scaling-stroke" d="
  M 247.20 205.65
  L 234.16 205.74"
/>
<path stroke="#b6dac3" vector-effect="non-scaling-stroke" d="
  M 234.16 205.74
  L 234.48 199.17"
/>
<path stroke="#dfe2b2" vector-effect="non-scaling-stroke" d="
  M 234.48 199.17
  Q 236.18 192.87 238.40 189.18
  C 240.84 185.15 245.54 179.58 247.46 174.77
  Q 249.91 168.63 249.30 162.09"
/>
<path stroke="#eae9bd" vector-effect="non-scaling-stroke" d="
  M 249.30 162.09
  C 248.57 155.19 243.83 149.04 239.62 143.15
  Q 236.24 138.41 234.76 132.20"
/>
<path stroke="#fdefc3" vector-effect="non-scaling-stroke" d="
  M 234.76 132.20
  Q 233.98 126.40 233.79 120.19
  Q 233.55 112.55 232.60 109.41
  Q 229.47 99.05 219.69 94.14
  C 215.63 92.10 208.74 90.50 203.75 88.04
  C 194.52 83.48 191.83 75.17 184.83 68.59
  Q 173.33 57.77 156.24 63.44"
/>
<path stroke="#8dc67c" vector-effect="non-scaling-stroke" d="
  M 156.24 63.44
  L 151.90 53.91"
/>
<path stroke="#8dc67c" vector-effect="non-scaling-stroke" d="
  M 158.60 51.16
  L 158.98 53.16
  Q 159.09 53.74 158.50 53.71
  L 152.53 53.44"
/>
<path stroke="#83c4ac" vector-effect="non-scaling-stroke" d="
  M 114.32 114.60
  L 115.80 118.00
  Q 116.01 118.47 115.81 118.95
  L 107.84 137.99"
/>
<path stroke="#e1f2ee" vector-effect="non-scaling-stroke" d="
  M 107.84 137.99
  Q 106.61 139.14 105.76 138.69
  Q 95.57 133.32 85.19 128.75"
/>
<path stroke="#ecf9f9" vector-effect="non-scaling-stroke" d="
  M 85.19 128.75
  Q 78.48 125.47 72.05 122.12
  C 66.21 119.08 59.54 118.28 53.22 120.15
  Q 51.75 120.58 50.28 120.76"
/>
<path stroke="#fdefc3" vector-effect="non-scaling-stroke" d="
  M 125.01 61.89
  Q 105.77 58.70 95.39 73.36
  C 88.42 83.21 83.16 87.54 72.57 91.20
  Q 65.32 93.72 63.60 94.66
  Q 51.66 101.20 50.55 115.99
  Q 50.40 118.12 50.28 120.76"
/>
<path stroke="#eae9bd" vector-effect="non-scaling-stroke" d="
  M 50.28 120.76
  L 49.76 130.47"
/>
<path stroke="#dfe2b2" vector-effect="non-scaling-stroke" d="
  M 49.76 130.47
  C 48.10 138.87 44.17 143.81 39.64 150.36
  Q 31.16 162.64 37.30 176.44
  Q 39.14 180.57 44.91 187.67"
/>
<path stroke="#b6dac3" vector-effect="non-scaling-stroke" d="
  M 44.91 187.67
  Q 50.37 196.52 50.58 205.66"
/>
<path stroke="#a8c668" vector-effect="non-scaling-stroke" d="
  M 50.58 205.66
  L 35.95 205.75"
/>
<path stroke="#8fd6b8" vector-effect="non-scaling-stroke" d="
  M 156.24 63.44
  L 167.35 87.12
  A 0.70 0.70 0.0 0 1 166.73 88.12
  L 159.35 88.25"
/>
<path stroke="#139b65" vector-effect="non-scaling-stroke" d="
  M 159.35 88.25
  Q 158.70 87.44 157.73 87.72
  C 155.06 88.47 153.37 88.23 151.85 85.67
  Q 151.57 85.18 151.16 85.46
  Q 150.84 85.67 150.83 86.05
  L 150.79 87.21
  Q 150.76 87.94 150.03 87.94
  L 125.09 88.10
  A 1.05 1.04 -5.1 0 0 124.06 89.32
  C 124.64 92.69 122.15 95.73 121.33 97.96
  C 119.74 102.29 118.16 106.44 115.98 110.52
  Q 114.90 112.54 114.32 114.60"
/>
<path stroke="#8fd6b8" vector-effect="non-scaling-stroke" d="
  M 114.32 114.60
  Q 112.63 117.82 109.56 117.62
  Q 108.02 117.52 108.65 116.11
  Q 114.67 102.79 120.77 89.01
  Q 121.39 87.60 119.61 87.66"
/>
<path stroke="#4e9c4a" vector-effect="non-scaling-stroke" d="
  M 256.02 260.99
  Q 253.27 259.83 250.28 260.05
  Q 245.74 260.39 245.69 260.39
  Q 223.94 260.15 202.53 260.47"
/>
<path stroke="#a8c668" vector-effect="non-scaling-stroke" d="
  M 202.53 260.47
  L 186.19 260.72"
/>
<path stroke="#abd6a4" vector-effect="non-scaling-stroke" d="
  M 186.19 260.72
  L 97.45 260.68"
/>
<path stroke="#a8c668" vector-effect="non-scaling-stroke" d="
  M 97.45 260.68
  Q 92.13 260.86 82.50 260.49
  Q 81.93 260.46 82.20 261.22"
/>
<path stroke="#4e9c4a" vector-effect="non-scaling-stroke" d="
  M 82.20 261.22
  Q 81.50 260.35 80.75 260.33
  Q 63.75 259.84 42.16 260.53
  C 38.60 260.65 35.12 260.14 31.54 259.90
  Q 30.69 259.84 30.07 260.13
  Q 28.74 260.76 29.14 261.47"
/>
<path stroke="#64c1a4" vector-effect="non-scaling-stroke" d="
  M 234.16 205.74
  L 147.99 205.70"
/>
<path stroke="#ceece8" vector-effect="non-scaling-stroke" d="
  M 249.30 162.09
  Q 246.54 159.62 243.95 158.59
  Q 230.09 153.03 207.46 144.39
  Q 200.84 141.86 193.52 143.32
  Q 184.45 145.11 176.93 148.25"
/>
<path stroke="#ecf9f9" vector-effect="non-scaling-stroke" d="
  M 234.76 132.20
  Q 211.76 125.08 204.46 123.31
  Q 198.44 121.84 193.00 123.02
  Q 182.61 125.27 169.05 129.42"
/>
<path stroke="#83c4ac" vector-effect="non-scaling-stroke" d="
  M 169.05 129.42
  L 164.27 118.00
  A 0.46 0.46 0.0 0 1 164.70 117.36
  L 171.58 117.41
  A 0.50 0.49 -12.1 0 0 172.04 116.71
  L 159.35 88.25"
/>
<path stroke="#9adcee" vector-effect="non-scaling-stroke" d="
  M 234.48 199.17
  Q 234.44 198.47 234.17 198.10
  Q 233.92 197.77 233.23 197.77
  Q 190.57 197.63 147.76 197.90"
/>
<path stroke="#a29c93" vector-effect="non-scaling-stroke" d="
  M 147.76 197.90
  L 147.61 181.23"
/>
<path stroke="#a29c93" vector-effect="non-scaling-stroke" d="
  M 132.52 180.94
  L 132.31 196.75"
/>
<path stroke="#9adcee" vector-effect="non-scaling-stroke" d="
  M 132.31 196.75
  Q 118.30 191.57 114.57 190.61
  C 104.34 187.98 96.52 187.38 85.50 187.24
  Q 65.62 186.99 44.91 187.67"
/>
<path stroke="#ceece8" vector-effect="non-scaling-stroke" d="
  M 85.19 128.75
  C 80.07 135.04 74.85 125.99 70.95 132.07
  Q 70.11 133.37 68.78 132.58
  C 65.87 130.86 63.62 130.95 59.93 131.78
  Q 55.29 132.82 49.76 130.47"
/>
<path stroke="#70bea5" vector-effect="non-scaling-stroke" d="
  M 169.05 129.42
  L 176.93 148.25"
/>
<path stroke="#65b79b" vector-effect="non-scaling-stroke" d="
  M 176.93 148.25
  Q 177.21 148.77 177.27 149.28
  A 0.50 0.49 0.5 0 1 176.72 149.81
  C 175.27 149.61 174.73 148.15 174.00 147.30
  Q 172.89 146.03 172.51 147.67
  L 172.19 149.07
  Q 172.06 149.67 171.45 149.74
  Q 170.80 149.82 170.16 149.63
  A 0.49 0.49 0.0 0 0 169.57 150.28
  L 181.02 179.95
  A 0.77 0.77 0.0 0 1 180.29 181.00
  L 163.03 180.90
  A 1.34 1.34 0.0 0 1 161.85 180.20
  L 159.73 176.36
  Q 158.60 174.32 158.69 176.65
  L 158.83 180.42
  Q 158.85 180.95 158.33 180.96
  L 147.61 181.23"
/>
<path stroke="#446f51" vector-effect="non-scaling-stroke" d="
  M 147.61 181.23
  C 144.08 180.43 139.67 180.87 136.00 180.76
  Q 134.71 180.72 133.90 181.62
  Q 133.58 181.97 133.19 181.69
  Q 132.85 181.44 132.52 180.94"
/>
<path stroke="#65b79b" vector-effect="non-scaling-stroke" d="
  M 132.52 180.94
  L 114.35 180.99
  Q 113.79 180.99 113.73 180.43
  L 113.46 177.96
  A 0.36 0.36 0.0 0 0 112.85 177.75
  Q 112.10 178.49 111.61 179.40
  Q 110.80 180.92 109.08 180.92
  L 100.73 180.95
  Q 99.03 180.95 99.64 179.37
  L 110.59 150.75
  Q 111.07 149.50 109.73 149.56
  L 103.70 149.83
  A 0.62 0.61 9.9 0 1 103.10 148.98
  L 107.84 137.99"
/>
<path stroke="#64c1a4" vector-effect="non-scaling-stroke" d="
  M 132.07 206.19
  Q 130.20 205.29 128.14 205.44
  Q 125.96 205.59 125.83 205.59
  Q 88.31 205.51 50.58 205.66"
/>
<path stroke="#fdefc3" vector-effect="non-scaling-stroke" d="
  M 97.45 260.68
  Q 99.14 262.18 100.72 263.50
  C 107.54 269.18 116.53 270.39 124.99 267.76
  C 131.79 265.65 136.77 263.80 142.85 263.98
  C 148.29 264.13 153.93 266.25 159.75 268.00
  Q 170.22 271.14 179.94 265.95
  Q 182.97 264.33 186.19 260.72"
/>
<path stroke="#faefbd" vector-effect="non-scaling-stroke" d="
  M 197.07 269.21
  L 196.39 269.42
  Q 195.92 269.56 195.72 270.02
  Q 194.89 271.93 192.82 274.07
  C 182.91 284.36 170.37 286.31 157.23 281.55
  C 150.06 278.94 143.01 277.06 135.68 279.30
  Q 132.75 280.19 129.82 281.12
  Q 127.93 281.71 125.95 281.85
  C 124.88 281.93 124.21 282.79 123.08 282.92
  C 121.20 283.13 119.71 283.21 117.69 283.75
  C 114.78 284.51 111.36 283.74 109.19 283.54
  C 104.50 283.09 99.88 280.62 96.10 277.96
  C 94.20 276.62 92.58 274.54 90.62 272.95
  Q 90.22 272.63 90.06 272.14
  Q 89.17 269.51 87.44 268.93"
/>
<path stroke="#a0b569" vector-effect="non-scaling-stroke" d="
  M 82.20 261.22
  L 87.44 268.93"
/>
<path stroke="#a0c59f" vector-effect="non-scaling-stroke" d="
  M 87.44 268.93
  L 80.74 274.61"
/>
<path stroke="#7994a4" vector-effect="non-scaling-stroke" d="
  M 147.76 197.90
  L 147.99 205.70"
/>
<path stroke="#6c8149" vector-effect="non-scaling-stroke" d="
  M 147.99 205.70
  Q 148.23 206.40 147.00 206.53
  Q 140.00 207.28 132.07 206.19"
/>
<path stroke="#7994a4" vector-effect="non-scaling-stroke" d="
  M 132.07 206.19
  L 132.31 196.75"
/>
<path stroke="#a0c59f" vector-effect="non-scaling-stroke" d="
  M 202.13 273.66
  L 197.07 269.21"
/>
<path stroke="#a0b569" vector-effect="non-scaling-stroke" d="
  M 197.07 269.21
  Q 196.66 268.68 196.97 268.25
  Q 199.35 264.89 202.53 260.47"
/>
<path stroke="#a8d69e" vector-effect="non-scaling-stroke" d="
  M 151.12 232.49
  L 151.21 248.66
  A 1.14 1.14 0.0 0 0 152.41 249.79
  L 152.93 249.77
  Q 154.07 249.71 154.07 248.57
  L 154.07 232.40
  Q 154.07 229.45 155.76 231.87
  L 158.55 235.87
  Q 159.18 236.77 160.06 236.14
  L 160.32 235.96
  Q 161.46 235.16 160.54 234.11
  L 154.30 227.03
  A 1.62 1.62 0.0 0 1 155.44 224.35
  L 157.67 224.24
  A 1.50 1.50 0.0 0 0 159.08 222.89
  L 159.12 222.48
  A 0.92 0.91 -87.4 0 0 158.21 221.48
  L 154.78 221.47
  A 0.70 0.70 0.0 0 1 154.08 220.78
  L 153.99 215.07
  A 1.33 1.33 0.0 0 0 152.66 213.77
  L 152.22 213.77
  A 1.04 1.04 0.0 0 0 151.17 214.82
  L 151.20 220.78
  A 0.73 0.72 0.0 0 1 150.47 221.50
  L 145.50 221.50
  A 0.93 0.92 -87.3 0 0 144.58 222.34
  L 144.51 223.09
  A 1.08 1.07 1.6 0 0 145.62 224.26
  L 149.58 224.13
  A 0.91 0.90 7.7 0 1 150.48 225.30
  Q 148.54 231.59 144.30 236.61
  A 2.56 2.55 58.0 0 0 143.78 238.88
  L 144.05 239.93
  A 0.63 0.63 0.0 0 0 145.15 240.16
  Q 148.05 236.46 149.95 232.25
  Q 151.11 229.69 151.12 232.49"
/>
<path stroke="#a8d69e" vector-effect="non-scaling-stroke" d="
  M 175.38 216.16
  L 174.42 214.68
  A 0.53 0.53 0.0 0 0 173.69 214.53
  L 162.06 222.11
  A 1.93 1.17 -33.1 0 0 161.08 224.14
  L 161.35 224.54
  A 1.93 1.17 -33.1 0 0 163.60 224.47
  L 175.23 216.89
  A 0.53 0.53 0.0 0 0 175.38 216.16"
/>
<path stroke="#a8d69e" vector-effect="non-scaling-stroke" d="
  M 136.6893 217.0256
  A 1.05 1.05 0.0 0 0 135.6375 215.9774
  L 109.7575 216.0226
  A 1.05 1.05 0.0 0 0 108.7093 217.0744
  L 108.7107 217.8544
  A 1.05 1.05 0.0 0 0 109.7625 218.9026
  L 135.6425 218.8574
  A 1.05 1.05 0.0 0 0 136.6907 217.8056
  L 136.6893 217.0256"
/>
<path stroke="#a8d69e" vector-effect="non-scaling-stroke" d="
  M 177.77 226.40
  L 176.48 224.40
  A 0.28 0.28 0.0 0 0 176.10 224.31
  L 163.47 232.45
  A 2.28 0.92 -32.8 0 0 162.05 234.46
  L 162.65 235.38
  A 2.28 0.92 -32.8 0 0 165.06 234.92
  L 177.69 226.79
  A 0.28 0.28 0.0 0 0 177.77 226.40"
/>
<path stroke="#a8d69e" vector-effect="non-scaling-stroke" d="
  M 132.51 242.50
  A 0.66 0.66 0.0 0 1 132.01 243.50
  L 113.25 245.28
  A 0.46 0.46 0.0 0 1 112.83 244.55
  Q 117.47 238.10 120.81 230.89
  Q 121.23 229.99 122.22 229.99
  L 139.30 229.94
  Q 140.05 229.94 140.07 229.20
  L 140.12 227.99
  Q 140.16 227.08 139.24 227.08
  L 105.76 227.02
  Q 105.04 227.02 105.03 227.74
  L 105.00 229.08
  Q 104.98 229.93 105.83 229.94
  L 117.49 230.00
  A 0.30 0.30 0.0 0 1 117.77 230.41
  Q 114.47 238.61 108.45 245.19
  C 107.47 246.26 107.31 247.70 108.76 248.46
  A 1.14 1.11 -33.3 0 0 109.38 248.58
  L 133.79 246.12
  A 0.72 0.72 0.0 0 1 134.48 246.48
  L 136.03 249.26
  A 0.98 0.98 0.0 0 0 137.48 249.56
  L 137.84 249.28
  A 1.72 1.72 0.0 0 0 138.27 247.04
  L 130.83 234.57
  A 0.96 0.96 0.0 0 0 129.16 234.60
  L 128.97 234.95
  Q 128.43 235.94 129.03 236.90
  L 132.51 242.50"
/>
<path stroke="#a8d69e" vector-effect="non-scaling-stroke" d="
  M 160.67 246.23
  A 1.23 1.22 71.3 0 0 159.96 247.67
  L 160.05 248.01
  Q 160.44 249.50 161.85 248.87
  Q 171.23 244.64 178.75 237.61
  A 1.06 1.05 51.1 0 0 178.89 236.24
  L 178.65 235.88
  A 1.29 1.28 -38.9 0 0 176.70 235.68
  Q 169.65 242.41 160.67 246.23"
/>
</g>
<path fill="#ffffff" d="
  M 0.00 0.00
  L 286.00 0.00
  L 286.00 303.00
  L 0.00 303.00
  L 0.00 0.00
  Z
  M 122.73 49.51
  C 114.03 43.57 100.48 48.47 93.75 54.61
  C 90.46 57.61 86.56 63.14 84.17 66.44
  Q 77.25 76.01 66.23 79.46
  C 53.00 83.61 42.45 88.27 38.55 102.67
  C 35.91 112.40 38.84 122.56 35.16 132.28
  C 32.11 140.35 25.00 146.38 21.86 154.53
  Q 17.79 165.12 21.66 175.57
  C 23.87 181.57 29.55 188.54 33.35 194.88
  Q 36.54 200.21 35.95 205.75
  Q 29.62 205.71 23.85 205.72
  Q 18.84 205.74 16.40 207.14
  Q 11.11 210.19 12.25 217.51
  Q 15.01 235.13 17.83 252.75
  Q 19.02 260.18 29.14 261.47
  L 37.43 269.62
  A 2.27 2.27 0.0 0 1 38.09 271.50
  Q 37.10 280.00 35.88 288.49
  Q 35.42 291.69 35.53 294.48
  A 1.44 1.44 0.0 0 0 37.49 295.76
  Q 59.88 286.98 80.74 274.61
  L 94.76 283.85
  Q 95.06 284.05 95.21 284.38
  Q 95.34 284.66 95.64 284.84
  Q 100.44 287.72 105.74 289.47
  C 108.54 290.40 111.88 290.80 114.95 291.35
  C 117.44 291.80 119.72 291.39 122.24 291.46
  C 126.85 291.59 131.03 290.34 135.57 290.04
  A 0.88 0.02 -23.5 0 0 136.31 289.74
  Q 136.49 289.66 136.76 289.65
  Q 144.42 289.25 150.35 289.86
  Q 150.83 289.91 151.21 290.21
  Q 151.56 290.48 152.05 290.35
  Q 152.44 290.25 152.84 290.31
  C 157.58 291.04 162.11 291.02 166.87 291.25
  Q 168.65 291.34 171.03 290.66
  Q 173.13 290.06 175.34 289.93
  Q 175.81 289.91 176.15 289.60
  Q 176.59 289.19 177.26 289.41
  A 1.18 1.16 -52.5 0 0 178.26 289.27
  C 180.31 287.89 182.52 287.72 184.44 286.45
  Q 186.36 285.17 188.32 283.94
  C 189.10 283.44 189.45 282.58 190.56 282.38
  Q 191.01 282.30 191.37 282.02
  L 202.13 273.66
  C 215.70 282.43 230.73 289.18 245.55 295.45
  Q 247.12 296.11 248.21 295.40
  A 1.36 1.35 -19.8 0 0 248.83 294.10
  L 246.17 271.59
  A 2.51 2.50 -24.8 0 1 246.95 269.48
  L 256.02 260.99
  Q 257.22 260.60 258.87 260.56
  C 264.65 260.41 268.04 257.74 269.02 251.74
  Q 271.65 235.50 274.35 219.27
  C 275.47 212.55 273.37 206.17 265.75 205.78
  Q 261.01 205.54 247.20 205.65
  Q 247.67 203.70 248.14 201.79
  C 249.69 195.46 254.53 189.24 259.28 182.27
  Q 268.35 168.96 262.19 153.96
  C 259.08 146.40 252.31 140.31 249.48 133.25
  C 245.75 123.95 248.04 114.76 246.20 105.30
  Q 242.85 88.07 225.46 82.13
  C 214.94 78.53 206.64 75.88 199.92 66.31
  C 191.08 53.72 182.92 45.13 166.00 47.42
  Q 160.70 48.13 158.60 51.16
  L 145.50 20.97
  L 140.72 9.49
  A 0.58 0.58 0.0 0 0 139.65 9.49
  L 122.73 49.51
  Z"
/>
<path fill="#37cb83" d="
  M 145.50 20.97
  Q 144.55 20.48 144.02 20.76
  Q 143.49 21.03 143.64 21.84
  Q 143.77 22.56 144.25 23.38
  C 145.95 26.27 146.82 31.93 147.53 35.64
  C 148.63 41.31 150.35 46.80 151.70 52.38
  Q 151.81 52.81 152.14 53.10
  L 152.53 53.44
  Q 152.11 53.62 151.90 53.91
  Q 142.21 52.93 132.49 54.36
  Q 132.00 54.44 131.82 54.90
  Q 130.41 58.63 127.92 61.71
  C 126.85 63.03 125.08 66.49 124.68 68.02
  C 123.86 71.18 123.53 73.89 122.14 77.02
  Q 119.76 82.38 119.61 87.66
  L 113.91 88.10
  A 0.73 0.72 10.2 0 1 113.19 87.07
  L 125.01 61.89
  L 128.12 54.64
  A 0.67 0.67 0.0 0 0 127.50 53.70
  L 121.98 53.72
  Q 121.31 53.72 121.53 53.08
  L 122.73 49.51
  L 139.65 9.49
  A 0.58 0.58 0.0 0 1 140.72 9.49
  L 145.50 20.97
  Z"
/>
<path fill="#1fad71" d="
  M 145.50 20.97
  L 158.60 51.16
  L 158.98 53.16
  Q 159.09 53.74 158.50 53.71
  L 152.53 53.44
  L 152.14 53.10
  Q 151.81 52.81 151.70 52.38
  C 150.35 46.80 148.63 41.31 147.53 35.64
  C 146.82 31.93 145.95 26.27 144.25 23.38
  Q 143.77 22.56 143.64 21.84
  Q 143.49 21.03 144.02 20.76
  Q 144.55 20.48 145.50 20.97
  Z"
/>
<path fill="#fadf87" d="
  M 122.73 49.51
  L 121.53 53.08
  Q 121.31 53.72 121.98 53.72
  L 127.50 53.70
  A 0.67 0.67 0.0 0 1 128.12 54.64
  L 125.01 61.89
  Q 105.77 58.70 95.39 73.36
  C 88.42 83.21 83.16 87.54 72.57 91.20
  Q 65.32 93.72 63.60 94.66
  Q 51.66 101.20 50.55 115.99
  Q 50.40 118.12 50.28 120.76
  L 49.76 130.47
  C 48.10 138.87 44.17 143.81 39.64 150.36
  Q 31.16 162.64 37.30 176.44
  Q 39.14 180.57 44.91 187.67
  Q 50.37 196.52 50.58 205.66
  L 35.95 205.75
  Q 36.54 200.21 33.35 194.88
  C 29.55 188.54 23.87 181.57 21.66 175.57
  Q 17.79 165.12 21.86 154.53
  C 25.00 146.38 32.11 140.35 35.16 132.28
  C 38.84 122.56 35.91 112.40 38.55 102.67
  C 42.45 88.27 53.00 83.61 66.23 79.46
  Q 77.25 76.01 84.17 66.44
  C 86.56 63.14 90.46 57.61 93.75 54.61
  C 100.48 48.47 114.03 43.57 122.73 49.51
  Z"
/>
<path fill="#fadf87" d="
  M 247.20 205.65
  L 234.16 205.74
  L 234.48 199.17
  Q 236.18 192.87 238.40 189.18
  C 240.84 185.15 245.54 179.58 247.46 174.77
  Q 249.91 168.63 249.30 162.09
  C 248.57 155.19 243.83 149.04 239.62 143.15
  Q 236.24 138.41 234.76 132.20
  Q 233.98 126.40 233.79 120.19
  Q 233.55 112.55 232.60 109.41
  Q 229.47 99.05 219.69 94.14
  C 215.63 92.10 208.74 90.50 203.75 88.04
  C 194.52 83.48 191.83 75.17 184.83 68.59
  Q 173.33 57.77 156.24 63.44
  L 151.90 53.91
  Q 152.11 53.62 152.53 53.44
  L 158.50 53.71
  Q 159.09 53.74 158.98 53.16
  L 158.60 51.16
  Q 160.70 48.13 166.00 47.42
  C 182.92 45.13 191.08 53.72 199.92 66.31
  C 206.64 75.88 214.94 78.53 225.46 82.13
  Q 242.85 88.07 246.20 105.30
  C 248.04 114.76 245.75 123.95 249.48 133.25
  C 252.31 140.31 259.08 146.40 262.19 153.96
  Q 268.35 168.96 259.28 182.27
  C 254.53 189.24 249.69 195.46 248.14 201.79
  Q 247.67 203.70 247.20 205.65
  Z"
/>
<path fill="#1fad71" d="
  M 151.90 53.91
  L 156.24 63.44
  L 167.35 87.12
  A 0.70 0.70 0.0 0 1 166.73 88.12
  L 159.35 88.25
  Q 158.70 87.44 157.73 87.72
  C 155.06 88.47 153.37 88.23 151.85 85.67
  Q 151.57 85.18 151.16 85.46
  Q 150.84 85.67 150.83 86.05
  L 150.79 87.21
  Q 150.76 87.94 150.03 87.94
  L 125.09 88.10
  A 1.05 1.04 -5.1 0 0 124.06 89.32
  C 124.64 92.69 122.15 95.73 121.33 97.96
  C 119.74 102.29 118.16 106.44 115.98 110.52
  Q 114.90 112.54 114.32 114.60
  Q 112.63 117.82 109.56 117.62
  Q 108.02 117.52 108.65 116.11
  Q 114.67 102.79 120.77 89.01
  Q 121.39 87.60 119.61 87.66
  Q 119.76 82.38 122.14 77.02
  C 123.53 73.89 123.86 71.18 124.68 68.02
  C 125.08 66.49 126.85 63.03 127.92 61.71
  Q 130.41 58.63 131.82 54.90
  Q 132.00 54.44 132.49 54.36
  Q 142.21 52.93 151.90 53.91
  Z"
/>
<path fill="#ffffff" d="
  M 125.01 61.89
  L 113.19 87.07
  A 0.73 0.72 10.2 0 0 113.91 88.10
  L 119.61 87.66
  Q 121.39 87.60 120.77 89.01
  Q 114.67 102.79 108.65 116.11
  Q 108.02 117.52 109.56 117.62
  Q 112.63 117.82 114.32 114.60
  L 115.80 118.00
  Q 116.01 118.47 115.81 118.95
  L 107.84 137.99
  Q 106.61 139.14 105.76 138.69
  Q 95.57 133.32 85.19 128.75
  Q 78.48 125.47 72.05 122.12
  C 66.21 119.08 59.54 118.28 53.22 120.15
  Q 51.75 120.58 50.28 120.76
  Q 50.40 118.12 50.55 115.99
  Q 51.66 101.20 63.60 94.66
  Q 65.32 93.72 72.57 91.20
  C 83.16 87.54 88.42 83.21 95.39 73.36
  Q 105.77 58.70 125.01 61.89
  Z"
/>
<path fill="#ffffff" d="
  M 234.76 132.20
  Q 211.76 125.08 204.46 123.31
  Q 198.44 121.84 193.00 123.02
  Q 182.61 125.27 169.05 129.42
  L 164.27 118.00
  A 0.46 0.46 0.0 0 1 164.70 117.36
  L 171.58 117.41
  A 0.50 0.49 -12.1 0 0 172.04 116.71
  L 159.35 88.25
  L 166.73 88.12
  A 0.70 0.70 0.0 0 0 167.35 87.12
  L 156.24 63.44
  Q 173.33 57.77 184.83 68.59
  C 191.83 75.17 194.52 83.48 203.75 88.04
  C 208.74 90.50 215.63 92.10 219.69 94.14
  Q 229.47 99.05 232.60 109.41
  Q 233.55 112.55 233.79 120.19
  Q 233.98 126.40 234.76 132.20
  Z"
/>
<path fill="#068958" d="
  M 159.35 88.25
  L 172.04 116.71
  A 0.50 0.49 -12.1 0 1 171.58 117.41
  L 164.70 117.36
  A 0.46 0.46 0.0 0 0 164.27 118.00
  L 169.05 129.42
  L 176.93 148.25
  Q 177.21 148.77 177.27 149.28
  A 0.50 0.49 0.5 0 1 176.72 149.81
  C 175.27 149.61 174.73 148.15 174.00 147.30
  Q 172.89 146.03 172.51 147.67
  L 172.19 149.07
  Q 172.06 149.67 171.45 149.74
  Q 170.80 149.82 170.16 149.63
  A 0.49 0.49 0.0 0 0 169.57 150.28
  L 181.02 179.95
  A 0.77 0.77 0.0 0 1 180.29 181.00
  L 163.03 180.90
  A 1.34 1.34 0.0 0 1 161.85 180.20
  L 159.73 176.36
  Q 158.60 174.32 158.69 176.65
  L 158.83 180.42
  Q 158.85 180.95 158.33 180.96
  L 147.61 181.23
  C 144.08 180.43 139.67 180.87 136.00 180.76
  Q 134.71 180.72 133.90 181.62
  Q 133.58 181.97 133.19 181.69
  Q 132.85 181.44 132.52 180.94
  L 114.35 180.99
  Q 113.79 180.99 113.73 180.43
  L 113.46 177.96
  A 0.36 0.36 0.0 0 0 112.85 177.75
  Q 112.10 178.49 111.61 179.40
  Q 110.80 180.92 109.08 180.92
  L 100.73 180.95
  Q 99.03 180.95 99.64 179.37
  L 110.59 150.75
  Q 111.07 149.50 109.73 149.56
  L 103.70 149.83
  A 0.62 0.61 9.9 0 1 103.10 148.98
  L 107.84 137.99
  L 115.81 118.95
  Q 116.01 118.47 115.80 118.00
  L 114.32 114.60
  Q 114.90 112.54 115.98 110.52
  C 118.16 106.44 119.74 102.29 121.33 97.96
  C 122.15 95.73 124.64 92.69 124.06 89.32
  A 1.05 1.04 -5.1 0 1 125.09 88.10
  L 150.03 87.94
  Q 150.76 87.94 150.79 87.21
  L 150.83 86.05
  Q 150.84 85.67 151.16 85.46
  Q 151.57 85.18 151.85 85.67
  C 153.37 88.23 155.06 88.47 157.73 87.72
  Q 158.70 87.44 159.35 88.25
  Z"
/>
<path fill="#d9f3f2" d="
  M 85.19 128.75
  C 80.07 135.04 74.85 125.99 70.95 132.07
  Q 70.11 133.37 68.78 132.58
  C 65.87 130.86 63.62 130.95 59.93 131.78
  Q 55.29 132.82 49.76 130.47
  L 50.28 120.76
  Q 51.75 120.58 53.22 120.15
  C 59.54 118.28 66.21 119.08 72.05 122.12
  Q 78.48 125.47 85.19 128.75
  Z"
/>
<path fill="#d9f3f2" d="
  M 234.76 132.20
  Q 236.24 138.41 239.62 143.15
  C 243.83 149.04 248.57 155.19 249.30 162.09
  Q 246.54 159.62 243.95 158.59
  Q 230.09 153.03 207.46 144.39
  Q 200.84 141.86 193.52 143.32
  Q 184.45 145.11 176.93 148.25
  L 169.05 129.42
  Q 182.61 125.27 193.00 123.02
  Q 198.44 121.84 204.46 123.31
  Q 211.76 125.08 234.76 132.20
  Z"
/>
<path fill="#c3e4dd" d="
  M 85.19 128.75
  Q 95.57 133.32 105.76 138.69
  Q 106.61 139.14 107.84 137.99
  L 103.10 148.98
  A 0.62 0.61 9.9 0 0 103.70 149.83
  L 109.73 149.56
  Q 111.07 149.50 110.59 150.75
  L 99.64 179.37
  Q 99.03 180.95 100.73 180.95
  L 109.08 180.92
  Q 110.80 180.92 111.61 179.40
  Q 112.10 178.49 112.85 177.75
  A 0.36 0.36 0.0 0 1 113.46 177.96
  L 113.73 180.43
  Q 113.79 180.99 114.35 180.99
  L 132.52 180.94
  L 132.31 196.75
  Q 118.30 191.57 114.57 190.61
  C 104.34 187.98 96.52 187.38 85.50 187.24
  Q 65.62 186.99 44.91 187.67
  Q 39.14 180.57 37.30 176.44
  Q 31.16 162.64 39.64 150.36
  C 44.17 143.81 48.10 138.87 49.76 130.47
  Q 55.29 132.82 59.93 131.78
  C 63.62 130.95 65.87 130.86 68.78 132.58
  Q 70.11 133.37 70.95 132.07
  C 74.85 125.99 80.07 135.04 85.19 128.75
  Z"
/>
<path fill="#c3e4dd" d="
  M 249.30 162.09
  Q 249.91 168.63 247.46 174.77
  C 245.54 179.58 240.84 185.15 238.40 189.18
  Q 236.18 192.87 234.48 199.17
  Q 234.44 198.47 234.17 198.10
  Q 233.92 197.77 233.23 197.77
  Q 190.57 197.63 147.76 197.90
  L 147.61 181.23
  L 158.33 180.96
  Q 158.85 180.95 158.83 180.42
  L 158.69 176.65
  Q 158.60 174.32 159.73 176.36
  L 161.85 180.20
  A 1.34 1.34 0.0 0 0 163.03 180.90
  L 180.29 181.00
  A 0.77 0.77 0.0 0 0 181.02 179.95
  L 169.57 150.28
  A 0.49 0.49 0.0 0 1 170.16 149.63
  Q 170.80 149.82 171.45 149.74
  Q 172.06 149.67 172.19 149.07
  L 172.51 147.67
  Q 172.89 146.03 174.00 147.30
  C 174.73 148.15 175.27 149.61 176.72 149.81
  A 0.50 0.49 0.5 0 0 177.27 149.28
  Q 177.21 148.77 176.93 148.25
  Q 184.45 145.11 193.52 143.32
  Q 200.84 141.86 207.46 144.39
  Q 230.09 153.03 243.95 158.59
  Q 246.54 159.62 249.30 162.09
  Z"
/>
<path fill="#815449" d="
  M 147.61 181.23
  L 147.76 197.90
  L 147.99 205.70
  Q 148.23 206.40 147.00 206.53
  Q 140.00 207.28 132.07 206.19
  L 132.31 196.75
  L 132.52 180.94
  Q 132.85 181.44 133.19 181.69
  Q 133.58 181.97 133.90 181.62
  Q 134.71 180.72 136.00 180.76
  C 139.67 180.87 144.08 180.43 147.61 181.23
  Z"
/>
<path fill="#71d4fe" d="
  M 132.31 196.75
  L 132.07 206.19
  Q 130.20 205.29 128.14 205.44
  Q 125.96 205.59 125.83 205.59
  Q 88.31 205.51 50.58 205.66
  Q 50.37 196.52 44.91 187.67
  Q 65.62 186.99 85.50 187.24
  C 96.52 187.38 104.34 187.98 114.57 190.61
  Q 118.30 191.57 132.31 196.75
  Z"
/>
<path fill="#71d4fe" d="
  M 234.48 199.17
  L 234.16 205.74
  L 147.99 205.70
  L 147.76 197.90
  Q 190.57 197.63 233.23 197.77
  Q 233.92 197.77 234.17 198.10
  Q 234.44 198.47 234.48 199.17
  Z"
/>
<path fill="#56ad49" d="
  M 50.58 205.66
  Q 88.31 205.51 125.83 205.59
  Q 125.96 205.59 128.14 205.44
  Q 130.20 205.29 132.07 206.19
  Q 140.00 207.28 147.00 206.53
  Q 148.23 206.40 147.99 205.70
  L 234.16 205.74
  L 247.20 205.65
  Q 261.01 205.54 265.75 205.78
  C 273.37 206.17 275.47 212.55 274.35 219.27
  Q 271.65 235.50 269.02 251.74
  C 268.04 257.74 264.65 260.41 258.87 260.56
  Q 257.22 260.60 256.02 260.99
  Q 253.27 259.83 250.28 260.05
  Q 245.74 260.39 245.69 260.39
  Q 223.94 260.15 202.53 260.47
  L 186.19 260.72
  L 97.45 260.68
  Q 92.13 260.86 82.50 260.49
  Q 81.93 260.46 82.20 261.22
  Q 81.50 260.35 80.75 260.33
  Q 63.75 259.84 42.16 260.53
  C 38.60 260.65 35.12 260.14 31.54 259.90
  Q 30.69 259.84 30.07 260.13
  Q 28.74 260.76 29.14 261.47
  Q 19.02 260.18 17.83 252.75
  Q 15.01 235.13 12.25 217.51
  Q 11.11 210.19 16.40 207.14
  Q 18.84 205.74 23.85 205.72
  Q 29.62 205.71 35.95 205.75
  L 50.58 205.66
  Z
  M 151.12 232.49
  L 151.21 248.66
  A 1.14 1.14 0.0 0 0 152.41 249.79
  L 152.93 249.77
  Q 154.07 249.71 154.07 248.57
  L 154.07 232.40
  Q 154.07 229.45 155.76 231.87
  L 158.55 235.87
  Q 159.18 236.77 160.06 236.14
  L 160.32 235.96
  Q 161.46 235.16 160.54 234.11
  L 154.30 227.03
  A 1.62 1.62 0.0 0 1 155.44 224.35
  L 157.67 224.24
  A 1.50 1.50 0.0 0 0 159.08 222.89
  L 159.12 222.48
  A 0.92 0.91 -87.4 0 0 158.21 221.48
  L 154.78 221.47
  A 0.70 0.70 0.0 0 1 154.08 220.78
  L 153.99 215.07
  A 1.33 1.33 0.0 0 0 152.66 213.77
  L 152.22 213.77
  A 1.04 1.04 0.0 0 0 151.17 214.82
  L 151.20 220.78
  A 0.73 0.72 0.0 0 1 150.47 221.50
  L 145.50 221.50
  A 0.93 0.92 -87.3 0 0 144.58 222.34
  L 144.51 223.09
  A 1.08 1.07 1.6 0 0 145.62 224.26
  L 149.58 224.13
  A 0.91 0.90 7.7 0 1 150.48 225.30
  Q 148.54 231.59 144.30 236.61
  A 2.56 2.55 58.0 0 0 143.78 238.88
  L 144.05 239.93
  A 0.63 0.63 0.0 0 0 145.15 240.16
  Q 148.05 236.46 149.95 232.25
  Q 151.11 229.69 151.12 232.49
  Z
  M 175.38 216.16
  L 174.42 214.68
  A 0.53 0.53 0.0 0 0 173.69 214.53
  L 162.06 222.11
  A 1.93 1.17 -33.1 0 0 161.08 224.14
  L 161.35 224.54
  A 1.93 1.17 -33.1 0 0 163.60 224.47
  L 175.23 216.89
  A 0.53 0.53 0.0 0 0 175.38 216.16
  Z
  M 136.6893 217.0256
  A 1.05 1.05 0.0 0 0 135.6375 215.9774
  L 109.7575 216.0226
  A 1.05 1.05 0.0 0 0 108.7093 217.0744
  L 108.7107 217.8544
  A 1.05 1.05 0.0 0 0 109.7625 218.9026
  L 135.6425 218.8574
  A 1.05 1.05 0.0 0 0 136.6907 217.8056
  L 136.6893 217.0256
  Z
  M 177.77 226.40
  L 176.48 224.40
  A 0.28 0.28 0.0 0 0 176.10 224.31
  L 163.47 232.45
  A 2.28 0.92 -32.8 0 0 162.05 234.46
  L 162.65 235.38
  A 2.28 0.92 -32.8 0 0 165.06 234.92
  L 177.69 226.79
  A 0.28 0.28 0.0 0 0 177.77 226.40
  Z
  M 132.51 242.50
  A 0.66 0.66 0.0 0 1 132.01 243.50
  L 113.25 245.28
  A 0.46 0.46 0.0 0 1 112.83 244.55
  Q 117.47 238.10 120.81 230.89
  Q 121.23 229.99 122.22 229.99
  L 139.30 229.94
  Q 140.05 229.94 140.07 229.20
  L 140.12 227.99
  Q 140.16 227.08 139.24 227.08
  L 105.76 227.02
  Q 105.04 227.02 105.03 227.74
  L 105.00 229.08
  Q 104.98 229.93 105.83 229.94
  L 117.49 230.00
  A 0.30 0.30 0.0 0 1 117.77 230.41
  Q 114.47 238.61 108.45 245.19
  C 107.47 246.26 107.31 247.70 108.76 248.46
  A 1.14 1.11 -33.3 0 0 109.38 248.58
  L 133.79 246.12
  A 0.72 0.72 0.0 0 1 134.48 246.48
  L 136.03 249.26
  A 0.98 0.98 0.0 0 0 137.48 249.56
  L 137.84 249.28
  A 1.72 1.72 0.0 0 0 138.27 247.04
  L 130.83 234.57
  A 0.96 0.96 0.0 0 0 129.16 234.60
  L 128.97 234.95
  Q 128.43 235.94 129.03 236.90
  L 132.51 242.50
  Z
  M 160.67 246.23
  A 1.23 1.22 71.3 0 0 159.96 247.67
  L 160.05 248.01
  Q 160.44 249.50 161.85 248.87
  Q 171.23 244.64 178.75 237.61
  A 1.06 1.05 51.1 0 0 178.89 236.24
  L 178.65 235.88
  A 1.29 1.28 -38.9 0 0 176.70 235.68
  Q 169.65 242.41 160.67 246.23
  Z"
/>
<path fill="#fafff3" d="
  M 151.12 232.49
  Q 151.11 229.69 149.95 232.25
  Q 148.05 236.46 145.15 240.16
  A 0.63 0.63 0.0 0 1 144.05 239.93
  L 143.78 238.88
  A 2.56 2.55 58.0 0 1 144.30 236.61
  Q 148.54 231.59 150.48 225.30
  A 0.91 0.90 7.7 0 0 149.58 224.13
  L 145.62 224.26
  A 1.08 1.07 1.6 0 1 144.51 223.09
  L 144.58 222.34
  A 0.93 0.92 -87.3 0 1 145.50 221.50
  L 150.47 221.50
  A 0.73 0.72 0.0 0 0 151.20 220.78
  L 151.17 214.82
  A 1.04 1.04 0.0 0 1 152.22 213.77
  L 152.66 213.77
  A 1.33 1.33 0.0 0 1 153.99 215.07
  L 154.08 220.78
  A 0.70 0.70 0.0 0 0 154.78 221.47
  L 158.21 221.48
  A 0.92 0.91 -87.4 0 1 159.12 222.48
  L 159.08 222.89
  A 1.50 1.50 0.0 0 1 157.67 224.24
  L 155.44 224.35
  A 1.62 1.62 0.0 0 0 154.30 227.03
  L 160.54 234.11
  Q 161.46 235.16 160.32 235.96
  L 160.06 236.14
  Q 159.18 236.77 158.55 235.87
  L 155.76 231.87
  Q 154.07 229.45 154.07 232.40
  L 154.07 248.57
  Q 154.07 249.71 152.93 249.77
  L 152.41 249.79
  A 1.14 1.14 0.0 0 1 151.21 248.66
  L 151.12 232.49
  Z"
/>
<path fill="#fafff3" d="
  M 175.38 216.16
  A 0.53 0.53 0.0 0 1 175.23 216.89
  L 163.60 224.47
  A 1.93 1.17 -33.1 0 1 161.35 224.54
  L 161.08 224.14
  A 1.93 1.17 -33.1 0 1 162.06 222.11
  L 173.69 214.53
  A 0.53 0.53 0.0 0 1 174.42 214.68
  L 175.38 216.16
  Z"
/>
<rect fill="#fafff3" x="-13.99" y="-1.44" transform="translate(122.70,217.44) rotate(-0.1)" width="27.98" height="2.88" rx="1.05"/>
<path fill="#fafff3" d="
  M 177.77 226.40
  A 0.28 0.28 0.0 0 1 177.69 226.79
  L 165.06 234.92
  A 2.28 0.92 -32.8 0 1 162.65 235.38
  L 162.05 234.46
  A 2.28 0.92 -32.8 0 1 163.47 232.45
  L 176.10 224.31
  A 0.28 0.28 0.0 0 1 176.48 224.40
  L 177.77 226.40
  Z"
/>
<path fill="#fafff3" d="
  M 132.51 242.50
  L 129.03 236.90
  Q 128.43 235.94 128.97 234.95
  L 129.16 234.60
  A 0.96 0.96 0.0 0 1 130.83 234.57
  L 138.27 247.04
  A 1.72 1.72 0.0 0 1 137.84 249.28
  L 137.48 249.56
  A 0.98 0.98 0.0 0 1 136.03 249.26
  L 134.48 246.48
  A 0.72 0.72 0.0 0 0 133.79 246.12
  L 109.38 248.58
  A 1.14 1.11 -33.3 0 1 108.76 248.46
  C 107.31 247.70 107.47 246.26 108.45 245.19
  Q 114.47 238.61 117.77 230.41
  A 0.30 0.30 0.0 0 0 117.49 230.00
  L 105.83 229.94
  Q 104.98 229.93 105.00 229.08
  L 105.03 227.74
  Q 105.04 227.02 105.76 227.02
  L 139.24 227.08
  Q 140.16 227.08 140.12 227.99
  L 140.07 229.20
  Q 140.05 229.94 139.30 229.94
  L 122.22 229.99
  Q 121.23 229.99 120.81 230.89
  Q 117.47 238.10 112.83 244.55
  A 0.46 0.46 0.0 0 0 113.25 245.28
  L 132.01 243.50
  A 0.66 0.66 0.0 0 0 132.51 242.50
  Z"
/>
<path fill="#fafff3" d="
  M 160.67 246.23
  Q 169.65 242.41 176.70 235.68
  A 1.29 1.28 -38.9 0 1 178.65 235.88
  L 178.89 236.24
  A 1.06 1.05 51.1 0 1 178.75 237.61
  Q 171.23 244.64 161.85 248.87
  Q 160.44 249.50 160.05 248.01
  L 159.96 247.67
  A 1.23 1.22 71.3 0 1 160.67 246.23
  Z"
/>
<path fill="#458b4a" d="
  M 82.20 261.22
  L 87.44 268.93
  L 80.74 274.61
  Q 59.88 286.98 37.49 295.76
  A 1.44 1.44 0.0 0 1 35.53 294.48
  Q 35.42 291.69 35.88 288.49
  Q 37.10 280.00 38.09 271.50
  A 2.27 2.27 0.0 0 0 37.43 269.62
  L 29.14 261.47
  Q 28.74 260.76 30.07 260.13
  Q 30.69 259.84 31.54 259.90
  C 35.12 260.14 38.60 260.65 42.16 260.53
  Q 63.75 259.84 80.75 260.33
  Q 81.50 260.35 82.20 261.22
  Z"
/>
<path fill="#458b4a" d="
  M 256.02 260.99
  L 246.95 269.48
  A 2.51 2.50 -24.8 0 0 246.17 271.59
  L 248.83 294.10
  A 1.36 1.35 -19.8 0 1 248.21 295.40
  Q 247.12 296.11 245.55 295.45
  C 230.73 289.18 215.70 282.43 202.13 273.66
  L 197.07 269.21
  Q 196.66 268.68 196.97 268.25
  Q 199.35 264.89 202.53 260.47
  Q 223.94 260.15 245.69 260.39
  Q 245.74 260.39 250.28 260.05
  Q 253.27 259.83 256.02 260.99
  Z"
/>
<path fill="#fadf87" d="
  M 97.45 260.68
  Q 99.14 262.18 100.72 263.50
  C 107.54 269.18 116.53 270.39 124.99 267.76
  C 131.79 265.65 136.77 263.80 142.85 263.98
  C 148.29 264.13 153.93 266.25 159.75 268.00
  Q 170.22 271.14 179.94 265.95
  Q 182.97 264.33 186.19 260.72
  L 202.53 260.47
  Q 199.35 264.89 196.97 268.25
  Q 196.66 268.68 197.07 269.21
  L 196.39 269.42
  Q 195.92 269.56 195.72 270.02
  Q 194.89 271.93 192.82 274.07
  C 182.91 284.36 170.37 286.31 157.23 281.55
  C 150.06 278.94 143.01 277.06 135.68 279.30
  Q 132.75 280.19 129.82 281.12
  Q 127.93 281.71 125.95 281.85
  C 124.88 281.93 124.21 282.79 123.08 282.92
  C 121.20 283.13 119.71 283.21 117.69 283.75
  C 114.78 284.51 111.36 283.74 109.19 283.54
  C 104.50 283.09 99.88 280.62 96.10 277.96
  C 94.20 276.62 92.58 274.54 90.62 272.95
  Q 90.22 272.63 90.06 272.14
  Q 89.17 269.51 87.44 268.93
  L 82.20 261.22
  Q 81.93 260.46 82.50 260.49
  Q 92.13 260.86 97.45 260.68
  Z"
/>
<path fill="#ffffff" d="
  M 186.19 260.72
  Q 182.97 264.33 179.94 265.95
  Q 170.22 271.14 159.75 268.00
  C 153.93 266.25 148.29 264.13 142.85 263.98
  C 136.77 263.80 131.79 265.65 124.99 267.76
  C 116.53 270.39 107.54 269.18 100.72 263.50
  Q 99.14 262.18 97.45 260.68
  L 186.19 260.72
  Z"
/>
<path fill="#fafff3" d="
  M 87.44 268.93
  Q 89.17 269.51 90.06 272.14
  Q 90.22 272.63 90.62 272.95
  C 92.58 274.54 94.20 276.62 96.10 277.96
  C 99.88 280.62 104.50 283.09 109.19 283.54
  C 111.36 283.74 114.78 284.51 117.69 283.75
  C 119.71 283.21 121.20 283.13 123.08 282.92
  C 124.21 282.79 124.88 281.93 125.95 281.85
  Q 127.93 281.71 129.82 281.12
  Q 132.75 280.19 135.68 279.30
  C 143.01 277.06 150.06 278.94 157.23 281.55
  C 170.37 286.31 182.91 284.36 192.82 274.07
  Q 194.89 271.93 195.72 270.02
  Q 195.92 269.56 196.39 269.42
  L 197.07 269.21
  L 202.13 273.66
  L 191.37 282.02
  Q 191.01 282.30 190.56 282.38
  C 189.45 282.58 189.10 283.44 188.32 283.94
  Q 186.36 285.17 184.44 286.45
  C 182.52 287.72 180.31 287.89 178.26 289.27
  A 1.18 1.16 -52.5 0 1 177.26 289.41
  Q 176.59 289.19 176.15 289.60
  Q 175.81 289.91 175.34 289.93
  Q 173.13 290.06 171.03 290.66
  Q 168.65 291.34 166.87 291.25
  C 162.11 291.02 157.58 291.04 152.84 290.31
  Q 152.44 290.25 152.05 290.35
  Q 151.56 290.48 151.21 290.21
  Q 150.83 289.91 150.35 289.86
  Q 144.42 289.25 136.76 289.65
  Q 136.49 289.66 136.31 289.74
  A 0.88 0.02 -23.5 0 1 135.57 290.04
  C 131.03 290.34 126.85 291.59 122.24 291.46
  C 119.72 291.39 117.44 291.80 114.95 291.35
  C 111.88 290.80 108.54 290.40 105.74 289.47
  Q 100.44 287.72 95.64 284.84
  Q 95.34 284.66 95.21 284.38
  Q 95.06 284.05 94.76 283.85
  L 80.74 274.61
  L 87.44 268.93
  Z"
/>
</svg>
