<?xml version="1.0" encoding="UTF-8" standalone="no"?>
<!DOCTYPE svg PUBLIC "-//W3C//DTD SVG 1.1//EN" "http://www.w3.org/Graphics/SVG/1.1/DTD/svg11.dtd">
<svg xmlns="http://www.w3.org/2000/svg" version="1.1" viewBox="0.00 0.00 284.00 291.00">
<g stroke-width="2.00" fill="none" stroke-linecap="butt">
<path stroke="#a3cfa8" vector-effect="non-scaling-stroke" d="
  M 129.67 12.35
  C 128.11 11.75 126.34 10.78 124.71 11.13
  Q 121.50 11.82 119.23 15.94
  Q 119.13 16.12 118.93 16.11
  C 114.27 15.91 110.22 17.02 110.72 22.77
  Q 111.16 27.96 116.26 28.52
  Q 120.49 28.99 129.76 28.70
  Q 130.57 28.68 131.32 29.49"
/>
<path stroke="#afa2a0" vector-effect="non-scaling-stroke" d="
  M 131.32 29.49
  Q 134.02 32.53 136.70 35.53
  Q 138.15 37.16 136.43 40.18"
/>
<path stroke="#a3cfa8" vector-effect="non-scaling-stroke" d="
  M 136.43 40.18
  Q 134.47 40.35 132.49 39.69
  A 1.82 1.74 78.3 0 1 131.68 39.13
  Q 129.41 36.36 126.04 35.62
  C 121.83 34.69 119.13 31.49 114.50 33.23"
/>
<path stroke="#abd6a5" vector-effect="non-scaling-stroke" d="
  M 114.50 33.23
  Q 112.64 33.70 110.93 35.74"
/>
<path stroke="#fdefc3" vector-effect="non-scaling-stroke" d="
  M 110.93 35.74
  C 99.00 35.54 91.26 41.18 84.50 50.24
  C 80.06 56.20 76.86 60.82 71.22 64.37
  C 64.68 68.50 55.91 69.62 48.83 73.60
  C 40.49 78.28 35.84 85.65 34.02 94.96
  C 32.82 101.12 33.53 106.80 33.00 112.75
  C 32.14 122.42 27.73 128.54 21.56 136.77
  Q 17.12 142.70 15.94 151.17"
/>
<path stroke="#f8f1e7" vector-effect="non-scaling-stroke" d="
  M 15.94 151.17
  Q 14.46 156.27 16.88 161.81"
/>
<path stroke="#fdefc3" vector-effect="non-scaling-stroke" d="
  M 16.88 161.81
  C 18.14 165.45 19.79 169.31 22.29 172.34
  C 23.92 174.31 25.23 176.61 26.62 178.75
  Q 28.04 180.91 28.75 183.63
  Q 29.78 187.60 31.13 191.49
  A 0.25 0.25 0.0 0 0 31.46 191.63
  Q 31.66 191.55 31.75 191.76
  Q 32.10 192.57 32.12 192.62
  L 32.57 194.43"
/>
<path stroke="#abd6a5" vector-effect="non-scaling-stroke" d="
  M 32.57 194.43
  Q 23.19 194.00 20.02 194.21
  Q 12.53 194.70 10.65 200.54
  Q 9.70 203.48 10.77 210.48
  Q 12.97 224.78 15.34 239.06
  C 16.30 244.83 17.88 248.37 23.56 249.82"
/>
<path stroke="#a2c6a5" vector-effect="non-scaling-stroke" d="
  M 23.56 249.82
  Q 29.08 253.73 34.09 259.16
  A 1.31 1.27 -63.3 0 1 34.42 260.21
  Q 33.13 269.83 32.13 279.76
  Q 31.88 282.20 32.09 283.20
  Q 32.60 285.65 34.91 284.71
  Q 54.88 276.56 73.26 266.45"
/>
<path stroke="#f8f1e7" vector-effect="non-scaling-stroke" d="
  M 73.26 266.45
  L 74.60 266.18
  Q 75.09 266.09 75.33 266.53
  C 76.37 268.49 80.90 271.82 82.82 273.14
  C 85.39 274.91 87.38 277.03 90.14 278.41
  C 98.27 282.48 103.98 285.59 114.24 285.49
  Q 121.38 285.42 128.51 285.68
  Q 128.98 285.70 129.40 285.47
  C 130.81 284.73 132.42 285.10 133.54 284.95
  C 136.10 284.60 138.56 284.18 141.17 284.42
  Q 147.59 285.00 154.00 285.68
  Q 155.88 285.88 158.46 285.41
  C 162.06 284.75 166.18 285.47 169.41 285.39
  A 1.43 1.36 24.3 0 0 170.24 285.10
  C 171.20 284.36 172.41 284.68 173.36 284.40
  Q 175.45 283.80 177.55 283.22
  C 180.44 282.40 182.85 280.87 185.52 279.52
  Q 187.46 278.54 189.11 276.95
  C 193.04 273.16 196.81 271.35 200.81 268.56
  Q 201.07 268.38 201.39 268.38
  Q 201.59 268.39 201.80 268.41
  Q 201.97 268.42 202.03 268.27
  Q 202.43 267.24 203.23 267.00
  Q 204.03 266.75 204.03 266.75
  Q 204.58 266.47 205.50 266.69"
/>
<path stroke="#a2c6a5" vector-effect="non-scaling-stroke" d="
  M 205.50 266.69
  Q 223.15 276.46 241.81 284.25
  Q 243.74 285.05 245.47 284.63
  A 1.55 1.54 -10.4 0 0 246.64 282.95
  Q 245.46 272.99 244.10 263.26
  Q 243.86 261.51 244.06 259.70
  Q 244.12 259.18 244.50 258.83
  L 253.82 249.98"
/>
<path stroke="#abd6a5" vector-effect="non-scaling-stroke" d="
  M 253.82 249.98
  Q 256.17 249.87 259.26 249.78
  C 264.91 249.62 268.40 246.32 269.24 240.75
  Q 271.80 223.99 274.49 207.25
  Q 275.78 199.25 270.28 195.94
  C 265.26 192.90 253.16 194.08 246.97 194.32"
/>
<path stroke="#fdefc3" vector-effect="non-scaling-stroke" d="
  M 246.97 194.32
  Q 246.02 194.11 245.33 194.20
  A 0.51 0.51 0.0 0 1 244.79 193.53
  Q 247.11 186.89 250.46 180.98
  Q 251.15 179.77 252.75 178.10
  C 255.26 175.50 257.87 171.31 259.35 168.04
  Q 266.79 151.57 256.36 136.38
  C 251.46 129.25 246.93 123.65 245.38 114.25
  C 244.12 106.66 245.69 98.14 243.12 90.33
  C 238.28 75.64 226.72 71.70 213.28 67.45
  C 203.73 64.43 198.30 56.36 192.47 48.52
  Q 181.66 34.00 163.83 36.06"
/>
<path stroke="#a3cfa8" vector-effect="non-scaling-stroke" d="
  M 163.83 36.06
  C 164.03 32.28 160.06 32.89 157.72 31.31
  C 156.15 30.26 154.96 30.17 153.24 29.91
  A 0.68 0.68 0.0 0 1 152.67 29.36
  L 152.61 29.00
  A 0.35 0.34 86.7 0 1 152.97 28.59
  C 159.29 28.99 164.14 22.11 160.20 16.92
  C 158.55 14.74 152.04 11.36 149.20 11.66
  A 0.85 0.85 0.0 0 1 148.44 11.34
  Q 146.71 9.12 144.38 7.94"
/>
<path stroke="#abd6a5" vector-effect="non-scaling-stroke" d="
  M 144.38 7.94
  Q 135.63 4.81 130.90 11.65
  C 130.55 12.15 130.24 12.23 129.67 12.35"
/>
<path stroke="#4ea64d" vector-effect="non-scaling-stroke" d="
  M 144.38 7.94
  Q 136.40 8.03 132.34 14.45
  A 0.50 0.49 47.5 0 1 131.48 14.41
  L 131.00 13.46
  A 1.04 0.98 86.7 0 0 130.50 12.99
  Q 129.95 12.74 129.67 12.35"
/>
<path stroke="#a0bf6c" vector-effect="non-scaling-stroke" d="
  M 163.83 36.06
  C 162.04 40.45 154.00 38.89 151.24 38.96"
/>
<path stroke="#537249" vector-effect="non-scaling-stroke" d="
  M 151.24 38.96
  Q 150.26 38.41 148.85 38.62"
/>
<path stroke="#a1cfa3" vector-effect="non-scaling-stroke" d="
  M 148.85 38.62
  L 143.49 38.80"
/>
<path stroke="#537249" vector-effect="non-scaling-stroke" d="
  M 143.49 38.80
  L 140.90 36.47
  Q 140.43 36.05 140.60 35.44
  Q 141.27 33.07 143.57 32.62"
/>
<path stroke="#a1cfa3" vector-effect="non-scaling-stroke" d="
  M 143.57 32.62
  Q 144.96 31.41 145.09 28.98
  Q 145.11 28.50 144.63 28.47
  Q 143.55 28.41 143.13 29.30"
/>
<path stroke="#537249" vector-effect="non-scaling-stroke" d="
  M 143.13 29.30
  Q 140.62 27.78 137.15 29.12"
/>
<path stroke="#a1cfa3" vector-effect="non-scaling-stroke" d="
  M 137.15 29.12
  Q 134.37 28.01 133.29 28.82"
/>
<path stroke="#537249" vector-effect="non-scaling-stroke" d="
  M 133.29 28.82
  Q 132.27 28.87 131.32 29.49"
/>
<path stroke="#a8c669" vector-effect="non-scaling-stroke" d="
  M 246.97 194.32
  L 231.53 194.59"
/>
<path stroke="#dedcb2" vector-effect="non-scaling-stroke" d="
  M 231.53 194.59
  C 231.09 184.55 235.97 177.44 242.05 169.30
  Q 246.08 163.90 246.87 156.96
  C 247.56 150.88 244.76 143.03 241.25 138.27
  Q 234.10 128.55 231.79 120.13"
/>
<path stroke="#fdefc3" vector-effect="non-scaling-stroke" d="
  M 231.79 120.13
  Q 231.29 114.13 231.22 108.24
  Q 231.14 101.61 230.13 98.40
  Q 227.31 89.48 219.36 84.40
  C 215.51 81.94 209.78 80.37 205.05 78.65
  Q 194.60 74.87 188.16 64.98"
/>
<path stroke="#a0bf6c" vector-effect="non-scaling-stroke" d="
  M 188.16 64.98
  Q 188.81 60.04 184.57 58.31
  A 1.78 1.77 51.1 0 0 183.58 58.20
  C 180.53 58.73 179.83 57.54 178.43 55.21
  Q 178.16 54.76 177.68 54.55
  L 173.03 52.54
  A 0.85 0.84 20.4 0 0 171.89 53.06
  Q 171.61 53.91 170.83 54.26
  A 0.82 0.81 61.8 0 1 169.80 53.94
  Q 168.13 51.23 165.34 49.86"
/>
<path stroke="#a8c669" vector-effect="non-scaling-stroke" d="
  M 165.34 49.86
  Q 158.13 47.11 153.22 52.99
  Q 152.87 53.41 152.86 53.95
  Q 152.86 54.85 152.41 55.58
  Q 152.13 56.04 151.59 55.99
  C 149.56 55.80 146.70 55.10 145.53 57.30
  Q 145.25 57.83 144.86 57.37
  Q 144.37 56.77 144.73 56.00"
/>
<path stroke="#aea29c" vector-effect="non-scaling-stroke" d="
  M 137.15 29.12
  Q 137.88 30.49 137.66 31.72
  Q 137.56 32.26 137.05 32.06
  Q 134.79 31.17 133.29 28.82"
/>
<path stroke="#aea29c" vector-effect="non-scaling-stroke" d="
  M 143.13 29.30
  Q 142.68 31.48 143.57 32.62"
/>
<path stroke="#aea29c" vector-effect="non-scaling-stroke" d="
  M 143.49 38.80
  Q 143.29 40.04 144.28 41.38
  A 1.02 1.02 0.0 0 0 145.67 41.61
  Q 147.71 40.21 148.85 38.62"
/>
<path stroke="#ad9264" vector-effect="non-scaling-stroke" d="
  M 151.24 38.96
  L 144.94 44.66
  Q 144.55 45.02 144.56 45.54
  L 144.73 56.00"
/>
<path stroke="#5b7946" vector-effect="non-scaling-stroke" d="
  M 144.73 56.00
  Q 142.32 60.12 142.25 63.99
  Q 142.22 65.31 143.44 66.39"
/>
<path stroke="#537249" vector-effect="non-scaling-stroke" d="
  M 143.44 66.39
  L 144.73 68.44"
/>
<path stroke="#afa2a0" vector-effect="non-scaling-stroke" d="
  M 144.73 68.44
  L 145.93 77.14
  A 0.44 0.43 77.5 0 0 146.48 77.50
  Q 153.52 75.23 159.26 70.74"
/>
<path stroke="#537249" vector-effect="non-scaling-stroke" d="
  M 159.26 70.74
  Q 161.30 69.80 160.62 71.34"
/>
<path stroke="#a89488" vector-effect="non-scaling-stroke" d="
  M 160.62 71.34
  Q 163.21 71.45 165.77 69.88"
/>
<path stroke="#537249" vector-effect="non-scaling-stroke" d="
  M 165.77 69.88
  Q 166.32 70.00 166.87 69.63
  Q 167.29 69.35 167.75 69.55
  Q 168.45 69.84 168.93 70.57"
/>
<path stroke="#afa2a0" vector-effect="non-scaling-stroke" d="
  M 168.93 70.57
  L 146.86 81.46
  A 1.87 1.87 0.0 0 0 145.82 83.15
  L 145.93 95.37
  Q 145.93 95.97 146.54 96.01
  Q 147.20 96.04 147.66 95.65"
/>
<path stroke="#918f8f" vector-effect="non-scaling-stroke" d="
  M 147.66 95.65
  L 154.49 94.36"
/>
<path stroke="#526946" vector-effect="non-scaling-stroke" d="
  M 154.49 94.36
  Q 156.40 94.10 156.55 95.58"
/>
<path stroke="#918f8f" vector-effect="non-scaling-stroke" d="
  M 156.55 95.58
  L 146.50 98.91
  Q 146.01 99.07 146.01 99.60
  L 146.02 112.34"
/>
<path stroke="#526946" vector-effect="non-scaling-stroke" d="
  M 146.02 112.34
  Q 136.57 117.10 146.33 123.65"
/>
<path stroke="#918f8f" vector-effect="non-scaling-stroke" d="
  M 146.33 123.65
  Q 145.51 128.41 146.32 134.45
  A 0.38 0.38 0.0 0 0 146.80 134.77
  L 169.37 128.22"
/>
<path stroke="#537249" vector-effect="non-scaling-stroke" d="
  M 169.37 128.22
  L 175.59 127.18
  A 1.12 1.12 0.0 0 1 176.84 128.64
  L 176.72 129.00"
/>
<path stroke="#5b7946" vector-effect="non-scaling-stroke" d="
  M 176.72 129.00
  Q 175.92 129.20 175.85 129.35"
/>
<path stroke="#918f8f" vector-effect="non-scaling-stroke" d="
  M 175.85 129.35
  L 167.29 132.74
  Q 166.28 133.14 167.36 133.15
  L 174.31 133.21"
/>
<path stroke="#5b7946" vector-effect="non-scaling-stroke" d="
  M 174.31 133.21
  Q 175.96 133.83 175.39 134.99"
/>
<path stroke="#918f8f" vector-effect="non-scaling-stroke" d="
  M 175.39 134.99
  Q 168.71 135.30 162.20 135.86
  C 157.05 136.30 152.74 138.31 148.04 140.19
  A 1.25 1.24 79.3 0 0 147.26 141.35
  L 147.31 194.60"
/>
<path stroke="#5b7946" vector-effect="non-scaling-stroke" d="
  M 147.31 194.60
  Q 144.54 195.93 138.23 195.03"
/>
<path stroke="#70534d" vector-effect="non-scaling-stroke" d="
  M 138.23 195.03
  Q 138.95 191.81 139.07 190.75
  Q 139.45 187.42 139.53 181.24
  Q 139.56 178.80 137.22 177.01
  Q 136.35 176.34 136.91 175.22
  Q 137.11 174.81 137.57 174.79
  Q 139.56 174.70 141.50 174.57
  Q 142.87 174.49 142.87 173.21
  A 1.32 1.31 3.2 0 0 141.70 171.91
  C 139.32 171.65 139.41 170.11 139.40 168.16
  Q 139.38 160.45 139.27 152.75
  Q 139.24 150.23 138.17 148.24
  A 1.33 1.33 0.0 0 1 138.88 146.37
  L 141.02 145.58
  A 0.90 0.89 -36.2 0 0 141.26 144.04
  Q 138.87 142.15 139.70 139.00
  Q 141.37 132.67 140.89 119.25
  C 140.84 117.75 139.64 117.32 139.27 116.32
  Q 138.43 114.07 141.78 112.39
  A 0.70 0.70 0.0 0 0 141.96 111.27
  C 139.86 109.13 140.90 99.04 141.12 95.84"
/>
<path stroke="#537249" vector-effect="non-scaling-stroke" d="
  M 141.12 95.84
  Q 143.41 91.68 143.64 84.50
  Q 143.68 83.20 143.53 82.12
  Q 143.45 81.57 142.95 81.33
  Q 141.12 80.48 140.09 78.81
  A 1.26 1.25 37.4 0 1 139.95 77.79
  Q 141.36 72.99 141.12 68.00
  Q 141.11 67.86 141.02 67.82
  Q 140.92 67.77 140.78 67.72
  Q 140.74 67.70 140.75 67.66
  Q 141.12 65.01 138.69 64.61
  Q 138.24 64.53 138.02 64.13
  L 136.20 60.77"
/>
<path stroke="#afa2a0" vector-effect="non-scaling-stroke" d="
  M 136.20 60.77
  Q 136.53 59.04 135.91 56.64
  Q 135.77 56.10 135.26 55.89
  L 127.36 52.52"
/>
<path stroke="#ad9264" vector-effect="non-scaling-stroke" d="
  M 127.36 52.52
  L 122.13 49.61"
/>
<path stroke="#537249" vector-effect="non-scaling-stroke" d="
  M 122.13 49.61
  Q 123.86 49.90 125.27 48.84"
/>
<path stroke="#a89488" vector-effect="non-scaling-stroke" d="
  M 125.27 48.84
  L 135.35 52.19
  Q 135.83 52.35 135.97 51.88
  Q 136.40 50.46 135.77 49.01"
/>
<path stroke="#537249" vector-effect="non-scaling-stroke" d="
  M 135.77 49.01
  Q 142.08 43.38 136.43 40.18"
/>
<path stroke="#4ea64d" vector-effect="non-scaling-stroke" d="
  M 165.34 49.86
  Q 159.07 50.61 155.14 55.14
  Q 154.79 55.55 154.64 56.07
  L 154.30 57.26
  A 0.69 0.68 16.0 0 1 153.46 57.72
  Q 149.68 56.63 148.01 57.34
  Q 142.27 59.80 143.77 66.03
  Q 143.84 66.32 143.44 66.39"
/>
<path stroke="#4d9d4a" vector-effect="non-scaling-stroke" d="
  M 253.82 249.98
  Q 249.53 248.46 244.67 248.87
  Q 238.85 249.35 238.80 249.35
  Q 235.33 249.38 230.00 249.19
  Q 222.00 248.90 199.80 249.54"
/>
<path stroke="#a8c669" vector-effect="non-scaling-stroke" d="
  M 199.80 249.54
  L 183.55 249.68"
/>
<path stroke="#abd6a5" vector-effect="non-scaling-stroke" d="
  M 183.55 249.68
  L 94.74 249.77"
/>
<path stroke="#a8c669" vector-effect="non-scaling-stroke" d="
  M 94.74 249.77
  L 78.79 249.80"
/>
<path stroke="#4d9d4a" vector-effect="non-scaling-stroke" d="
  M 78.79 249.80
  Q 77.95 249.31 75.75 249.28
  Q 58.87 249.04 47.25 249.35
  Q 39.15 249.57 25.01 248.62
  Q 23.64 248.53 23.56 249.82"
/>
<path stroke="#a3cfa8" vector-effect="non-scaling-stroke" d="
  M 188.16 64.98
  Q 185.49 69.28 182.51 69.24
  Q 173.68 69.10 168.93 70.57"
/>
<path stroke="#9bc090" vector-effect="non-scaling-stroke" d="
  M 165.77 69.88
  Q 166.30 69.75 166.48 69.49
  Q 166.76 69.08 166.27 69.04
  Q 163.12 68.78 160.62 71.34"
/>
<path stroke="#a3cfa8" vector-effect="non-scaling-stroke" d="
  M 159.26 70.74
  Q 159.86 70.13 159.77 69.57
  Q 159.68 69.00 159.11 69.06
  Q 151.66 69.91 144.73 68.44"
/>
<path stroke="#e1ecee" vector-effect="non-scaling-stroke" d="
  M 231.79 120.13
  Q 229.22 116.91 226.35 114.15
  C 215.85 104.04 205.70 92.74 194.24 83.92
  Q 187.63 78.84 181.06 74.01
  A 3.61 3.60 -36.3 0 0 177.78 73.51
  Q 166.61 77.32 156.01 81.07
  C 154.56 81.59 153.62 82.02 152.81 83.44
  Q 149.51 89.24 147.66 95.65"
/>
<path stroke="#8cc394" vector-effect="non-scaling-stroke" d="
  M 231.53 194.59
  L 147.31 194.60"
/>
<path stroke="#8cc394" vector-effect="non-scaling-stroke" d="
  M 175.39 134.99
  C 177.08 135.57 178.12 136.45 180.04 136.47
  Q 189.77 136.55 199.50 136.47
  C 203.04 136.44 207.27 134.64 205.72 130.31
  Q 205.24 128.99 203.31 129.09"
/>
<path stroke="#84bb97" vector-effect="non-scaling-stroke" d="
  M 203.31 129.09
  Q 199.49 128.57 205.75 127.94
  Q 211.36 127.37 211.40 120.99
  C 211.44 116.01 205.82 115.70 203.10 112.17
  Q 202.07 110.84 201.79 112.50
  Q 201.63 113.42 202.01 114.95
  Q 202.11 115.34 201.75 115.54
  Q 200.95 115.99 200.44 115.28
  C 198.62 112.77 198.08 111.93 194.79 111.20
  C 191.09 110.39 190.58 107.50 188.36 105.91
  Q 184.34 103.03 178.89 105.35
  Q 172.98 107.85 170.41 112.57
  Q 170.14 113.05 169.61 112.91
  C 167.90 112.45 165.86 112.05 163.94 112.54
  Q 163.53 112.64 161.02 114.11
  Q 158.96 115.32 155.78 114.91
  Q 152.14 114.44 149.25 118.01
  Q 148.49 118.95 147.54 122.70
  Q 147.42 123.15 147.59 123.59
  Q 149.43 128.15 154.26 128.12
  Q 161.74 128.06 169.37 128.22"
/>
<path stroke="#83b294" vector-effect="non-scaling-stroke" d="
  M 146.33 123.65
  Q 147.34 114.10 152.27 113.38
  Q 153.47 113.20 157.16 113.67
  Q 157.66 113.74 158.10 113.47
  C 161.59 111.31 163.41 109.73 167.61 111.70
  A 1.60 1.60 0.0 0 0 169.84 110.68
  Q 170.53 108.13 172.80 106.82
  A 0.64 0.64 0.0 0 0 172.72 105.67
  C 167.83 103.68 165.34 101.13 159.92 104.08
  C 158.47 104.86 157.38 106.39 156.14 107.61
  A 1.72 1.70 -72.7 0 1 155.29 108.06
  Q 151.88 108.72 150.10 111.51
  C 149.01 113.22 147.62 113.83 146.02 112.34"
/>
<path stroke="#83b294" vector-effect="non-scaling-stroke" d="
  M 156.55 95.58
  C 162.69 93.63 168.62 94.14 177.79 94.23
  C 181.46 94.26 184.89 93.46 184.11 88.98
  C 183.67 86.48 182.25 86.49 180.09 86.10
  Q 179.29 85.95 179.10 85.16
  C 177.53 78.84 171.03 77.95 166.70 82.33
  A 1.31 1.30 23.3 0 1 165.73 82.71
  Q 162.06 82.53 159.74 85.24
  Q 159.35 85.69 158.76 85.72
  C 153.82 86.04 151.26 89.34 155.42 93.51
  Q 155.80 93.89 155.35 94.19
  Q 155.04 94.40 154.49 94.36"
/>
<path stroke="#9bc090" vector-effect="non-scaling-stroke" d="
  M 135.77 49.01
  L 125.27 48.84"
/>
<path stroke="#a0bf6c" vector-effect="non-scaling-stroke" d="
  M 122.13 49.61
  Q 117.93 49.00 107.53 48.90
  Q 104.16 48.87 104.37 45.51"
/>
<path stroke="#4ea64d" vector-effect="non-scaling-stroke" d="
  M 104.37 45.51
  Q 106.78 42.38 110.89 41.80
  Q 111.42 41.72 111.53 41.20
  Q 112.16 38.00 114.89 36.16
  A 1.56 1.55 -8.7 0 0 115.51 35.32
  Q 116.13 33.32 114.50 33.23"
/>
<path stroke="#637f54" vector-effect="non-scaling-stroke" d="
  M 141.12 95.84
  L 134.86 97.46"
/>
<path stroke="#a3cfa8" vector-effect="non-scaling-stroke" d="
  M 134.86 97.46
  L 123.77 97.47"
/>
<path stroke="#637f54" vector-effect="non-scaling-stroke" d="
  M 123.77 97.47
  Q 122.80 96.65 120.45 97.40"
/>
<path stroke="#a1cfa3" vector-effect="non-scaling-stroke" d="
  M 120.45 97.40
  L 114.14 97.46"
/>
<path stroke="#637f54" vector-effect="non-scaling-stroke" d="
  M 114.14 97.46
  Q 112.39 97.14 109.36 97.69"
/>
<path stroke="#6b8751" vector-effect="non-scaling-stroke" d="
  M 138.23 195.03
  Q 135.16 195.67 133.20 194.76"
/>
<path stroke="#a19c9b" vector-effect="non-scaling-stroke" d="
  M 133.20 194.76
  L 133.22 163.47
  Q 133.22 163.03 132.86 162.77
  Q 124.20 156.69 114.86 154.51"
/>
<path stroke="#637f54" vector-effect="non-scaling-stroke" d="
  M 90.38 148.59
  Q 91.14 147.78 93.51 147.41
  Q 95.01 147.17 96.49 147.54"
/>
<path stroke="#beb0a7" vector-effect="non-scaling-stroke" d="
  M 96.49 147.54
  Q 96.14 147.43 95.77 147.48
  Q 95.26 147.55 95.73 147.75
  Q 102.21 150.44 109.25 150.64
  Q 111.43 150.70 109.67 149.44
  Q 108.97 148.95 106.89 148.23"
/>
<path stroke="#637f54" vector-effect="non-scaling-stroke" d="
  M 106.89 148.23
  Q 109.45 146.63 113.34 147.73"
/>
<path stroke="#a19c9b" vector-effect="non-scaling-stroke" d="
  M 113.34 147.73
  L 132.91 155.84
  A 0.43 0.42 9.4 0 0 133.50 155.42
  Q 132.82 146.19 134.04 136.80"
/>
<path stroke="#637f54" vector-effect="non-scaling-stroke" d="
  M 134.04 136.80
  Q 135.40 137.13 136.21 135.75
  Q 137.26 133.97 137.29 130.48
  Q 137.30 129.07 135.63 129.05
  Q 135.10 129.04 135.03 128.52
  L 134.36 123.22"
/>
<path stroke="#beb0a7" vector-effect="non-scaling-stroke" d="
  M 114.14 97.46
  Q 118.64 99.72 123.26 100.52
  Q 123.77 100.61 123.57 100.13
  Q 122.69 98.02 120.45 97.40"
/>
<path stroke="#c0b0ac" vector-effect="non-scaling-stroke" d="
  M 123.77 97.47
  Q 127.22 103.28 134.31 104.12
  Q 134.76 104.17 134.77 103.71
  L 134.86 97.46"
/>
<path stroke="#4ea64d" vector-effect="non-scaling-stroke" d="
  M 203.31 129.09
  Q 201.88 129.50 201.19 128.39
  Q 201.03 128.12 200.74 128.25
  Q 200.63 128.31 200.51 128.36
  A 0.66 0.65 -35.2 0 1 199.78 128.24
  Q 197.83 126.35 195.28 125.52
  Q 194.86 125.38 194.44 125.50
  C 191.60 126.26 191.11 121.52 186.57 122.29
  Q 182.43 123.00 181.03 127.08
  Q 180.86 127.56 180.45 127.85
  Q 178.80 129.00 176.72 129.00"
/>
<path stroke="#fdefc3" vector-effect="non-scaling-stroke" d="
  M 127.36 52.52
  Q 124.42 52.81 120.02 51.20
  Q 115.52 49.55 108.81 50.49
  C 106.67 50.79 104.31 52.24 102.04 53.30
  C 98.40 55.01 95.37 58.22 92.59 61.83
  C 87.09 68.95 83.33 74.70 73.94 78.31
  C 61.90 82.95 52.16 85.12 48.23 98.43
  C 46.63 103.85 47.17 111.87 46.74 117.00
  Q 46.31 122.29 43.32 128.97"
/>
<path stroke="#f1e9be" vector-effect="non-scaling-stroke" d="
  M 43.32 128.97
  Q 40.80 132.76 38.02 136.72
  C 31.95 145.35 28.98 153.50 33.23 163.90
  C 35.28 168.92 40.18 174.54 42.93 179.33
  Q 45.96 184.63 46.70 191.68
  C 46.92 193.84 47.92 194.61 50.00 194.62
  Q 62.98 194.63 75.96 194.62"
/>
<path stroke="#a8c669" vector-effect="non-scaling-stroke" d="
  M 75.96 194.62
  L 32.57 194.43"
/>
<path stroke="#f5e1ab" vector-effect="non-scaling-stroke" d="
  M 16.88 161.81
  L 15.94 151.17"
/>
<path stroke="#8cc394" vector-effect="non-scaling-stroke" d="
  M 174.31 133.21
  Q 176.77 131.45 175.85 129.35"
/>
<path stroke="#a3cfa8" vector-effect="non-scaling-stroke" d="
  M 136.20 60.77
  L 124.16 65.51
  A 1.41 1.40 74.2 0 0 123.30 67.06
  Q 123.75 69.68 126.49 69.74
  Q 130.81 69.83 134.92 69.70
  Q 135.55 69.68 135.53 70.32
  L 135.43 73.53
  Q 135.41 74.21 134.74 74.12
  Q 130.54 73.51 127.90 76.75
  A 1.13 1.13 0.0 0 1 127.02 77.17
  Q 124.52 77.17 122.24 78.16
  Q 121.75 78.37 121.31 78.05
  C 116.00 74.12 111.27 72.38 105.25 76.20
  Q 100.46 79.23 96.12 82.90
  Q 94.90 83.94 94.76 85.27
  A 0.97 0.96 -86.7 0 1 93.79 86.14
  C 92.01 86.11 90.05 85.66 88.44 86.07
  C 82.19 87.65 83.94 97.59 90.25 97.46
  Q 99.98 97.26 109.36 97.69"
/>
<path stroke="#c0b0ac" vector-effect="non-scaling-stroke" d="
  M 109.36 97.69
  L 134.05 109.17
  A 0.71 0.70 -77.5 0 1 134.45 109.81
  L 134.36 123.22"
/>
<path stroke="#a3cfa8" vector-effect="non-scaling-stroke" d="
  M 134.36 123.22
  L 134.25 126.31
  Q 134.23 126.78 133.83 127.01
  L 131.96 128.13
  A 1.13 1.13 0.0 0 1 130.41 127.72
  Q 128.62 124.56 125.00 123.86
  A 1.38 1.36 -14.7 0 1 124.22 123.41
  C 119.66 118.06 113.21 116.95 109.00 123.51
  A 0.62 0.62 0.0 0 1 108.21 123.73
  Q 105.53 122.43 102.71 123.44
  A 1.00 1.00 0.0 0 1 101.77 123.29
  Q 99.43 121.44 96.75 120.87"
/>
<path stroke="#abd6a5" vector-effect="non-scaling-stroke" d="
  M 96.75 120.87
  C 91.02 119.66 87.88 122.66 84.92 126.90
  A 1.04 1.02 15.8 0 1 84.11 127.34
  Q 79.58 127.48 77.13 131.10
  A 1.80 1.79 -69.2 0 1 75.42 131.87
  C 69.13 131.04 64.67 136.17 66.68 142.56"
/>
<path stroke="#a3cfa8" vector-effect="non-scaling-stroke" d="
  M 66.68 142.56
  C 69.19 150.72 79.92 147.02 87.64 148.18
  Q 89.11 148.40 90.38 148.59"
/>
<path stroke="#c0b0ac" vector-effect="non-scaling-stroke" d="
  M 90.38 148.59
  Q 98.13 151.31 105.50 153.74
  Q 109.09 154.92 114.86 154.51"
/>
<path stroke="#e1ecee" vector-effect="non-scaling-stroke" d="
  M 114.86 154.51
  Q 109.21 168.30 105.17 181.70
  C 104.58 183.65 103.87 184.53 101.98 185.10
  Q 98.45 186.17 95.33 188.06
  A 1.95 1.94 62.3 0 0 94.57 190.53
  Q 95.27 192.03 97.26 192.13
  Q 99.60 192.24 102.07 193.24
  A 0.49 0.49 0.0 0 1 102.18 194.09
  L 101.25 194.77"
/>
<path stroke="#abd6a5" vector-effect="non-scaling-stroke" d="
  M 101.25 194.77
  L 83.53 194.60"
/>
<path stroke="#f3f9fa" vector-effect="non-scaling-stroke" d="
  M 83.53 194.60
  L 83.27 194.54
  Q 82.87 194.45 82.72 194.06
  Q 82.46 193.38 82.75 192.94
  Q 83.08 192.45 82.71 191.99
  Q 81.56 190.60 81.31 189.73
  Q 79.22 182.62 76.03 176.18
  A 2.49 2.49 0.0 0 0 73.78 174.79
  Q 61.49 174.81 49.00 174.85
  C 41.88 174.88 41.60 166.76 47.51 166.95
  Q 51.95 167.09 56.51 166.78
  A 0.72 0.72 0.0 0 0 57.18 166.04
  C 56.99 159.01 59.95 157.08 66.68 156.83
  A 1.30 1.30 0.0 0 0 67.82 155.01
  Q 64.56 147.59 61.43 139.79
  C 60.65 137.84 59.34 136.53 57.61 135.63
  Q 51.37 132.35 43.32 128.97"
/>
<path stroke="#9fb669" vector-effect="non-scaling-stroke" d="
  M 78.79 249.80
  Q 81.65 254.06 83.94 257.28
  Q 84.47 258.03 84.12 258.43"
/>
<path stroke="#9ab78d" vector-effect="non-scaling-stroke" d="
  M 84.12 258.43
  L 73.26 266.45"
/>
<path stroke="#9fd0a0" vector-effect="non-scaling-stroke" d="
  M 83.53 194.60
  L 75.96 194.62"
/>
<path stroke="#8cc394" vector-effect="non-scaling-stroke" d="
  M 133.20 194.76
  L 101.25 194.77"
/>
<path stroke="#fdefc3" vector-effect="non-scaling-stroke" d="
  M 94.74 249.77
  C 102.25 257.79 111.56 259.69 121.87 256.79
  C 128.81 254.83 135.05 252.33 142.64 253.22
  C 148.22 253.88 155.44 257.07 160.74 257.97
  Q 173.93 260.20 183.55 249.68"
/>
<path stroke="#f5e1ab" vector-effect="non-scaling-stroke" d="
  M 193.98 258.15
  Q 191.88 260.78 189.84 263.08
  C 187.89 265.28 185.24 266.72 182.86 268.54
  Q 182.54 268.78 182.14 268.78
  Q 181.71 268.77 181.51 269.15
  Q 181.30 269.58 180.87 269.80
  Q 174.21 273.18 166.95 273.06
  Q 163.42 273.00 157.73 271.25
  C 149.50 268.73 142.94 265.84 134.01 267.38
  C 127.75 268.45 120.86 271.79 115.20 272.51
  Q 98.21 274.66 86.75 261.17
  Q 86.43 260.80 86.35 260.32
  Q 86.30 259.98 86.03 259.75
  Q 85.68 259.45 85.22 259.40
  Q 84.52 259.33 84.12 258.43"
/>
<path stroke="#9ab78d" vector-effect="non-scaling-stroke" d="
  M 205.50 266.69
  Q 199.29 263.06 193.98 258.15"
/>
<path stroke="#9fb669" vector-effect="non-scaling-stroke" d="
  M 193.98 258.15
  L 199.80 249.54"
/>
<path stroke="#a8c669" vector-effect="non-scaling-stroke" d="
  M 104.37 45.51
  C 103.43 41.22 105.69 40.81 108.56 39.40
  Q 109.00 39.18 109.24 38.75
  L 110.93 35.74"
/>
<path stroke="#84bb97" vector-effect="non-scaling-stroke" d="
  M 134.04 136.80
  L 128.76 136.82
  Q 128.18 136.82 128.22 137.40
  Q 128.85 147.24 119.24 147.42
  Q 116.37 147.48 113.34 147.73"
/>
<path stroke="#a1cfa3" vector-effect="non-scaling-stroke" d="
  M 106.89 148.23
  L 96.49 147.54"
/>
<path stroke="#4ea64d" vector-effect="non-scaling-stroke" d="
  M 66.68 142.56
  C 66.99 138.62 69.88 136.15 73.05 133.80
  Q 73.40 133.54 73.84 133.55
  L 78.06 133.63
  Q 78.58 133.64 78.95 133.28
  C 80.77 131.54 82.29 129.35 85.15 129.12
  C 86.60 129.01 87.13 128.45 87.93 127.41
  C 89.09 125.88 89.86 125.24 91.02 124.11
  C 92.47 122.70 94.96 121.97 96.75 120.87"
/>
<path stroke="#4ea64d" vector-effect="non-scaling-stroke" d="
  M 131.41 17.17
  C 129.96 17.00 128.28 16.54 126.95 16.47
  A 1.37 1.37 0.0 0 0 125.67 18.49
  C 126.74 20.48 128.46 23.31 130.62 23.97
  C 134.44 25.13 136.79 17.82 131.41 17.17"
/>
<path stroke="#4ea64d" vector-effect="non-scaling-stroke" d="
  M 124.76 82.16
  C 127.03 81.66 128.20 81.05 130.45 81.35
  Q 132.69 81.65 130.88 80.30
  Q 127.58 77.84 124.07 80.22
  A 0.65 0.63 70.8 0 0 123.79 80.82
  Q 123.85 81.46 124.20 81.94
  Q 124.41 82.23 124.76 82.16"
/>
<path stroke="#4ea64d" vector-effect="non-scaling-stroke" d="
  M 140.25 86.28
  A 0.57 0.57 0.0 0 0 140.52 85.20
  L 138.36 84.05
  A 0.57 0.57 0.0 0 0 138.04 83.98
  L 135.61 84.19
  A 0.57 0.57 0.0 0 0 135.11 84.89
  L 135.31 85.79
  A 0.57 0.57 0.0 0 0 135.86 86.23
  L 140.25 86.28"
/>
<path stroke="#4ea64d" vector-effect="non-scaling-stroke" d="
  M 124.55 134.25
  Q 124.76 134.42 125.00 134.25
  A 0.30 0.30 0.0 0 0 124.99 133.76
  Q 121.97 131.67 118.32 132.27
  Q 117.80 132.35 118.13 132.77
  C 119.33 134.31 122.37 133.85 124.23 134.12
  Q 124.41 134.14 124.55 134.25"
/>
<path stroke="#4ea64d" vector-effect="non-scaling-stroke" d="
  M 88.54 136.69
  L 90.82 135.48
  Q 91.32 135.22 91.87 135.12
  Q 93.88 134.77 95.77 134.01
  Q 96.32 133.78 95.95 133.32
  Q 95.59 132.89 94.98 132.88
  C 91.98 132.87 89.56 134.20 86.65 134.73
  A 0.63 0.63 0.0 0 0 86.31 135.79
  L 86.91 136.42
  A 1.37 1.37 0.0 0 0 88.54 136.69"
/>
<path stroke="#a9d6a0" vector-effect="non-scaling-stroke" d="
  M 151.67 232.72
  L 141.60 232.82
  A 0.72 0.72 0.0 0 1 140.87 232.10
  L 140.81 203.96
  Q 140.81 202.59 139.46 202.76
  L 138.98 202.82
  A 1.22 1.21 -3.5 0 0 137.91 204.02
  L 137.97 232.31
  A 0.53 0.52 0.0 0 1 137.44 232.83
  L 127.64 232.79
  A 0.91 0.90 -0.0 0 1 126.73 231.89
  L 126.65 210.32
  Q 126.65 209.23 125.57 209.24
  L 125.01 209.25
  A 1.25 1.25 0.0 0 0 123.77 210.50
  L 123.78 237.49
  A 0.90 0.90 0.0 0 0 124.93 238.36
  Q 126.36 237.96 126.65 236.45
  A 1.14 1.12 5.2 0 1 127.77 235.53
  L 150.95 235.50
  Q 151.72 235.50 151.93 236.25
  C 152.11 236.95 152.47 238.04 153.28 238.33
  Q 153.88 238.55 154.23 238.31
  A 1.73 1.53 -18.8 0 0 154.99 236.97
  L 154.99 210.73
  Q 154.99 209.34 153.60 209.36
  L 153.12 209.37
  A 1.16 1.16 0.0 0 0 151.97 210.54
  L 152.06 232.33
  A 0.39 0.39 0.0 0 1 151.67 232.72"
/>
<path stroke="#a9d6a0" vector-effect="non-scaling-stroke" d="
  M 169.77 221.57
  Q 169.77 218.81 171.13 221.22
  L 173.13 224.79
  A 0.95 0.94 44.4 0 0 174.79 224.78
  L 174.96 224.46
  Q 175.53 223.39 174.81 222.42
  L 169.79 215.73
  A 1.51 1.50 71.2 0 1 170.97 213.32
  L 173.71 213.27
  Q 174.67 213.26 174.77 212.29
  L 174.83 211.73
  Q 174.95 210.50 173.73 210.50
  L 170.39 210.48
  A 0.61 0.60 -0.5 0 1 169.78 209.89
  L 169.69 203.99
  A 1.30 1.29 5.0 0 0 168.64 202.75
  L 168.16 202.65
  A 0.91 0.91 0.0 0 0 167.07 203.53
  L 166.97 209.73
  A 0.72 0.71 -90.0 0 1 166.27 210.44
  L 162.21 210.56
  A 1.20 1.19 -89.5 0 0 161.05 211.71
  C 160.97 213.75 164.25 213.30 165.52 213.09
  A 0.89 0.89 0.0 0 1 166.52 214.20
  Q 164.71 220.62 160.97 226.11
  A 1.68 1.67 41.3 0 0 161.11 228.17
  L 161.32 228.40
  A 0.88 0.87 39.1 0 0 162.72 228.26
  Q 164.64 225.00 165.94 221.44
  Q 166.02 221.23 166.21 221.12
  Q 166.41 221.00 166.61 221.05
  Q 166.99 221.15 166.99 221.55
  L 167.03 237.75
  Q 167.03 238.87 168.15 238.85
  L 168.41 238.85
  Q 169.73 238.83 169.74 237.50
  L 169.77 221.57"
/>
<path stroke="#a9d6a0" vector-effect="non-scaling-stroke" d="
  M 88.50 214.31
  L 88.42 222.32
  Q 88.42 223.23 89.32 223.24
  L 89.93 223.25
  Q 91.32 223.26 91.33 221.87
  Q 91.37 217.66 91.27 213.06
  C 91.19 209.58 93.31 207.32 95.30 204.53
  A 0.81 0.81 0.0 0 0 94.92 203.30
  L 94.56 203.17
  A 1.68 1.68 0.0 0 0 92.56 203.82
  Q 89.16 209.05 83.98 212.51
  A 2.79 2.76 -18.0 0 0 82.75 214.90
  L 82.76 215.36
  A 0.89 0.89 0.0 0 0 84.19 216.04
  L 87.28 213.70
  A 0.76 0.76 0.0 0 1 88.50 214.31"
/>
<path stroke="#a9d6a0" vector-effect="non-scaling-stroke" d="
  M 103.99 209.70
  L 103.87 204.33
  Q 103.85 203.44 102.96 203.37
  L 102.57 203.35
  Q 101.13 203.25 101.15 204.69
  L 101.23 211.23
  A 1.69 1.69 0.0 0 1 100.10 212.84
  L 94.81 214.68
  A 0.97 0.97 0.0 0 0 94.21 215.92
  L 94.34 216.29
  Q 94.81 217.67 96.18 217.16
  L 100.38 215.59
  A 0.51 0.50 77.6 0 1 101.06 216.03
  C 101.23 218.70 101.15 221.54 104.71 221.79
  Q 109.10 222.11 113.50 221.77
  C 116.49 221.55 117.30 217.85 117.19 215.48
  Q 117.14 214.41 116.10 214.12
  L 115.74 214.02
  A 0.78 0.78 0.0 0 0 114.76 214.69
  C 114.14 220.70 110.09 219.41 105.66 219.22
  A 1.83 1.83 0.0 0 1 103.94 217.75
  Q 103.32 214.59 105.57 213.34
  Q 110.52 210.60 114.98 207.07
  A 0.96 0.96 0.0 0 0 115.15 205.74
  L 114.90 205.41
  A 1.08 1.08 0.0 0 0 113.44 205.15
  L 105.40 210.44
  Q 104.02 211.34 103.99 209.70"
/>
<path stroke="#a9d6a0" vector-effect="non-scaling-stroke" d="
  M 187.84 205.52
  C 189.06 211.12 191.26 215.81 194.53 220.53
  Q 195.35 221.72 196.07 220.47
  L 196.21 220.23
  Q 196.91 219.01 196.14 217.82
  Q 192.14 211.67 190.38 204.52
  A 1.33 1.32 79.0 0 0 188.92 203.53
  Q 187.45 203.74 187.84 205.52"
/>
<path stroke="#a9d6a0" vector-effect="non-scaling-stroke" d="
  M 175.06 220.28
  L 177.15 221.09
  A 0.45 0.45 0.0 0 0 177.73 220.83
  L 177.82 220.58
  A 17.00 0.52 -68.9 0 0 183.46 204.53
  L 181.50 203.78
  A 17.00 0.52 -68.9 0 0 174.89 219.45
  L 174.80 219.70
  A 0.45 0.45 0.0 0 0 175.06 220.28"
/>
<path stroke="#a9d6a0" vector-effect="non-scaling-stroke" d="
  M 180.01 234.30
  Q 179.96 234.05 180.09 233.80
  Q 184.01 226.23 186.45 217.95
  A 1.05 1.05 0.0 0 0 185.31 216.61
  L 184.81 216.67
  A 1.71 1.69 3.5 0 0 183.39 217.91
  Q 180.86 227.35 175.61 235.58
  A 1.54 1.54 0.0 0 0 177.16 237.93
  L 190.71 235.68
  A 1.04 1.02 -13.1 0 1 191.87 236.39
  L 192.36 237.97
  Q 192.66 238.94 193.66 238.75
  L 194.62 238.57
  Q 195.62 238.39 195.24 237.45
  L 190.30 225.50
  A 1.32 1.31 -24.6 0 0 188.49 224.83
  L 188.00 225.08
  A 0.82 0.81 -24.5 0 0 187.61 226.11
  L 189.99 231.94
  A 0.91 0.91 0.0 0 1 189.29 233.18
  L 180.43 234.60
  A 0.38 0.37 80.3 0 1 180.01 234.30"
/>
<path stroke="#a9d6a0" vector-effect="non-scaling-stroke" d="
  M 101.59 225.70
  Q 101.39 224.54 101.26 223.37
  Q 101.18 222.68 100.84 222.39
  Q 100.34 221.97 99.63 222.19
  Q 99.16 222.34 99.04 222.81
  L 98.32 225.66
  Q 98.18 226.22 97.60 226.22
  L 83.97 226.23
  Q 83.18 226.23 83.15 227.03
  L 83.10 228.16
  Q 83.05 229.13 84.02 229.12
  L 97.80 229.02
  A 0.80 0.79 -0.4 0 1 98.60 229.80
  L 98.65 238.03
  A 1.01 1.01 0.0 0 0 99.73 239.03
  L 100.04 239.01
  Q 101.45 238.91 101.46 237.49
  L 101.53 229.49
  A 0.48 0.48 0.0 0 1 102.01 229.01
  L 116.25 229.04
  Q 117.04 229.04 117.02 228.25
  L 116.99 226.76
  Q 116.98 226.04 116.26 226.05
  L 102.23 226.24
  Q 101.68 226.25 101.59 225.70"
/>
</g>
<path fill="#ffffff" d="
  M 0.00 0.00
  L 284.00 0.00
  L 284.00 291.00
  L 0.00 291.00
  L 0.00 0.00
  Z
  M 129.67 12.35
  C 128.11 11.75 126.34 10.78 124.71 11.13
  Q 121.50 11.82 119.23 15.94
  Q 119.13 16.12 118.93 16.11
  C 114.27 15.91 110.22 17.02 110.72 22.77
  Q 111.16 27.96 116.26 28.52
  Q 120.49 28.99 129.76 28.70
  Q 130.57 28.68 131.32 29.49
  Q 134.02 32.53 136.70 35.53
  Q 138.15 37.16 136.43 40.18
  Q 134.47 40.35 132.49 39.69
  A 1.82 1.74 78.3 0 1 131.68 39.13
  Q 129.41 36.36 126.04 35.62
  C 121.83 34.69 119.13 31.49 114.50 33.23
  Q 112.64 33.70 110.93 35.74
  C 99.00 35.54 91.26 41.18 84.50 50.24
  C 80.06 56.20 76.86 60.82 71.22 64.37
  C 64.68 68.50 55.91 69.62 48.83 73.60
  C 40.49 78.28 35.84 85.65 34.02 94.96
  C 32.82 101.12 33.53 106.80 33.00 112.75
  C 32.14 122.42 27.73 128.54 21.56 136.77
  Q 17.12 142.70 15.94 151.17
  Q 14.46 156.27 16.88 161.81
  C 18.14 165.45 19.79 169.31 22.29 172.34
  C 23.92 174.31 25.23 176.61 26.62 178.75
  Q 28.04 180.91 28.75 183.63
  Q 29.78 187.60 31.13 191.49
  A 0.25 0.25 0.0 0 0 31.46 191.63
  Q 31.66 191.55 31.75 191.76
  Q 32.10 192.57 32.12 192.62
  L 32.57 194.43
  Q 23.19 194.00 20.02 194.21
  Q 12.53 194.70 10.65 200.54
  Q 9.70 203.48 10.77 210.48
  Q 12.97 224.78 15.34 239.06
  C 16.30 244.83 17.88 248.37 23.56 249.82
  Q 29.08 253.73 34.09 259.16
  A 1.31 1.27 -63.3 0 1 34.42 260.21
  Q 33.13 269.83 32.13 279.76
  Q 31.88 282.20 32.09 283.20
  Q 32.60 285.65 34.91 284.71
  Q 54.88 276.56 73.26 266.45
  L 74.60 266.18
  Q 75.09 266.09 75.33 266.53
  C 76.37 268.49 80.90 271.82 82.82 273.14
  C 85.39 274.91 87.38 277.03 90.14 278.41
  C 98.27 282.48 103.98 285.59 114.24 285.49
  Q 121.38 285.42 128.51 285.68
  Q 128.98 285.70 129.40 285.47
  C 130.81 284.73 132.42 285.10 133.54 284.95
  C 136.10 284.60 138.56 284.18 141.17 284.42
  Q 147.59 285.00 154.00 285.68
  Q 155.88 285.88 158.46 285.41
  C 162.06 284.75 166.18 285.47 169.41 285.39
  A 1.43 1.36 24.3 0 0 170.24 285.10
  C 171.20 284.36 172.41 284.68 173.36 284.40
  Q 175.45 283.80 177.55 283.22
  C 180.44 282.40 182.85 280.87 185.52 279.52
  Q 187.46 278.54 189.11 276.95
  C 193.04 273.16 196.81 271.35 200.81 268.56
  Q 201.07 268.38 201.39 268.38
  Q 201.59 268.39 201.80 268.41
  Q 201.97 268.42 202.03 268.27
  Q 202.43 267.24 203.23 267.00
  Q 204.03 266.75 204.03 266.75
  Q 204.58 266.47 205.50 266.69
  Q 223.15 276.46 241.81 284.25
  Q 243.74 285.05 245.47 284.63
  A 1.55 1.54 -10.4 0 0 246.64 282.95
  Q 245.46 272.99 244.10 263.26
  Q 243.86 261.51 244.06 259.70
  Q 244.12 259.18 244.50 258.83
  L 253.82 249.98
  Q 256.17 249.87 259.26 249.78
  C 264.91 249.62 268.40 246.32 269.24 240.75
  Q 271.80 223.99 274.49 207.25
  Q 275.78 199.25 270.28 195.94
  C 265.26 192.90 253.16 194.08 246.97 194.32
  Q 246.02 194.11 245.33 194.20
  A 0.51 0.51 0.0 0 1 244.79 193.53
  Q 247.11 186.89 250.46 180.98
  Q 251.15 179.77 252.75 178.10
  C 255.26 175.50 257.87 171.31 259.35 168.04
  Q 266.79 151.57 256.36 136.38
  C 251.46 129.25 246.93 123.65 245.38 114.25
  C 244.12 106.66 245.69 98.14 243.12 90.33
  C 238.28 75.64 226.72 71.70 213.28 67.45
  C 203.73 64.43 198.30 56.36 192.47 48.52
  Q 181.66 34.00 163.83 36.06
  C 164.03 32.28 160.06 32.89 157.72 31.31
  C 156.15 30.26 154.96 30.17 153.24 29.91
  A 0.68 0.68 0.0 0 1 152.67 29.36
  L 152.61 29.00
  A 0.35 0.34 86.7 0 1 152.97 28.59
  C 159.29 28.99 164.14 22.11 160.20 16.92
  C 158.55 14.74 152.04 11.36 149.20 11.66
  A 0.85 0.85 0.0 0 1 148.44 11.34
  Q 146.71 9.12 144.38 7.94
  Q 135.63 4.81 130.90 11.65
  C 130.55 12.15 130.24 12.23 129.67 12.35
  Z"
/>
<path fill="#56ad4a" d="
  M 144.38 7.94
  Q 136.40 8.03 132.34 14.45
  A 0.50 0.49 47.5 0 1 131.48 14.41
  L 131.00 13.46
  A 1.04 0.98 86.7 0 0 130.50 12.99
  Q 129.95 12.74 129.67 12.35
  C 130.24 12.23 130.55 12.15 130.90 11.65
  Q 135.63 4.81 144.38 7.94
  Z"
/>
<path fill="#469e50" d="
  M 144.38 7.94
  Q 146.71 9.12 148.44 11.34
  A 0.85 0.85 0.0 0 0 149.20 11.66
  C 152.04 11.36 158.55 14.74 160.20 16.92
  C 164.14 22.11 159.29 28.99 152.97 28.59
  A 0.35 0.34 86.7 0 0 152.61 29.00
  L 152.67 29.36
  A 0.68 0.68 0.0 0 0 153.24 29.91
  C 154.96 30.17 156.15 30.26 157.72 31.31
  C 160.06 32.89 164.03 32.28 163.83 36.06
  C 162.04 40.45 154.00 38.89 151.24 38.96
  Q 150.26 38.41 148.85 38.62
  L 143.49 38.80
  L 140.90 36.47
  Q 140.43 36.05 140.60 35.44
  Q 141.27 33.07 143.57 32.62
  Q 144.96 31.41 145.09 28.98
  Q 145.11 28.50 144.63 28.47
  Q 143.55 28.41 143.13 29.30
  Q 140.62 27.78 137.15 29.12
  Q 134.37 28.01 133.29 28.82
  Q 132.27 28.87 131.32 29.49
  Q 130.57 28.68 129.76 28.70
  Q 120.49 28.99 116.26 28.52
  Q 111.16 27.96 110.72 22.77
  C 110.22 17.02 114.27 15.91 118.93 16.11
  Q 119.13 16.12 119.23 15.94
  Q 121.50 11.82 124.71 11.13
  C 126.34 10.78 128.11 11.75 129.67 12.35
  Q 129.95 12.74 130.50 12.99
  A 1.04 0.98 86.7 0 1 131.00 13.46
  L 131.48 14.41
  A 0.50 0.49 47.5 0 0 132.34 14.45
  Q 136.40 8.03 144.38 7.94
  Z
  M 131.41 17.17
  C 129.96 17.00 128.28 16.54 126.95 16.47
  A 1.37 1.37 0.0 0 0 125.67 18.49
  C 126.74 20.48 128.46 23.31 130.62 23.97
  C 134.44 25.13 136.79 17.82 131.41 17.17
  Z"
/>
<path fill="#56ad4a" d="
  M 126.95 16.47
  C 128.28 16.54 129.96 17.00 131.41 17.17
  C 136.79 17.82 134.44 25.13 130.62 23.97
  C 128.46 23.31 126.74 20.48 125.67 18.49
  A 1.37 1.37 0.0 0 1 126.95 16.47
  Z"
/>
<path fill="#fcfff6" d="
  M 137.15 29.12
  Q 137.88 30.49 137.66 31.72
  Q 137.56 32.26 137.05 32.06
  Q 134.79 31.17 133.29 28.82
  Q 134.37 28.01 137.15 29.12
  Z"
/>
<path fill="#5f4541" d="
  M 143.13 29.30
  Q 142.68 31.48 143.57 32.62
  Q 141.27 33.07 140.60 35.44
  Q 140.43 36.05 140.90 36.47
  L 143.49 38.80
  Q 143.29 40.04 144.28 41.38
  A 1.02 1.02 0.0 0 0 145.67 41.61
  Q 147.71 40.21 148.85 38.62
  Q 150.26 38.41 151.24 38.96
  L 144.94 44.66
  Q 144.55 45.02 144.56 45.54
  L 144.73 56.00
  Q 142.32 60.12 142.25 63.99
  Q 142.22 65.31 143.44 66.39
  L 144.73 68.44
  L 145.93 77.14
  A 0.44 0.43 77.5 0 0 146.48 77.50
  Q 153.52 75.23 159.26 70.74
  Q 161.30 69.80 160.62 71.34
  Q 163.21 71.45 165.77 69.88
  Q 166.32 70.00 166.87 69.63
  Q 167.29 69.35 167.75 69.55
  Q 168.45 69.84 168.93 70.57
  L 146.86 81.46
  A 1.87 1.87 0.0 0 0 145.82 83.15
  L 145.93 95.37
  Q 145.93 95.97 146.54 96.01
  Q 147.20 96.04 147.66 95.65
  L 154.49 94.36
  Q 156.40 94.10 156.55 95.58
  L 146.50 98.91
  Q 146.01 99.07 146.01 99.60
  L 146.02 112.34
  Q 136.57 117.10 146.33 123.65
  Q 145.51 128.41 146.32 134.45
  A 0.38 0.38 0.0 0 0 146.80 134.77
  L 169.37 128.22
  L 175.59 127.18
  A 1.12 1.12 0.0 0 1 176.84 128.64
  L 176.72 129.00
  Q 175.92 129.20 175.85 129.35
  L 167.29 132.74
  Q 166.28 133.14 167.36 133.15
  L 174.31 133.21
  Q 175.96 133.83 175.39 134.99
  Q 168.71 135.30 162.20 135.86
  C 157.05 136.30 152.74 138.31 148.04 140.19
  A 1.25 1.24 79.3 0 0 147.26 141.35
  L 147.31 194.60
  Q 144.54 195.93 138.23 195.03
  Q 138.95 191.81 139.07 190.75
  Q 139.45 187.42 139.53 181.24
  Q 139.56 178.80 137.22 177.01
  Q 136.35 176.34 136.91 175.22
  Q 137.11 174.81 137.57 174.79
  Q 139.56 174.70 141.50 174.57
  Q 142.87 174.49 142.87 173.21
  A 1.32 1.31 3.2 0 0 141.70 171.91
  C 139.32 171.65 139.41 170.11 139.40 168.16
  Q 139.38 160.45 139.27 152.75
  Q 139.24 150.23 138.17 148.24
  A 1.33 1.33 0.0 0 1 138.88 146.37
  L 141.02 145.58
  A 0.90 0.89 -36.2 0 0 141.26 144.04
  Q 138.87 142.15 139.70 139.00
  Q 141.37 132.67 140.89 119.25
  C 140.84 117.75 139.64 117.32 139.27 116.32
  Q 138.43 114.07 141.78 112.39
  A 0.70 0.70 0.0 0 0 141.96 111.27
  C 139.86 109.13 140.90 99.04 141.12 95.84
  Q 143.41 91.68 143.64 84.50
  Q 143.68 83.20 143.53 82.12
  Q 143.45 81.57 142.95 81.33
  Q 141.12 80.48 140.09 78.81
  A 1.26 1.25 37.4 0 1 139.95 77.79
  Q 141.36 72.99 141.12 68.00
  Q 141.11 67.86 141.02 67.82
  Q 140.92 67.77 140.78 67.72
  Q 140.74 67.70 140.75 67.66
  Q 141.12 65.01 138.69 64.61
  Q 138.24 64.53 138.02 64.13
  L 136.20 60.77
  Q 136.53 59.04 135.91 56.64
  Q 135.77 56.10 135.26 55.89
  L 127.36 52.52
  L 122.13 49.61
  Q 123.86 49.90 125.27 48.84
  L 135.35 52.19
  Q 135.83 52.35 135.97 51.88
  Q 136.40 50.46 135.77 49.01
  Q 142.08 43.38 136.43 40.18
  Q 138.15 37.16 136.70 35.53
  Q 134.02 32.53 131.32 29.49
  Q 132.27 28.87 133.29 28.82
  Q 134.79 31.17 137.05 32.06
  Q 137.56 32.26 137.66 31.72
  Q 137.88 30.49 137.15 29.12
  Q 140.62 27.78 143.13 29.30
  Z"
/>
<path fill="#fcfff6" d="
  M 143.57 32.62
  Q 142.68 31.48 143.13 29.30
  Q 143.55 28.41 144.63 28.47
  Q 145.11 28.50 145.09 28.98
  Q 144.96 31.41 143.57 32.62
  Z"
/>
<path fill="#469e50" d="
  M 136.43 40.18
  Q 142.08 43.38 135.77 49.01
  L 125.27 48.84
  Q 123.86 49.90 122.13 49.61
  Q 117.93 49.00 107.53 48.90
  Q 104.16 48.87 104.37 45.51
  Q 106.78 42.38 110.89 41.80
  Q 111.42 41.72 111.53 41.20
  Q 112.16 38.00 114.89 36.16
  A 1.56 1.55 -8.7 0 0 115.51 35.32
  Q 116.13 33.32 114.50 33.23
  C 119.13 31.49 121.83 34.69 126.04 35.62
  Q 129.41 36.36 131.68 39.13
  A 1.82 1.74 78.3 0 0 132.49 39.69
  Q 134.47 40.35 136.43 40.18
  Z"
/>
<path fill="#56ad4a" d="
  M 114.50 33.23
  Q 116.13 33.32 115.51 35.32
  A 1.56 1.55 -8.7 0 1 114.89 36.16
  Q 112.16 38.00 111.53 41.20
  Q 111.42 41.72 110.89 41.80
  Q 106.78 42.38 104.37 45.51
  C 103.43 41.22 105.69 40.81 108.56 39.40
  Q 109.00 39.18 109.24 38.75
  L 110.93 35.74
  Q 112.64 33.70 114.50 33.23
  Z"
/>
<path fill="#fadf87" d="
  M 110.93 35.74
  L 109.24 38.75
  Q 109.00 39.18 108.56 39.40
  C 105.69 40.81 103.43 41.22 104.37 45.51
  Q 104.16 48.87 107.53 48.90
  Q 117.93 49.00 122.13 49.61
  L 127.36 52.52
  Q 124.42 52.81 120.02 51.20
  Q 115.52 49.55 108.81 50.49
  C 106.67 50.79 104.31 52.24 102.04 53.30
  C 98.40 55.01 95.37 58.22 92.59 61.83
  C 87.09 68.95 83.33 74.70 73.94 78.31
  C 61.90 82.95 52.16 85.12 48.23 98.43
  C 46.63 103.85 47.17 111.87 46.74 117.00
  Q 46.31 122.29 43.32 128.97
  Q 40.80 132.76 38.02 136.72
  C 31.95 145.35 28.98 153.50 33.23 163.90
  C 35.28 168.92 40.18 174.54 42.93 179.33
  Q 45.96 184.63 46.70 191.68
  C 46.92 193.84 47.92 194.61 50.00 194.62
  Q 62.98 194.63 75.96 194.62
  L 32.57 194.43
  L 32.12 192.62
  Q 32.10 192.57 31.75 191.76
  Q 31.66 191.55 31.46 191.63
  A 0.25 0.25 0.0 0 1 31.13 191.49
  Q 29.78 187.60 28.75 183.63
  Q 28.04 180.91 26.62 178.75
  C 25.23 176.61 23.92 174.31 22.29 172.34
  C 19.79 169.31 18.14 165.45 16.88 161.81
  L 15.94 151.17
  Q 17.12 142.70 21.56 136.77
  C 27.73 128.54 32.14 122.42 33.00 112.75
  C 33.53 106.80 32.82 101.12 34.02 94.96
  C 35.84 85.65 40.49 78.28 48.83 73.60
  C 55.91 69.62 64.68 68.50 71.22 64.37
  C 76.86 60.82 80.06 56.20 84.50 50.24
  C 91.26 41.18 99.00 35.54 110.93 35.74
  Z"
/>
<path fill="#fadf87" d="
  M 246.97 194.32
  L 231.53 194.59
  C 231.09 184.55 235.97 177.44 242.05 169.30
  Q 246.08 163.90 246.87 156.96
  C 247.56 150.88 244.76 143.03 241.25 138.27
  Q 234.10 128.55 231.79 120.13
  Q 231.29 114.13 231.22 108.24
  Q 231.14 101.61 230.13 98.40
  Q 227.31 89.48 219.36 84.40
  C 215.51 81.94 209.78 80.37 205.05 78.65
  Q 194.60 74.87 188.16 64.98
  Q 188.81 60.04 184.57 58.31
  A 1.78 1.77 51.1 0 0 183.58 58.20
  C 180.53 58.73 179.83 57.54 178.43 55.21
  Q 178.16 54.76 177.68 54.55
  L 173.03 52.54
  A 0.85 0.84 20.4 0 0 171.89 53.06
  Q 171.61 53.91 170.83 54.26
  A 0.82 0.81 61.8 0 1 169.80 53.94
  Q 168.13 51.23 165.34 49.86
  Q 158.13 47.11 153.22 52.99
  Q 152.87 53.41 152.86 53.95
  Q 152.86 54.85 152.41 55.58
  Q 152.13 56.04 151.59 55.99
  C 149.56 55.80 146.70 55.10 145.53 57.30
  Q 145.25 57.83 144.86 57.37
  Q 144.37 56.77 144.73 56.00
  L 144.56 45.54
  Q 144.55 45.02 144.94 44.66
  L 151.24 38.96
  C 154.00 38.89 162.04 40.45 163.83 36.06
  Q 181.66 34.00 192.47 48.52
  C 198.30 56.36 203.73 64.43 213.28 67.45
  C 226.72 71.70 238.28 75.64 243.12 90.33
  C 245.69 98.14 244.12 106.66 245.38 114.25
  C 246.93 123.65 251.46 129.25 256.36 136.38
  Q 266.79 151.57 259.35 168.04
  C 257.87 171.31 255.26 175.50 252.75 178.10
  Q 251.15 179.77 250.46 180.98
  Q 247.11 186.89 244.79 193.53
  A 0.51 0.51 0.0 0 0 245.33 194.20
  Q 246.02 194.11 246.97 194.32
  Z"
/>
<path fill="#fcfff6" d="
  M 148.85 38.62
  Q 147.71 40.21 145.67 41.61
  A 1.02 1.02 0.0 0 1 144.28 41.38
  Q 143.29 40.04 143.49 38.80
  L 148.85 38.62
  Z"
/>
<path fill="#f0e2cf" d="
  M 125.27 48.84
  L 135.77 49.01
  Q 136.40 50.46 135.97 51.88
  Q 135.83 52.35 135.35 52.19
  L 125.27 48.84
  Z"
/>
<path fill="#56ad4a" d="
  M 165.34 49.86
  Q 159.07 50.61 155.14 55.14
  Q 154.79 55.55 154.64 56.07
  L 154.30 57.26
  A 0.69 0.68 16.0 0 1 153.46 57.72
  Q 149.68 56.63 148.01 57.34
  Q 142.27 59.80 143.77 66.03
  Q 143.84 66.32 143.44 66.39
  Q 142.22 65.31 142.25 63.99
  Q 142.32 60.12 144.73 56.00
  Q 144.37 56.77 144.86 57.37
  Q 145.25 57.83 145.53 57.30
  C 146.70 55.10 149.56 55.80 151.59 55.99
  Q 152.13 56.04 152.41 55.58
  Q 152.86 54.85 152.86 53.95
  Q 152.87 53.41 153.22 52.99
  Q 158.13 47.11 165.34 49.86
  Z"
/>
<path fill="#469e50" d="
  M 165.34 49.86
  Q 168.13 51.23 169.80 53.94
  A 0.82 0.81 61.8 0 0 170.83 54.26
  Q 171.61 53.91 171.89 53.06
  A 0.85 0.84 20.4 0 1 173.03 52.54
  L 177.68 54.55
  Q 178.16 54.76 178.43 55.21
  C 179.83 57.54 180.53 58.73 183.58 58.20
  A 1.78 1.77 51.1 0 1 184.57 58.31
  Q 188.81 60.04 188.16 64.98
  Q 185.49 69.28 182.51 69.24
  Q 173.68 69.10 168.93 70.57
  Q 168.45 69.84 167.75 69.55
  Q 167.29 69.35 166.87 69.63
  Q 166.32 70.00 165.77 69.88
  Q 166.30 69.75 166.48 69.49
  Q 166.76 69.08 166.27 69.04
  Q 163.12 68.78 160.62 71.34
  Q 161.30 69.80 159.26 70.74
  Q 159.86 70.13 159.77 69.57
  Q 159.68 69.00 159.11 69.06
  Q 151.66 69.91 144.73 68.44
  L 143.44 66.39
  Q 143.84 66.32 143.77 66.03
  Q 142.27 59.80 148.01 57.34
  Q 149.68 56.63 153.46 57.72
  A 0.69 0.68 16.0 0 0 154.30 57.26
  L 154.64 56.07
  Q 154.79 55.55 155.14 55.14
  Q 159.07 50.61 165.34 49.86
  Z"
/>
<path fill="#ffffff" d="
  M 127.36 52.52
  L 135.26 55.89
  Q 135.77 56.10 135.91 56.64
  Q 136.53 59.04 136.20 60.77
  L 124.16 65.51
  A 1.41 1.40 74.2 0 0 123.30 67.06
  Q 123.75 69.68 126.49 69.74
  Q 130.81 69.83 134.92 69.70
  Q 135.55 69.68 135.53 70.32
  L 135.43 73.53
  Q 135.41 74.21 134.74 74.12
  Q 130.54 73.51 127.90 76.75
  A 1.13 1.13 0.0 0 1 127.02 77.17
  Q 124.52 77.17 122.24 78.16
  Q 121.75 78.37 121.31 78.05
  C 116.00 74.12 111.27 72.38 105.25 76.20
  Q 100.46 79.23 96.12 82.90
  Q 94.90 83.94 94.76 85.27
  A 0.97 0.96 -86.7 0 1 93.79 86.14
  C 92.01 86.11 90.05 85.66 88.44 86.07
  C 82.19 87.65 83.94 97.59 90.25 97.46
  Q 99.98 97.26 109.36 97.69
  L 134.05 109.17
  A 0.71 0.70 -77.5 0 1 134.45 109.81
  L 134.36 123.22
  L 134.25 126.31
  Q 134.23 126.78 133.83 127.01
  L 131.96 128.13
  A 1.13 1.13 0.0 0 1 130.41 127.72
  Q 128.62 124.56 125.00 123.86
  A 1.38 1.36 -14.7 0 1 124.22 123.41
  C 119.66 118.06 113.21 116.95 109.00 123.51
  A 0.62 0.62 0.0 0 1 108.21 123.73
  Q 105.53 122.43 102.71 123.44
  A 1.00 1.00 0.0 0 1 101.77 123.29
  Q 99.43 121.44 96.75 120.87
  C 91.02 119.66 87.88 122.66 84.92 126.90
  A 1.04 1.02 15.8 0 1 84.11 127.34
  Q 79.58 127.48 77.13 131.10
  A 1.80 1.79 -69.2 0 1 75.42 131.87
  C 69.13 131.04 64.67 136.17 66.68 142.56
  C 69.19 150.72 79.92 147.02 87.64 148.18
  Q 89.11 148.40 90.38 148.59
  Q 98.13 151.31 105.50 153.74
  Q 109.09 154.92 114.86 154.51
  Q 109.21 168.30 105.17 181.70
  C 104.58 183.65 103.87 184.53 101.98 185.10
  Q 98.45 186.17 95.33 188.06
  A 1.95 1.94 62.3 0 0 94.57 190.53
  Q 95.27 192.03 97.26 192.13
  Q 99.60 192.24 102.07 193.24
  A 0.49 0.49 0.0 0 1 102.18 194.09
  L 101.25 194.77
  L 83.53 194.60
  L 83.27 194.54
  Q 82.87 194.45 82.72 194.06
  Q 82.46 193.38 82.75 192.94
  Q 83.08 192.45 82.71 191.99
  Q 81.56 190.60 81.31 189.73
  Q 79.22 182.62 76.03 176.18
  A 2.49 2.49 0.0 0 0 73.78 174.79
  Q 61.49 174.81 49.00 174.85
  C 41.88 174.88 41.60 166.76 47.51 166.95
  Q 51.95 167.09 56.51 166.78
  A 0.72 0.72 0.0 0 0 57.18 166.04
  C 56.99 159.01 59.95 157.08 66.68 156.83
  A 1.30 1.30 0.0 0 0 67.82 155.01
  Q 64.56 147.59 61.43 139.79
  C 60.65 137.84 59.34 136.53 57.61 135.63
  Q 51.37 132.35 43.32 128.97
  Q 46.31 122.29 46.74 117.00
  C 47.17 111.87 46.63 103.85 48.23 98.43
  C 52.16 85.12 61.90 82.95 73.94 78.31
  C 83.33 74.70 87.09 68.95 92.59 61.83
  C 95.37 58.22 98.40 55.01 102.04 53.30
  C 104.31 52.24 106.67 50.79 108.81 50.49
  Q 115.52 49.55 120.02 51.20
  Q 124.42 52.81 127.36 52.52
  Z"
/>
<path fill="#469e50" d="
  M 136.20 60.77
  L 138.02 64.13
  Q 138.24 64.53 138.69 64.61
  Q 141.12 65.01 140.75 67.66
  Q 140.74 67.70 140.78 67.72
  Q 140.92 67.77 141.02 67.82
  Q 141.11 67.86 141.12 68.00
  Q 141.36 72.99 139.95 77.79
  A 1.26 1.25 37.4 0 0 140.09 78.81
  Q 141.12 80.48 142.95 81.33
  Q 143.45 81.57 143.53 82.12
  Q 143.68 83.20 143.64 84.50
  Q 143.41 91.68 141.12 95.84
  L 134.86 97.46
  L 123.77 97.47
  Q 122.80 96.65 120.45 97.40
  L 114.14 97.46
  Q 112.39 97.14 109.36 97.69
  Q 99.98 97.26 90.25 97.46
  C 83.94 97.59 82.19 87.65 88.44 86.07
  C 90.05 85.66 92.01 86.11 93.79 86.14
  A 0.97 0.96 -86.7 0 0 94.76 85.27
  Q 94.90 83.94 96.12 82.90
  Q 100.46 79.23 105.25 76.20
  C 111.27 72.38 116.00 74.12 121.31 78.05
  Q 121.75 78.37 122.24 78.16
  Q 124.52 77.17 127.02 77.17
  A 1.13 1.13 0.0 0 0 127.90 76.75
  Q 130.54 73.51 134.74 74.12
  Q 135.41 74.21 135.43 73.53
  L 135.53 70.32
  Q 135.55 69.68 134.92 69.70
  Q 130.81 69.83 126.49 69.74
  Q 123.75 69.68 123.30 67.06
  A 1.41 1.40 74.2 0 1 124.16 65.51
  L 136.20 60.77
  Z
  M 124.76 82.16
  C 127.03 81.66 128.20 81.05 130.45 81.35
  Q 132.69 81.65 130.88 80.30
  Q 127.58 77.84 124.07 80.22
  A 0.65 0.63 70.8 0 0 123.79 80.82
  Q 123.85 81.46 124.20 81.94
  Q 124.41 82.23 124.76 82.16
  Z
  M 140.25 86.28
  A 0.57 0.57 0.0 0 0 140.52 85.20
  L 138.36 84.05
  A 0.57 0.57 0.0 0 0 138.04 83.98
  L 135.61 84.19
  A 0.57 0.57 0.0 0 0 135.11 84.89
  L 135.31 85.79
  A 0.57 0.57 0.0 0 0 135.86 86.23
  L 140.25 86.28
  Z"
/>
<path fill="#ffffff" d="
  M 188.16 64.98
  Q 194.60 74.87 205.05 78.65
  C 209.78 80.37 215.51 81.94 219.36 84.40
  Q 227.31 89.48 230.13 98.40
  Q 231.14 101.61 231.22 108.24
  Q 231.29 114.13 231.79 120.13
  Q 229.22 116.91 226.35 114.15
  C 215.85 104.04 205.70 92.74 194.24 83.92
  Q 187.63 78.84 181.06 74.01
  A 3.61 3.60 -36.3 0 0 177.78 73.51
  Q 166.61 77.32 156.01 81.07
  C 154.56 81.59 153.62 82.02 152.81 83.44
  Q 149.51 89.24 147.66 95.65
  Q 147.20 96.04 146.54 96.01
  Q 145.93 95.97 145.93 95.37
  L 145.82 83.15
  A 1.87 1.87 0.0 0 1 146.86 81.46
  L 168.93 70.57
  Q 173.68 69.10 182.51 69.24
  Q 185.49 69.28 188.16 64.98
  Z"
/>
<path fill="#ffffff" d="
  M 144.73 68.44
  Q 151.66 69.91 159.11 69.06
  Q 159.68 69.00 159.77 69.57
  Q 159.86 70.13 159.26 70.74
  Q 153.52 75.23 146.48 77.50
  A 0.44 0.43 77.5 0 1 145.93 77.14
  L 144.73 68.44
  Z"
/>
<path fill="#f0e2cf" d="
  M 165.77 69.88
  Q 163.21 71.45 160.62 71.34
  Q 163.12 68.78 166.27 69.04
  Q 166.76 69.08 166.48 69.49
  Q 166.30 69.75 165.77 69.88
  Z"
/>
<path fill="#c2d8dd" d="
  M 231.79 120.13
  Q 234.10 128.55 241.25 138.27
  C 244.76 143.03 247.56 150.88 246.87 156.96
  Q 246.08 163.90 242.05 169.30
  C 235.97 177.44 231.09 184.55 231.53 194.59
  L 147.31 194.60
  L 147.26 141.35
  A 1.25 1.24 79.3 0 1 148.04 140.19
  C 152.74 138.31 157.05 136.30 162.20 135.86
  Q 168.71 135.30 175.39 134.99
  C 177.08 135.57 178.12 136.45 180.04 136.47
  Q 189.77 136.55 199.50 136.47
  C 203.04 136.44 207.27 134.64 205.72 130.31
  Q 205.24 128.99 203.31 129.09
  Q 199.49 128.57 205.75 127.94
  Q 211.36 127.37 211.40 120.99
  C 211.44 116.01 205.82 115.70 203.10 112.17
  Q 202.07 110.84 201.79 112.50
  Q 201.63 113.42 202.01 114.95
  Q 202.11 115.34 201.75 115.54
  Q 200.95 115.99 200.44 115.28
  C 198.62 112.77 198.08 111.93 194.79 111.20
  C 191.09 110.39 190.58 107.50 188.36 105.91
  Q 184.34 103.03 178.89 105.35
  Q 172.98 107.85 170.41 112.57
  Q 170.14 113.05 169.61 112.91
  C 167.90 112.45 165.86 112.05 163.94 112.54
  Q 163.53 112.64 161.02 114.11
  Q 158.96 115.32 155.78 114.91
  Q 152.14 114.44 149.25 118.01
  Q 148.49 118.95 147.54 122.70
  Q 147.42 123.15 147.59 123.59
  Q 149.43 128.15 154.26 128.12
  Q 161.74 128.06 169.37 128.22
  L 146.80 134.77
  A 0.38 0.38 0.0 0 1 146.32 134.45
  Q 145.51 128.41 146.33 123.65
  Q 147.34 114.10 152.27 113.38
  Q 153.47 113.20 157.16 113.67
  Q 157.66 113.74 158.10 113.47
  C 161.59 111.31 163.41 109.73 167.61 111.70
  A 1.60 1.60 0.0 0 0 169.84 110.68
  Q 170.53 108.13 172.80 106.82
  A 0.64 0.64 0.0 0 0 172.72 105.67
  C 167.83 103.68 165.34 101.13 159.92 104.08
  C 158.47 104.86 157.38 106.39 156.14 107.61
  A 1.72 1.70 -72.7 0 1 155.29 108.06
  Q 151.88 108.72 150.10 111.51
  C 149.01 113.22 147.62 113.83 146.02 112.34
  L 146.01 99.60
  Q 146.01 99.07 146.50 98.91
  L 156.55 95.58
  C 162.69 93.63 168.62 94.14 177.79 94.23
  C 181.46 94.26 184.89 93.46 184.11 88.98
  C 183.67 86.48 182.25 86.49 180.09 86.10
  Q 179.29 85.95 179.10 85.16
  C 177.53 78.84 171.03 77.95 166.70 82.33
  A 1.31 1.30 23.3 0 1 165.73 82.71
  Q 162.06 82.53 159.74 85.24
  Q 159.35 85.69 158.76 85.72
  C 153.82 86.04 151.26 89.34 155.42 93.51
  Q 155.80 93.89 155.35 94.19
  Q 155.04 94.40 154.49 94.36
  L 147.66 95.65
  Q 149.51 89.24 152.81 83.44
  C 153.62 82.02 154.56 81.59 156.01 81.07
  Q 166.61 77.32 177.78 73.51
  A 3.61 3.60 -36.3 0 1 181.06 74.01
  Q 187.63 78.84 194.24 83.92
  C 205.70 92.74 215.85 104.04 226.35 114.15
  Q 229.22 116.91 231.79 120.13
  Z"
/>
<path fill="#56ad4a" d="
  M 130.45 81.35
  C 128.20 81.05 127.03 81.66 124.76 82.16
  Q 124.41 82.23 124.20 81.94
  Q 123.85 81.46 123.79 80.82
  A 0.65 0.63 70.8 0 1 124.07 80.22
  Q 127.58 77.84 130.88 80.30
  Q 132.69 81.65 130.45 81.35
  Z"
/>
<path fill="#448c4a" d="
  M 156.55 95.58
  Q 156.40 94.10 154.49 94.36
  Q 155.04 94.40 155.35 94.19
  Q 155.80 93.89 155.42 93.51
  C 151.26 89.34 153.82 86.04 158.76 85.72
  Q 159.35 85.69 159.74 85.24
  Q 162.06 82.53 165.73 82.71
  A 1.31 1.30 23.3 0 0 166.70 82.33
  C 171.03 77.95 177.53 78.84 179.10 85.16
  Q 179.29 85.95 180.09 86.10
  C 182.25 86.49 183.67 86.48 184.11 88.98
  C 184.89 93.46 181.46 94.26 177.79 94.23
  C 168.62 94.14 162.69 93.63 156.55 95.58
  Z"
/>
<path fill="#56ad4a" d="
  M 140.25 86.28
  L 135.86 86.23
  A 0.57 0.57 0.0 0 1 135.31 85.79
  L 135.11 84.89
  A 0.57 0.57 0.0 0 1 135.61 84.19
  L 138.04 83.98
  A 0.57 0.57 0.0 0 1 138.36 84.05
  L 140.52 85.20
  A 0.57 0.57 0.0 0 1 140.25 86.28
  Z"
/>
<path fill="#806058" d="
  M 141.12 95.84
  C 140.90 99.04 139.86 109.13 141.96 111.27
  A 0.70 0.70 0.0 0 1 141.78 112.39
  Q 138.43 114.07 139.27 116.32
  C 139.64 117.32 140.84 117.75 140.89 119.25
  Q 141.37 132.67 139.70 139.00
  Q 138.87 142.15 141.26 144.04
  A 0.90 0.89 -36.2 0 1 141.02 145.58
  L 138.88 146.37
  A 1.33 1.33 0.0 0 0 138.17 148.24
  Q 139.24 150.23 139.27 152.75
  Q 139.38 160.45 139.40 168.16
  C 139.41 170.11 139.32 171.65 141.70 171.91
  A 1.32 1.31 3.2 0 1 142.87 173.21
  Q 142.87 174.49 141.50 174.57
  Q 139.56 174.70 137.57 174.79
  Q 137.11 174.81 136.91 175.22
  Q 136.35 176.34 137.22 177.01
  Q 139.56 178.80 139.53 181.24
  Q 139.45 187.42 139.07 190.75
  Q 138.95 191.81 138.23 195.03
  Q 135.16 195.67 133.20 194.76
  L 133.22 163.47
  Q 133.22 163.03 132.86 162.77
  Q 124.20 156.69 114.86 154.51
  Q 109.09 154.92 105.50 153.74
  Q 98.13 151.31 90.38 148.59
  Q 91.14 147.78 93.51 147.41
  Q 95.01 147.17 96.49 147.54
  Q 96.14 147.43 95.77 147.48
  Q 95.26 147.55 95.73 147.75
  Q 102.21 150.44 109.25 150.64
  Q 111.43 150.70 109.67 149.44
  Q 108.97 148.95 106.89 148.23
  Q 109.45 146.63 113.34 147.73
  L 132.91 155.84
  A 0.43 0.42 9.4 0 0 133.50 155.42
  Q 132.82 146.19 134.04 136.80
  Q 135.40 137.13 136.21 135.75
  Q 137.26 133.97 137.29 130.48
  Q 137.30 129.07 135.63 129.05
  Q 135.10 129.04 135.03 128.52
  L 134.36 123.22
  L 134.45 109.81
  A 0.71 0.70 -77.5 0 0 134.05 109.17
  L 109.36 97.69
  Q 112.39 97.14 114.14 97.46
  Q 118.64 99.72 123.26 100.52
  Q 123.77 100.61 123.57 100.13
  Q 122.69 98.02 120.45 97.40
  Q 122.80 96.65 123.77 97.47
  Q 127.22 103.28 134.31 104.12
  Q 134.76 104.17 134.77 103.71
  L 134.86 97.46
  L 141.12 95.84
  Z"
/>
<path fill="#fcfff6" d="
  M 114.14 97.46
  L 120.45 97.40
  Q 122.69 98.02 123.57 100.13
  Q 123.77 100.61 123.26 100.52
  Q 118.64 99.72 114.14 97.46
  Z"
/>
<path fill="#ffffff" d="
  M 123.77 97.47
  L 134.86 97.46
  L 134.77 103.71
  Q 134.76 104.17 134.31 104.12
  Q 127.22 103.28 123.77 97.47
  Z"
/>
<path fill="#448c4a" d="
  M 146.33 123.65
  Q 136.57 117.10 146.02 112.34
  C 147.62 113.83 149.01 113.22 150.10 111.51
  Q 151.88 108.72 155.29 108.06
  A 1.72 1.70 -72.7 0 0 156.14 107.61
  C 157.38 106.39 158.47 104.86 159.92 104.08
  C 165.34 101.13 167.83 103.68 172.72 105.67
  A 0.64 0.64 0.0 0 1 172.80 106.82
  Q 170.53 108.13 169.84 110.68
  A 1.60 1.60 0.0 0 1 167.61 111.70
  C 163.41 109.73 161.59 111.31 158.10 113.47
  Q 157.66 113.74 157.16 113.67
  Q 153.47 113.20 152.27 113.38
  Q 147.34 114.10 146.33 123.65
  Z"
/>
<path fill="#469e50" d="
  M 203.31 129.09
  Q 201.88 129.50 201.19 128.39
  Q 201.03 128.12 200.74 128.25
  Q 200.63 128.31 200.51 128.36
  A 0.66 0.65 -35.2 0 1 199.78 128.24
  Q 197.83 126.35 195.28 125.52
  Q 194.86 125.38 194.44 125.50
  C 191.60 126.26 191.11 121.52 186.57 122.29
  Q 182.43 123.00 181.03 127.08
  Q 180.86 127.56 180.45 127.85
  Q 178.80 129.00 176.72 129.00
  L 176.84 128.64
  A 1.12 1.12 0.0 0 0 175.59 127.18
  L 169.37 128.22
  Q 161.74 128.06 154.26 128.12
  Q 149.43 128.15 147.59 123.59
  Q 147.42 123.15 147.54 122.70
  Q 148.49 118.95 149.25 118.01
  Q 152.14 114.44 155.78 114.91
  Q 158.96 115.32 161.02 114.11
  Q 163.53 112.64 163.94 112.54
  C 165.86 112.05 167.90 112.45 169.61 112.91
  Q 170.14 113.05 170.41 112.57
  Q 172.98 107.85 178.89 105.35
  Q 184.34 103.03 188.36 105.91
  C 190.58 107.50 191.09 110.39 194.79 111.20
  C 198.08 111.93 198.62 112.77 200.44 115.28
  Q 200.95 115.99 201.75 115.54
  Q 202.11 115.34 202.01 114.95
  Q 201.63 113.42 201.79 112.50
  Q 202.07 110.84 203.10 112.17
  C 205.82 115.70 211.44 116.01 211.40 120.99
  Q 211.36 127.37 205.75 127.94
  Q 199.49 128.57 203.31 129.09
  Z"
/>
<path fill="#469e50" d="
  M 134.36 123.22
  L 135.03 128.52
  Q 135.10 129.04 135.63 129.05
  Q 137.30 129.07 137.29 130.48
  Q 137.26 133.97 136.21 135.75
  Q 135.40 137.13 134.04 136.80
  L 128.76 136.82
  Q 128.18 136.82 128.22 137.40
  Q 128.85 147.24 119.24 147.42
  Q 116.37 147.48 113.34 147.73
  Q 109.45 146.63 106.89 148.23
  L 96.49 147.54
  Q 95.01 147.17 93.51 147.41
  Q 91.14 147.78 90.38 148.59
  Q 89.11 148.40 87.64 148.18
  C 79.92 147.02 69.19 150.72 66.68 142.56
  C 66.99 138.62 69.88 136.15 73.05 133.80
  Q 73.40 133.54 73.84 133.55
  L 78.06 133.63
  Q 78.58 133.64 78.95 133.28
  C 80.77 131.54 82.29 129.35 85.15 129.12
  C 86.60 129.01 87.13 128.45 87.93 127.41
  C 89.09 125.88 89.86 125.24 91.02 124.11
  C 92.47 122.70 94.96 121.97 96.75 120.87
  Q 99.43 121.44 101.77 123.29
  A 1.00 1.00 0.0 0 0 102.71 123.44
  Q 105.53 122.43 108.21 123.73
  A 0.62 0.62 0.0 0 0 109.00 123.51
  C 113.21 116.95 119.66 118.06 124.22 123.41
  A 1.38 1.36 -14.7 0 0 125.00 123.86
  Q 128.62 124.56 130.41 127.72
  A 1.13 1.13 0.0 0 0 131.96 128.13
  L 133.83 127.01
  Q 134.23 126.78 134.25 126.31
  L 134.36 123.22
  Z
  M 124.55 134.25
  Q 124.76 134.42 125.00 134.25
  A 0.30 0.30 0.0 0 0 124.99 133.76
  Q 121.97 131.67 118.32 132.27
  Q 117.80 132.35 118.13 132.77
  C 119.33 134.31 122.37 133.85 124.23 134.12
  Q 124.41 134.14 124.55 134.25
  Z
  M 88.54 136.69
  L 90.82 135.48
  Q 91.32 135.22 91.87 135.12
  Q 93.88 134.77 95.77 134.01
  Q 96.32 133.78 95.95 133.32
  Q 95.59 132.89 94.98 132.88
  C 91.98 132.87 89.56 134.20 86.65 134.73
  A 0.63 0.63 0.0 0 0 86.31 135.79
  L 86.91 136.42
  A 1.37 1.37 0.0 0 0 88.54 136.69
  Z"
/>
<path fill="#56ad4a" d="
  M 96.75 120.87
  C 94.96 121.97 92.47 122.70 91.02 124.11
  C 89.86 125.24 89.09 125.88 87.93 127.41
  C 87.13 128.45 86.60 129.01 85.15 129.12
  C 82.29 129.35 80.77 131.54 78.95 133.28
  Q 78.58 133.64 78.06 133.63
  L 73.84 133.55
  Q 73.40 133.54 73.05 133.80
  C 69.88 136.15 66.99 138.62 66.68 142.56
  C 64.67 136.17 69.13 131.04 75.42 131.87
  A 1.80 1.79 -69.2 0 0 77.13 131.10
  Q 79.58 127.48 84.11 127.34
  A 1.04 1.02 15.8 0 0 84.92 126.90
  C 87.88 122.66 91.02 119.66 96.75 120.87
  Z"
/>
<path fill="#56ad4a" d="
  M 203.31 129.09
  Q 205.24 128.99 205.72 130.31
  C 207.27 134.64 203.04 136.44 199.50 136.47
  Q 189.77 136.55 180.04 136.47
  C 178.12 136.45 177.08 135.57 175.39 134.99
  Q 175.96 133.83 174.31 133.21
  Q 176.77 131.45 175.85 129.35
  Q 175.92 129.20 176.72 129.00
  Q 178.80 129.00 180.45 127.85
  Q 180.86 127.56 181.03 127.08
  Q 182.43 123.00 186.57 122.29
  C 191.11 121.52 191.60 126.26 194.44 125.50
  Q 194.86 125.38 195.28 125.52
  Q 197.83 126.35 199.78 128.24
  A 0.66 0.65 -35.2 0 0 200.51 128.36
  Q 200.63 128.31 200.74 128.25
  Q 201.03 128.12 201.19 128.39
  Q 201.88 129.50 203.31 129.09
  Z"
/>
<path fill="#e7f2f5" d="
  M 43.32 128.97
  Q 51.37 132.35 57.61 135.63
  C 59.34 136.53 60.65 137.84 61.43 139.79
  Q 64.56 147.59 67.82 155.01
  A 1.30 1.30 0.0 0 1 66.68 156.83
  C 59.95 157.08 56.99 159.01 57.18 166.04
  A 0.72 0.72 0.0 0 1 56.51 166.78
  Q 51.95 167.09 47.51 166.95
  C 41.60 166.76 41.88 174.88 49.00 174.85
  Q 61.49 174.81 73.78 174.79
  A 2.49 2.49 0.0 0 1 76.03 176.18
  Q 79.22 182.62 81.31 189.73
  Q 81.56 190.60 82.71 191.99
  Q 83.08 192.45 82.75 192.94
  Q 82.46 193.38 82.72 194.06
  Q 82.87 194.45 83.27 194.54
  L 83.53 194.60
  L 75.96 194.62
  Q 62.98 194.63 50.00 194.62
  C 47.92 194.61 46.92 193.84 46.70 191.68
  Q 45.96 184.63 42.93 179.33
  C 40.18 174.54 35.28 168.92 33.23 163.90
  C 28.98 153.50 31.95 145.35 38.02 136.72
  Q 40.80 132.76 43.32 128.97
  Z"
/>
<path fill="#c2d8dd" d="
  M 175.85 129.35
  Q 176.77 131.45 174.31 133.21
  L 167.36 133.15
  Q 166.28 133.14 167.29 132.74
  L 175.85 129.35
  Z"
/>
<path fill="#56ad4a" d="
  M 124.23 134.12
  C 122.37 133.85 119.33 134.31 118.13 132.77
  Q 117.80 132.35 118.32 132.27
  Q 121.97 131.67 124.99 133.76
  A 0.30 0.30 0.0 0 1 125.00 134.25
  Q 124.76 134.42 124.55 134.25
  Q 124.41 134.14 124.23 134.12
  Z"
/>
<path fill="#56ad4a" d="
  M 88.54 136.69
  A 1.37 1.37 0.0 0 1 86.91 136.42
  L 86.31 135.79
  A 0.63 0.63 0.0 0 1 86.65 134.73
  C 89.56 134.20 91.98 132.87 94.98 132.88
  Q 95.59 132.89 95.95 133.32
  Q 96.32 133.78 95.77 134.01
  Q 93.88 134.77 91.87 135.12
  Q 91.32 135.22 90.82 135.48
  L 88.54 136.69
  Z"
/>
<path fill="#c2d8dd" d="
  M 134.04 136.80
  Q 132.82 146.19 133.50 155.42
  A 0.43 0.42 9.4 0 1 132.91 155.84
  L 113.34 147.73
  Q 116.37 147.48 119.24 147.42
  Q 128.85 147.24 128.22 137.40
  Q 128.18 136.82 128.76 136.82
  L 134.04 136.80
  Z"
/>
<path fill="#fcfff6" d="
  M 96.49 147.54
  L 106.89 148.23
  Q 108.97 148.95 109.67 149.44
  Q 111.43 150.70 109.25 150.64
  Q 102.21 150.44 95.73 147.75
  Q 95.26 147.55 95.77 147.48
  Q 96.14 147.43 96.49 147.54
  Z"
/>
<path fill="#f0e2cf" d="
  M 15.94 151.17
  L 16.88 161.81
  Q 14.46 156.27 15.94 151.17
  Z"
/>
<path fill="#c2d8dd" d="
  M 114.86 154.51
  Q 124.20 156.69 132.86 162.77
  Q 133.22 163.03 133.22 163.47
  L 133.20 194.76
  L 101.25 194.77
  L 102.18 194.09
  A 0.49 0.49 0.0 0 0 102.07 193.24
  Q 99.60 192.24 97.26 192.13
  Q 95.27 192.03 94.57 190.53
  A 1.95 1.94 62.3 0 1 95.33 188.06
  Q 98.45 186.17 101.98 185.10
  C 103.87 184.53 104.58 183.65 105.17 181.70
  Q 109.21 168.30 114.86 154.51
  Z"
/>
<path fill="#56ad4a" d="
  M 253.82 249.98
  Q 249.53 248.46 244.67 248.87
  Q 238.85 249.35 238.80 249.35
  Q 235.33 249.38 230.00 249.19
  Q 222.00 248.90 199.80 249.54
  L 183.55 249.68
  L 94.74 249.77
  L 78.79 249.80
  Q 77.95 249.31 75.75 249.28
  Q 58.87 249.04 47.25 249.35
  Q 39.15 249.57 25.01 248.62
  Q 23.64 248.53 23.56 249.82
  C 17.88 248.37 16.30 244.83 15.34 239.06
  Q 12.97 224.78 10.77 210.48
  Q 9.70 203.48 10.65 200.54
  Q 12.53 194.70 20.02 194.21
  Q 23.19 194.00 32.57 194.43
  L 75.96 194.62
  L 83.53 194.60
  L 101.25 194.77
  L 133.20 194.76
  Q 135.16 195.67 138.23 195.03
  Q 144.54 195.93 147.31 194.60
  L 231.53 194.59
  L 246.97 194.32
  C 253.16 194.08 265.26 192.90 270.28 195.94
  Q 275.78 199.25 274.49 207.25
  Q 271.80 223.99 269.24 240.75
  C 268.40 246.32 264.91 249.62 259.26 249.78
  Q 256.17 249.87 253.82 249.98
  Z
  M 151.67 232.72
  L 141.60 232.82
  A 0.72 0.72 0.0 0 1 140.87 232.10
  L 140.81 203.96
  Q 140.81 202.59 139.46 202.76
  L 138.98 202.82
  A 1.22 1.21 -3.5 0 0 137.91 204.02
  L 137.97 232.31
  A 0.53 0.52 0.0 0 1 137.44 232.83
  L 127.64 232.79
  A 0.91 0.90 -0.0 0 1 126.73 231.89
  L 126.65 210.32
  Q 126.65 209.23 125.57 209.24
  L 125.01 209.25
  A 1.25 1.25 0.0 0 0 123.77 210.50
  L 123.78 237.49
  A 0.90 0.90 0.0 0 0 124.93 238.36
  Q 126.36 237.96 126.65 236.45
  A 1.14 1.12 5.2 0 1 127.77 235.53
  L 150.95 235.50
  Q 151.72 235.50 151.93 236.25
  C 152.11 236.95 152.47 238.04 153.28 238.33
  Q 153.88 238.55 154.23 238.31
  A 1.73 1.53 -18.8 0 0 154.99 236.97
  L 154.99 210.73
  Q 154.99 209.34 153.60 209.36
  L 153.12 209.37
  A 1.16 1.16 0.0 0 0 151.97 210.54
  L 152.06 232.33
  A 0.39 0.39 0.0 0 1 151.67 232.72
  Z
  M 169.77 221.57
  Q 169.77 218.81 171.13 221.22
  L 173.13 224.79
  A 0.95 0.94 44.4 0 0 174.79 224.78
  L 174.96 224.46
  Q 175.53 223.39 174.81 222.42
  L 169.79 215.73
  A 1.51 1.50 71.2 0 1 170.97 213.32
  L 173.71 213.27
  Q 174.67 213.26 174.77 212.29
  L 174.83 211.73
  Q 174.95 210.50 173.73 210.50
  L 170.39 210.48
  A 0.61 0.60 -0.5 0 1 169.78 209.89
  L 169.69 203.99
  A 1.30 1.29 5.0 0 0 168.64 202.75
  L 168.16 202.65
  A 0.91 0.91 0.0 0 0 167.07 203.53
  L 166.97 209.73
  A 0.72 0.71 -90.0 0 1 166.27 210.44
  L 162.21 210.56
  A 1.20 1.19 -89.5 0 0 161.05 211.71
  C 160.97 213.75 164.25 213.30 165.52 213.09
  A 0.89 0.89 0.0 0 1 166.52 214.20
  Q 164.71 220.62 160.97 226.11
  A 1.68 1.67 41.3 0 0 161.11 228.17
  L 161.32 228.40
  A 0.88 0.87 39.1 0 0 162.72 228.26
  Q 164.64 225.00 165.94 221.44
  Q 166.02 221.23 166.21 221.12
  Q 166.41 221.00 166.61 221.05
  Q 166.99 221.15 166.99 221.55
  L 167.03 237.75
  Q 167.03 238.87 168.15 238.85
  L 168.41 238.85
  Q 169.73 238.83 169.74 237.50
  L 169.77 221.57
  Z
  M 88.50 214.31
  L 88.42 222.32
  Q 88.42 223.23 89.32 223.24
  L 89.93 223.25
  Q 91.32 223.26 91.33 221.87
  Q 91.37 217.66 91.27 213.06
  C 91.19 209.58 93.31 207.32 95.30 204.53
  A 0.81 0.81 0.0 0 0 94.92 203.30
  L 94.56 203.17
  A 1.68 1.68 0.0 0 0 92.56 203.82
  Q 89.16 209.05 83.98 212.51
  A 2.79 2.76 -18.0 0 0 82.75 214.90
  L 82.76 215.36
  A 0.89 0.89 0.0 0 0 84.19 216.04
  L 87.28 213.70
  A 0.76 0.76 0.0 0 1 88.50 214.31
  Z
  M 103.99 209.70
  L 103.87 204.33
  Q 103.85 203.44 102.96 203.37
  L 102.57 203.35
  Q 101.13 203.25 101.15 204.69
  L 101.23 211.23
  A 1.69 1.69 0.0 0 1 100.10 212.84
  L 94.81 214.68
  A 0.97 0.97 0.0 0 0 94.21 215.92
  L 94.34 216.29
  Q 94.81 217.67 96.18 217.16
  L 100.38 215.59
  A 0.51 0.50 77.6 0 1 101.06 216.03
  C 101.23 218.70 101.15 221.54 104.71 221.79
  Q 109.10 222.11 113.50 221.77
  C 116.49 221.55 117.30 217.85 117.19 215.48
  Q 117.14 214.41 116.10 214.12
  L 115.74 214.02
  A 0.78 0.78 0.0 0 0 114.76 214.69
  C 114.14 220.70 110.09 219.41 105.66 219.22
  A 1.83 1.83 0.0 0 1 103.94 217.75
  Q 103.32 214.59 105.57 213.34
  Q 110.52 210.60 114.98 207.07
  A 0.96 0.96 0.0 0 0 115.15 205.74
  L 114.90 205.41
  A 1.08 1.08 0.0 0 0 113.44 205.15
  L 105.40 210.44
  Q 104.02 211.34 103.99 209.70
  Z
  M 187.84 205.52
  C 189.06 211.12 191.26 215.81 194.53 220.53
  Q 195.35 221.72 196.07 220.47
  L 196.21 220.23
  Q 196.91 219.01 196.14 217.82
  Q 192.14 211.67 190.38 204.52
  A 1.33 1.32 79.0 0 0 188.92 203.53
  Q 187.45 203.74 187.84 205.52
  Z
  M 175.06 220.28
  L 177.15 221.09
  A 0.45 0.45 0.0 0 0 177.73 220.83
  L 177.82 220.58
  A 17.00 0.52 -68.9 0 0 183.46 204.53
  L 181.50 203.78
  A 17.00 0.52 -68.9 0 0 174.89 219.45
  L 174.80 219.70
  A 0.45 0.45 0.0 0 0 175.06 220.28
  Z
  M 180.01 234.30
  Q 179.96 234.05 180.09 233.80
  Q 184.01 226.23 186.45 217.95
  A 1.05 1.05 0.0 0 0 185.31 216.61
  L 184.81 216.67
  A 1.71 1.69 3.5 0 0 183.39 217.91
  Q 180.86 227.35 175.61 235.58
  A 1.54 1.54 0.0 0 0 177.16 237.93
  L 190.71 235.68
  A 1.04 1.02 -13.1 0 1 191.87 236.39
  L 192.36 237.97
  Q 192.66 238.94 193.66 238.75
  L 194.62 238.57
  Q 195.62 238.39 195.24 237.45
  L 190.30 225.50
  A 1.32 1.31 -24.6 0 0 188.49 224.83
  L 188.00 225.08
  A 0.82 0.81 -24.5 0 0 187.61 226.11
  L 189.99 231.94
  A 0.91 0.91 0.0 0 1 189.29 233.18
  L 180.43 234.60
  A 0.38 0.37 80.3 0 1 180.01 234.30
  Z
  M 101.59 225.70
  Q 101.39 224.54 101.26 223.37
  Q 101.18 222.68 100.84 222.39
  Q 100.34 221.97 99.63 222.19
  Q 99.16 222.34 99.04 222.81
  L 98.32 225.66
  Q 98.18 226.22 97.60 226.22
  L 83.97 226.23
  Q 83.18 226.23 83.15 227.03
  L 83.10 228.16
  Q 83.05 229.13 84.02 229.12
  L 97.80 229.02
  A 0.80 0.79 -0.4 0 1 98.60 229.80
  L 98.65 238.03
  A 1.01 1.01 0.0 0 0 99.73 239.03
  L 100.04 239.01
  Q 101.45 238.91 101.46 237.49
  L 101.53 229.49
  A 0.48 0.48 0.0 0 1 102.01 229.01
  L 116.25 229.04
  Q 117.04 229.04 117.02 228.25
  L 116.99 226.76
  Q 116.98 226.04 116.26 226.05
  L 102.23 226.24
  Q 101.68 226.25 101.59 225.70
  Z"
/>
<path fill="#fcfff6" d="
  M 151.67 232.72
  A 0.39 0.39 0.0 0 0 152.06 232.33
  L 151.97 210.54
  A 1.16 1.16 0.0 0 1 153.12 209.37
  L 153.60 209.36
  Q 154.99 209.34 154.99 210.73
  L 154.99 236.97
  A 1.73 1.53 -18.8 0 1 154.23 238.31
  Q 153.88 238.55 153.28 238.33
  C 152.47 238.04 152.11 236.95 151.93 236.25
  Q 151.72 235.50 150.95 235.50
  L 127.77 235.53
  A 1.14 1.12 5.2 0 0 126.65 236.45
  Q 126.36 237.96 124.93 238.36
  A 0.90 0.90 0.0 0 1 123.78 237.49
  L 123.77 210.50
  A 1.25 1.25 0.0 0 1 125.01 209.25
  L 125.57 209.24
  Q 126.65 209.23 126.65 210.32
  L 126.73 231.89
  A 0.91 0.90 -0.0 0 0 127.64 232.79
  L 137.44 232.83
  A 0.53 0.52 0.0 0 0 137.97 232.31
  L 137.91 204.02
  A 1.22 1.21 -3.5 0 1 138.98 202.82
  L 139.46 202.76
  Q 140.81 202.59 140.81 203.96
  L 140.87 232.10
  A 0.72 0.72 0.0 0 0 141.60 232.82
  L 151.67 232.72
  Z"
/>
<path fill="#fcfff6" d="
  M 169.77 221.57
  L 169.74 237.50
  Q 169.73 238.83 168.41 238.85
  L 168.15 238.85
  Q 167.03 238.87 167.03 237.75
  L 166.99 221.55
  Q 166.99 221.15 166.61 221.05
  Q 166.41 221.00 166.21 221.12
  Q 166.02 221.23 165.94 221.44
  Q 164.64 225.00 162.72 228.26
  A 0.88 0.87 39.1 0 1 161.32 228.40
  L 161.11 228.17
  A 1.68 1.67 41.3 0 1 160.97 226.11
  Q 164.71 220.62 166.52 214.20
  A 0.89 0.89 0.0 0 0 165.52 213.09
  C 164.25 213.30 160.97 213.75 161.05 211.71
  A 1.20 1.19 -89.5 0 1 162.21 210.56
  L 166.27 210.44
  A 0.72 0.71 -90.0 0 0 166.97 209.73
  L 167.07 203.53
  A 0.91 0.91 0.0 0 1 168.16 202.65
  L 168.64 202.75
  A 1.30 1.29 5.0 0 1 169.69 203.99
  L 169.78 209.89
  A 0.61 0.60 -0.5 0 0 170.39 210.48
  L 173.73 210.50
  Q 174.95 210.50 174.83 211.73
  L 174.77 212.29
  Q 174.67 213.26 173.71 213.27
  L 170.97 213.32
  A 1.51 1.50 71.2 0 0 169.79 215.73
  L 174.81 222.42
  Q 175.53 223.39 174.96 224.46
  L 174.79 224.78
  A 0.95 0.94 44.4 0 1 173.13 224.79
  L 171.13 221.22
  Q 169.77 218.81 169.77 221.57
  Z"
/>
<path fill="#fcfff6" d="
  M 88.50 214.31
  A 0.76 0.76 0.0 0 0 87.28 213.70
  L 84.19 216.04
  A 0.89 0.89 0.0 0 1 82.76 215.36
  L 82.75 214.90
  A 2.79 2.76 -18.0 0 1 83.98 212.51
  Q 89.16 209.05 92.56 203.82
  A 1.68 1.68 0.0 0 1 94.56 203.17
  L 94.92 203.30
  A 0.81 0.81 0.0 0 1 95.30 204.53
  C 93.31 207.32 91.19 209.58 91.27 213.06
  Q 91.37 217.66 91.33 221.87
  Q 91.32 223.26 89.93 223.25
  L 89.32 223.24
  Q 88.42 223.23 88.42 222.32
  L 88.50 214.31
  Z"
/>
<path fill="#fcfff6" d="
  M 103.99 209.70
  Q 104.02 211.34 105.40 210.44
  L 113.44 205.15
  A 1.08 1.08 0.0 0 1 114.90 205.41
  L 115.15 205.74
  A 0.96 0.96 0.0 0 1 114.98 207.07
  Q 110.52 210.60 105.57 213.34
  Q 103.32 214.59 103.94 217.75
  A 1.83 1.83 0.0 0 0 105.66 219.22
  C 110.09 219.41 114.14 220.70 114.76 214.69
  A 0.78 0.78 0.0 0 1 115.74 214.02
  L 116.10 214.12
  Q 117.14 214.41 117.19 215.48
  C 117.30 217.85 116.49 221.55 113.50 221.77
  Q 109.10 222.11 104.71 221.79
  C 101.15 221.54 101.23 218.70 101.06 216.03
  A 0.51 0.50 77.6 0 0 100.38 215.59
  L 96.18 217.16
  Q 94.81 217.67 94.34 216.29
  L 94.21 215.92
  A 0.97 0.97 0.0 0 1 94.81 214.68
  L 100.10 212.84
  A 1.69 1.69 0.0 0 0 101.23 211.23
  L 101.15 204.69
  Q 101.13 203.25 102.57 203.35
  L 102.96 203.37
  Q 103.85 203.44 103.87 204.33
  L 103.99 209.70
  Z"
/>
<path fill="#fcfff6" d="
  M 194.53 220.53
  C 191.26 215.81 189.06 211.12 187.84 205.52
  Q 187.45 203.74 188.92 203.53
  A 1.33 1.32 79.0 0 1 190.38 204.52
  Q 192.14 211.67 196.14 217.82
  Q 196.91 219.01 196.21 220.23
  L 196.07 220.47
  Q 195.35 221.72 194.53 220.53
  Z"
/>
<path fill="#fcfff6" d="
  M 175.06 220.28
  A 0.45 0.45 0.0 0 1 174.80 219.70
  L 174.89 219.45
  A 17.00 0.52 -68.9 0 1 181.50 203.78
  L 183.46 204.53
  A 17.00 0.52 -68.9 0 1 177.82 220.58
  L 177.73 220.83
  A 0.45 0.45 0.0 0 1 177.15 221.09
  L 175.06 220.28
  Z"
/>
<path fill="#fcfff6" d="
  M 180.01 234.30
  A 0.38 0.37 80.3 0 0 180.43 234.60
  L 189.29 233.18
  A 0.91 0.91 0.0 0 0 189.99 231.94
  L 187.61 226.11
  A 0.82 0.81 -24.5 0 1 188.00 225.08
  L 188.49 224.83
  A 1.32 1.31 -24.6 0 1 190.30 225.50
  L 195.24 237.45
  Q 195.62 238.39 194.62 238.57
  L 193.66 238.75
  Q 192.66 238.94 192.36 237.97
  L 191.87 236.39
  A 1.04 1.02 -13.1 0 0 190.71 235.68
  L 177.16 237.93
  A 1.54 1.54 0.0 0 1 175.61 235.58
  Q 180.86 227.35 183.39 217.91
  A 1.71 1.69 3.5 0 1 184.81 216.67
  L 185.31 216.61
  A 1.05 1.05 0.0 0 1 186.45 217.95
  Q 184.01 226.23 180.09 233.80
  Q 179.96 234.05 180.01 234.30
  Z"
/>
<path fill="#fcfff6" d="
  M 102.23 226.24
  L 116.26 226.05
  Q 116.98 226.04 116.99 226.76
  L 117.02 228.25
  Q 117.04 229.04 116.25 229.04
  L 102.01 229.01
  A 0.48 0.48 0.0 0 0 101.53 229.49
  L 101.46 237.49
  Q 101.45 238.91 100.04 239.01
  L 99.73 239.03
  A 1.01 1.01 0.0 0 1 98.65 238.03
  L 98.60 229.80
  A 0.80 0.79 -0.4 0 0 97.80 229.02
  L 84.02 229.12
  Q 83.05 229.13 83.10 228.16
  L 83.15 227.03
  Q 83.18 226.23 83.97 226.23
  L 97.60 226.22
  Q 98.18 226.22 98.32 225.66
  L 99.04 222.81
  Q 99.16 222.34 99.63 222.19
  Q 100.34 221.97 100.84 222.39
  Q 101.18 222.68 101.26 223.37
  Q 101.39 224.54 101.59 225.70
  Q 101.68 226.25 102.23 226.24
  Z"
/>
<path fill="#448c4a" d="
  M 78.79 249.80
  Q 81.65 254.06 83.94 257.28
  Q 84.47 258.03 84.12 258.43
  L 73.26 266.45
  Q 54.88 276.56 34.91 284.71
  Q 32.60 285.65 32.09 283.20
  Q 31.88 282.20 32.13 279.76
  Q 33.13 269.83 34.42 260.21
  A 1.31 1.27 -63.3 0 0 34.09 259.16
  Q 29.08 253.73 23.56 249.82
  Q 23.64 248.53 25.01 248.62
  Q 39.15 249.57 47.25 249.35
  Q 58.87 249.04 75.75 249.28
  Q 77.95 249.31 78.79 249.80
  Z"
/>
<path fill="#448c4a" d="
  M 253.82 249.98
  L 244.50 258.83
  Q 244.12 259.18 244.06 259.70
  Q 243.86 261.51 244.10 263.26
  Q 245.46 272.99 246.64 282.95
  A 1.55 1.54 -10.4 0 1 245.47 284.63
  Q 243.74 285.05 241.81 284.25
  Q 223.15 276.46 205.50 266.69
  Q 199.29 263.06 193.98 258.15
  L 199.80 249.54
  Q 222.00 248.90 230.00 249.19
  Q 235.33 249.38 238.80 249.35
  Q 238.85 249.35 244.67 248.87
  Q 249.53 248.46 253.82 249.98
  Z"
/>
<path fill="#fadf87" d="
  M 94.74 249.77
  C 102.25 257.79 111.56 259.69 121.87 256.79
  C 128.81 254.83 135.05 252.33 142.64 253.22
  C 148.22 253.88 155.44 257.07 160.74 257.97
  Q 173.93 260.20 183.55 249.68
  L 199.80 249.54
  L 193.98 258.15
  Q 191.88 260.78 189.84 263.08
  C 187.89 265.28 185.24 266.72 182.86 268.54
  Q 182.54 268.78 182.14 268.78
  Q 181.71 268.77 181.51 269.15
  Q 181.30 269.58 180.87 269.80
  Q 174.21 273.18 166.95 273.06
  Q 163.42 273.00 157.73 271.25
  C 149.50 268.73 142.94 265.84 134.01 267.38
  C 127.75 268.45 120.86 271.79 115.20 272.51
  Q 98.21 274.66 86.75 261.17
  Q 86.43 260.80 86.35 260.32
  Q 86.30 259.98 86.03 259.75
  Q 85.68 259.45 85.22 259.40
  Q 84.52 259.33 84.12 258.43
  Q 84.47 258.03 83.94 257.28
  Q 81.65 254.06 78.79 249.80
  L 94.74 249.77
  Z"
/>
<path fill="#ffffff" d="
  M 183.55 249.68
  Q 173.93 260.20 160.74 257.97
  C 155.44 257.07 148.22 253.88 142.64 253.22
  C 135.05 252.33 128.81 254.83 121.87 256.79
  C 111.56 259.69 102.25 257.79 94.74 249.77
  L 183.55 249.68
  Z"
/>
<path fill="#f0e2cf" d="
  M 84.12 258.43
  Q 84.52 259.33 85.22 259.40
  Q 85.68 259.45 86.03 259.75
  Q 86.30 259.98 86.35 260.32
  Q 86.43 260.80 86.75 261.17
  Q 98.21 274.66 115.20 272.51
  C 120.86 271.79 127.75 268.45 134.01 267.38
  C 142.94 265.84 149.50 268.73 157.73 271.25
  Q 163.42 273.00 166.95 273.06
  Q 174.21 273.18 180.87 269.80
  Q 181.30 269.58 181.51 269.15
  Q 181.71 268.77 182.14 268.78
  Q 182.54 268.78 182.86 268.54
  C 185.24 266.72 187.89 265.28 189.84 263.08
  Q 191.88 260.78 193.98 258.15
  Q 199.29 263.06 205.50 266.69
  Q 204.58 266.47 204.03 266.75
  Q 204.03 266.75 203.23 267.00
  Q 202.43 267.24 202.03 268.27
  Q 201.97 268.42 201.80 268.41
  Q 201.59 268.39 201.39 268.38
  Q 201.07 268.38 200.81 268.56
  C 196.81 271.35 193.04 273.16 189.11 276.95
  Q 187.46 278.54 185.52 279.52
  C 182.85 280.87 180.44 282.40 177.55 283.22
  Q 175.45 283.80 173.36 284.40
  C 172.41 284.68 171.20 284.36 170.24 285.10
  A 1.43 1.36 24.3 0 1 169.41 285.39
  C 166.18 285.47 162.06 284.75 158.46 285.41
  Q 155.88 285.88 154.00 285.68
  Q 147.59 285.00 141.17 284.42
  C 138.56 284.18 136.10 284.60 133.54 284.95
  C 132.42 285.10 130.81 284.73 129.40 285.47
  Q 128.98 285.70 128.51 285.68
  Q 121.38 285.42 114.24 285.49
  C 103.98 285.59 98.27 282.48 90.14 278.41
  C 87.38 277.03 85.39 274.91 82.82 273.14
  C 80.90 271.82 76.37 268.49 75.33 266.53
  Q 75.09 266.09 74.60 266.18
  L 73.26 266.45
  L 84.12 258.43
  Z"
/>
</svg>
