<?xml version="1.0" encoding="UTF-8" standalone="no"?>
<!DOCTYPE svg PUBLIC "-//W3C//DTD SVG 1.1//EN" "http://www.w3.org/Graphics/SVG/1.1/DTD/svg11.dtd">
<svg xmlns="http://www.w3.org/2000/svg" version="1.1" viewBox="0.00 0.00 275.00 292.00">
<g stroke-width="2.00" fill="none" stroke-linecap="butt">
<path stroke="#a7bf9e" vector-effect="non-scaling-stroke" d="
  M 116.02 8.53
  Q 98.14 13.92 90.94 31.76"
/>
<path stroke="#c6e5b5" vector-effect="non-scaling-stroke" d="
  M 90.94 31.76
  Q 89.92 30.70 90.03 28.30
  A 0.67 0.66 -0.8 0 0 89.32 27.61
  Q 88.61 27.66 88.73 28.49
  Q 88.96 30.01 88.29 31.15"
/>
<path stroke="#a7bf9e" vector-effect="non-scaling-stroke" d="
  M 88.29 31.15
  Q 86.72 30.18 86.69 29.06
  Q 86.67 27.87 85.72 28.59
  Q 84.62 29.43 86.06 30.57
  Q 86.24 30.71 86.20 30.93
  Q 86.17 31.14 86.00 31.16
  A 1.51 0.42 -9.9 0 1 85.00 31.06
  L 83.40 30.11
  A 0.31 0.31 0.0 0 0 82.97 30.52
  Q 83.67 31.82 84.97 32.54
  A 0.78 0.78 0.0 0 1 84.90 33.94
  C 83.66 34.49 82.73 33.02 81.42 33.06
  A 0.33 0.33 0.0 0 0 81.26 33.68
  L 82.60 34.47
  A 0.66 0.66 0.0 0 1 82.92 35.19
  C 82.72 36.06 80.70 36.38 79.83 37.28
  Q 77.05 40.16 76.16 42.39"
/>
<path stroke="#9db194" vector-effect="non-scaling-stroke" d="
  M 76.16 42.39
  Q 74.34 49.04 77.91 53.95"
/>
<path stroke="#fdefc4" vector-effect="non-scaling-stroke" d="
  M 77.91 53.95
  Q 70.95 64.00 60.49 67.65
  C 56.53 69.03 50.05 70.77 45.99 72.90
  Q 33.44 79.47 30.62 93.42
  C 29.01 101.37 30.89 109.89 28.67 118.00
  C 26.93 124.36 23.50 129.33 19.05 135.27
  Q 8.78 148.98 14.29 164.09
  C 16.51 170.18 22.04 176.64 25.44 182.47
  Q 28.52 187.75 29.27 194.37"
/>
<path stroke="#abd7a5" vector-effect="non-scaling-stroke" d="
  M 29.27 194.37
  Q 22.70 194.36 16.77 194.55
  C 5.63 194.89 6.14 202.19 7.52 211.02
  Q 9.81 225.62 12.17 240.20
  C 12.58 242.70 13.42 245.40 15.15 246.85
  Q 17.19 248.55 20.21 249.22"
/>
<path stroke="#a2c6a5" vector-effect="non-scaling-stroke" d="
  M 20.21 249.22
  L 29.92 258.25
  A 2.09 2.08 24.7 0 1 30.58 260.02
  Q 29.38 271.12 28.08 280.76
  Q 27.86 282.36 28.01 282.99
  Q 28.49 285.10 30.51 284.29
  Q 50.86 276.04 69.22 265.73"
/>
<path stroke="#fefffb" vector-effect="non-scaling-stroke" d="
  M 69.22 265.73
  C 71.56 265.65 74.28 265.99 76.42 267.08
  C 79.03 268.42 81.52 269.40 83.97 271.14
  Q 86.35 272.84 90.98 275.91
  Q 92.11 276.66 92.92 276.90
  C 94.86 277.46 96.85 278.43 98.70 279.26
  Q 101.14 280.36 103.52 280.79
  C 108.89 281.74 113.10 282.24 118.26 281.66
  Q 118.89 281.59 122.24 281.55
  Q 123.90 281.53 126.25 281.16
  Q 129.77 280.61 140.50 281.51
  Q 143.59 281.77 151.08 281.61
  C 152.36 281.58 153.36 282.22 154.75 282.24
  Q 162.45 282.38 169.98 280.85
  C 171.25 280.59 172.38 279.57 173.76 279.18
  Q 176.05 278.53 176.65 278.22
  Q 179.47 276.79 182.12 275.06
  Q 185.82 272.65 188.26 271.40
  Q 189.25 270.89 190.99 270.59
  Q 191.52 270.51 191.71 270.01
  Q 192.08 269.06 193.19 269.11
  Q 193.69 269.14 193.99 268.74
  Q 194.33 268.28 194.88 268.36
  Q 195.47 268.44 195.80 267.94
  Q 196.64 266.66 198.19 266.88
  Q 198.73 266.95 198.83 266.41
  Q 198.98 265.61 199.56 265.42"
/>
<path stroke="#a2c6a5" vector-effect="non-scaling-stroke" d="
  M 199.56 265.42
  Q 218.69 276.18 239.07 284.38
  A 1.59 1.59 0.0 0 0 241.25 283.02
  Q 241.32 282.01 241.16 280.50
  Q 240.02 270.12 238.70 260.28
  A 2.57 2.57 0.0 0 1 239.48 258.08
  L 248.61 249.44"
/>
<path stroke="#abd7a5" vector-effect="non-scaling-stroke" d="
  M 248.61 249.44
  Q 250.93 249.27 253.74 249.10
  C 258.48 248.83 262.48 246.69 263.28 241.76
  Q 266.06 224.72 268.74 207.65
  Q 269.43 203.25 269.06 201.32
  C 268.08 196.29 262.64 194.18 258.00 194.28
  Q 253.45 194.39 239.74 194.31"
/>
<path stroke="#fdefc4" vector-effect="non-scaling-stroke" d="
  M 239.74 194.31
  C 241.07 186.57 245.22 180.60 249.40 174.27
  Q 253.90 167.46 255.07 164.35
  Q 260.26 150.59 251.67 137.28
  C 245.80 128.18 240.25 122.33 239.68 110.75
  C 239.39 104.65 239.65 97.39 238.40 92.13
  C 234.43 75.45 222.10 71.98 207.22 67.02
  Q 198.22 64.02 192.30 54.35
  Q 192.06 53.94 192.16 53.48
  L 192.56 51.77"
/>
<path stroke="#c6e5b5" vector-effect="non-scaling-stroke" d="
  M 192.56 51.77
  Q 195.22 46.05 192.32 41.16
  C 188.80 35.25 185.45 27.14 178.32 23.91
  C 175.08 22.45 172.62 21.20 169.48 22.32"
/>
<path stroke="#fefffb" vector-effect="non-scaling-stroke" d="
  M 169.48 22.32
  Q 166.78 21.87 164.05 22.67"
/>
<path stroke="#c6e5b5" vector-effect="non-scaling-stroke" d="
  M 164.05 22.67
  L 159.90 23.32
  Q 159.37 23.41 159.05 22.97
  Q 150.99 11.72 137.99 8.02
  C 133.06 6.62 127.52 6.88 122.23 7.03
  C 120.05 7.10 118.09 7.88 116.02 8.53"
/>
<path stroke="#c4e5b1" vector-effect="non-scaling-stroke" d="
  M 164.05 22.67
  L 169.48 22.32"
/>
<path stroke="#c3d57a" vector-effect="non-scaling-stroke" d="
  M 192.56 51.77
  L 191.07 53.25"
/>
<path stroke="#64974a" vector-effect="non-scaling-stroke" d="
  M 191.07 53.25
  Q 190.91 52.75 191.17 51.31"
/>
<path stroke="#6da554" vector-effect="non-scaling-stroke" d="
  M 191.17 51.31
  Q 191.92 46.97 190.57 44.47
  C 188.33 40.31 186.34 35.32 183.40 32.09
  Q 175.23 23.12 162.39 24.33
  C 160.91 24.46 159.58 25.16 158.05 25.58
  A 0.79 0.78 -25.8 0 1 157.20 25.29
  C 150.63 16.17 139.31 8.58 127.75 8.18
  Q 121.90 7.97 116.02 8.53"
/>
<path stroke="#a9c76a" vector-effect="non-scaling-stroke" d="
  M 239.74 194.31
  L 225.86 194.26"
/>
<path stroke="#fce2a5" vector-effect="non-scaling-stroke" d="
  M 225.86 194.26
  L 226.24 188.57"
/>
<path stroke="#fdefc4" vector-effect="non-scaling-stroke" d="
  M 226.24 188.57
  Q 229.78 179.25 232.09 176.10
  C 239.76 165.67 245.87 155.95 239.51 143.01
  C 237.52 138.96 233.19 133.86 231.07 130.17
  Q 227.33 123.68 226.73 117.75
  C 226.20 112.47 226.92 104.63 225.50 99.17
  C 222.34 86.95 213.46 82.37 201.67 78.88"
/>
<path stroke="#a9c76a" vector-effect="non-scaling-stroke" d="
  M 201.67 78.88
  Q 199.67 77.98 197.81 79.85"
/>
<path stroke="#a4af63" vector-effect="non-scaling-stroke" d="
  M 197.81 79.85
  L 197.44 77.97"
/>
<path stroke="#a9c76a" vector-effect="non-scaling-stroke" d="
  M 197.44 77.97
  Q 197.35 77.72 197.38 77.53
  A 0.41 0.39 -3.6 0 1 197.67 77.21
  Q 198.86 76.85 199.74 75.96
  Q 200.30 75.40 199.54 75.19
  Q 198.62 74.93 197.86 76.31
  Q 197.39 77.19 196.72 77.08"
/>
<path stroke="#a4af63" vector-effect="non-scaling-stroke" d="
  M 196.72 77.08
  Q 195.42 76.03 197.18 74.55
  A 0.39 0.39 0.0 0 0 197.31 74.17
  L 197.07 73.24
  A 0.23 0.22 -36.4 0 0 196.66 73.18
  L 195.12 75.62
  Q 194.26 76.99 193.77 75.45
  L 192.34 70.94"
/>
<path stroke="#939852" vector-effect="non-scaling-stroke" d="
  M 192.34 70.94
  Q 193.77 70.35 193.84 69.30
  Q 194.35 61.88 188.46 56.62"
/>
<path stroke="#457133" vector-effect="non-scaling-stroke" d="
  M 191.17 51.31
  Q 189.61 50.86 187.38 51.70
  C 183.19 53.27 177.16 52.54 172.58 52.55"
/>
<path stroke="#539744" vector-effect="non-scaling-stroke" d="
  M 172.58 52.55
  L 169.82 46.65
  Q 169.56 46.09 169.16 46.57
  Q 168.97 46.81 169.06 47.14
  Q 169.86 49.83 170.58 52.52"
/>
<path stroke="#457133" vector-effect="non-scaling-stroke" d="
  M 170.58 52.52
  Q 150.24 52.50 130.00 52.48
  Q 120.87 52.47 111.81 53.54
  Q 110.51 53.70 109.22 53.38
  C 102.70 51.79 96.14 52.53 89.50 52.58
  Q 84.55 52.61 81.43 49.34
  Q 79.23 47.02 76.16 42.39"
/>
<path stroke="#6da554" vector-effect="non-scaling-stroke" d="
  M 88.29 31.15
  Q 87.94 31.63 88.31 32.20"
/>
<path stroke="#a5bf9a" vector-effect="non-scaling-stroke" d="
  M 88.31 32.20
  Q 88.11 32.71 88.09 33.32
  A 0.38 0.38 0.0 0 0 88.59 33.69
  Q 89.27 33.47 89.78 32.70"
/>
<path stroke="#6da554" vector-effect="non-scaling-stroke" d="
  M 89.78 32.70
  Q 90.39 32.41 90.94 31.76"
/>
<path stroke="#49893a" vector-effect="non-scaling-stroke" d="
  M 170.58 52.52
  L 171.50 53.20
  Q 171.92 53.51 172.41 53.34
  Q 172.86 53.18 172.58 52.55"
/>
<path stroke="#9ba159" vector-effect="non-scaling-stroke" d="
  M 191.07 53.25
  L 188.46 56.62"
/>
<path stroke="#345a23" vector-effect="non-scaling-stroke" d="
  M 188.46 56.62
  C 185.92 57.88 183.54 59.09 180.75 59.04
  Q 172.55 58.89 166.31 59.18"
/>
<path stroke="#3b4225" vector-effect="non-scaling-stroke" d="
  M 166.31 59.18
  Q 161.95 58.43 158.68 59.45"
/>
<path stroke="#345a23" vector-effect="non-scaling-stroke" d="
  M 158.68 59.45
  L 147.48 59.30"
/>
<path stroke="#9cb190" vector-effect="non-scaling-stroke" d="
  M 147.48 59.30
  Q 145.20 58.08 142.60 58.97
  A 0.78 0.78 0.0 0 0 142.37 60.32
  Q 142.94 60.76 143.48 60.53"
/>
<path stroke="#345a23" vector-effect="non-scaling-stroke" d="
  M 143.48 60.53
  C 142.21 62.40 143.24 66.90 143.37 69.13"
/>
<path stroke="#3b4225" vector-effect="non-scaling-stroke" d="
  M 143.37 69.13
  L 141.87 70.48
  A 0.89 0.89 0.0 0 1 140.39 69.82
  L 140.38 60.23
  A 1.42 1.42 0.0 0 0 138.99 58.82
  L 130.66 58.66
  Q 130.37 58.65 130.09 58.76
  L 129.51 58.99"
/>
<path stroke="#9db194" vector-effect="non-scaling-stroke" d="
  M 129.51 58.99
  Q 129.42 58.90 129.33 58.80
  Q 129.14 58.61 128.88 58.61
  L 91.42 58.65"
/>
<path stroke="#9ba159" vector-effect="non-scaling-stroke" d="
  M 91.42 58.65
  Q 88.32 58.90 85.28 58.41
  Q 81.26 57.77 77.91 53.95"
/>
<path stroke="#4e9d4b" vector-effect="non-scaling-stroke" d="
  M 248.61 249.44
  Q 245.93 248.36 243.25 248.50
  C 226.69 249.37 214.23 248.48 195.08 248.95
  Q 194.80 248.96 194.75 249.10
  Q 194.68 249.26 194.76 249.55"
/>
<path stroke="#a9c76a" vector-effect="non-scaling-stroke" d="
  M 194.76 249.55
  Q 194.19 249.17 193.80 249.18
  Q 185.90 249.31 178.79 249.29"
/>
<path stroke="#abd7a5" vector-effect="non-scaling-stroke" d="
  M 178.79 249.29
  L 90.63 249.30"
/>
<path stroke="#a9c76a" vector-effect="non-scaling-stroke" d="
  M 90.63 249.30
  L 74.47 249.45"
/>
<path stroke="#4e9d4b" vector-effect="non-scaling-stroke" d="
  M 74.47 249.45
  Q 73.88 249.47 73.41 249.21
  Q 73.01 248.98 72.55 248.97
  C 61.38 248.69 49.99 248.16 38.86 249.03
  Q 33.02 249.48 30.00 249.11
  Q 23.72 248.33 20.21 249.22"
/>
<path stroke="#3d682d" vector-effect="non-scaling-stroke" d="
  M 192.34 70.94
  Q 191.89 70.98 191.46 70.54
  Q 179.86 58.86 166.51 68.95
  A 2.33 2.31 -61.8 0 1 165.01 69.41
  Q 160.33 69.18 155.80 70.93
  C 155.04 71.23 154.31 71.06 153.50 71.19"
/>
<path stroke="#96a88e" vector-effect="non-scaling-stroke" d="
  M 153.50 71.19
  Q 153.05 71.31 152.73 71.14"
/>
<path stroke="#34391e" vector-effect="non-scaling-stroke" d="
  M 152.73 71.14
  Q 158.16 64.95 166.31 59.18"
/>
<path stroke="#539744" vector-effect="non-scaling-stroke" d="
  M 196.72 77.08
  Q 197.22 77.33 197.44 77.97"
/>
<path stroke="#539744" vector-effect="non-scaling-stroke" d="
  M 197.81 79.85
  Q 197.50 80.31 198.07 80.91"
/>
<path stroke="#a7bf9e" vector-effect="non-scaling-stroke" d="
  M 198.07 80.91
  Q 198.00 81.50 197.77 81.79"
/>
<path stroke="#457133" vector-effect="non-scaling-stroke" d="
  M 197.77 81.79
  Q 197.72 81.61 197.65 81.48
  Q 197.47 81.12 197.15 81.34
  Q 195.34 82.57 193.75 82.58
  Q 177.75 82.69 161.78 82.65
  A 1.77 1.76 -87.7 0 1 160.03 80.75
  Q 160.18 78.63 158.82 77.19
  Q 158.40 76.76 157.91 77.10
  Q 157.48 77.40 157.57 78.25
  Q 157.77 79.97 158.06 81.33
  A 0.95 0.94 -11.1 0 1 157.29 82.46
  Q 152.31 83.29 148.87 79.38
  A 0.40 0.40 0.0 0 1 149.11 78.72
  Q 149.87 78.60 149.65 77.19"
/>
<path stroke="#a7bf9e" vector-effect="non-scaling-stroke" d="
  M 149.65 77.19
  C 152.55 75.84 153.24 74.44 155.12 72.02
  Q 155.47 71.57 154.96 71.33
  Q 154.47 71.10 153.50 71.19"
/>
<path stroke="#aac987" vector-effect="non-scaling-stroke" d="
  M 225.86 194.26
  L 204.27 194.20"
/>
<path stroke="#f3d9b5" vector-effect="non-scaling-stroke" d="
  M 204.27 194.20
  Q 198.85 193.54 193.43 193.16
  C 181.09 192.30 168.77 190.43 156.50 188.78
  Q 153.68 188.40 152.28 187.93
  C 151.67 187.73 151.28 187.87 150.77 188.20
  Q 150.36 188.46 149.91 188.32
  Q 149.37 188.15 149.35 187.54"
/>
<path stroke="#abd7a5" vector-effect="non-scaling-stroke" d="
  M 201.67 78.88
  L 198.07 80.91"
/>
<path stroke="#fef2e1" vector-effect="non-scaling-stroke" d="
  M 226.24 188.57
  Q 215.91 187.54 205.56 187.44
  C 200.42 187.40 195.51 186.66 190.43 186.22
  Q 183.88 185.66 179.11 185.03
  C 169.03 183.70 159.95 182.88 148.95 180.78"
/>
<path stroke="#d4b6a9" vector-effect="non-scaling-stroke" d="
  M 148.95 180.78
  L 146.41 143.39"
/>
<path stroke="#9d9090" vector-effect="non-scaling-stroke" d="
  M 146.41 143.39
  L 155.20 127.05
  A 10.34 10.31 82.0 0 1 157.05 124.59
  L 176.61 105.40"
/>
<path stroke="#a7bf9e" vector-effect="non-scaling-stroke" d="
  M 176.61 105.40
  L 177.04 105.08
  Q 177.43 104.78 177.91 104.78
  L 187.33 104.72
  A 2.12 2.12 0.0 0 0 189.37 102.07
  Q 187.18 93.46 178.41 95.21
  Q 177.90 95.32 177.50 94.97
  L 174.04 91.96"
/>
<path stroke="#9d9090" vector-effect="non-scaling-stroke" d="
  M 174.04 91.96
  Q 175.69 90.22 176.64 86.82"
/>
<path stroke="#c4e5b1" vector-effect="non-scaling-stroke" d="
  M 89.78 32.70
  Q 89.87 31.78 88.31 32.20"
/>
<path stroke="#34391e" vector-effect="non-scaling-stroke" d="
  M 143.37 69.13
  L 158.68 59.45"
/>
<path stroke="#9d9090" vector-effect="non-scaling-stroke" d="
  M 152.73 71.14
  Q 147.32 73.29 143.61 78.00"
/>
<path stroke="#45502f" vector-effect="non-scaling-stroke" d="
  M 143.61 78.00
  Q 140.97 80.40 138.00 79.63
  Q 133.05 78.33 129.00 80.15"
/>
<path stroke="#34391e" vector-effect="non-scaling-stroke" d="
  M 129.00 80.15
  L 128.26 75.95"
/>
<path stroke="#fdefc4" vector-effect="non-scaling-stroke" d="
  M 91.42 58.65
  Q 87.01 61.60 82.65 68.67"
/>
<path stroke="#939852" vector-effect="non-scaling-stroke" d="
  M 82.65 68.67
  L 78.35 72.83"
/>
<path stroke="#fdefc4" vector-effect="non-scaling-stroke" d="
  M 78.35 72.83
  Q 76.52 73.84 74.94 75.11
  C 69.20 79.70 60.85 80.31 55.04 83.93
  Q 46.94 88.99 44.15 98.16
  C 42.52 103.55 43.27 111.02 42.72 116.75
  Q 41.93 125.09 36.72 132.52
  Q 36.43 132.94 36.70 133.52"
/>
<path stroke="#d7bf86" vector-effect="non-scaling-stroke" d="
  M 36.70 133.52
  Q 36.52 133.50 36.30 133.57
  Q 36.13 133.61 36.00 133.77
  Q 30.56 140.51 29.20 144.47
  Q 24.11 159.35 34.00 171.11"
/>
<path stroke="#fce2a5" vector-effect="non-scaling-stroke" d="
  M 34.00 171.11
  Q 35.62 175.39 38.02 176.57"
/>
<path stroke="#f2d698" vector-effect="non-scaling-stroke" d="
  M 38.02 176.57
  Q 41.24 182.66 42.17 186.29
  Q 42.97 189.38 42.10 193.25
  Q 42.05 193.47 41.69 193.81
  Q 41.40 194.08 41.79 194.18
  L 42.54 194.35"
/>
<path stroke="#a9c76a" vector-effect="non-scaling-stroke" d="
  M 42.54 194.35
  L 29.27 194.37"
/>
<path stroke="#94a88a" vector-effect="non-scaling-stroke" d="
  M 147.48 59.30
  Q 145.48 60.27 143.48 60.53"
/>
<path stroke="#9d9090" vector-effect="non-scaling-stroke" d="
  M 129.51 58.99
  L 128.26 75.95"
/>
<path stroke="#96a88e" vector-effect="non-scaling-stroke" d="
  M 128.26 75.95
  Q 125.73 73.94 122.90 73.28
  A 1.05 1.04 -6.5 0 1 122.18 72.71
  Q 121.60 71.51 121.07 70.28
  C 116.90 60.66 105.15 59.51 98.29 66.97
  Q 97.93 67.35 97.44 67.18
  Q 90.07 64.64 82.65 68.67"
/>
<path stroke="#539744" vector-effect="non-scaling-stroke" d="
  M 155.07 194.38
  Q 151.55 195.14 147.98 194.67"
/>
<path stroke="#442928" vector-effect="non-scaling-stroke" d="
  M 137.36 102.26
  Q 136.22 113.91 135.79 125.49
  Q 135.68 128.31 135.55 131.13
  Q 134.30 157.20 132.65 183.25
  Q 132.48 185.86 132.83 191.17
  Q 132.87 191.81 133.48 191.99
  L 135.42 192.53
  A 0.56 0.56 0.0 0 1 135.82 192.99
  Q 135.87 193.30 135.69 193.57
  Q 135.53 193.82 134.93 194.00
  Q 134.23 194.21 133.94 194.68"
/>
<path stroke="#496836" vector-effect="non-scaling-stroke" d="
  M 133.94 194.68
  L 122.02 194.76"
/>
<path stroke="#45502f" vector-effect="non-scaling-stroke" d="
  M 122.02 194.76
  L 122.78 184.76"
/>
<path stroke="#9c8371" vector-effect="non-scaling-stroke" d="
  M 122.78 184.76
  L 123.24 176.32"
/>
<path stroke="#9d9090" vector-effect="non-scaling-stroke" d="
  M 117.40 102.33
  L 126.25 112.61
  Q 126.64 113.06 126.67 112.46
  L 127.24 102.30"
/>
<path stroke="#a0be7a" vector-effect="non-scaling-stroke" d="
  M 204.27 194.20
  L 155.07 194.38"
/>
<path stroke="#9ca673" vector-effect="non-scaling-stroke" d="
  M 155.07 194.38
  Q 156.07 192.82 156.09 191.34
  A 0.40 0.40 0.0 0 0 155.47 191.00
  L 150.68 194.16"
/>
<path stroke="#a1c6a1" vector-effect="non-scaling-stroke" d="
  M 199.56 265.42
  Q 193.96 261.99 189.32 257.52"
/>
<path stroke="#a0b66a" vector-effect="non-scaling-stroke" d="
  M 189.32 257.52
  L 194.76 249.55"
/>
<path stroke="#d3a88a" vector-effect="non-scaling-stroke" d="
  M 148.95 180.78
  L 149.35 187.54"
/>
<path stroke="#c99d7d" vector-effect="non-scaling-stroke" d="
  M 149.35 187.54
  L 149.31 193.53
  Q 149.31 194.03 149.80 194.08
  L 150.68 194.16"
/>
<path stroke="#7c7648" vector-effect="non-scaling-stroke" d="
  M 150.68 194.16
  L 147.98 194.67"
/>
<path stroke="#808d4f" vector-effect="non-scaling-stroke" d="
  M 147.98 194.67
  Q 147.03 194.31 146.74 194.60"
/>
<path stroke="#fbefc0" vector-effect="non-scaling-stroke" d="
  M 189.32 257.52
  Q 188.67 257.83 188.19 258.57
  Q 185.16 263.31 180.83 266.61"
/>
<path stroke="#fce2a5" vector-effect="non-scaling-stroke" d="
  M 180.83 266.61
  L 173.74 270.52"
/>
<path stroke="#fbefc0" vector-effect="non-scaling-stroke" d="
  M 173.74 270.52
  C 164.06 274.26 156.17 272.41 146.95 269.15
  C 144.46 268.27 141.64 267.96 139.00 267.12
  Q 137.53 266.65 131.85 267.44
  Q 131.70 267.46 131.78 267.59
  Q 131.84 267.69 131.96 267.80
  Q 132.22 268.06 131.86 268.11
  Q 127.54 268.64 123.31 269.62
  Q 119.12 270.58 114.98 271.73
  C 103.59 274.87 92.12 271.27 84.11 262.67
  Q 83.52 262.03 82.33 260.01
  Q 81.39 258.43 80.05 257.62"
/>
<path stroke="#fdefc4" vector-effect="non-scaling-stroke" d="
  M 90.63 249.30
  Q 96.49 255.95 104.97 257.52
  C 115.49 259.46 124.49 252.52 134.93 252.61
  C 143.68 252.68 152.05 258.27 160.83 257.91
  Q 171.29 257.48 178.79 249.29"
/>
<path stroke="#539744" vector-effect="non-scaling-stroke" d="
  M 122.02 194.76
  L 115.79 194.86"
/>
<path stroke="#9ca673" vector-effect="non-scaling-stroke" d="
  M 116.25 180.61
  L 118.02 185.46
  Q 118.52 186.81 117.08 186.85
  L 108.97 187.03
  A 0.44 0.44 0.0 0 0 108.71 187.82
  Q 112.32 190.66 115.60 194.11
  Q 115.84 194.37 115.85 194.42
  Q 115.88 194.57 115.79 194.86"
/>
<path stroke="#a0be7a" vector-effect="non-scaling-stroke" d="
  M 115.79 194.86
  Q 114.23 194.35 113.25 194.34
  Q 77.89 194.12 42.54 194.35"
/>
<path stroke="#7b4f41" vector-effect="non-scaling-stroke" d="
  M 142.70 102.19
  L 143.87 127.78
  A 0.67 0.64 -87.4 0 0 144.41 128.40
  Q 144.51 128.41 144.70 128.29"
/>
<path stroke="#442928" vector-effect="non-scaling-stroke" d="
  M 144.70 128.29
  Q 142.15 132.53 139.32 136.64
  Q 137.48 139.31 137.64 141.24
  C 137.86 143.87 141.26 147.62 144.18 146.71
  A 1.72 1.71 -6.0 0 0 145.38 145.24
  Q 145.50 144.12 145.96 144.21"
/>
<path stroke="#7b4f41" vector-effect="non-scaling-stroke" d="
  M 145.96 144.21
  Q 144.97 146.86 145.02 148.00
  Q 145.71 161.26 145.81 174.52
  C 145.82 175.53 146.30 176.76 146.36 177.88
  C 146.65 182.94 146.24 188.58 147.34 193.50
  Q 147.45 193.99 146.74 194.60"
/>
<path stroke="#52703e" vector-effect="non-scaling-stroke" d="
  M 146.74 194.60
  L 133.94 194.68"
/>
<path stroke="#a0b66a" vector-effect="non-scaling-stroke" d="
  M 74.47 249.45
  L 80.05 257.62"
/>
<path stroke="#a1c6a1" vector-effect="non-scaling-stroke" d="
  M 80.05 257.62
  L 69.22 265.73"
/>
<path stroke="#9db194" vector-effect="non-scaling-stroke" d="
  M 149.65 77.19
  C 146.48 78.40 146.16 82.70 148.30 84.88
  C 149.70 86.32 152.03 86.56 154.00 86.51
  Q 162.82 86.30 172.04 86.63"
/>
<path stroke="#9d9090" vector-effect="non-scaling-stroke" d="
  M 172.04 86.63
  L 169.03 90.92"
/>
<path stroke="#a7bf9e" vector-effect="non-scaling-stroke" d="
  M 169.03 90.92
  Q 167.07 92.83 164.56 95.06
  C 163.33 96.16 162.82 100.60 161.31 102.78"
/>
<path stroke="#9d9090" vector-effect="non-scaling-stroke" d="
  M 161.31 102.78
  L 146.53 125.26"
/>
<path stroke="#d4b6a9" vector-effect="non-scaling-stroke" d="
  M 146.53 125.26
  Q 144.80 115.48 145.27 106.22
  C 145.33 104.96 144.59 103.36 145.08 102.33"
/>
<path stroke="#9db194" vector-effect="non-scaling-stroke" d="
  M 145.08 102.33
  L 150.00 101.78"
/>
<path stroke="#a7bf9e" vector-effect="non-scaling-stroke" d="
  M 150.00 101.78
  Q 150.60 101.83 151.01 101.71"
/>
<path stroke="#c6e5b5" vector-effect="non-scaling-stroke" d="
  M 151.01 101.71
  Q 152.82 101.56 153.02 99.98
  Q 154.14 90.88 147.25 85.93"
/>
<path stroke="#a7bf9e" vector-effect="non-scaling-stroke" d="
  M 147.25 85.93
  L 144.30 82.75
  A 1.40 1.38 21.5 0 1 143.94 81.93
  L 143.61 78.00"
/>
<path stroke="#9db194" vector-effect="non-scaling-stroke" d="
  M 197.77 81.79
  Q 197.57 86.30 193.25 86.37
  Q 180.14 86.57 176.64 86.82"
/>
<path stroke="#3b4225" vector-effect="non-scaling-stroke" d="
  M 176.64 86.82
  Q 175.56 85.95 172.04 86.63"
/>
<path stroke="#45502f" vector-effect="non-scaling-stroke" d="
  M 176.61 105.40
  Q 175.54 104.13 172.77 105.21"
/>
<path stroke="#a7bf9e" vector-effect="non-scaling-stroke" d="
  M 172.77 105.21
  Q 168.79 103.76 166.77 105.80"
/>
<path stroke="#45502f" vector-effect="non-scaling-stroke" d="
  M 166.77 105.80
  L 161.31 102.78"
/>
<path stroke="#45502f" vector-effect="non-scaling-stroke" d="
  M 174.04 91.96
  Q 170.83 92.26 169.03 90.92"
/>
<path stroke="#9d9090" vector-effect="non-scaling-stroke" d="
  M 166.77 105.80
  L 163.51 111.68
  Q 163.06 112.49 163.80 111.93
  L 172.77 105.21"
/>
<path stroke="#724739" vector-effect="non-scaling-stroke" d="
  M 146.41 143.39
  Q 146.30 144.16 145.96 144.21"
/>
<path stroke="#3d682d" vector-effect="non-scaling-stroke" d="
  M 129.00 80.15
  Q 125.96 81.03 123.31 82.89
  Q 122.87 83.20 122.37 83.00
  Q 121.89 82.80 121.48 82.41"
/>
<path stroke="#5c8d44" vector-effect="non-scaling-stroke" d="
  M 121.48 82.41
  Q 118.53 77.69 113.30 75.96"
/>
<path stroke="#3d682d" vector-effect="non-scaling-stroke" d="
  M 113.30 75.96
  C 111.54 74.32 108.89 74.80 106.27 75.25
  Q 96.55 76.90 93.07 85.35"
/>
<path stroke="#96a88e" vector-effect="non-scaling-stroke" d="
  M 93.07 85.35
  Q 86.39 85.21 80.22 85.22
  C 72.20 85.24 76.60 76.26 78.35 72.83"
/>
<path stroke="#6da554" vector-effect="non-scaling-stroke" d="
  M 113.30 75.96
  Q 113.07 76.18 112.71 76.13
  A 0.09 0.08 -87.1 0 0 112.62 76.22
  Q 112.62 76.26 112.62 76.31
  Q 112.63 76.47 112.80 76.56
  Q 117.34 78.85 118.12 80.23
  Q 120.16 83.86 121.48 82.41"
/>
<path stroke="#6da554" vector-effect="non-scaling-stroke" d="
  M 147.25 85.93
  Q 151.00 92.93 150.78 96.75
  Q 150.63 99.22 151.01 101.71"
/>
<path stroke="#457133" vector-effect="non-scaling-stroke" d="
  M 150.00 101.78
  Q 151.07 100.30 150.13 98.97
  A 1.41 1.41 0.0 0 0 148.97 98.36
  L 86.55 98.14
  A 1.08 1.06 68.5 0 1 85.76 97.79
  Q 84.11 96.01 82.30 95.76"
/>
<path stroke="#a7bf9e" vector-effect="non-scaling-stroke" d="
  M 93.07 85.35
  Q 93.37 87.32 91.76 87.85
  C 87.50 89.28 83.09 91.11 82.30 95.76"
/>
<path stroke="#9db194" vector-effect="non-scaling-stroke" d="
  M 82.30 95.76
  C 81.52 98.23 81.76 102.04 85.25 102.07
  Q 98.63 102.19 111.61 102.29"
/>
<path stroke="#9d9090" vector-effect="non-scaling-stroke" d="
  M 111.61 102.29
  Q 117.91 112.09 124.14 121.40
  C 125.99 124.16 126.03 126.66 125.79 129.75
  C 124.88 141.01 124.69 151.99 123.99 162.61
  Q 123.51 169.72 123.24 176.32"
/>
<path stroke="#fef2e1" vector-effect="non-scaling-stroke" d="
  M 123.24 176.32
  Q 106.03 171.39 93.50 170.46
  Q 85.87 169.90 78.19 169.11"
/>
<path stroke="#ccc0b2" vector-effect="non-scaling-stroke" d="
  M 78.19 169.11
  Q 75.82 164.41 73.42 159.98
  Q 66.07 146.44 49.98 147.22"
/>
<path stroke="#d9cfc1" vector-effect="non-scaling-stroke" d="
  M 49.98 147.22
  C 49.23 146.90 48.79 146.67 48.38 145.90
  Q 44.26 138.14 36.70 133.52"
/>
<path stroke="#a6b280" vector-effect="non-scaling-stroke" d="
  M 122.78 184.76
  Q 119.68 181.10 116.25 180.61"
/>
<path stroke="#f3d9b5" vector-effect="non-scaling-stroke" d="
  M 116.25 180.61
  Q 77.50 172.14 38.02 176.57"
/>
<path stroke="#a68f74" vector-effect="non-scaling-stroke" d="
  M 49.98 147.22
  Q 49.62 147.98 49.75 148.50
  Q 51.87 157.48 53.98 166.46
  Q 54.09 166.96 53.87 167.43
  L 53.10 169.09"
/>
<path stroke="#d8c1a3" vector-effect="non-scaling-stroke" d="
  M 53.10 169.09
  L 34.00 171.11"
/>
<path stroke="#72683e" vector-effect="non-scaling-stroke" d="
  M 145.08 102.33
  L 142.70 102.19"
/>
<path stroke="#444a2d" vector-effect="non-scaling-stroke" d="
  M 142.70 102.19
  L 137.36 102.26"
/>
<path stroke="#3b4225" vector-effect="non-scaling-stroke" d="
  M 137.36 102.26
  L 127.24 102.30"
/>
<path stroke="#9db194" vector-effect="non-scaling-stroke" d="
  M 127.24 102.30
  L 117.40 102.33"
/>
<path stroke="#3b4225" vector-effect="non-scaling-stroke" d="
  M 117.40 102.33
  L 111.61 102.29"
/>
<path stroke="#fdf2dd" vector-effect="non-scaling-stroke" d="
  M 173.74 270.52
  Q 178.15 270.00 180.83 266.61"
/>
<path stroke="#724739" vector-effect="non-scaling-stroke" d="
  M 146.53 125.26
  Q 146.49 126.00 144.70 128.29"
/>
<path stroke="#cbb293" vector-effect="non-scaling-stroke" d="
  M 78.19 169.11
  L 53.10 169.09"
/>
<path stroke="#539744" vector-effect="non-scaling-stroke" d="
  M 118.2502 23.6936
  A 2.24 0.45 110.1 0 0 119.4426 21.7446
  A 2.24 0.45 110.1 0 0 119.7898 19.4864
  A 2.24 0.45 110.1 0 0 118.5974 21.4354
  A 2.24 0.45 110.1 0 0 118.2502 23.6936"
/>
<path stroke="#539744" vector-effect="non-scaling-stroke" d="
  M 172.48 30.41
  C 170.62 30.03 167.89 28.31 166.96 31.31
  C 166.30 33.45 169.30 35.17 170.17 36.77
  C 170.95 38.22 171.52 39.85 172.82 40.85
  C 179.00 45.61 186.23 35.70 179.09 31.42
  C 176.74 30.01 174.90 30.90 172.48 30.41"
/>
<path stroke="#539744" vector-effect="non-scaling-stroke" d="
  M 129.0880 41.8620
  A 3.58 0.43 119.3 0 0 131.2150 38.9504
  A 3.58 0.43 119.3 0 0 132.5920 35.6180
  A 3.58 0.43 119.3 0 0 130.4650 38.5296
  A 3.58 0.43 119.3 0 0 129.0880 41.8620"
/>
<path stroke="#457133" vector-effect="non-scaling-stroke" d="
  M 93.5287 49.0570
  A 4.26 0.92 105.4 0 0 95.5470 45.1943
  A 4.26 0.92 105.4 0 0 95.7913 40.8430
  A 4.26 0.92 105.4 0 0 93.7730 44.7057
  A 4.26 0.92 105.4 0 0 93.5287 49.0570"
/>
<path stroke="#457133" vector-effect="non-scaling-stroke" d="
  M 175.7896 79.5196
  A 3.09 1.03 103.1 0 0 177.4932 76.7435
  A 3.09 1.03 103.1 0 0 177.1904 73.5004
  A 3.09 1.03 103.1 0 0 175.4868 76.2765
  A 3.09 1.03 103.1 0 0 175.7896 79.5196"
/>
<path stroke="#457133" vector-effect="non-scaling-stroke" d="
  M 104.3063 87.2471
  A 2.83 0.84 74.5 0 0 104.3594 84.2955
  A 2.83 0.84 74.5 0 0 102.7937 81.7929
  A 2.83 0.84 74.5 0 0 102.7406 84.7445
  A 2.83 0.84 74.5 0 0 104.3063 87.2471"
/>
<path stroke="#457133" vector-effect="non-scaling-stroke" d="
  M 131.4356 97.4292
  A 3.20 0.87 102.9 0 0 132.9980 94.5042
  A 3.20 0.87 102.9 0 0 132.8644 91.1908
  A 3.20 0.87 102.9 0 0 131.3020 94.1158
  A 3.20 0.87 102.9 0 0 131.4356 97.4292"
/>
<path stroke="#aad7a1" vector-effect="non-scaling-stroke" d="
  M 107.56 211.62
  Q 107.29 210.16 107.93 208.86
  A 1.14 1.12 -80.3 0 1 108.79 208.24
  L 111.52 207.87
  A 0.84 0.84 0.0 0 0 112.25 207.04
  L 112.26 206.68
  A 1.08 1.08 0.0 0 0 111.18 205.60
  L 103.83 205.55
  A 0.84 0.83 -10.7 0 1 103.07 205.04
  L 102.00 202.41
  A 1.11 1.11 0.0 0 0 99.86 202.83
  L 99.86 204.58
  A 0.95 0.94 90.0 0 1 98.92 205.53
  L 92.64 205.54
  A 0.86 0.86 0.0 0 0 91.78 206.36
  L 91.72 207.38
  A 0.74 0.74 0.0 0 0 92.52 208.15
  L 94.27 208.02
  A 1.34 1.33 79.0 0 1 95.64 208.95
  L 96.26 210.95
  A 0.79 0.78 -9.5 0 1 95.53 211.96
  L 91.04 212.09
  A 0.64 0.63 -11.5 0 0 90.46 212.96
  L 90.59 213.31
  Q 91.02 214.39 92.18 214.39
  L 111.42 214.48
  Q 112.84 214.48 112.69 213.08
  L 112.66 212.74
  A 0.95 0.95 0.0 0 0 111.68 211.89
  L 108.05 212.02
  Q 107.63 212.03 107.56 211.62"
/>
<path stroke="#aad7a1" vector-effect="non-scaling-stroke" d="
  M 161.52 213.01
  A 0.54 0.54 0.0 0 1 162.01 213.70
  Q 160.03 220.20 156.30 225.87
  A 1.47 1.46 41.0 0 0 156.43 227.64
  L 156.77 228.03
  Q 157.43 228.78 157.99 227.95
  Q 159.74 225.36 160.80 222.49
  Q 162.23 218.65 162.28 222.75
  L 162.48 237.51
  Q 162.49 238.53 163.51 238.49
  L 164.14 238.47
  Q 165.21 238.44 165.21 237.36
  L 165.13 220.97
  Q 165.12 218.44 166.36 220.65
  L 168.51 224.46
  A 0.85 0.84 -44.1 0 0 169.97 224.48
  L 170.19 224.12
  A 1.80 1.79 -47.4 0 0 170.11 222.12
  L 165.13 215.29
  A 1.47 1.46 72.4 0 1 166.33 212.96
  L 168.74 213.00
  Q 170.13 213.02 170.13 211.64
  L 170.13 211.15
  Q 170.13 210.09 169.06 210.12
  L 165.89 210.21
  A 0.60 0.59 -1.5 0 1 165.28 209.64
  L 165.03 203.31
  Q 164.99 202.27 163.94 202.25
  L 163.40 202.24
  A 0.82 0.82 0.0 0 0 162.56 203.03
  L 162.25 209.61
  A 0.59 0.59 0.0 0 1 161.65 210.17
  L 157.83 210.13
  Q 156.63 210.11 156.51 211.30
  L 156.45 211.79
  Q 156.35 212.76 157.33 212.81
  L 161.52 213.01"
/>
<path stroke="#aad7a1" vector-effect="non-scaling-stroke" d="
  M 86.31 219.90
  Q 86.84 219.99 87.09 220.42
  Q 88.40 222.61 89.18 223.61
  A 0.58 0.58 0.0 0 0 90.11 223.59
  L 90.33 223.28
  A 1.67 1.66 -44.9 0 0 90.34 221.36
  L 86.09 215.23
  A 1.42 1.42 0.0 0 1 87.17 213.00
  L 88.25 212.93
  Q 92.18 212.71 88.89 210.27
  Q 88.32 209.85 86.88 210.25
  A 0.67 0.67 0.0 0 1 86.03 209.61
  L 86.00 203.49
  A 1.01 1.00 -2.7 0 0 84.91 202.50
  L 84.61 202.53
  Q 83.26 202.65 83.26 204.01
  L 83.26 209.58
  Q 83.26 210.20 82.64 210.21
  L 79.70 210.26
  A 0.97 0.97 0.0 0 0 78.74 211.30
  L 78.80 212.21
  A 0.84 0.84 0.0 0 0 79.75 212.98
  L 81.70 212.72
  A 0.99 0.98 -86.7 0 1 82.78 213.94
  Q 81.28 219.98 77.87 225.19
  A 1.90 1.89 -44.4 0 0 77.84 227.22
  L 78.30 227.97
  A 0.67 0.67 0.0 0 0 79.48 227.90
  L 82.16 222.03
  Q 83.25 219.64 83.25 222.26
  L 83.29 237.37
  A 1.06 1.06 0.0 0 0 84.36 238.43
  L 84.84 238.42
  Q 86.06 238.40 86.05 237.19
  L 85.94 220.22
  Q 85.93 219.84 86.31 219.90"
/>
<path stroke="#aad7a1" vector-effect="non-scaling-stroke" d="
  M 191.44 217.79
  C 188.71 213.02 187.00 209.04 185.49 203.77
  Q 185.24 202.90 184.37 203.15
  L 183.96 203.27
  A 1.09 1.09 0.0 0 0 183.19 204.49
  Q 184.64 213.24 189.94 220.32
  A 0.70 0.69 43.9 0 0 191.07 220.30
  L 191.36 219.89
  A 1.98 1.97 47.4 0 0 191.44 217.79"
/>
<path stroke="#aad7a1" vector-effect="non-scaling-stroke" d="
  M 170.41 220.01
  L 172.42 220.78
  A 0.44 0.44 0.0 0 0 172.99 220.53
  L 173.08 220.30
  A 17.26 0.44 -69.0 0 0 178.85 204.03
  L 176.84 203.26
  A 17.26 0.44 -69.0 0 0 170.24 219.21
  L 170.15 219.44
  A 0.44 0.44 0.0 0 0 170.41 220.01"
/>
<path stroke="#aad7a1" vector-effect="non-scaling-stroke" d="
  M 142.05 207.00
  Q 144.30 207.01 142.45 208.28
  L 135.44 213.09
  A 2.76 2.74 73.1 0 0 134.25 215.34
  L 134.23 218.67
  Q 134.23 219.33 133.58 219.32
  L 118.98 219.26
  A 1.15 1.14 -87.8 0 0 117.84 220.32
  L 117.79 221.03
  Q 117.72 222.09 118.78 222.09
  L 133.41 222.05
  A 0.87 0.86 -0.0 0 1 134.28 222.91
  L 134.22 233.87
  A 1.81 1.81 0.0 0 1 132.39 235.68
  L 127.08 235.63
  A 0.83 0.83 0.0 0 0 126.24 236.51
  L 126.26 236.79
  Q 126.33 238.00 127.53 238.12
  C 131.04 238.48 137.04 239.32 137.15 234.25
  Q 137.27 228.54 137.24 222.77
  A 0.73 0.72 90.0 0 1 137.96 222.04
  L 150.98 222.05
  A 1.00 0.99 -1.1 0 0 151.98 221.02
  L 151.95 220.22
  Q 151.91 219.28 150.97 219.29
  L 138.01 219.39
  A 0.72 0.72 0.0 0 1 137.29 218.79
  C 136.88 216.37 137.06 215.15 139.23 213.74
  Q 142.99 211.31 146.41 208.45
  Q 148.09 207.03 147.77 204.84
  A 0.76 0.75 85.5 0 0 147.03 204.20
  L 122.99 204.26
  Q 121.75 204.26 121.77 205.51
  L 121.78 206.01
  A 0.98 0.98 0.0 0 0 122.76 206.96
  L 142.05 207.00"
/>
<path stroke="#aad7a1" vector-effect="non-scaling-stroke" d="
  M 175.50 234.22
  Q 175.13 233.98 175.43 233.41
  Q 179.07 226.30 181.70 217.78
  A 1.22 1.21 -79.3 0 0 180.63 216.21
  L 180.27 216.18
  A 1.47 1.46 9.1 0 0 178.74 217.28
  Q 176.30 226.91 170.97 235.22
  A 1.32 1.31 -67.9 0 0 171.81 237.22
  C 175.36 237.93 182.72 235.91 186.48 235.17
  Q 186.95 235.08 187.06 235.55
  L 187.53 237.53
  A 1.11 1.10 -11.5 0 0 188.79 238.36
  L 189.74 238.20
  A 0.92 0.91 -16.0 0 0 190.44 236.95
  L 185.55 225.31
  Q 185.08 224.19 183.91 224.55
  L 183.49 224.68
  A 0.88 0.87 69.7 0 0 182.95 225.86
  L 185.63 232.11
  A 0.51 0.51 0.0 0 1 185.24 232.82
  L 175.61 234.25
  A 0.22 0.21 -28.2 0 1 175.50 234.22"
/>
<path stroke="#aad7a1" vector-effect="non-scaling-stroke" d="
  M 100.49 230.68
  A 0.56 0.56 0.0 0 1 99.93 231.28
  L 90.34 231.24
  A 0.56 0.56 0.0 0 0 89.78 231.81
  L 89.79 233.17
  A 0.56 0.56 0.0 0 0 90.35 233.72
  L 99.95 233.81
  A 0.56 0.56 0.0 0 1 100.51 234.38
  L 100.43 237.94
  A 0.56 0.56 0.0 0 0 101.00 238.51
  L 102.56 238.47
  A 0.56 0.56 0.0 0 0 103.11 237.92
  L 103.14 234.34
  A 0.56 0.56 0.0 0 1 103.70 233.79
  L 112.52 233.75
  A 0.56 0.56 0.0 0 0 113.08 233.15
  L 112.99 231.75
  A 0.56 0.56 0.0 0 0 112.42 231.23
  L 103.86 231.32
  A 0.56 0.56 0.0 0 1 103.29 230.78
  L 103.24 229.34
  A 0.56 0.56 0.0 0 1 103.80 228.76
  L 109.89 228.74
  A 0.56 0.56 0.0 0 0 110.45 228.18
  L 110.39 217.32
  A 0.56 0.56 0.0 0 0 109.83 216.76
  L 93.45 216.71
  A 0.56 0.56 0.0 0 0 92.89 217.28
  L 93.02 228.01
  A 0.56 0.56 0.0 0 0 93.56 228.56
  L 99.87 228.80
  A 0.56 0.56 0.0 0 1 100.40 229.32
  L 100.49 230.68"
/>
<path stroke="#aad7a1" vector-effect="non-scaling-stroke" d="
  M 104.62 208.01
  L 99.04 207.99
  A 0.55 0.55 0.0 0 0 98.49 208.53
  L 98.48 209.65
  A 2.35 2.17 -89.7 0 0 100.64 212.01
  L 102.98 212.03
  A 2.35 2.17 -89.7 0 0 105.16 209.69
  L 105.17 208.57
  A 0.55 0.55 0.0 0 0 104.62 208.01"
/>
<path stroke="#a1c6a1" vector-effect="non-scaling-stroke" d="
  M 107.8807 219.9308
  A 0.79 0.79 0.0 0 0 107.0921 219.1394
  L 96.3521 219.1206
  A 0.79 0.79 0.0 0 0 95.5607 219.9092
  L 95.5593 220.7492
  A 0.79 0.79 0.0 0 0 96.3479 221.5406
  L 107.0879 221.5594
  A 0.79 0.79 0.0 0 0 107.8793 220.7708
  L 107.8807 219.9308"
/>
<path stroke="#aad7a1" vector-effect="non-scaling-stroke" d="
  M 107.9109 224.9616
  A 0.94 0.94 0.0 0 0 106.9742 224.0184
  L 96.4542 223.9816
  A 0.94 0.94 0.0 0 0 95.5109 224.9184
  L 95.5091 225.4384
  A 0.94 0.94 0.0 0 0 96.4458 226.3816
  L 106.9658 226.4184
  A 0.94 0.94 0.0 0 0 107.9091 225.4816
  L 107.9109 224.9616"
/>
</g>
<path fill="#ffffff" d="
  M 0.00 0.00
  L 275.00 0.00
  L 275.00 292.00
  L 0.00 292.00
  L 0.00 0.00
  Z
  M 116.02 8.53
  Q 98.14 13.92 90.94 31.76
  Q 89.92 30.70 90.03 28.30
  A 0.67 0.66 -0.8 0 0 89.32 27.61
  Q 88.61 27.66 88.73 28.49
  Q 88.96 30.01 88.29 31.15
  Q 86.72 30.18 86.69 29.06
  Q 86.67 27.87 85.72 28.59
  Q 84.62 29.43 86.06 30.57
  Q 86.24 30.71 86.20 30.93
  Q 86.17 31.14 86.00 31.16
  A 1.51 0.42 -9.9 0 1 85.00 31.06
  L 83.40 30.11
  A 0.31 0.31 0.0 0 0 82.97 30.52
  Q 83.67 31.82 84.97 32.54
  A 0.78 0.78 0.0 0 1 84.90 33.94
  C 83.66 34.49 82.73 33.02 81.42 33.06
  A 0.33 0.33 0.0 0 0 81.26 33.68
  L 82.60 34.47
  A 0.66 0.66 0.0 0 1 82.92 35.19
  C 82.72 36.06 80.70 36.38 79.83 37.28
  Q 77.05 40.16 76.16 42.39
  Q 74.34 49.04 77.91 53.95
  Q 70.95 64.00 60.49 67.65
  C 56.53 69.03 50.05 70.77 45.99 72.90
  Q 33.44 79.47 30.62 93.42
  C 29.01 101.37 30.89 109.89 28.67 118.00
  C 26.93 124.36 23.50 129.33 19.05 135.27
  Q 8.78 148.98 14.29 164.09
  C 16.51 170.18 22.04 176.64 25.44 182.47
  Q 28.52 187.75 29.27 194.37
  Q 22.70 194.36 16.77 194.55
  C 5.63 194.89 6.14 202.19 7.52 211.02
  Q 9.81 225.62 12.17 240.20
  C 12.58 242.70 13.42 245.40 15.15 246.85
  Q 17.19 248.55 20.21 249.22
  L 29.92 258.25
  A 2.09 2.08 24.7 0 1 30.58 260.02
  Q 29.38 271.12 28.08 280.76
  Q 27.86 282.36 28.01 282.99
  Q 28.49 285.10 30.51 284.29
  Q 50.86 276.04 69.22 265.73
  C 71.56 265.65 74.28 265.99 76.42 267.08
  C 79.03 268.42 81.52 269.40 83.97 271.14
  Q 86.35 272.84 90.98 275.91
  Q 92.11 276.66 92.92 276.90
  C 94.86 277.46 96.85 278.43 98.70 279.26
  Q 101.14 280.36 103.52 280.79
  C 108.89 281.74 113.10 282.24 118.26 281.66
  Q 118.89 281.59 122.24 281.55
  Q 123.90 281.53 126.25 281.16
  Q 129.77 280.61 140.50 281.51
  Q 143.59 281.77 151.08 281.61
  C 152.36 281.58 153.36 282.22 154.75 282.24
  Q 162.45 282.38 169.98 280.85
  C 171.25 280.59 172.38 279.57 173.76 279.18
  Q 176.05 278.53 176.65 278.22
  Q 179.47 276.79 182.12 275.06
  Q 185.82 272.65 188.26 271.40
  Q 189.25 270.89 190.99 270.59
  Q 191.52 270.51 191.71 270.01
  Q 192.08 269.06 193.19 269.11
  Q 193.69 269.14 193.99 268.74
  Q 194.33 268.28 194.88 268.36
  Q 195.47 268.44 195.80 267.94
  Q 196.64 266.66 198.19 266.88
  Q 198.73 266.95 198.83 266.41
  Q 198.98 265.61 199.56 265.42
  Q 218.69 276.18 239.07 284.38
  A 1.59 1.59 0.0 0 0 241.25 283.02
  Q 241.32 282.01 241.16 280.50
  Q 240.02 270.12 238.70 260.28
  A 2.57 2.57 0.0 0 1 239.48 258.08
  L 248.61 249.44
  Q 250.93 249.27 253.74 249.10
  C 258.48 248.83 262.48 246.69 263.28 241.76
  Q 266.06 224.72 268.74 207.65
  Q 269.43 203.25 269.06 201.32
  C 268.08 196.29 262.64 194.18 258.00 194.28
  Q 253.45 194.39 239.74 194.31
  C 241.07 186.57 245.22 180.60 249.40 174.27
  Q 253.90 167.46 255.07 164.35
  Q 260.26 150.59 251.67 137.28
  C 245.80 128.18 240.25 122.33 239.68 110.75
  C 239.39 104.65 239.65 97.39 238.40 92.13
  C 234.43 75.45 222.10 71.98 207.22 67.02
  Q 198.22 64.02 192.30 54.35
  Q 192.06 53.94 192.16 53.48
  L 192.56 51.77
  Q 195.22 46.05 192.32 41.16
  C 188.80 35.25 185.45 27.14 178.32 23.91
  C 175.08 22.45 172.62 21.20 169.48 22.32
  Q 166.78 21.87 164.05 22.67
  L 159.90 23.32
  Q 159.37 23.41 159.05 22.97
  Q 150.99 11.72 137.99 8.02
  C 133.06 6.62 127.52 6.88 122.23 7.03
  C 120.05 7.10 118.09 7.88 116.02 8.53
  Z"
/>
<path fill="#8cca6b" d="
  M 164.05 22.67
  L 169.48 22.32
  C 172.62 21.20 175.08 22.45 178.32 23.91
  C 185.45 27.14 188.80 35.25 192.32 41.16
  Q 195.22 46.05 192.56 51.77
  L 191.07 53.25
  Q 190.91 52.75 191.17 51.31
  Q 191.92 46.97 190.57 44.47
  C 188.33 40.31 186.34 35.32 183.40 32.09
  Q 175.23 23.12 162.39 24.33
  C 160.91 24.46 159.58 25.16 158.05 25.58
  A 0.79 0.78 -25.8 0 1 157.20 25.29
  C 150.63 16.17 139.31 8.58 127.75 8.18
  Q 121.90 7.97 116.02 8.53
  C 118.09 7.88 120.05 7.10 122.23 7.03
  C 127.52 6.88 133.06 6.62 137.99 8.02
  Q 150.99 11.72 159.05 22.97
  Q 159.37 23.41 159.90 23.32
  L 164.05 22.67
  Z"
/>
<path fill="#4e7f3d" d="
  M 191.17 51.31
  Q 189.61 50.86 187.38 51.70
  C 183.19 53.27 177.16 52.54 172.58 52.55
  L 169.82 46.65
  Q 169.56 46.09 169.16 46.57
  Q 168.97 46.81 169.06 47.14
  Q 169.86 49.83 170.58 52.52
  Q 150.24 52.50 130.00 52.48
  Q 120.87 52.47 111.81 53.54
  Q 110.51 53.70 109.22 53.38
  C 102.70 51.79 96.14 52.53 89.50 52.58
  Q 84.55 52.61 81.43 49.34
  Q 79.23 47.02 76.16 42.39
  Q 77.05 40.16 79.83 37.28
  C 80.70 36.38 82.72 36.06 82.92 35.19
  A 0.66 0.66 0.0 0 0 82.60 34.47
  L 81.26 33.68
  A 0.33 0.33 0.0 0 1 81.42 33.06
  C 82.73 33.02 83.66 34.49 84.90 33.94
  A 0.78 0.78 0.0 0 0 84.97 32.54
  Q 83.67 31.82 82.97 30.52
  A 0.31 0.31 0.0 0 1 83.40 30.11
  L 85.00 31.06
  A 1.51 0.42 -9.9 0 0 86.00 31.16
  Q 86.17 31.14 86.20 30.93
  Q 86.24 30.71 86.06 30.57
  Q 84.62 29.43 85.72 28.59
  Q 86.67 27.87 86.69 29.06
  Q 86.72 30.18 88.29 31.15
  Q 87.94 31.63 88.31 32.20
  Q 88.11 32.71 88.09 33.32
  A 0.38 0.38 0.0 0 0 88.59 33.69
  Q 89.27 33.47 89.78 32.70
  Q 90.39 32.41 90.94 31.76
  Q 98.14 13.92 116.02 8.53
  Q 121.90 7.97 127.75 8.18
  C 139.31 8.58 150.63 16.17 157.20 25.29
  A 0.79 0.78 -25.8 0 0 158.05 25.58
  C 159.58 25.16 160.91 24.46 162.39 24.33
  Q 175.23 23.12 183.40 32.09
  C 186.34 35.32 188.33 40.31 190.57 44.47
  Q 191.92 46.97 191.17 51.31
  Z
  M 118.2502 23.6936
  A 2.24 0.45 110.1 0 0 119.4426 21.7446
  A 2.24 0.45 110.1 0 0 119.7898 19.4864
  A 2.24 0.45 110.1 0 0 118.5974 21.4354
  A 2.24 0.45 110.1 0 0 118.2502 23.6936
  Z
  M 172.48 30.41
  C 170.62 30.03 167.89 28.31 166.96 31.31
  C 166.30 33.45 169.30 35.17 170.17 36.77
  C 170.95 38.22 171.52 39.85 172.82 40.85
  C 179.00 45.61 186.23 35.70 179.09 31.42
  C 176.74 30.01 174.90 30.90 172.48 30.41
  Z
  M 129.0880 41.8620
  A 3.58 0.43 119.3 0 0 131.2150 38.9504
  A 3.58 0.43 119.3 0 0 132.5920 35.6180
  A 3.58 0.43 119.3 0 0 130.4650 38.5296
  A 3.58 0.43 119.3 0 0 129.0880 41.8620
  Z
  M 93.5287 49.0570
  A 4.26 0.92 105.4 0 0 95.5470 45.1943
  A 4.26 0.92 105.4 0 0 95.7913 40.8430
  A 4.26 0.92 105.4 0 0 93.7730 44.7057
  A 4.26 0.92 105.4 0 0 93.5287 49.0570
  Z"
/>
<ellipse fill="#57ae4b" cx="0.00" cy="0.00" transform="translate(119.02,21.59) rotate(110.1)" rx="2.24" ry="0.45"/>
<path fill="#fcfff7" d="
  M 169.48 22.32
  L 164.05 22.67
  Q 166.78 21.87 169.48 22.32
  Z"
/>
<path fill="#8cca6b" d="
  M 90.94 31.76
  Q 90.39 32.41 89.78 32.70
  Q 89.87 31.78 88.31 32.20
  Q 87.94 31.63 88.29 31.15
  Q 88.96 30.01 88.73 28.49
  Q 88.61 27.66 89.32 27.61
  A 0.67 0.66 -0.8 0 1 90.03 28.30
  Q 89.92 30.70 90.94 31.76
  Z"
/>
<path fill="#57ae4b" d="
  M 172.48 30.41
  C 174.90 30.90 176.74 30.01 179.09 31.42
  C 186.23 35.70 179.00 45.61 172.82 40.85
  C 171.52 39.85 170.95 38.22 170.17 36.77
  C 169.30 35.17 166.30 33.45 166.96 31.31
  C 167.89 28.31 170.62 30.03 172.48 30.41
  Z"
/>
<path fill="#fcfff7" d="
  M 89.78 32.70
  Q 89.27 33.47 88.59 33.69
  A 0.38 0.38 0.0 0 1 88.09 33.32
  Q 88.11 32.71 88.31 32.20
  Q 89.87 31.78 89.78 32.70
  Z"
/>
<ellipse fill="#57ae4b" cx="0.00" cy="0.00" transform="translate(130.84,38.74) rotate(119.3)" rx="3.58" ry="0.43"/>
<ellipse fill="#3b6329" cx="0.00" cy="0.00" transform="translate(94.66,44.95) rotate(105.4)" rx="4.26" ry="0.92"/>
<path fill="#3b6329" d="
  M 76.16 42.39
  Q 79.23 47.02 81.43 49.34
  Q 84.55 52.61 89.50 52.58
  C 96.14 52.53 102.70 51.79 109.22 53.38
  Q 110.51 53.70 111.81 53.54
  Q 120.87 52.47 130.00 52.48
  Q 150.24 52.50 170.58 52.52
  L 171.50 53.20
  Q 171.92 53.51 172.41 53.34
  Q 172.86 53.18 172.58 52.55
  C 177.16 52.54 183.19 53.27 187.38 51.70
  Q 189.61 50.86 191.17 51.31
  Q 190.91 52.75 191.07 53.25
  L 188.46 56.62
  C 185.92 57.88 183.54 59.09 180.75 59.04
  Q 172.55 58.89 166.31 59.18
  Q 161.95 58.43 158.68 59.45
  L 147.48 59.30
  Q 145.20 58.08 142.60 58.97
  A 0.78 0.78 0.0 0 0 142.37 60.32
  Q 142.94 60.76 143.48 60.53
  C 142.21 62.40 143.24 66.90 143.37 69.13
  L 141.87 70.48
  A 0.89 0.89 0.0 0 1 140.39 69.82
  L 140.38 60.23
  A 1.42 1.42 0.0 0 0 138.99 58.82
  L 130.66 58.66
  Q 130.37 58.65 130.09 58.76
  L 129.51 58.99
  Q 129.42 58.90 129.33 58.80
  Q 129.14 58.61 128.88 58.61
  L 91.42 58.65
  Q 88.32 58.90 85.28 58.41
  Q 81.26 57.77 77.91 53.95
  Q 74.34 49.04 76.16 42.39
  Z"
/>
<path fill="#57ae4b" d="
  M 172.58 52.55
  Q 172.86 53.18 172.41 53.34
  Q 171.92 53.51 171.50 53.20
  L 170.58 52.52
  Q 169.86 49.83 169.06 47.14
  Q 168.97 46.81 169.16 46.57
  Q 169.56 46.09 169.82 46.65
  L 172.58 52.55
  Z"
/>
<path fill="#fadf88" d="
  M 192.56 51.77
  L 192.16 53.48
  Q 192.06 53.94 192.30 54.35
  Q 198.22 64.02 207.22 67.02
  C 222.10 71.98 234.43 75.45 238.40 92.13
  C 239.65 97.39 239.39 104.65 239.68 110.75
  C 240.25 122.33 245.80 128.18 251.67 137.28
  Q 260.26 150.59 255.07 164.35
  Q 253.90 167.46 249.40 174.27
  C 245.22 180.60 241.07 186.57 239.74 194.31
  L 225.86 194.26
  L 226.24 188.57
  Q 229.78 179.25 232.09 176.10
  C 239.76 165.67 245.87 155.95 239.51 143.01
  C 237.52 138.96 233.19 133.86 231.07 130.17
  Q 227.33 123.68 226.73 117.75
  C 226.20 112.47 226.92 104.63 225.50 99.17
  C 222.34 86.95 213.46 82.37 201.67 78.88
  Q 199.67 77.98 197.81 79.85
  L 197.44 77.97
  Q 197.35 77.72 197.38 77.53
  A 0.41 0.39 -3.6 0 1 197.67 77.21
  Q 198.86 76.85 199.74 75.96
  Q 200.30 75.40 199.54 75.19
  Q 198.62 74.93 197.86 76.31
  Q 197.39 77.19 196.72 77.08
  Q 195.42 76.03 197.18 74.55
  A 0.39 0.39 0.0 0 0 197.31 74.17
  L 197.07 73.24
  A 0.23 0.22 -36.4 0 0 196.66 73.18
  L 195.12 75.62
  Q 194.26 76.99 193.77 75.45
  L 192.34 70.94
  Q 193.77 70.35 193.84 69.30
  Q 194.35 61.88 188.46 56.62
  L 191.07 53.25
  L 192.56 51.77
  Z"
/>
<path fill="#fadf88" d="
  M 77.91 53.95
  Q 81.26 57.77 85.28 58.41
  Q 88.32 58.90 91.42 58.65
  Q 87.01 61.60 82.65 68.67
  L 78.35 72.83
  Q 76.52 73.84 74.94 75.11
  C 69.20 79.70 60.85 80.31 55.04 83.93
  Q 46.94 88.99 44.15 98.16
  C 42.52 103.55 43.27 111.02 42.72 116.75
  Q 41.93 125.09 36.72 132.52
  Q 36.43 132.94 36.70 133.52
  Q 36.52 133.50 36.30 133.57
  Q 36.13 133.61 36.00 133.77
  Q 30.56 140.51 29.20 144.47
  Q 24.11 159.35 34.00 171.11
  Q 35.62 175.39 38.02 176.57
  Q 41.24 182.66 42.17 186.29
  Q 42.97 189.38 42.10 193.25
  Q 42.05 193.47 41.69 193.81
  Q 41.40 194.08 41.79 194.18
  L 42.54 194.35
  L 29.27 194.37
  Q 28.52 187.75 25.44 182.47
  C 22.04 176.64 16.51 170.18 14.29 164.09
  Q 8.78 148.98 19.05 135.27
  C 23.50 129.33 26.93 124.36 28.67 118.00
  C 30.89 109.89 29.01 101.37 30.62 93.42
  Q 33.44 79.47 45.99 72.90
  C 50.05 70.77 56.53 69.03 60.49 67.65
  Q 70.95 64.00 77.91 53.95
  Z"
/>
<path fill="#2c501c" d="
  M 188.46 56.62
  Q 194.35 61.88 193.84 69.30
  Q 193.77 70.35 192.34 70.94
  Q 191.89 70.98 191.46 70.54
  Q 179.86 58.86 166.51 68.95
  A 2.33 2.31 -61.8 0 1 165.01 69.41
  Q 160.33 69.18 155.80 70.93
  C 155.04 71.23 154.31 71.06 153.50 71.19
  Q 153.05 71.31 152.73 71.14
  Q 158.16 64.95 166.31 59.18
  Q 172.55 58.89 180.75 59.04
  C 183.54 59.09 185.92 57.88 188.46 56.62
  Z"
/>
<path fill="#ffffff" d="
  M 129.51 58.99
  L 128.26 75.95
  Q 125.73 73.94 122.90 73.28
  A 1.05 1.04 -6.5 0 1 122.18 72.71
  Q 121.60 71.51 121.07 70.28
  C 116.90 60.66 105.15 59.51 98.29 66.97
  Q 97.93 67.35 97.44 67.18
  Q 90.07 64.64 82.65 68.67
  Q 87.01 61.60 91.42 58.65
  L 128.88 58.61
  Q 129.14 58.61 129.33 58.80
  Q 129.42 58.90 129.51 58.99
  Z"
/>
<path fill="#3b2120" d="
  M 143.37 69.13
  L 158.68 59.45
  Q 161.95 58.43 166.31 59.18
  Q 158.16 64.95 152.73 71.14
  Q 147.32 73.29 143.61 78.00
  Q 140.97 80.40 138.00 79.63
  Q 133.05 78.33 129.00 80.15
  L 128.26 75.95
  L 129.51 58.99
  L 130.09 58.76
  Q 130.37 58.65 130.66 58.66
  L 138.99 58.82
  A 1.42 1.42 0.0 0 1 140.38 60.23
  L 140.39 69.82
  A 0.89 0.89 0.0 0 0 141.87 70.48
  L 143.37 69.13
  Z"
/>
<path fill="#fcfff7" d="
  M 147.48 59.30
  Q 145.48 60.27 143.48 60.53
  Q 142.94 60.76 142.37 60.32
  A 0.78 0.78 0.0 0 1 142.60 58.97
  Q 145.20 58.08 147.48 59.30
  Z"
/>
<path fill="#2c501c" d="
  M 158.68 59.45
  L 143.37 69.13
  C 143.24 66.90 142.21 62.40 143.48 60.53
  Q 145.48 60.27 147.48 59.30
  L 158.68 59.45
  Z"
/>
<path fill="#2c501c" d="
  M 128.26 75.95
  L 129.00 80.15
  Q 125.96 81.03 123.31 82.89
  Q 122.87 83.20 122.37 83.00
  Q 121.89 82.80 121.48 82.41
  Q 118.53 77.69 113.30 75.96
  C 111.54 74.32 108.89 74.80 106.27 75.25
  Q 96.55 76.90 93.07 85.35
  Q 86.39 85.21 80.22 85.22
  C 72.20 85.24 76.60 76.26 78.35 72.83
  L 82.65 68.67
  Q 90.07 64.64 97.44 67.18
  Q 97.93 67.35 98.29 66.97
  C 105.15 59.51 116.90 60.66 121.07 70.28
  Q 121.60 71.51 122.18 72.71
  A 1.05 1.04 -6.5 0 0 122.90 73.28
  Q 125.73 73.94 128.26 75.95
  Z"
/>
<path fill="#4e7f3d" d="
  M 192.34 70.94
  L 193.77 75.45
  Q 194.26 76.99 195.12 75.62
  L 196.66 73.18
  A 0.23 0.22 -36.4 0 1 197.07 73.24
  L 197.31 74.17
  A 0.39 0.39 0.0 0 1 197.18 74.55
  Q 195.42 76.03 196.72 77.08
  Q 197.22 77.33 197.44 77.97
  L 197.81 79.85
  Q 197.50 80.31 198.07 80.91
  Q 198.00 81.50 197.77 81.79
  Q 197.72 81.61 197.65 81.48
  Q 197.47 81.12 197.15 81.34
  Q 195.34 82.57 193.75 82.58
  Q 177.75 82.69 161.78 82.65
  A 1.77 1.76 -87.7 0 1 160.03 80.75
  Q 160.18 78.63 158.82 77.19
  Q 158.40 76.76 157.91 77.10
  Q 157.48 77.40 157.57 78.25
  Q 157.77 79.97 158.06 81.33
  A 0.95 0.94 -11.1 0 1 157.29 82.46
  Q 152.31 83.29 148.87 79.38
  A 0.40 0.40 0.0 0 1 149.11 78.72
  Q 149.87 78.60 149.65 77.19
  C 152.55 75.84 153.24 74.44 155.12 72.02
  Q 155.47 71.57 154.96 71.33
  Q 154.47 71.10 153.50 71.19
  C 154.31 71.06 155.04 71.23 155.80 70.93
  Q 160.33 69.18 165.01 69.41
  A 2.33 2.31 -61.8 0 0 166.51 68.95
  Q 179.86 58.86 191.46 70.54
  Q 191.89 70.98 192.34 70.94
  Z
  M 175.7896 79.5196
  A 3.09 1.03 103.1 0 0 177.4932 76.7435
  A 3.09 1.03 103.1 0 0 177.1904 73.5004
  A 3.09 1.03 103.1 0 0 175.4868 76.2765
  A 3.09 1.03 103.1 0 0 175.7896 79.5196
  Z"
/>
<path fill="#ffffff" d="
  M 152.73 71.14
  Q 153.05 71.31 153.50 71.19
  Q 154.47 71.10 154.96 71.33
  Q 155.47 71.57 155.12 72.02
  C 153.24 74.44 152.55 75.84 149.65 77.19
  C 146.48 78.40 146.16 82.70 148.30 84.88
  C 149.70 86.32 152.03 86.56 154.00 86.51
  Q 162.82 86.30 172.04 86.63
  L 169.03 90.92
  Q 167.07 92.83 164.56 95.06
  C 163.33 96.16 162.82 100.60 161.31 102.78
  L 146.53 125.26
  Q 144.80 115.48 145.27 106.22
  C 145.33 104.96 144.59 103.36 145.08 102.33
  L 150.00 101.78
  Q 150.60 101.83 151.01 101.71
  Q 152.82 101.56 153.02 99.98
  Q 154.14 90.88 147.25 85.93
  L 144.30 82.75
  A 1.40 1.38 21.5 0 1 143.94 81.93
  L 143.61 78.00
  Q 147.32 73.29 152.73 71.14
  Z"
/>
<path fill="#ffffff" d="
  M 78.35 72.83
  C 76.60 76.26 72.20 85.24 80.22 85.22
  Q 86.39 85.21 93.07 85.35
  Q 93.37 87.32 91.76 87.85
  C 87.50 89.28 83.09 91.11 82.30 95.76
  C 81.52 98.23 81.76 102.04 85.25 102.07
  Q 98.63 102.19 111.61 102.29
  Q 117.91 112.09 124.14 121.40
  C 125.99 124.16 126.03 126.66 125.79 129.75
  C 124.88 141.01 124.69 151.99 123.99 162.61
  Q 123.51 169.72 123.24 176.32
  Q 106.03 171.39 93.50 170.46
  Q 85.87 169.90 78.19 169.11
  Q 75.82 164.41 73.42 159.98
  Q 66.07 146.44 49.98 147.22
  C 49.23 146.90 48.79 146.67 48.38 145.90
  Q 44.26 138.14 36.70 133.52
  Q 36.43 132.94 36.72 132.52
  Q 41.93 125.09 42.72 116.75
  C 43.27 111.02 42.52 103.55 44.15 98.16
  Q 46.94 88.99 55.04 83.93
  C 60.85 80.31 69.20 79.70 74.94 75.11
  Q 76.52 73.84 78.35 72.83
  Z"
/>
<ellipse fill="#3b6329" cx="0.00" cy="0.00" transform="translate(176.49,76.51) rotate(103.1)" rx="3.09" ry="1.03"/>
<path fill="#4e7f3d" d="
  M 113.30 75.96
  Q 113.07 76.18 112.71 76.13
  A 0.09 0.08 -87.1 0 0 112.62 76.22
  Q 112.62 76.26 112.62 76.31
  Q 112.63 76.47 112.80 76.56
  Q 117.34 78.85 118.12 80.23
  Q 120.16 83.86 121.48 82.41
  Q 121.89 82.80 122.37 83.00
  Q 122.87 83.20 123.31 82.89
  Q 125.96 81.03 129.00 80.15
  Q 133.05 78.33 138.00 79.63
  Q 140.97 80.40 143.61 78.00
  L 143.94 81.93
  A 1.40 1.38 21.5 0 0 144.30 82.75
  L 147.25 85.93
  Q 151.00 92.93 150.78 96.75
  Q 150.63 99.22 151.01 101.71
  Q 150.60 101.83 150.00 101.78
  Q 151.07 100.30 150.13 98.97
  A 1.41 1.41 0.0 0 0 148.97 98.36
  L 86.55 98.14
  A 1.08 1.06 68.5 0 1 85.76 97.79
  Q 84.11 96.01 82.30 95.76
  C 83.09 91.11 87.50 89.28 91.76 87.85
  Q 93.37 87.32 93.07 85.35
  Q 96.55 76.90 106.27 75.25
  C 108.89 74.80 111.54 74.32 113.30 75.96
  Z
  M 104.3063 87.2471
  A 2.83 0.84 74.5 0 0 104.3594 84.2955
  A 2.83 0.84 74.5 0 0 102.7937 81.7929
  A 2.83 0.84 74.5 0 0 102.7406 84.7445
  A 2.83 0.84 74.5 0 0 104.3063 87.2471
  Z
  M 131.4356 97.4292
  A 3.20 0.87 102.9 0 0 132.9980 94.5042
  A 3.20 0.87 102.9 0 0 132.8644 91.1908
  A 3.20 0.87 102.9 0 0 131.3020 94.1158
  A 3.20 0.87 102.9 0 0 131.4356 97.4292
  Z"
/>
<path fill="#57ae4b" d="
  M 197.44 77.97
  Q 197.22 77.33 196.72 77.08
  Q 197.39 77.19 197.86 76.31
  Q 198.62 74.93 199.54 75.19
  Q 200.30 75.40 199.74 75.96
  Q 198.86 76.85 197.67 77.21
  A 0.41 0.39 -3.6 0 0 197.38 77.53
  Q 197.35 77.72 197.44 77.97
  Z"
/>
<path fill="#8cca6b" d="
  M 113.30 75.96
  Q 118.53 77.69 121.48 82.41
  Q 120.16 83.86 118.12 80.23
  Q 117.34 78.85 112.80 76.56
  Q 112.63 76.47 112.62 76.31
  Q 112.62 76.26 112.62 76.22
  A 0.09 0.08 -87.1 0 1 112.71 76.13
  Q 113.07 76.18 113.30 75.96
  Z"
/>
<path fill="#3b6329" d="
  M 197.77 81.79
  Q 197.57 86.30 193.25 86.37
  Q 180.14 86.57 176.64 86.82
  Q 175.56 85.95 172.04 86.63
  Q 162.82 86.30 154.00 86.51
  C 152.03 86.56 149.70 86.32 148.30 84.88
  C 146.16 82.70 146.48 78.40 149.65 77.19
  Q 149.87 78.60 149.11 78.72
  A 0.40 0.40 0.0 0 0 148.87 79.38
  Q 152.31 83.29 157.29 82.46
  A 0.95 0.94 -11.1 0 0 158.06 81.33
  Q 157.77 79.97 157.57 78.25
  Q 157.48 77.40 157.91 77.10
  Q 158.40 76.76 158.82 77.19
  Q 160.18 78.63 160.03 80.75
  A 1.77 1.76 -87.7 0 0 161.78 82.65
  Q 177.75 82.69 193.75 82.58
  Q 195.34 82.57 197.15 81.34
  Q 197.47 81.12 197.65 81.48
  Q 197.72 81.61 197.77 81.79
  Z"
/>
<path fill="#57ae4b" d="
  M 201.67 78.88
  L 198.07 80.91
  Q 197.50 80.31 197.81 79.85
  Q 199.67 77.98 201.67 78.88
  Z"
/>
<path fill="#ffffff" d="
  M 201.67 78.88
  C 213.46 82.37 222.34 86.95 225.50 99.17
  C 226.92 104.63 226.20 112.47 226.73 117.75
  Q 227.33 123.68 231.07 130.17
  C 233.19 133.86 237.52 138.96 239.51 143.01
  C 245.87 155.95 239.76 165.67 232.09 176.10
  Q 229.78 179.25 226.24 188.57
  Q 215.91 187.54 205.56 187.44
  C 200.42 187.40 195.51 186.66 190.43 186.22
  Q 183.88 185.66 179.11 185.03
  C 169.03 183.70 159.95 182.88 148.95 180.78
  L 146.41 143.39
  L 155.20 127.05
  A 10.34 10.31 82.0 0 1 157.05 124.59
  L 176.61 105.40
  L 177.04 105.08
  Q 177.43 104.78 177.91 104.78
  L 187.33 104.72
  A 2.12 2.12 0.0 0 0 189.37 102.07
  Q 187.18 93.46 178.41 95.21
  Q 177.90 95.32 177.50 94.97
  L 174.04 91.96
  Q 175.69 90.22 176.64 86.82
  Q 180.14 86.57 193.25 86.37
  Q 197.57 86.30 197.77 81.79
  Q 198.00 81.50 198.07 80.91
  L 201.67 78.88
  Z"
/>
<ellipse fill="#3b6329" cx="0.00" cy="0.00" transform="translate(103.55,84.52) rotate(74.5)" rx="2.83" ry="0.84"/>
<path fill="#8cca6b" d="
  M 147.25 85.93
  Q 154.14 90.88 153.02 99.98
  Q 152.82 101.56 151.01 101.71
  Q 150.63 99.22 150.78 96.75
  Q 151.00 92.93 147.25 85.93
  Z"
/>
<path fill="#3b2120" d="
  M 176.64 86.82
  Q 175.69 90.22 174.04 91.96
  Q 170.83 92.26 169.03 90.92
  L 172.04 86.63
  Q 175.56 85.95 176.64 86.82
  Z"
/>
<path fill="#4e7f3d" d="
  M 169.03 90.92
  Q 170.83 92.26 174.04 91.96
  L 177.50 94.97
  Q 177.90 95.32 178.41 95.21
  Q 187.18 93.46 189.37 102.07
  A 2.12 2.12 0.0 0 1 187.33 104.72
  L 177.91 104.78
  Q 177.43 104.78 177.04 105.08
  L 176.61 105.40
  Q 175.54 104.13 172.77 105.21
  Q 168.79 103.76 166.77 105.80
  L 161.31 102.78
  C 162.82 100.60 163.33 96.16 164.56 95.06
  Q 167.07 92.83 169.03 90.92
  Z"
/>
<ellipse fill="#3b6329" cx="0.00" cy="0.00" transform="translate(132.15,94.31) rotate(102.9)" rx="3.20" ry="0.87"/>
<path fill="#3b6329" d="
  M 150.00 101.78
  L 145.08 102.33
  L 142.70 102.19
  L 137.36 102.26
  L 127.24 102.30
  L 117.40 102.33
  L 111.61 102.29
  Q 98.63 102.19 85.25 102.07
  C 81.76 102.04 81.52 98.23 82.30 95.76
  Q 84.11 96.01 85.76 97.79
  A 1.08 1.06 68.5 0 0 86.55 98.14
  L 148.97 98.36
  A 1.41 1.41 0.0 0 1 150.13 98.97
  Q 151.07 100.30 150.00 101.78
  Z"
/>
<path fill="#3b2120" d="
  M 137.36 102.26
  Q 136.22 113.91 135.79 125.49
  Q 135.68 128.31 135.55 131.13
  Q 134.30 157.20 132.65 183.25
  Q 132.48 185.86 132.83 191.17
  Q 132.87 191.81 133.48 191.99
  L 135.42 192.53
  A 0.56 0.56 0.0 0 1 135.82 192.99
  Q 135.87 193.30 135.69 193.57
  Q 135.53 193.82 134.93 194.00
  Q 134.23 194.21 133.94 194.68
  L 122.02 194.76
  L 122.78 184.76
  L 123.24 176.32
  Q 123.51 169.72 123.99 162.61
  C 124.69 151.99 124.88 141.01 125.79 129.75
  C 126.03 126.66 125.99 124.16 124.14 121.40
  Q 117.91 112.09 111.61 102.29
  L 117.40 102.33
  L 126.25 112.61
  Q 126.64 113.06 126.67 112.46
  L 127.24 102.30
  L 137.36 102.26
  Z"
/>
<path fill="#4d3130" d="
  M 142.70 102.19
  L 143.87 127.78
  A 0.67 0.64 -87.4 0 0 144.41 128.40
  Q 144.51 128.41 144.70 128.29
  Q 142.15 132.53 139.32 136.64
  Q 137.48 139.31 137.64 141.24
  C 137.86 143.87 141.26 147.62 144.18 146.71
  A 1.72 1.71 -6.0 0 0 145.38 145.24
  Q 145.50 144.12 145.96 144.21
  Q 144.97 146.86 145.02 148.00
  Q 145.71 161.26 145.81 174.52
  C 145.82 175.53 146.30 176.76 146.36 177.88
  C 146.65 182.94 146.24 188.58 147.34 193.50
  Q 147.45 193.99 146.74 194.60
  L 133.94 194.68
  Q 134.23 194.21 134.93 194.00
  Q 135.53 193.82 135.69 193.57
  Q 135.87 193.30 135.82 192.99
  A 0.56 0.56 0.0 0 0 135.42 192.53
  L 133.48 191.99
  Q 132.87 191.81 132.83 191.17
  Q 132.48 185.86 132.65 183.25
  Q 134.30 157.20 135.55 131.13
  Q 135.68 128.31 135.79 125.49
  Q 136.22 113.91 137.36 102.26
  L 142.70 102.19
  Z"
/>
<path fill="#ffffff" d="
  M 117.40 102.33
  L 127.24 102.30
  L 126.67 112.46
  Q 126.64 113.06 126.25 112.61
  L 117.40 102.33
  Z"
/>
<path fill="#a96c52" d="
  M 142.70 102.19
  L 145.08 102.33
  C 144.59 103.36 145.33 104.96 145.27 106.22
  Q 144.80 115.48 146.53 125.26
  Q 146.49 126.00 144.70 128.29
  Q 144.51 128.41 144.41 128.40
  A 0.67 0.64 -87.4 0 1 143.87 127.78
  L 142.70 102.19
  Z"
/>
<path fill="#3b2120" d="
  M 161.31 102.78
  L 166.77 105.80
  L 163.51 111.68
  Q 163.06 112.49 163.80 111.93
  L 172.77 105.21
  Q 175.54 104.13 176.61 105.40
  L 157.05 124.59
  A 10.34 10.31 82.0 0 0 155.20 127.05
  L 146.41 143.39
  Q 146.30 144.16 145.96 144.21
  Q 145.50 144.12 145.38 145.24
  A 1.72 1.71 -6.0 0 1 144.18 146.71
  C 141.26 147.62 137.86 143.87 137.64 141.24
  Q 137.48 139.31 139.32 136.64
  Q 142.15 132.53 144.70 128.29
  Q 146.49 126.00 146.53 125.26
  L 161.31 102.78
  Z"
/>
<path fill="#ffffff" d="
  M 172.77 105.21
  L 163.80 111.93
  Q 163.06 112.49 163.51 111.68
  L 166.77 105.80
  Q 168.79 103.76 172.77 105.21
  Z"
/>
<path fill="#b39e83" d="
  M 36.70 133.52
  Q 44.26 138.14 48.38 145.90
  C 48.79 146.67 49.23 146.90 49.98 147.22
  Q 49.62 147.98 49.75 148.50
  Q 51.87 157.48 53.98 166.46
  Q 54.09 166.96 53.87 167.43
  L 53.10 169.09
  L 34.00 171.11
  Q 24.11 159.35 29.20 144.47
  Q 30.56 140.51 36.00 133.77
  Q 36.13 133.61 36.30 133.57
  Q 36.52 133.50 36.70 133.52
  Z"
/>
<path fill="#a96c52" d="
  M 146.41 143.39
  L 148.95 180.78
  L 149.35 187.54
  L 149.31 193.53
  Q 149.31 194.03 149.80 194.08
  L 150.68 194.16
  L 147.98 194.67
  Q 147.03 194.31 146.74 194.60
  Q 147.45 193.99 147.34 193.50
  C 146.24 188.58 146.65 182.94 146.36 177.88
  C 146.30 176.76 145.82 175.53 145.81 174.52
  Q 145.71 161.26 145.02 148.00
  Q 144.97 146.86 145.96 144.21
  Q 146.30 144.16 146.41 143.39
  Z"
/>
<path fill="#988064" d="
  M 49.98 147.22
  Q 66.07 146.44 73.42 159.98
  Q 75.82 164.41 78.19 169.11
  L 53.10 169.09
  L 53.87 167.43
  Q 54.09 166.96 53.98 166.46
  Q 51.87 157.48 49.75 148.50
  Q 49.62 147.98 49.98 147.22
  Z"
/>
<path fill="#fde4c2" d="
  M 53.10 169.09
  L 78.19 169.11
  Q 85.87 169.90 93.50 170.46
  Q 106.03 171.39 123.24 176.32
  L 122.78 184.76
  Q 119.68 181.10 116.25 180.61
  Q 77.50 172.14 38.02 176.57
  Q 35.62 175.39 34.00 171.11
  L 53.10 169.09
  Z"
/>
<path fill="#e9cda8" d="
  M 116.25 180.61
  L 118.02 185.46
  Q 118.52 186.81 117.08 186.85
  L 108.97 187.03
  A 0.44 0.44 0.0 0 0 108.71 187.82
  Q 112.32 190.66 115.60 194.11
  Q 115.84 194.37 115.85 194.42
  Q 115.88 194.57 115.79 194.86
  Q 114.23 194.35 113.25 194.34
  Q 77.89 194.12 42.54 194.35
  L 41.79 194.18
  Q 41.40 194.08 41.69 193.81
  Q 42.05 193.47 42.10 193.25
  Q 42.97 189.38 42.17 186.29
  Q 41.24 182.66 38.02 176.57
  Q 77.50 172.14 116.25 180.61
  Z"
/>
<path fill="#4e7f3d" d="
  M 116.25 180.61
  Q 119.68 181.10 122.78 184.76
  L 122.02 194.76
  L 115.79 194.86
  Q 115.88 194.57 115.85 194.42
  Q 115.84 194.37 115.60 194.11
  Q 112.32 190.66 108.71 187.82
  A 0.44 0.44 0.0 0 1 108.97 187.03
  L 117.08 186.85
  Q 118.52 186.81 118.02 185.46
  L 116.25 180.61
  Z"
/>
<path fill="#fde4c2" d="
  M 148.95 180.78
  C 159.95 182.88 169.03 183.70 179.11 185.03
  Q 183.88 185.66 190.43 186.22
  C 195.51 186.66 200.42 187.40 205.56 187.44
  Q 215.91 187.54 226.24 188.57
  L 225.86 194.26
  L 204.27 194.20
  Q 198.85 193.54 193.43 193.16
  C 181.09 192.30 168.77 190.43 156.50 188.78
  Q 153.68 188.40 152.28 187.93
  C 151.67 187.73 151.28 187.87 150.77 188.20
  Q 150.36 188.46 149.91 188.32
  Q 149.37 188.15 149.35 187.54
  L 148.95 180.78
  Z"
/>
<path fill="#e9cda8" d="
  M 149.35 187.54
  Q 149.37 188.15 149.91 188.32
  Q 150.36 188.46 150.77 188.20
  C 151.28 187.87 151.67 187.73 152.28 187.93
  Q 153.68 188.40 156.50 188.78
  C 168.77 190.43 181.09 192.30 193.43 193.16
  Q 198.85 193.54 204.27 194.20
  L 155.07 194.38
  Q 156.07 192.82 156.09 191.34
  A 0.40 0.40 0.0 0 0 155.47 191.00
  L 150.68 194.16
  L 149.80 194.08
  Q 149.31 194.03 149.31 193.53
  L 149.35 187.54
  Z"
/>
<path fill="#4e7f3d" d="
  M 155.07 194.38
  Q 151.55 195.14 147.98 194.67
  L 150.68 194.16
  L 155.47 191.00
  A 0.40 0.40 0.0 0 1 156.09 191.34
  Q 156.07 192.82 155.07 194.38
  Z"
/>
<path fill="#57ae4b" d="
  M 29.27 194.37
  L 42.54 194.35
  Q 77.89 194.12 113.25 194.34
  Q 114.23 194.35 115.79 194.86
  L 122.02 194.76
  L 133.94 194.68
  L 146.74 194.60
  Q 147.03 194.31 147.98 194.67
  Q 151.55 195.14 155.07 194.38
  L 204.27 194.20
  L 225.86 194.26
  L 239.74 194.31
  Q 253.45 194.39 258.00 194.28
  C 262.64 194.18 268.08 196.29 269.06 201.32
  Q 269.43 203.25 268.74 207.65
  Q 266.06 224.72 263.28 241.76
  C 262.48 246.69 258.48 248.83 253.74 249.10
  Q 250.93 249.27 248.61 249.44
  Q 245.93 248.36 243.25 248.50
  C 226.69 249.37 214.23 248.48 195.08 248.95
  Q 194.80 248.96 194.75 249.10
  Q 194.68 249.26 194.76 249.55
  Q 194.19 249.17 193.80 249.18
  Q 185.90 249.31 178.79 249.29
  L 90.63 249.30
  L 74.47 249.45
  Q 73.88 249.47 73.41 249.21
  Q 73.01 248.98 72.55 248.97
  C 61.38 248.69 49.99 248.16 38.86 249.03
  Q 33.02 249.48 30.00 249.11
  Q 23.72 248.33 20.21 249.22
  Q 17.19 248.55 15.15 246.85
  C 13.42 245.40 12.58 242.70 12.17 240.20
  Q 9.81 225.62 7.52 211.02
  C 6.14 202.19 5.63 194.89 16.77 194.55
  Q 22.70 194.36 29.27 194.37
  Z
  M 107.56 211.62
  Q 107.29 210.16 107.93 208.86
  A 1.14 1.12 -80.3 0 1 108.79 208.24
  L 111.52 207.87
  A 0.84 0.84 0.0 0 0 112.25 207.04
  L 112.26 206.68
  A 1.08 1.08 0.0 0 0 111.18 205.60
  L 103.83 205.55
  A 0.84 0.83 -10.7 0 1 103.07 205.04
  L 102.00 202.41
  A 1.11 1.11 0.0 0 0 99.86 202.83
  L 99.86 204.58
  A 0.95 0.94 90.0 0 1 98.92 205.53
  L 92.64 205.54
  A 0.86 0.86 0.0 0 0 91.78 206.36
  L 91.72 207.38
  A 0.74 0.74 0.0 0 0 92.52 208.15
  L 94.27 208.02
  A 1.34 1.33 79.0 0 1 95.64 208.95
  L 96.26 210.95
  A 0.79 0.78 -9.5 0 1 95.53 211.96
  L 91.04 212.09
  A 0.64 0.63 -11.5 0 0 90.46 212.96
  L 90.59 213.31
  Q 91.02 214.39 92.18 214.39
  L 111.42 214.48
  Q 112.84 214.48 112.69 213.08
  L 112.66 212.74
  A 0.95 0.95 0.0 0 0 111.68 211.89
  L 108.05 212.02
  Q 107.63 212.03 107.56 211.62
  Z
  M 161.52 213.01
  A 0.54 0.54 0.0 0 1 162.01 213.70
  Q 160.03 220.20 156.30 225.87
  A 1.47 1.46 41.0 0 0 156.43 227.64
  L 156.77 228.03
  Q 157.43 228.78 157.99 227.95
  Q 159.74 225.36 160.80 222.49
  Q 162.23 218.65 162.28 222.75
  L 162.48 237.51
  Q 162.49 238.53 163.51 238.49
  L 164.14 238.47
  Q 165.21 238.44 165.21 237.36
  L 165.13 220.97
  Q 165.12 218.44 166.36 220.65
  L 168.51 224.46
  A 0.85 0.84 -44.1 0 0 169.97 224.48
  L 170.19 224.12
  A 1.80 1.79 -47.4 0 0 170.11 222.12
  L 165.13 215.29
  A 1.47 1.46 72.4 0 1 166.33 212.96
  L 168.74 213.00
  Q 170.13 213.02 170.13 211.64
  L 170.13 211.15
  Q 170.13 210.09 169.06 210.12
  L 165.89 210.21
  A 0.60 0.59 -1.5 0 1 165.28 209.64
  L 165.03 203.31
  Q 164.99 202.27 163.94 202.25
  L 163.40 202.24
  A 0.82 0.82 0.0 0 0 162.56 203.03
  L 162.25 209.61
  A 0.59 0.59 0.0 0 1 161.65 210.17
  L 157.83 210.13
  Q 156.63 210.11 156.51 211.30
  L 156.45 211.79
  Q 156.35 212.76 157.33 212.81
  L 161.52 213.01
  Z
  M 86.31 219.90
  Q 86.84 219.99 87.09 220.42
  Q 88.40 222.61 89.18 223.61
  A 0.58 0.58 0.0 0 0 90.11 223.59
  L 90.33 223.28
  A 1.67 1.66 -44.9 0 0 90.34 221.36
  L 86.09 215.23
  A 1.42 1.42 0.0 0 1 87.17 213.00
  L 88.25 212.93
  Q 92.18 212.71 88.89 210.27
  Q 88.32 209.85 86.88 210.25
  A 0.67 0.67 0.0 0 1 86.03 209.61
  L 86.00 203.49
  A 1.01 1.00 -2.7 0 0 84.91 202.50
  L 84.61 202.53
  Q 83.26 202.65 83.26 204.01
  L 83.26 209.58
  Q 83.26 210.20 82.64 210.21
  L 79.70 210.26
  A 0.97 0.97 0.0 0 0 78.74 211.30
  L 78.80 212.21
  A 0.84 0.84 0.0 0 0 79.75 212.98
  L 81.70 212.72
  A 0.99 0.98 -86.7 0 1 82.78 213.94
  Q 81.28 219.98 77.87 225.19
  A 1.90 1.89 -44.4 0 0 77.84 227.22
  L 78.30 227.97
  A 0.67 0.67 0.0 0 0 79.48 227.90
  L 82.16 222.03
  Q 83.25 219.64 83.25 222.26
  L 83.29 237.37
  A 1.06 1.06 0.0 0 0 84.36 238.43
  L 84.84 238.42
  Q 86.06 238.40 86.05 237.19
  L 85.94 220.22
  Q 85.93 219.84 86.31 219.90
  Z
  M 191.44 217.79
  C 188.71 213.02 187.00 209.04 185.49 203.77
  Q 185.24 202.90 184.37 203.15
  L 183.96 203.27
  A 1.09 1.09 0.0 0 0 183.19 204.49
  Q 184.64 213.24 189.94 220.32
  A 0.70 0.69 43.9 0 0 191.07 220.30
  L 191.36 219.89
  A 1.98 1.97 47.4 0 0 191.44 217.79
  Z
  M 170.41 220.01
  L 172.42 220.78
  A 0.44 0.44 0.0 0 0 172.99 220.53
  L 173.08 220.30
  A 17.26 0.44 -69.0 0 0 178.85 204.03
  L 176.84 203.26
  A 17.26 0.44 -69.0 0 0 170.24 219.21
  L 170.15 219.44
  A 0.44 0.44 0.0 0 0 170.41 220.01
  Z
  M 142.05 207.00
  Q 144.30 207.01 142.45 208.28
  L 135.44 213.09
  A 2.76 2.74 73.1 0 0 134.25 215.34
  L 134.23 218.67
  Q 134.23 219.33 133.58 219.32
  L 118.98 219.26
  A 1.15 1.14 -87.8 0 0 117.84 220.32
  L 117.79 221.03
  Q 117.72 222.09 118.78 222.09
  L 133.41 222.05
  A 0.87 0.86 -0.0 0 1 134.28 222.91
  L 134.22 233.87
  A 1.81 1.81 0.0 0 1 132.39 235.68
  L 127.08 235.63
  A 0.83 0.83 0.0 0 0 126.24 236.51
  L 126.26 236.79
  Q 126.33 238.00 127.53 238.12
  C 131.04 238.48 137.04 239.32 137.15 234.25
  Q 137.27 228.54 137.24 222.77
  A 0.73 0.72 90.0 0 1 137.96 222.04
  L 150.98 222.05
  A 1.00 0.99 -1.1 0 0 151.98 221.02
  L 151.95 220.22
  Q 151.91 219.28 150.97 219.29
  L 138.01 219.39
  A 0.72 0.72 0.0 0 1 137.29 218.79
  C 136.88 216.37 137.06 215.15 139.23 213.74
  Q 142.99 211.31 146.41 208.45
  Q 148.09 207.03 147.77 204.84
  A 0.76 0.75 85.5 0 0 147.03 204.20
  L 122.99 204.26
  Q 121.75 204.26 121.77 205.51
  L 121.78 206.01
  A 0.98 0.98 0.0 0 0 122.76 206.96
  L 142.05 207.00
  Z
  M 175.50 234.22
  Q 175.13 233.98 175.43 233.41
  Q 179.07 226.30 181.70 217.78
  A 1.22 1.21 -79.3 0 0 180.63 216.21
  L 180.27 216.18
  A 1.47 1.46 9.1 0 0 178.74 217.28
  Q 176.30 226.91 170.97 235.22
  A 1.32 1.31 -67.9 0 0 171.81 237.22
  C 175.36 237.93 182.72 235.91 186.48 235.17
  Q 186.95 235.08 187.06 235.55
  L 187.53 237.53
  A 1.11 1.10 -11.5 0 0 188.79 238.36
  L 189.74 238.20
  A 0.92 0.91 -16.0 0 0 190.44 236.95
  L 185.55 225.31
  Q 185.08 224.19 183.91 224.55
  L 183.49 224.68
  A 0.88 0.87 69.7 0 0 182.95 225.86
  L 185.63 232.11
  A 0.51 0.51 0.0 0 1 185.24 232.82
  L 175.61 234.25
  A 0.22 0.21 -28.2 0 1 175.50 234.22
  Z
  M 100.49 230.68
  A 0.56 0.56 0.0 0 1 99.93 231.28
  L 90.34 231.24
  A 0.56 0.56 0.0 0 0 89.78 231.81
  L 89.79 233.17
  A 0.56 0.56 0.0 0 0 90.35 233.72
  L 99.95 233.81
  A 0.56 0.56 0.0 0 1 100.51 234.38
  L 100.43 237.94
  A 0.56 0.56 0.0 0 0 101.00 238.51
  L 102.56 238.47
  A 0.56 0.56 0.0 0 0 103.11 237.92
  L 103.14 234.34
  A 0.56 0.56 0.0 0 1 103.70 233.79
  L 112.52 233.75
  A 0.56 0.56 0.0 0 0 113.08 233.15
  L 112.99 231.75
  A 0.56 0.56 0.0 0 0 112.42 231.23
  L 103.86 231.32
  A 0.56 0.56 0.0 0 1 103.29 230.78
  L 103.24 229.34
  A 0.56 0.56 0.0 0 1 103.80 228.76
  L 109.89 228.74
  A 0.56 0.56 0.0 0 0 110.45 228.18
  L 110.39 217.32
  A 0.56 0.56 0.0 0 0 109.83 216.76
  L 93.45 216.71
  A 0.56 0.56 0.0 0 0 92.89 217.28
  L 93.02 228.01
  A 0.56 0.56 0.0 0 0 93.56 228.56
  L 99.87 228.80
  A 0.56 0.56 0.0 0 1 100.40 229.32
  L 100.49 230.68
  Z"
/>
<path fill="#fcfff7" d="
  M 108.05 212.02
  L 111.68 211.89
  A 0.95 0.95 0.0 0 1 112.66 212.74
  L 112.69 213.08
  Q 112.84 214.48 111.42 214.48
  L 92.18 214.39
  Q 91.02 214.39 90.59 213.31
  L 90.46 212.96
  A 0.64 0.63 -11.5 0 1 91.04 212.09
  L 95.53 211.96
  A 0.79 0.78 -9.5 0 0 96.26 210.95
  L 95.64 208.95
  A 1.34 1.33 79.0 0 0 94.27 208.02
  L 92.52 208.15
  A 0.74 0.74 0.0 0 1 91.72 207.38
  L 91.78 206.36
  A 0.86 0.86 0.0 0 1 92.64 205.54
  L 98.92 205.53
  A 0.95 0.94 90.0 0 0 99.86 204.58
  L 99.86 202.83
  A 1.11 1.11 0.0 0 1 102.00 202.41
  L 103.07 205.04
  A 0.84 0.83 -10.7 0 0 103.83 205.55
  L 111.18 205.60
  A 1.08 1.08 0.0 0 1 112.26 206.68
  L 112.25 207.04
  A 0.84 0.84 0.0 0 1 111.52 207.87
  L 108.79 208.24
  A 1.14 1.12 -80.3 0 0 107.93 208.86
  Q 107.29 210.16 107.56 211.62
  Q 107.63 212.03 108.05 212.02
  Z
  M 104.62 208.01
  L 99.04 207.99
  A 0.55 0.55 0.0 0 0 98.49 208.53
  L 98.48 209.65
  A 2.35 2.17 -89.7 0 0 100.64 212.01
  L 102.98 212.03
  A 2.35 2.17 -89.7 0 0 105.16 209.69
  L 105.17 208.57
  A 0.55 0.55 0.0 0 0 104.62 208.01
  Z"
/>
<path fill="#fcfff7" d="
  M 161.52 213.01
  L 157.33 212.81
  Q 156.35 212.76 156.45 211.79
  L 156.51 211.30
  Q 156.63 210.11 157.83 210.13
  L 161.65 210.17
  A 0.59 0.59 0.0 0 0 162.25 209.61
  L 162.56 203.03
  A 0.82 0.82 0.0 0 1 163.40 202.24
  L 163.94 202.25
  Q 164.99 202.27 165.03 203.31
  L 165.28 209.64
  A 0.60 0.59 -1.5 0 0 165.89 210.21
  L 169.06 210.12
  Q 170.13 210.09 170.13 211.15
  L 170.13 211.64
  Q 170.13 213.02 168.74 213.00
  L 166.33 212.96
  A 1.47 1.46 72.4 0 0 165.13 215.29
  L 170.11 222.12
  A 1.80 1.79 -47.4 0 1 170.19 224.12
  L 169.97 224.48
  A 0.85 0.84 -44.1 0 1 168.51 224.46
  L 166.36 220.65
  Q 165.12 218.44 165.13 220.97
  L 165.21 237.36
  Q 165.21 238.44 164.14 238.47
  L 163.51 238.49
  Q 162.49 238.53 162.48 237.51
  L 162.28 222.75
  Q 162.23 218.65 160.80 222.49
  Q 159.74 225.36 157.99 227.95
  Q 157.43 228.78 156.77 228.03
  L 156.43 227.64
  A 1.47 1.46 41.0 0 1 156.30 225.87
  Q 160.03 220.20 162.01 213.70
  A 0.54 0.54 0.0 0 0 161.52 213.01
  Z"
/>
<path fill="#fcfff7" d="
  M 85.94 220.22
  L 86.05 237.19
  Q 86.06 238.40 84.84 238.42
  L 84.36 238.43
  A 1.06 1.06 0.0 0 1 83.29 237.37
  L 83.25 222.26
  Q 83.25 219.64 82.16 222.03
  L 79.48 227.90
  A 0.67 0.67 0.0 0 1 78.30 227.97
  L 77.84 227.22
  A 1.90 1.89 -44.4 0 1 77.87 225.19
  Q 81.28 219.98 82.78 213.94
  A 0.99 0.98 -86.7 0 0 81.70 212.72
  L 79.75 212.98
  A 0.84 0.84 0.0 0 1 78.80 212.21
  L 78.74 211.30
  A 0.97 0.97 0.0 0 1 79.70 210.26
  L 82.64 210.21
  Q 83.26 210.20 83.26 209.58
  L 83.26 204.01
  Q 83.26 202.65 84.61 202.53
  L 84.91 202.50
  A 1.01 1.00 -2.7 0 1 86.00 203.49
  L 86.03 209.61
  A 0.67 0.67 0.0 0 0 86.88 210.25
  Q 88.32 209.85 88.89 210.27
  Q 92.18 212.71 88.25 212.93
  L 87.17 213.00
  A 1.42 1.42 0.0 0 0 86.09 215.23
  L 90.34 221.36
  A 1.67 1.66 -44.9 0 1 90.33 223.28
  L 90.11 223.59
  A 0.58 0.58 0.0 0 1 89.18 223.61
  Q 88.40 222.61 87.09 220.42
  Q 86.84 219.99 86.31 219.90
  Q 85.93 219.84 85.94 220.22
  Z"
/>
<path fill="#fcfff7" d="
  M 185.49 203.77
  C 187.00 209.04 188.71 213.02 191.44 217.79
  A 1.98 1.97 47.4 0 1 191.36 219.89
  L 191.07 220.30
  A 0.70 0.69 43.9 0 1 189.94 220.32
  Q 184.64 213.24 183.19 204.49
  A 1.09 1.09 0.0 0 1 183.96 203.27
  L 184.37 203.15
  Q 185.24 202.90 185.49 203.77
  Z"
/>
<path fill="#fcfff7" d="
  M 170.41 220.01
  A 0.44 0.44 0.0 0 1 170.15 219.44
  L 170.24 219.21
  A 17.26 0.44 -69.0 0 1 176.84 203.26
  L 178.85 204.03
  A 17.26 0.44 -69.0 0 1 173.08 220.30
  L 172.99 220.53
  A 0.44 0.44 0.0 0 1 172.42 220.78
  L 170.41 220.01
  Z"
/>
<path fill="#fcfff7" d="
  M 142.05 207.00
  L 122.76 206.96
  A 0.98 0.98 0.0 0 1 121.78 206.01
  L 121.77 205.51
  Q 121.75 204.26 122.99 204.26
  L 147.03 204.20
  A 0.76 0.75 85.5 0 1 147.77 204.84
  Q 148.09 207.03 146.41 208.45
  Q 142.99 211.31 139.23 213.74
  C 137.06 215.15 136.88 216.37 137.29 218.79
  A 0.72 0.72 0.0 0 0 138.01 219.39
  L 150.97 219.29
  Q 151.91 219.28 151.95 220.22
  L 151.98 221.02
  A 1.00 0.99 -1.1 0 1 150.98 222.05
  L 137.96 222.04
  A 0.73 0.72 90.0 0 0 137.24 222.77
  Q 137.27 228.54 137.15 234.25
  C 137.04 239.32 131.04 238.48 127.53 238.12
  Q 126.33 238.00 126.26 236.79
  L 126.24 236.51
  A 0.83 0.83 0.0 0 1 127.08 235.63
  L 132.39 235.68
  A 1.81 1.81 0.0 0 0 134.22 233.87
  L 134.28 222.91
  A 0.87 0.86 -0.0 0 0 133.41 222.05
  L 118.78 222.09
  Q 117.72 222.09 117.79 221.03
  L 117.84 220.32
  A 1.15 1.14 -87.8 0 1 118.98 219.26
  L 133.58 219.32
  Q 134.23 219.33 134.23 218.67
  L 134.25 215.34
  A 2.76 2.74 73.1 0 1 135.44 213.09
  L 142.45 208.28
  Q 144.30 207.01 142.05 207.00
  Z"
/>
<path fill="#57ae4b" d="
  M 104.62 208.01
  A 0.55 0.55 0.0 0 1 105.17 208.57
  L 105.16 209.69
  A 2.35 2.17 -89.7 0 1 102.98 212.03
  L 100.64 212.01
  A 2.35 2.17 -89.7 0 1 98.48 209.65
  L 98.49 208.53
  A 0.55 0.55 0.0 0 1 99.04 207.99
  L 104.62 208.01
  Z"
/>
<path fill="#fcfff7" d="
  M 175.50 234.22
  A 0.22 0.21 -28.2 0 0 175.61 234.25
  L 185.24 232.82
  A 0.51 0.51 0.0 0 0 185.63 232.11
  L 182.95 225.86
  A 0.88 0.87 69.7 0 1 183.49 224.68
  L 183.91 224.55
  Q 185.08 224.19 185.55 225.31
  L 190.44 236.95
  A 0.92 0.91 -16.0 0 1 189.74 238.20
  L 188.79 238.36
  A 1.11 1.10 -11.5 0 1 187.53 237.53
  L 187.06 235.55
  Q 186.95 235.08 186.48 235.17
  C 182.72 235.91 175.36 237.93 171.81 237.22
  A 1.32 1.31 -67.9 0 1 170.97 235.22
  Q 176.30 226.91 178.74 217.28
  A 1.47 1.46 9.1 0 1 180.27 216.18
  L 180.63 216.21
  A 1.22 1.21 -79.3 0 1 181.70 217.78
  Q 179.07 226.30 175.43 233.41
  Q 175.13 233.98 175.50 234.22
  Z"
/>
<path fill="#fcfff7" d="
  M 100.49 230.68
  L 100.40 229.32
  A 0.56 0.56 0.0 0 0 99.87 228.80
  L 93.56 228.56
  A 0.56 0.56 0.0 0 1 93.02 228.01
  L 92.89 217.28
  A 0.56 0.56 0.0 0 1 93.45 216.71
  L 109.83 216.76
  A 0.56 0.56 0.0 0 1 110.39 217.32
  L 110.45 228.18
  A 0.56 0.56 0.0 0 1 109.89 228.74
  L 103.80 228.76
  A 0.56 0.56 0.0 0 0 103.24 229.34
  L 103.29 230.78
  A 0.56 0.56 0.0 0 0 103.86 231.32
  L 112.42 231.23
  A 0.56 0.56 0.0 0 1 112.99 231.75
  L 113.08 233.15
  A 0.56 0.56 0.0 0 1 112.52 233.75
  L 103.70 233.79
  A 0.56 0.56 0.0 0 0 103.14 234.34
  L 103.11 237.92
  A 0.56 0.56 0.0 0 1 102.56 238.47
  L 101.00 238.51
  A 0.56 0.56 0.0 0 1 100.43 237.94
  L 100.51 234.38
  A 0.56 0.56 0.0 0 0 99.95 233.81
  L 90.35 233.72
  A 0.56 0.56 0.0 0 1 89.79 233.17
  L 89.78 231.81
  A 0.56 0.56 0.0 0 1 90.34 231.24
  L 99.93 231.28
  A 0.56 0.56 0.0 0 0 100.49 230.68
  Z
  M 107.8807 219.9308
  A 0.79 0.79 0.0 0 0 107.0921 219.1394
  L 96.3521 219.1206
  A 0.79 0.79 0.0 0 0 95.5607 219.9092
  L 95.5593 220.7492
  A 0.79 0.79 0.0 0 0 96.3479 221.5406
  L 107.0879 221.5594
  A 0.79 0.79 0.0 0 0 107.8793 220.7708
  L 107.8807 219.9308
  Z
  M 107.9109 224.9616
  A 0.94 0.94 0.0 0 0 106.9742 224.0184
  L 96.4542 223.9816
  A 0.94 0.94 0.0 0 0 95.5109 224.9184
  L 95.5091 225.4384
  A 0.94 0.94 0.0 0 0 96.4458 226.3816
  L 106.9658 226.4184
  A 0.94 0.94 0.0 0 0 107.9091 225.4816
  L 107.9109 224.9616
  Z"
/>
<rect fill="#458c4b" x="-6.16" y="-1.21" transform="translate(101.72,220.34) rotate(0.1)" width="12.32" height="2.42" rx="0.79"/>
<rect fill="#57ae4b" x="-6.20" y="-1.20" transform="translate(101.71,225.20) rotate(0.2)" width="12.40" height="2.40" rx="0.94"/>
<path fill="#458c4b" d="
  M 248.61 249.44
  L 239.48 258.08
  A 2.57 2.57 0.0 0 0 238.70 260.28
  Q 240.02 270.12 241.16 280.50
  Q 241.32 282.01 241.25 283.02
  A 1.59 1.59 0.0 0 1 239.07 284.38
  Q 218.69 276.18 199.56 265.42
  Q 193.96 261.99 189.32 257.52
  L 194.76 249.55
  Q 194.68 249.26 194.75 249.10
  Q 194.80 248.96 195.08 248.95
  C 214.23 248.48 226.69 249.37 243.25 248.50
  Q 245.93 248.36 248.61 249.44
  Z"
/>
<path fill="#458c4b" d="
  M 74.47 249.45
  L 80.05 257.62
  L 69.22 265.73
  Q 50.86 276.04 30.51 284.29
  Q 28.49 285.10 28.01 282.99
  Q 27.86 282.36 28.08 280.76
  Q 29.38 271.12 30.58 260.02
  A 2.09 2.08 24.7 0 0 29.92 258.25
  L 20.21 249.22
  Q 23.72 248.33 30.00 249.11
  Q 33.02 249.48 38.86 249.03
  C 49.99 248.16 61.38 248.69 72.55 248.97
  Q 73.01 248.98 73.41 249.21
  Q 73.88 249.47 74.47 249.45
  Z"
/>
<path fill="#fadf88" d="
  M 194.76 249.55
  L 189.32 257.52
  Q 188.67 257.83 188.19 258.57
  Q 185.16 263.31 180.83 266.61
  L 173.74 270.52
  C 164.06 274.26 156.17 272.41 146.95 269.15
  C 144.46 268.27 141.64 267.96 139.00 267.12
  Q 137.53 266.65 131.85 267.44
  Q 131.70 267.46 131.78 267.59
  Q 131.84 267.69 131.96 267.80
  Q 132.22 268.06 131.86 268.11
  Q 127.54 268.64 123.31 269.62
  Q 119.12 270.58 114.98 271.73
  C 103.59 274.87 92.12 271.27 84.11 262.67
  Q 83.52 262.03 82.33 260.01
  Q 81.39 258.43 80.05 257.62
  L 74.47 249.45
  L 90.63 249.30
  Q 96.49 255.95 104.97 257.52
  C 115.49 259.46 124.49 252.52 134.93 252.61
  C 143.68 252.68 152.05 258.27 160.83 257.91
  Q 171.29 257.48 178.79 249.29
  Q 185.90 249.31 193.80 249.18
  Q 194.19 249.17 194.76 249.55
  Z"
/>
<path fill="#ffffff" d="
  M 90.63 249.30
  L 178.79 249.29
  Q 171.29 257.48 160.83 257.91
  C 152.05 258.27 143.68 252.68 134.93 252.61
  C 124.49 252.52 115.49 259.46 104.97 257.52
  Q 96.49 255.95 90.63 249.30
  Z"
/>
<path fill="#fcfff7" d="
  M 189.32 257.52
  Q 193.96 261.99 199.56 265.42
  Q 198.98 265.61 198.83 266.41
  Q 198.73 266.95 198.19 266.88
  Q 196.64 266.66 195.80 267.94
  Q 195.47 268.44 194.88 268.36
  Q 194.33 268.28 193.99 268.74
  Q 193.69 269.14 193.19 269.11
  Q 192.08 269.06 191.71 270.01
  Q 191.52 270.51 190.99 270.59
  Q 189.25 270.89 188.26 271.40
  Q 185.82 272.65 182.12 275.06
  Q 179.47 276.79 176.65 278.22
  Q 176.05 278.53 173.76 279.18
  C 172.38 279.57 171.25 280.59 169.98 280.85
  Q 162.45 282.38 154.75 282.24
  C 153.36 282.22 152.36 281.58 151.08 281.61
  Q 143.59 281.77 140.50 281.51
  Q 129.77 280.61 126.25 281.16
  Q 123.90 281.53 122.24 281.55
  Q 118.89 281.59 118.26 281.66
  C 113.10 282.24 108.89 281.74 103.52 280.79
  Q 101.14 280.36 98.70 279.26
  C 96.85 278.43 94.86 277.46 92.92 276.90
  Q 92.11 276.66 90.98 275.91
  Q 86.35 272.84 83.97 271.14
  C 81.52 269.40 79.03 268.42 76.42 267.08
  C 74.28 265.99 71.56 265.65 69.22 265.73
  L 80.05 257.62
  Q 81.39 258.43 82.33 260.01
  Q 83.52 262.03 84.11 262.67
  C 92.12 271.27 103.59 274.87 114.98 271.73
  Q 119.12 270.58 123.31 269.62
  Q 127.54 268.64 131.86 268.11
  Q 132.22 268.06 131.96 267.80
  Q 131.84 267.69 131.78 267.59
  Q 131.70 267.46 131.85 267.44
  Q 137.53 266.65 139.00 267.12
  C 141.64 267.96 144.46 268.27 146.95 269.15
  C 156.17 272.41 164.06 274.26 173.74 270.52
  Q 178.15 270.00 180.83 266.61
  Q 185.16 263.31 188.19 258.57
  Q 188.67 257.83 189.32 257.52
  Z"
/>
<path fill="#fde4c2" d="
  M 180.83 266.61
  Q 178.15 270.00 173.74 270.52
  L 180.83 266.61
  Z"
/>
</svg>
