<?xml version="1.0" encoding="UTF-8" standalone="no"?>
<!DOCTYPE svg PUBLIC "-//W3C//DTD SVG 1.1//EN" "http://www.w3.org/Graphics/SVG/1.1/DTD/svg11.dtd">
<svg xmlns="http://www.w3.org/2000/svg" version="1.1" viewBox="0 0 271 291">
<g stroke-width="2.00" fill="none" stroke-linecap="butt">
<path stroke="#beb69c" vector-effect="non-scaling-stroke" d="
  M 134.00 41.29
  C 132.76 40.38 120.15 33.89 126.54 41.75"
/>
<path stroke="#fcf0c4" vector-effect="non-scaling-stroke" d="
  M 126.54 41.75
  Q 126.09 43.33 124.82 42.49
  A 1.02 1.00 60.4 0 0 124.23 42.32
  L 120.25 42.46"
/>
<path stroke="#abc098" vector-effect="non-scaling-stroke" d="
  M 120.25 42.46
  C 120.45 42.09 125.64 34.91 122.66 36.13
  Q 120.63 36.97 117.25 39.79"
/>
<path stroke="#fcf0c4" vector-effect="non-scaling-stroke" d="
  M 117.25 39.79
  Q 112.95 39.67 109.14 37.61"
/>
<path stroke="#bad0a4" vector-effect="non-scaling-stroke" d="
  M 109.14 37.61
  Q 111.07 31.39 111.23 29.75
  C 111.42 27.84 110.13 28.47 109.61 29.35
  Q 107.29 33.25 105.71 37.50"
/>
<path stroke="#fcf0c4" vector-effect="non-scaling-stroke" d="
  M 105.71 37.50
  C 98.33 37.21 95.33 38.94 89.54 40.83
  A 1.03 1.00 -2.9 0 0 88.87 41.55
  L 88.68 42.37
  A 1.03 1.02 77.1 0 1 88.33 42.93
  C 86.42 44.43 84.19 45.21 82.69 47.11
  Q 76.51 54.94 70.05 62.55
  C 63.23 70.58 49.96 70.33 41.39 76.45
  Q 29.52 84.94 28.47 100.76
  C 27.71 112.21 28.27 120.47 21.55 130.72
  C 14.04 142.16 7.90 151.26 13.40 165.65
  Q 15.12 170.17 18.95 176.06
  Q 24.07 183.93 28.15 194.62"
/>
<path stroke="#acd6a5" vector-effect="non-scaling-stroke" d="
  M 28.15 194.62
  C 20.11 194.96 3.70 192.30 5.25 206.01
  Q 6.00 212.70 10.77 240.53
  Q 12.11 248.39 19.50 249.41"
/>
<path stroke="#a1c5a5" vector-effect="non-scaling-stroke" d="
  M 19.50 249.41
  L 28.93 258.70
  A 0.98 0.98 0.0 0 1 29.23 259.53
  Q 28.01 269.39 26.90 279.27
  Q 26.58 282.07 26.87 283.56
  A 1.00 1.00 0.0 0 0 28.24 284.29
  Q 44.88 277.44 60.79 269.29
  Q 70.80 264.16 77.98 257.85"
/>
<path stroke="#fcf0c4" vector-effect="non-scaling-stroke" d="
  M 77.98 257.85
  Q 81.34 261.29 84.99 264.86
  C 86.29 266.14 86.52 267.77 89.11 267.45
  A 0.98 0.93 -31.9 0 1 89.75 267.58
  Q 93.98 270.15 98.89 270.92
  A 1.00 0.99 -6.4 0 1 99.65 271.52
  C 100.09 272.55 104.21 272.27 105.62 272.66
  C 110.09 273.89 117.55 272.69 122.20 271.63
  C 132.04 269.41 138.91 270.06 149.10 272.36
  C 151.89 272.99 154.82 272.58 157.81 273.18
  C 165.69 274.76 176.81 270.92 181.72 264.25
  Q 185.08 259.68 187.96 258.36"
/>
<path stroke="#a1c5a5" vector-effect="non-scaling-stroke" d="
  M 187.96 258.36
  C 201.80 269.76 220.76 277.43 237.28 284.26
  A 1.00 1.00 0.0 0 0 238.65 283.53
  Q 238.96 281.94 238.64 279.07
  Q 237.57 269.39 236.34 259.52
  A 1.00 0.98 64.7 0 1 236.63 258.69
  L 245.78 249.53"
/>
<path stroke="#acd6a5" vector-effect="non-scaling-stroke" d="
  M 245.78 249.53
  Q 248.16 249.18 250.79 249.25
  C 256.49 249.38 260.17 246.71 261.13 240.81
  Q 263.85 224.11 266.32 207.36
  C 267.80 197.33 263.15 194.96 253.74 195.04
  Q 246.23 195.11 238.71 194.75"
/>
<path stroke="#fcf0c4" vector-effect="non-scaling-stroke" d="
  M 238.71 194.75
  C 240.25 183.58 249.41 175.56 252.90 164.86
  C 255.20 157.83 255.18 151.33 252.59 144.60
  C 249.33 136.11 241.43 130.51 238.89 121.64
  C 237.11 115.40 237.43 108.64 237.21 102.20
  Q 236.35 77.50 212.85 71.39
  C 205.62 69.52 199.16 66.51 194.18 60.83
  Q 191.25 57.49 187.83 54.54"
/>
<path stroke="#abc098" vector-effect="non-scaling-stroke" d="
  M 187.83 54.54
  L 189.54 52.75"
/>
<path stroke="#bad0a4" vector-effect="non-scaling-stroke" d="
  M 189.54 52.75
  Q 190.64 51.81 190.56 50.37
  A 0.98 0.96 -29.3 0 1 190.74 49.75
  C 190.79 49.67 194.12 45.02 191.49 46.51
  Q 185.94 49.65 181.02 50.43"
/>
<path stroke="#abc098" vector-effect="non-scaling-stroke" d="
  M 181.02 50.43
  Q 184.62 47.06 187.53 43.22
  Q 191.51 37.96 186.15 41.80
  Q 180.71 45.71 175.60 51.00"
/>
<path stroke="#bad0a4" vector-effect="non-scaling-stroke" d="
  M 175.60 51.00
  Q 176.46 48.02 179.20 46.34
  A 1.00 0.94 -5.2 0 0 179.58 45.91
  L 183.31 38.09
  A 0.79 0.79 0.0 0 0 183.20 37.24
  C 182.41 36.28 178.61 41.12 178.00 41.79"
/>
<path stroke="#fcf0c4" vector-effect="non-scaling-stroke" d="
  M 178.00 41.79
  Q 175.30 42.33 173.29 40.50"
/>
<path stroke="#bad0a4" vector-effect="non-scaling-stroke" d="
  M 173.29 40.50
  L 173.25 37.18
  A 0.66 0.65 18.0 0 0 172.99 36.68
  C 172.21 36.09 171.29 38.43 171.04 38.92"
/>
<path stroke="#fcf0c4" vector-effect="non-scaling-stroke" d="
  M 171.04 38.92
  Q 161.69 36.79 152.27 38.54
  A 1.04 1.04 0.0 0 0 151.70 38.87
  Q 150.35 40.41 148.42 40.51
  A 1.01 1.00 -89.5 0 1 147.38 39.44
  Q 147.47 37.95 146.04 37.50"
/>
<path stroke="#f1d2a5" vector-effect="non-scaling-stroke" d="
  M 146.04 37.50
  C 144.11 33.58 143.11 37.98 141.29 37.50"
/>
<path stroke="#cdc6a8" vector-effect="non-scaling-stroke" d="
  M 141.29 37.50
  C 137.45 28.49 147.39 27.76 150.75 22.73
  Q 152.77 19.71 148.79 20.84
  Q 143.92 22.22 141.73 27.12
  C 141.37 27.94 139.77 30.05 139.65 27.27
  C 139.45 22.35 139.88 17.25 138.90 12.45
  Q 138.73 11.62 138.55 10.78
  Q 137.35 5.19 137.28 10.91
  Q 137.24 14.71 137.72 18.50
  C 137.88 19.73 137.33 19.79 136.99 18.90
  Q 134.35 11.84 127.26 10.96
  Q 126.02 10.81 126.00 11.86
  A 1.02 1.00 -66.8 0 0 126.27 12.55
  Q 130.96 17.66 137.14 20.95
  A 1.00 1.00 0.0 0 1 137.67 21.80
  Q 137.99 29.89 135.83 37.61
  Q 135.78 37.81 135.81 38.02
  L 136.14 40.33
  A 1.00 1.00 0.0 0 1 134.98 41.46
  L 134.00 41.29"
/>
<path stroke="#be994e" vector-effect="non-scaling-stroke" d="
  M 141.29 37.50
  L 140.88 41.12
  A 1.00 1.00 0.0 0 0 141.89 42.23
  L 142.63 42.22"
/>
<path stroke="#cab76d" vector-effect="non-scaling-stroke" d="
  M 142.63 42.22
  Q 140.54 43.78 140.71 46.75"
/>
<path stroke="#8b7d45" vector-effect="non-scaling-stroke" d="
  M 140.71 46.75
  Q 139.55 46.33 138.94 46.97
  A 1.01 1.00 -48.2 0 1 137.57 47.05
  Q 134.91 44.81 134.00 41.29"
/>
<path stroke="#beb69c" vector-effect="non-scaling-stroke" d="
  M 152.90 52.49
  Q 147.76 57.07 141.84 60.20
  A 1.00 1.00 0.0 0 0 141.30 61.09
  Q 141.31 66.37 140.04 71.50"
/>
<path stroke="#af8942" vector-effect="non-scaling-stroke" d="
  M 140.04 71.50
  Q 137.58 73.40 135.20 72.23"
/>
<path stroke="#beb69c" vector-effect="non-scaling-stroke" d="
  M 135.20 72.23
  Q 137.89 65.88 137.54 58.75"
/>
<path stroke="#bba761" vector-effect="non-scaling-stroke" d="
  M 137.54 58.75
  Q 139.37 54.29 137.33 50.09
  A 1.11 1.05 3.1 0 0 136.92 49.66
  Q 131.19 46.39 126.54 41.75"
/>
<path stroke="#eec26a" vector-effect="non-scaling-stroke" d="
  M 146.04 37.50
  Q 146.13 41.12 142.63 42.22"
/>
<path stroke="#a8b15d" vector-effect="non-scaling-stroke" d="
  M 168.89 55.31
  Q 167.14 58.51 164.50 61.04"
/>
<path stroke="#eec26a" vector-effect="non-scaling-stroke" d="
  M 164.50 61.04
  Q 162.20 58.76 164.75 56.71"
/>
<path stroke="#a8b15d" vector-effect="non-scaling-stroke" d="
  M 164.75 56.71
  C 169.10 57.97 164.63 49.06 163.77 47.29
  A 1.01 0.99 42.7 0 1 163.73 46.50
  L 163.93 45.96
  Q 164.44 44.59 163.01 44.89
  L 161.00 45.32
  A 1.01 1.00 -13.2 0 0 160.23 46.55
  L 161.79 52.50"
/>
<path stroke="#eec26a" vector-effect="non-scaling-stroke" d="
  M 161.79 52.50
  L 161.54 53.25"
/>
<path stroke="#fcf0c4" vector-effect="non-scaling-stroke" d="
  M 161.54 53.25
  C 160.38 51.09 159.11 52.24 157.58 52.24
  Q 155.29 52.23 152.90 52.49"
/>
<path stroke="#bba761" vector-effect="non-scaling-stroke" d="
  M 152.90 52.49
  L 141.94 57.38
  A 1.00 0.99 78.5 0 1 140.54 56.45
  L 140.71 46.75"
/>
<path stroke="#f1d2a5" vector-effect="non-scaling-stroke" d="
  M 161.54 53.25
  L 161.62 59.44
  A 0.99 0.99 0.0 0 1 160.89 60.41
  L 158.93 60.95
  A 1.01 1.01 0.0 0 0 158.30 61.47
  Q 158.06 61.96 158.01 62.52
  A 1.00 0.99 87.3 0 1 157.21 63.41
  L 155.33 63.79
  A 1.02 1.00 1.3 0 0 154.56 64.51
  L 153.77 67.41
  A 1.01 1.01 0.0 0 1 153.25 68.04
  C 150.46 69.42 151.31 72.26 151.54 74.75"
/>
<path stroke="#f1d2a5" vector-effect="non-scaling-stroke" d="
  M 149.75 76.79
  Q 147.22 76.30 147.53 74.16
  Q 148.51 67.35 149.00 60.50
  C 149.18 57.97 148.14 59.28 147.87 60.15
  Q 145.84 66.73 146.02 73.70
  Q 146.07 75.66 144.45 74.55
  L 140.04 71.50"
/>
<path stroke="#fcf0c4" vector-effect="non-scaling-stroke" d="
  M 137.54 58.75
  Q 137.82 57.33 136.76 57.21
  Q 124.51 55.86 115.49 53.59"
/>
<path stroke="#eec26a" vector-effect="non-scaling-stroke" d="
  M 115.49 53.59
  Q 114.57 53.81 114.71 52.75"
/>
<path stroke="#f1d2a5" vector-effect="non-scaling-stroke" d="
  M 161.29 72.25
  L 158.61 77.77
  A 1.03 1.01 0.6 0 1 158.12 78.24
  L 155.84 79.26
  A 1.00 1.00 0.0 0 0 155.25 80.23
  Q 155.39 82.61 153.30 83.48
  A 0.97 0.97 0.0 0 0 152.73 84.09
  Q 151.54 87.79 148.53 90.61
  Q 146.66 92.36 143.24 90.79"
/>
<path stroke="#b17e38" vector-effect="non-scaling-stroke" d="
  M 143.24 90.79
  Q 143.97 88.64 143.65 86.22
  A 1.00 1.00 0.0 0 0 142.31 85.42
  L 141.66 85.66"
/>
<path stroke="#edc080" vector-effect="non-scaling-stroke" d="
  M 141.66 85.66
  L 145.18 78.38
  A 0.40 0.40 0.0 0 0 144.88 77.80
  L 144.58 77.75
  A 0.82 0.80 20.5 0 0 143.79 78.10
  Q 142.36 80.29 139.47 79.83"
/>
<path stroke="#b17e38" vector-effect="non-scaling-stroke" d="
  M 139.47 79.83
  Q 138.48 78.78 137.36 78.37"
/>
<path stroke="#f1d2a5" vector-effect="non-scaling-stroke" d="
  M 135.20 72.23
  C 132.84 74.61 136.32 76.41 137.36 78.37"
/>
<path stroke="#c0ac92" vector-effect="non-scaling-stroke" d="
  M 137.36 78.37
  Q 136.13 79.04 135.38 77.63
  A 1.10 1.07 88.6 0 0 134.93 77.19
  L 130.25 74.96"
/>
<path stroke="#9c933e" vector-effect="non-scaling-stroke" d="
  M 164.75 56.71
  Q 163.69 54.29 161.79 52.50"
/>
<path stroke="#66913d" vector-effect="non-scaling-stroke" d="
  M 181.02 50.43
  Q 175.96 52.60 171.71 56.15
  Q 169.10 58.34 172.48 57.91
  Q 173.36 57.80 174.24 57.44
  Q 178.33 55.76 182.71 55.62
  A 0.99 0.96 -63.1 0 0 183.24 55.44
  C 184.08 54.87 189.10 50.80 189.54 52.75"
/>
<path stroke="#a8b15d" vector-effect="non-scaling-stroke" d="
  M 187.83 54.54
  Q 182.72 58.72 179.45 58.94
  C 176.82 59.12 168.48 59.35 167.96 61.25"
/>
<path stroke="#66913d" vector-effect="non-scaling-stroke" d="
  M 167.96 61.25
  L 166.50 62.71"
/>
<path stroke="#9c933e" vector-effect="non-scaling-stroke" d="
  M 166.50 62.71
  Q 164.27 64.18 163.00 66.46"
/>
<path stroke="#abc098" vector-effect="non-scaling-stroke" d="
  M 163.00 66.46
  L 161.13 68.11
  A 1.01 1.00 39.8 0 0 161.28 69.72
  Q 163.84 71.28 166.47 72.78
  C 168.82 74.12 171.59 80.02 175.52 83.54
  Q 176.29 84.23 177.08 84.93
  Q 178.75 86.41 176.54 86.67
  Q 175.54 86.79 174.72 86.27
  Q 168.96 82.65 164.83 75.30
  C 164.01 73.84 162.71 72.93 161.29 72.25"
/>
<path stroke="#9c933e" vector-effect="non-scaling-stroke" d="
  M 161.29 72.25
  L 160.29 70.51
  A 1.00 1.00 0.0 0 0 158.70 70.32
  Q 153.94 75.31 150.75 81.41
  A 0.34 0.33 -58.4 0 1 150.26 81.53
  L 149.98 81.32
  A 0.80 0.79 -59.7 0 1 149.73 80.35
  Q 150.50 78.65 149.75 76.79"
/>
<path stroke="#abc098" vector-effect="non-scaling-stroke" d="
  M 149.75 76.79
  L 151.54 74.75"
/>
<path stroke="#9c933e" vector-effect="non-scaling-stroke" d="
  M 151.54 74.75
  C 153.63 75.04 154.50 74.11 154.99 72.11
  C 156.05 67.76 159.97 67.23 162.41 64.47
  A 0.98 0.97 -25.7 0 0 162.66 63.77
  Q 162.59 61.84 164.50 61.04"
/>
<path stroke="#a8b15d" vector-effect="non-scaling-stroke" d="
  M 169.75 54.96
  L 173.25 52.46"
/>
<path stroke="#b7c169" vector-effect="non-scaling-stroke" d="
  M 173.29 40.50
  Q 172.15 47.88 169.75 54.96"
/>
<path stroke="#66913d" vector-effect="non-scaling-stroke" d="
  M 169.75 54.96
  L 168.89 55.31"
/>
<path stroke="#b7c169" vector-effect="non-scaling-stroke" d="
  M 168.89 55.31
  Q 168.25 46.98 171.04 38.92"
/>
<path stroke="#a8b15d" vector-effect="non-scaling-stroke" d="
  M 120.25 42.46
  Q 117.01 47.34 114.71 52.75"
/>
<path stroke="#9c933e" vector-effect="non-scaling-stroke" d="
  M 114.71 52.75
  L 113.29 53.25"
/>
<path stroke="#a8b15d" vector-effect="non-scaling-stroke" d="
  M 113.29 53.25
  Q 112.25 45.59 117.25 39.79"
/>
<path stroke="#f1d2a5" vector-effect="non-scaling-stroke" d="
  M 115.49 53.59
  L 116.35 59.05
  Q 116.54 60.23 117.42 59.42
  Q 117.92 58.97 117.96 58.07
  A 1.00 0.98 72.5 0 1 118.34 57.33
  C 119.71 56.25 120.36 57.67 120.56 58.82
  Q 120.67 59.46 120.82 60.08
  A 0.99 0.99 0.0 0 0 122.08 60.80
  Q 126.08 59.56 124.73 64.72
  C 124.50 65.61 125.18 66.31 125.76 65.27
  Q 127.49 62.11 129.08 58.88
  C 129.38 58.25 130.55 57.75 130.27 59.02
  Q 129.15 64.02 128.88 67.03
  A 1.00 0.99 -84.6 0 0 129.78 68.12
  Q 136.48 68.74 130.62 73.45
  Q 129.78 74.13 130.25 74.96"
/>
<path stroke="#b17e38" vector-effect="non-scaling-stroke" d="
  M 130.25 74.96
  Q 128.04 75.67 129.42 79.49
  A 1.00 0.98 81.9 0 0 130.29 80.15
  L 133.39 80.37
  A 1.00 1.00 0.0 0 1 134.31 81.20
  C 134.71 83.63 136.64 86.26 135.79 89.00"
/>
<path stroke="#f1d2a5" vector-effect="non-scaling-stroke" d="
  M 135.79 89.00
  L 132.87 89.22
  A 1.00 0.97 -23.9 0 1 132.08 88.93
  L 128.22 85.00
  A 0.99 0.97 -71.2 0 1 127.94 84.42
  Q 127.80 83.29 128.91 82.67
  A 1.02 1.00 86.1 0 0 129.36 82.14
  C 131.19 77.13 123.69 84.36 123.54 77.69
  A 1.01 1.01 0.0 0 0 122.40 76.72
  Q 118.56 77.25 119.70 73.24
  A 1.01 1.00 -82.1 0 0 118.74 71.96
  Q 112.39 71.97 105.96 73.35
  Q 103.84 73.81 104.74 72.46
  C 106.30 70.11 113.30 70.34 113.26 67.67
  A 1.05 1.02 21.5 0 0 112.93 66.94
  Q 110.80 65.03 112.14 61.21"
/>
<path stroke="#aca34a" vector-effect="non-scaling-stroke" d="
  M 112.14 61.21
  C 112.95 62.30 113.70 64.15 114.82 64.69
  Q 115.51 65.02 116.24 65.15
  Q 118.63 65.55 117.22 63.58
  Q 114.47 59.74 109.91 58.46"
/>
<path stroke="#bad0a4" vector-effect="non-scaling-stroke" d="
  M 236.00 143.96
  Q 228.76 148.76 225.44 156.76
  A 1.02 1.01 -75.8 0 1 224.43 157.37
  Q 204.46 155.69 194.87 173.25"
/>
<path stroke="#e9dacb" vector-effect="non-scaling-stroke" d="
  M 194.87 173.25
  Q 174.94 170.04 154.72 167.08
  C 150.03 166.39 144.08 166.14 138.79 165.25"
/>
<path stroke="#c0ac92" vector-effect="non-scaling-stroke" d="
  M 138.79 165.25
  Q 138.35 157.31 139.27 149.43
  A 0.99 0.97 72.7 0 1 139.59 148.80
  Q 141.52 147.04 144.47 145.98"
/>
<path stroke="#f1d2a5" vector-effect="non-scaling-stroke" d="
  M 144.47 145.98
  Q 143.99 150.58 148.07 150.40
  A 1.01 1.01 0.0 0 0 148.83 149.98
  C 150.29 147.98 152.38 147.80 153.86 146.34
  Q 156.36 143.87 157.63 140.65
  A 1.00 1.00 0.0 0 1 158.40 140.03
  Q 161.30 139.57 162.00 136.46"
/>
<path stroke="#abc098" vector-effect="non-scaling-stroke" d="
  M 162.00 136.46
  Q 169.80 142.31 179.32 140.50
  C 180.03 140.37 181.39 139.06 179.51 138.96
  Q 170.45 138.48 162.71 133.75"
/>
<path stroke="#f1d2a5" vector-effect="non-scaling-stroke" d="
  M 162.71 133.75
  Q 161.99 130.01 165.48 130.19
  Q 174.12 130.65 182.74 130.57
  C 185.24 130.55 184.35 129.36 183.06 129.02
  Q 172.71 126.29 162.01 129.48
  Q 160.06 130.06 160.54 128.00"
/>
<path stroke="#abc098" vector-effect="non-scaling-stroke" d="
  M 160.54 128.00
  C 170.17 123.52 176.17 120.92 179.04 111.53
  C 179.34 110.53 179.10 109.68 177.99 110.99
  Q 174.77 114.79 171.73 118.71
  Q 171.63 118.83 171.38 118.97
  Q 170.11 119.67 170.96 118.49
  Q 174.26 113.92 176.69 108.80
  C 177.18 107.77 177.33 104.84 175.22 107.24
  Q 168.52 114.89 163.78 123.89"
/>
<path stroke="#fbfff8" vector-effect="non-scaling-stroke" d="
  M 163.78 123.89
  L 162.96 123.25"
/>
<path stroke="#bad0a4" vector-effect="non-scaling-stroke" d="
  M 162.96 123.25
  L 168.88 110.34
  A 0.98 0.95 52.9 0 0 168.95 109.75
  Q 168.62 107.87 169.15 106.01
  Q 169.82 103.69 168.27 105.53
  Q 167.77 106.12 167.56 106.93
  A 1.01 1.01 0.0 0 1 166.23 107.60
  L 161.65 105.85
  Q 159.41 104.99 161.71 104.33
  L 163.10 103.93
  A 1.00 1.00 0.0 0 0 163.81 103.11
  C 164.32 99.58 158.98 100.41 157.46 103.43"
/>
<path stroke="#f1d2a5" vector-effect="non-scaling-stroke" d="
  M 157.46 103.43
  L 155.99 101.18
  A 1.00 0.99 66.2 0 0 154.92 100.76
  L 146.64 102.75
  A 0.99 0.97 7.5 0 0 146.00 103.23
  Q 144.45 106.03 141.50 106.79"
/>
<path stroke="#c0ac92" vector-effect="non-scaling-stroke" d="
  M 141.50 106.79
  Q 138.74 98.32 143.24 90.79"
/>
<path stroke="#bc9a6d" vector-effect="non-scaling-stroke" d="
  M 139.47 79.83
  Q 139.20 83.78 141.66 85.66"
/>
<path stroke="#b17e38" vector-effect="non-scaling-stroke" d="
  M 141.50 106.79
  L 146.23 108.13
  A 1.01 1.01 0.0 0 0 147.26 107.82
  L 148.69 106.19
  Q 148.84 106.02 149.06 105.93
  C 150.04 105.52 156.59 104.86 155.70 107.11
  A 0.52 0.51 -71.5 0 1 155.09 107.42
  Q 151.33 106.41 149.88 109.57
  A 1.02 1.01 -75.9 0 1 148.92 110.15
  L 145.46 110.00
  A 1.03 0.98 -59.4 0 0 144.83 110.18
  L 141.17 112.82"
/>
<path stroke="#c0ac92" vector-effect="non-scaling-stroke" d="
  M 141.17 112.82
  Q 137.96 126.20 140.36 139.72
  A 0.80 0.78 11.1 0 0 140.74 140.27
  Q 141.38 140.65 142.00 140.21"
/>
<path stroke="#b17e38" vector-effect="non-scaling-stroke" d="
  M 142.00 140.21
  Q 145.09 139.49 148.06 140.29
  A 1.01 1.01 0.0 0 0 149.09 139.96
  Q 152.41 135.96 155.42 131.60
  C 157.61 128.43 158.40 132.03 156.64 133.63
  Q 152.90 137.04 150.07 141.42
  A 1.03 0.96 -84.5 0 1 149.65 141.79
  Q 146.32 143.30 144.47 145.98"
/>
<path stroke="#a9865e" vector-effect="non-scaling-stroke" d="
  M 138.79 165.25
  L 139.81 184.05"
/>
<path stroke="#bc9a6d" vector-effect="non-scaling-stroke" d="
  M 139.81 184.05
  L 141.01 194.98"
/>
<path stroke="#6d8338" vector-effect="non-scaling-stroke" d="
  M 141.01 194.98
  Q 135.14 195.77 129.25 194.79"
/>
<path stroke="#b39167" vector-effect="non-scaling-stroke" d="
  M 129.25 194.79
  Q 132.26 190.53 131.71 185.25"
/>
<path stroke="#a9865e" vector-effect="non-scaling-stroke" d="
  M 131.71 185.25
  L 132.12 164.45"
/>
<path stroke="#c0ac92" vector-effect="non-scaling-stroke" d="
  M 132.12 164.45
  Q 132.98 156.97 126.68 153.91
  A 1.00 1.00 0.0 0 0 125.25 154.77
  L 125.15 156.81
  A 0.99 0.99 0.0 0 1 124.79 157.53
  Q 122.63 159.32 121.97 156.80"
/>
<path stroke="#b17e38" vector-effect="non-scaling-stroke" d="
  M 121.97 156.80
  Q 123.98 151.67 118.13 151.58
  A 1.05 1.02 68.5 0 1 117.40 151.25
  C 114.63 148.17 121.12 146.65 122.54 150.32
  A 1.01 1.00 79.5 0 0 123.46 150.96
  Q 125.89 151.01 127.93 152.38
  A 1.03 1.00 52.1 0 0 128.82 152.50
  Q 130.17 152.03 131.04 151.00"
/>
<path stroke="#b17e38" vector-effect="non-scaling-stroke" d="
  M 134.46 117.25
  C 134.07 114.08 136.41 112.82 134.96 109.75"
/>
<path stroke="#bad0a4" vector-effect="non-scaling-stroke" d="
  M 183.85 69.43
  C 179.09 66.86 173.76 63.51 168.25 63.04"
/>
<path stroke="#aca34a" vector-effect="non-scaling-stroke" d="
  M 168.25 63.04
  L 166.50 62.71"
/>
<path stroke="#a9c76a" vector-effect="non-scaling-stroke" d="
  M 238.71 194.75
  Q 221.10 195.33 203.50 194.46"
/>
<path stroke="#f9de9f" vector-effect="non-scaling-stroke" d="
  M 203.50 194.46
  L 221.73 193.77
  A 1.00 0.99 -83.9 0 0 222.67 193.01
  C 223.28 190.40 225.32 188.84 226.17 186.60
  Q 227.67 182.63 229.20 178.57
  A 1.01 0.99 -88.5 0 1 229.81 177.98
  Q 232.33 177.10 231.46 174.50"
/>
<path stroke="#b7c169" vector-effect="non-scaling-stroke" d="
  M 231.46 174.50
  C 238.30 165.22 242.12 156.33 237.70 145.35
  C 237.37 144.53 236.82 144.12 236.00 143.96"
/>
<path stroke="#fcf0c4" vector-effect="non-scaling-stroke" d="
  M 236.00 143.96
  C 236.14 142.67 236.05 141.66 235.19 140.58
  C 226.23 129.30 224.33 122.06 224.14 107.44
  C 224.00 96.46 217.46 87.98 207.94 83.04
  C 204.39 81.20 198.69 80.71 194.64 78.37
  Q 188.52 74.84 183.85 69.43"
/>
<path stroke="#b7c169" vector-effect="non-scaling-stroke" d="
  M 183.85 69.43
  L 186.50 69.37
  Q 189.29 69.30 186.89 67.88
  Q 181.39 64.62 175.40 62.42
  Q 171.95 61.15 168.37 61.75
  A 0.34 0.31 54.3 0 1 168.14 61.70
  Q 167.90 61.54 167.96 61.25"
/>
<path stroke="#66913d" vector-effect="non-scaling-stroke" d="
  M 175.60 51.00
  Q 174.84 52.24 173.25 52.46"
/>
<path stroke="#b7c169" vector-effect="non-scaling-stroke" d="
  M 173.25 52.46
  Q 173.97 46.39 178.00 41.79"
/>
<path stroke="#f1d2a5" vector-effect="non-scaling-stroke" d="
  M 168.25 63.04
  Q 168.09 63.21 168.03 63.43
  A 0.66 0.65 36.1 0 0 168.11 63.92
  Q 169.68 66.49 167.00 67.96
  A 1.00 0.98 43.2 0 1 166.08 67.98
  L 163.00 66.46"
/>
<path stroke="#eec26a" vector-effect="non-scaling-stroke" d="
  M 113.29 53.25
  Q 113.11 53.62 112.77 53.75
  A 0.63 0.63 0.0 0 0 112.36 54.37
  Q 112.49 56.98 110.04 55.50"
/>
<path stroke="#a8b15d" vector-effect="non-scaling-stroke" d="
  M 110.04 55.50
  L 109.21 54.25"
/>
<path stroke="#bad0a4" vector-effect="non-scaling-stroke" d="
  M 112.14 61.21
  Q 100.31 59.40 88.54 60.50"
/>
<path stroke="#c0ac92" vector-effect="non-scaling-stroke" d="
  M 135.79 89.00
  C 135.78 94.07 136.87 105.53 134.96 109.75"
/>
<path stroke="#f1d2a5" vector-effect="non-scaling-stroke" d="
  M 134.96 109.75
  L 133.76 111.51
  A 1.02 0.99 -82.2 0 1 133.29 111.88
  C 131.33 112.63 130.90 111.28 131.16 109.66
  Q 131.64 106.64 129.37 104.62
  A 1.03 1.00 64.2 0 0 128.68 104.37
  Q 125.59 104.44 126.04 107.50
  A 1.02 1.01 61.1 0 1 125.82 108.28
  L 125.00 109.29"
/>
<path stroke="#abc098" vector-effect="non-scaling-stroke" d="
  M 125.00 109.29
  Q 123.36 108.40 122.76 106.96
  Q 119.81 99.82 117.09 95.12
  Q 115.35 92.09 112.73 89.68
  Q 111.02 88.11 111.05 90.43
  Q 111.05 90.83 111.24 91.26
  Q 113.17 95.63 115.04 100.40"
/>
<path stroke="#f1d2a5" vector-effect="non-scaling-stroke" d="
  M 115.04 100.40
  Q 112.21 99.91 110.44 97.58
  A 1.00 0.99 -27.2 0 0 109.35 97.24
  L 107.48 97.81
  A 1.01 1.00 60.8 0 1 106.43 97.51
  L 102.96 93.50"
/>
<path stroke="#abc098" vector-effect="non-scaling-stroke" d="
  M 102.96 93.50
  Q 100.36 88.27 99.26 82.51
  Q 98.85 80.38 98.04 82.39
  L 97.89 82.76
  A 1.00 1.00 0.0 0 1 96.20 83.03
  Q 96.05 82.86 95.88 82.69
  Q 94.77 81.66 95.02 83.15
  L 97.29 96.50"
/>
<path stroke="#bad0a4" vector-effect="non-scaling-stroke" d="
  M 97.29 96.50
  C 97.15 97.43 96.57 97.00 96.29 96.55
  Q 90.04 86.51 88.19 84.56
  Q 86.29 82.56 84.22 80.73
  Q 79.72 76.74 82.69 81.97
  Q 84.56 85.26 87.23 88.77
  Q 88.80 90.83 95.29 98.01
  A 1.03 1.01 72.1 0 0 95.90 98.33
  L 97.21 98.50"
/>
<path stroke="#f1d2a5" vector-effect="non-scaling-stroke" d="
  M 97.21 98.50
  L 97.71 101.00"
/>
<path stroke="#abc098" vector-effect="non-scaling-stroke" d="
  M 97.71 101.00
  L 95.50 99.96"
/>
<path stroke="#bad0a4" vector-effect="non-scaling-stroke" d="
  M 95.50 99.96
  Q 94.01 97.91 92.08 97.70"
/>
<path stroke="#abc098" vector-effect="non-scaling-stroke" d="
  M 92.08 97.70
  L 89.00 94.71"
/>
<path stroke="#bad0a4" vector-effect="non-scaling-stroke" d="
  M 89.00 94.71
  Q 82.44 88.55 73.95 85.82
  Q 69.14 84.28 72.99 87.54
  Q 78.20 91.94 84.79 94.06"
/>
<path stroke="#abc098" vector-effect="non-scaling-stroke" d="
  M 84.79 94.06
  C 83.28 93.71 65.99 89.20 66.81 91.35
  A 0.66 0.63 6.0 0 0 67.10 91.69
  Q 75.26 96.19 84.50 97.54"
/>
<path stroke="#bad0a4" vector-effect="non-scaling-stroke" d="
  M 84.50 97.54
  Q 85.13 98.25 84.25 98.27
  Q 75.88 98.42 67.47 98.55
  A 0.64 0.63 2.6 0 0 66.85 99.11
  C 66.71 100.36 69.31 100.72 70.19 100.82
  A 1.00 0.99 84.7 0 1 71.04 101.53
  L 71.46 103.00"
/>
<path stroke="#abc098" vector-effect="non-scaling-stroke" d="
  M 71.46 103.00
  C 78.78 106.67 84.62 106.03 91.85 102.92
  Q 94.62 101.72 97.71 102.00"
/>
<path stroke="#f1d2a5" vector-effect="non-scaling-stroke" d="
  M 97.71 102.00
  L 98.00 102.29"
/>
<path stroke="#bad0a4" vector-effect="non-scaling-stroke" d="
  M 98.00 102.29
  L 98.01 102.58
  A 0.52 0.52 0.0 0 1 97.75 103.03
  C 92.65 106.02 90.48 109.61 86.83 115.28
  Q 85.94 116.66 87.69 116.19
  C 90.36 115.46 95.66 107.26 98.29 104.50"
/>
<path stroke="#f1d2a5" vector-effect="non-scaling-stroke" d="
  M 98.29 104.50
  C 98.48 104.47 104.79 103.85 100.72 105.46
  A 1.00 1.00 0.0 0 0 100.11 106.63
  C 100.71 108.98 103.77 107.48 105.28 107.64
  A 0.98 0.98 0.0 0 1 106.10 108.24
  L 107.25 110.96"
/>
<path stroke="#abc098" vector-effect="non-scaling-stroke" d="
  M 107.25 110.96
  Q 100.72 113.81 93.94 115.93
  C 93.30 116.13 90.92 117.45 93.48 117.74
  C 99.81 118.45 104.50 115.48 110.18 112.99
  C 111.40 112.45 113.95 110.80 113.53 113.74
  A 1.00 1.00 0.0 0 0 114.37 114.87
  Q 118.83 115.55 120.46 112.16
  A 1.01 1.00 34.3 0 1 122.05 111.86
  Q 122.58 112.36 122.93 113.01"
/>
<path stroke="#f1d2a5" vector-effect="non-scaling-stroke" d="
  M 122.93 113.01
  Q 119.25 116.22 125.09 116.48
  A 1.02 1.01 -11.2 0 1 125.96 117.06
  C 127.71 120.86 132.15 119.62 134.46 117.25"
/>
<path stroke="#c0ac92" vector-effect="non-scaling-stroke" d="
  M 134.46 117.25
  C 134.90 126.61 135.57 143.65 131.04 151.00"
/>
<path stroke="#f1d2a5" vector-effect="non-scaling-stroke" d="
  M 131.04 151.00
  L 130.78 146.69
  A 1.01 1.00 12.9 0 0 130.25 145.86
  Q 128.19 144.79 127.40 146.36
  A 1.00 1.00 0.0 0 1 125.75 146.57
  L 123.96 144.50"
/>
<path stroke="#abc098" vector-effect="non-scaling-stroke" d="
  M 123.96 144.50
  C 123.90 140.88 123.80 134.16 122.32 134.22
  A 0.65 0.63 6.9 0 0 121.73 134.67
  Q 120.43 138.94 121.54 143.25"
/>
<path stroke="#f1d2a5" vector-effect="non-scaling-stroke" d="
  M 121.54 143.25
  Q 121.57 145.37 120.46 144.89
  A 0.98 0.97 6.9 0 1 119.88 144.16
  Q 119.50 142.13 117.69 141.71
  A 1.01 0.99 -63.9 0 0 116.67 142.07
  C 115.42 143.70 114.97 141.73 114.88 140.84
  Q 114.03 132.93 110.94 125.64
  C 110.42 124.40 109.00 123.83 109.06 126.02
  Q 109.26 132.81 112.11 139.00
  A 0.99 0.98 49.7 0 1 112.04 139.97
  Q 111.40 140.94 110.50 141.54"
/>
<path stroke="#fcf0c4" vector-effect="non-scaling-stroke" d="
  M 110.50 141.54
  L 109.29 142.50"
/>
<path stroke="#f1d2a5" vector-effect="non-scaling-stroke" d="
  M 109.29 142.50
  Q 100.76 133.23 88.73 129.60
  C 87.99 129.38 87.76 130.09 88.42 130.49
  Q 98.31 136.42 107.29 143.75"
/>
<path stroke="#abc098" vector-effect="non-scaling-stroke" d="
  M 107.29 143.75
  Q 97.34 138.70 87.00 135.51
  A 0.84 0.79 -46.6 0 0 86.46 135.54
  C 85.60 135.90 86.21 136.60 86.71 136.89
  Q 89.13 138.31 91.57 139.74
  Q 96.03 142.36 90.99 141.21
  Q 90.62 141.13 90.24 141.03
  Q 88.22 140.50 88.07 141.95
  A 1.00 0.99 -78.4 0 0 88.76 143.01
  Q 90.14 143.45 91.27 144.47"
/>
<path stroke="#bad0a4" vector-effect="non-scaling-stroke" d="
  M 91.27 144.47
  L 82.92 143.33
  A 0.24 0.21 22.5 0 0 82.74 143.39
  L 82.53 143.59
  A 0.27 0.26 -52.4 0 0 82.58 144.01
  Q 92.67 149.56 104.21 148.75"
/>
<path stroke="#f1d2a5" vector-effect="non-scaling-stroke" d="
  M 104.21 148.75
  L 108.89 150.04
  A 1.00 1.00 0.0 0 1 109.62 151.04
  L 109.54 153.25"
/>
<path stroke="#abc098" vector-effect="non-scaling-stroke" d="
  M 109.54 153.25
  Q 105.11 157.75 98.55 159.29
  Q 98.29 159.35 98.11 159.55
  Q 97.51 160.22 98.42 160.23
  C 105.65 160.30 107.98 159.93 112.82 154.44"
/>
<path stroke="#f1d2a5" vector-effect="non-scaling-stroke" d="
  M 112.82 154.44
  Q 114.33 153.32 116.09 153.64"
/>
<path stroke="#bad0a4" vector-effect="non-scaling-stroke" d="
  M 116.09 153.64
  C 114.01 155.43 115.49 161.95 115.81 164.06"
/>
<path stroke="#e9dacb" vector-effect="non-scaling-stroke" d="
  M 115.81 164.06
  Q 72.92 162.46 30.44 168.09"
/>
<path stroke="#9c933e" vector-effect="non-scaling-stroke" d="
  M 110.04 55.50
  Q 110.34 56.66 109.91 58.46"
/>
<path stroke="#66913d" vector-effect="non-scaling-stroke" d="
  M 109.91 58.46
  Q 109.02 57.14 108.03 56.66"
/>
<path stroke="#a6c091" vector-effect="non-scaling-stroke" d="
  M 108.03 56.66
  Q 105.48 53.41 102.00 51.71"
/>
<path stroke="#b6d09d" vector-effect="non-scaling-stroke" d="
  M 162.96 123.25
  Q 162.18 124.80 162.23 122.49
  Q 162.29 119.91 165.74 111.30
  A 1.00 0.99 -64.0 0 0 165.32 110.07
  Q 162.81 108.58 160.04 108.00"
/>
<path stroke="#b7bf7f" vector-effect="non-scaling-stroke" d="
  M 231.46 174.50
  L 208.75 175.46"
/>
<path stroke="#a4ab70" vector-effect="non-scaling-stroke" d="
  M 208.75 175.46
  L 196.53 174.50
  A 0.99 0.98 67.7 0 1 195.92 174.24
  L 194.87 173.25"
/>
<path stroke="#9c933e" vector-effect="non-scaling-stroke" d="
  M 160.54 128.00
  L 159.50 126.79"
/>
<path stroke="#a6c091" vector-effect="non-scaling-stroke" d="
  M 159.50 126.79
  L 163.78 123.89"
/>
<path stroke="#aca34a" vector-effect="non-scaling-stroke" d="
  M 157.46 103.43
  Q 155.47 103.85 155.96 105.32
  A 1.01 1.00 6.1 0 0 156.40 105.86
  L 160.04 108.00"
/>
<path stroke="#ecd29e" vector-effect="non-scaling-stroke" d="
  M 160.04 108.00
  L 159.21 113.00"
/>
<path stroke="#9c933e" vector-effect="non-scaling-stroke" d="
  M 159.21 113.00
  Q 157.75 109.97 156.54 113.50"
/>
<path stroke="#f1d2a5" vector-effect="non-scaling-stroke" d="
  M 156.54 113.50
  Q 156.81 112.44 156.22 111.96
  A 0.79 0.78 -34.9 0 0 155.46 111.83
  C 152.20 112.93 149.21 113.78 146.10 115.30
  C 142.96 116.83 143.69 113.29 141.17 112.82"
/>
<path stroke="#e5c8a6" vector-effect="non-scaling-stroke" d="
  M 208.75 175.46
  Q 174.04 177.65 139.81 184.05"
/>
<path stroke="#ecd29e" vector-effect="non-scaling-stroke" d="
  M 159.50 126.79
  Q 158.54 126.87 158.46 126.00"
/>
<path stroke="#a6c091" vector-effect="non-scaling-stroke" d="
  M 158.46 126.00
  Q 159.91 119.56 159.21 113.00"
/>
<path stroke="#9c933e" vector-effect="non-scaling-stroke" d="
  M 162.71 133.75
  Q 160.38 134.56 162.00 136.46"
/>
<path stroke="#4e9c4b" vector-effect="non-scaling-stroke" d="
  M 245.78 249.53
  Q 220.29 248.68 194.80 248.91
  C 194.12 248.92 193.32 249.37 192.79 249.75"
/>
<path stroke="#a9c76a" vector-effect="non-scaling-stroke" d="
  M 192.79 249.75
  L 176.25 249.29"
/>
<path stroke="#acd6a5" vector-effect="non-scaling-stroke" d="
  M 176.25 249.29
  L 90.19 249.32"
/>
<path stroke="#a9c76a" vector-effect="non-scaling-stroke" d="
  M 90.19 249.32
  L 72.90 249.55"
/>
<path stroke="#4e9c4b" vector-effect="non-scaling-stroke" d="
  M 72.90 249.55
  C 70.96 248.28 69.05 249.08 67.46 249.03
  Q 43.45 248.25 19.50 249.41"
/>
<path stroke="#e9dacb" vector-effect="non-scaling-stroke" d="
  M 132.12 164.45
  Q 131.89 164.52 131.78 164.63
  A 0.64 0.11 -46.9 0 1 131.37 164.94
  Q 125.29 165.30 119.38 163.56"
/>
<path stroke="#f1d2a5" vector-effect="non-scaling-stroke" d="
  M 156.79 126.75
  C 154.24 128.61 150.86 130.15 149.38 133.03
  A 1.07 1.03 -86.1 0 1 148.86 133.50
  L 143.14 135.77
  A 1.01 1.00 -7.3 0 0 142.52 136.56
  L 142.00 140.21"
/>
<path stroke="#9c933e" vector-effect="non-scaling-stroke" d="
  M 121.54 143.25
  Q 122.23 145.42 123.96 144.50"
/>
<path stroke="#f1d2a5" vector-effect="non-scaling-stroke" d="
  M 121.97 156.80
  Q 120.72 155.40 119.50 155.21"
/>
<path stroke="#aca34a" vector-effect="non-scaling-stroke" d="
  M 119.50 155.21
  Q 120.62 153.70 119.60 152.86
  A 0.99 0.99 0.0 0 0 118.62 152.69
  L 116.09 153.64"
/>
<path stroke="#9c933e" vector-effect="non-scaling-stroke" d="
  M 112.82 154.44
  Q 113.28 150.96 109.54 153.25"
/>
<path stroke="#aca34a" vector-effect="non-scaling-stroke" d="
  M 104.21 148.75
  L 105.75 146.04"
/>
<path stroke="#9c933e" vector-effect="non-scaling-stroke" d="
  M 105.75 146.04
  Q 106.96 145.56 107.29 143.75"
/>
<path stroke="#eec26a" vector-effect="non-scaling-stroke" d="
  M 109.29 142.50
  Q 109.37 143.67 110.15 144.32
  Q 112.65 146.40 111.13 143.52
  Q 110.63 142.59 110.50 141.54"
/>
<path stroke="#dcbf9f" vector-effect="non-scaling-stroke" d="
  M 131.71 185.25
  C 123.87 187.34 115.73 188.89 108.01 191.34
  Q 104.90 192.32 100.82 191.43
  Q 89.61 188.96 73.34 187.15
  C 64.00 186.10 51.54 184.25 40.29 184.25"
/>
<path stroke="#a9c580" vector-effect="non-scaling-stroke" d="
  M 203.50 194.46
  L 200.25 194.46"
/>
<path stroke="#e5c8a6" vector-effect="non-scaling-stroke" d="
  M 200.25 194.46
  Q 190.10 193.43 180.00 194.71"
/>
<path stroke="#a9c580" vector-effect="non-scaling-stroke" d="
  M 180.00 194.71
  L 141.01 194.98"
/>
<path stroke="#a0bb7a" vector-effect="non-scaling-stroke" d="
  M 129.25 194.79
  Q 121.06 195.42 112.85 195.26
  C 109.98 195.20 106.65 196.00 103.48 195.73
  Q 98.56 195.32 98.49 195.31
  Q 69.38 194.52 40.25 194.71"
/>
<path stroke="#b7c169" vector-effect="non-scaling-stroke" d="
  M 109.14 37.61
  L 109.21 54.25"
/>
<path stroke="#66913d" vector-effect="non-scaling-stroke" d="
  M 109.21 54.25
  Q 107.59 53.47 107.23 51.99"
/>
<path stroke="#b7c169" vector-effect="non-scaling-stroke" d="
  M 107.23 51.99
  Q 105.53 44.85 105.71 37.50"
/>
<path stroke="#66913d" vector-effect="non-scaling-stroke" d="
  M 93.50 55.54
  Q 93.14 59.34 89.54 57.75"
/>
<path stroke="#b6d09d" vector-effect="non-scaling-stroke" d="
  M 108.03 56.66
  Q 101.81 55.51 95.50 55.71"
/>
<path stroke="#a8b15d" vector-effect="non-scaling-stroke" d="
  M 107.23 51.99
  Q 101.56 44.99 92.98 43.71
  Q 88.32 43.02 92.30 45.54
  L 102.00 51.71"
/>
<path stroke="#f8f0bd" vector-effect="non-scaling-stroke" d="
  M 102.00 51.71
  C 100.60 52.61 94.57 53.95 95.50 55.71"
/>
<path stroke="#b7c169" vector-effect="non-scaling-stroke" d="
  M 95.50 55.71
  L 93.50 55.54"
/>
<path stroke="#a8b15d" vector-effect="non-scaling-stroke" d="
  M 93.50 55.54
  C 92.56 55.21 86.10 52.20 86.12 54.15
  A 0.77 0.77 0.0 0 0 86.37 54.72
  L 89.54 57.75"
/>
<path stroke="#b7c169" vector-effect="non-scaling-stroke" d="
  M 89.54 57.75
  Q 88.16 58.94 88.54 60.50"
/>
<path stroke="#fcf0c4" vector-effect="non-scaling-stroke" d="
  M 88.54 60.50
  C 80.94 68.85 78.32 76.38 66.91 79.99
  C 51.45 84.88 41.30 91.35 41.52 109.22
  C 41.66 119.83 40.33 125.44 34.17 134.61
  C 28.38 143.22 24.08 150.44 26.71 161.30
  Q 27.66 165.21 30.44 168.09"
/>
<path stroke="#e6ca90" vector-effect="non-scaling-stroke" d="
  M 30.44 168.09
  Q 34.89 176.42 40.29 184.25"
/>
<path stroke="#f0d599" vector-effect="non-scaling-stroke" d="
  M 40.29 184.25
  Q 41.18 189.48 40.25 194.71"
/>
<path stroke="#a9c76a" vector-effect="non-scaling-stroke" d="
  M 40.25 194.71
  L 28.15 194.62"
/>
<path stroke="#9c933e" vector-effect="non-scaling-stroke" d="
  M 125.00 109.29
  C 125.06 111.02 127.03 111.05 126.69 112.41
  A 1.02 1.01 -81.2 0 1 125.66 113.17
  L 122.93 113.01"
/>
<path stroke="#9c933e" vector-effect="non-scaling-stroke" d="
  M 107.25 110.96
  Q 113.55 111.40 113.26 106.53
  A 1.01 1.00 -83.3 0 1 114.55 105.51
  Q 117.42 106.38 119.47 108.58
  A 1.01 1.00 55.4 0 0 120.65 108.80
  Q 121.78 108.24 120.61 107.10
  Q 116.56 103.15 115.04 100.40"
/>
<path stroke="#66913d" vector-effect="non-scaling-stroke" d="
  M 89.00 94.71
  Q 86.70 96.69 84.79 94.06"
/>
<path stroke="#66913d" vector-effect="non-scaling-stroke" d="
  M 105.75 146.04
  C 102.17 149.65 95.36 144.75 91.27 144.47"
/>
<path stroke="#aca34a" vector-effect="non-scaling-stroke" d="
  M 98.29 104.50
  Q 99.37 103.12 98.00 102.29"
/>
<path stroke="#9c933e" vector-effect="non-scaling-stroke" d="
  M 97.71 102.00
  L 97.71 101.00"
/>
<path stroke="#66913d" vector-effect="non-scaling-stroke" d="
  M 92.08 97.70
  Q 88.39 98.45 84.50 97.54"
/>
<path stroke="#9c933e" vector-effect="non-scaling-stroke" d="
  M 102.96 93.50
  Q 100.61 93.88 99.57 95.92
  A 1.00 0.94 -89.2 0 1 99.17 96.33
  L 97.54 97.25"
/>
<path stroke="#66913d" vector-effect="non-scaling-stroke" d="
  M 95.50 99.96
  Q 91.98 100.52 88.50 101.27
  C 82.81 102.48 77.30 101.72 71.46 103.00"
/>
<path stroke="#bad0a4" vector-effect="non-scaling-stroke" d="
  M 119.50 155.21
  C 117.61 157.03 118.98 160.39 119.38 163.56"
/>
<path stroke="#a4ab70" vector-effect="non-scaling-stroke" d="
  M 119.38 163.56
  Q 119.15 167.71 117.47 172.20
  A 0.64 0.63 -67.4 0 1 116.61 172.56
  C 116.41 172.47 115.91 164.43 115.81 164.06"
/>
<path stroke="#66913d" vector-effect="non-scaling-stroke" d="
  M 97.29 96.50
  L 97.54 97.25"
/>
<path stroke="#aca34a" vector-effect="non-scaling-stroke" d="
  M 97.54 97.25
  L 97.21 98.50"
/>
<path stroke="#9c933e" vector-effect="non-scaling-stroke" d="
  M 158.46 126.00
  Q 157.84 127.14 156.79 126.75"
/>
<path stroke="#abc098" vector-effect="non-scaling-stroke" d="
  M 156.79 126.75
  Q 155.23 120.16 156.54 113.50"
/>
<path stroke="#9eb66a" vector-effect="non-scaling-stroke" d="
  M 72.90 249.55
  Q 76.38 253.53 77.98 257.85"
/>
<path stroke="#fcf0c4" vector-effect="non-scaling-stroke" d="
  M 90.19 249.32
  Q 92.91 254.98 99.50 256.23
  Q 108.98 258.02 117.85 256.15
  C 122.00 255.27 124.82 253.23 129.31 253.26
  C 133.35 253.28 137.19 252.91 141.14 253.98
  C 153.09 257.24 167.58 261.67 176.25 249.29"
/>
<path stroke="#96b171" vector-effect="non-scaling-stroke" d="
  M 200.25 194.46
  Q 190.12 195.12 180.00 194.71"
/>
<path stroke="#9eb66a" vector-effect="non-scaling-stroke" d="
  M 187.96 258.36
  Q 188.88 253.36 192.79 249.75"
/>
<path stroke="#acd6a5" vector-effect="non-scaling-stroke" d="
  M 146.41 228.83
  Q 147.63 229.88 148.53 231.25
  C 149.36 232.53 151.33 234.04 150.79 230.48
  A 1.01 0.96 -73.5 0 0 150.50 229.91
  L 144.80 224.42
  A 1.03 1.02 23.9 0 1 144.50 223.65
  L 144.81 216.62
  A 1.00 0.99 -1.7 0 1 145.70 215.68
  L 147.29 215.50
  A 1.00 0.99 -4.0 0 1 148.40 216.46
  L 148.55 221.17
  A 1.03 1.00 -16.8 0 1 148.05 222.07
  L 147.05 222.65
  Q 144.86 223.94 147.34 224.49
  Q 150.29 225.15 150.50 222.20
  Q 150.81 217.81 150.74 213.68
  A 1.00 1.00 0.0 0 0 149.44 212.74
  Q 144.62 214.27 144.88 210.35
  A 0.99 0.99 0.0 0 1 145.87 209.42
  L 149.87 209.40
  A 1.00 0.99 -82.4 0 0 150.83 208.66
  L 151.09 207.73
  A 1.00 1.00 0.0 0 0 150.08 206.47
  L 146.30 206.63
  A 1.01 1.01 0.0 0 1 145.31 205.96
  C 145.03 205.15 144.50 202.39 143.37 202.76
  A 0.99 0.99 0.0 0 0 142.71 203.47
  L 142.16 205.73
  A 1.00 1.00 0.0 0 1 141.19 206.50
  L 136.37 206.50
  A 1.00 1.00 0.0 0 0 135.39 207.68
  L 135.59 208.79
  A 1.00 1.00 0.0 0 0 136.68 209.61
  L 140.90 209.13
  A 1.02 1.01 76.5 0 1 141.95 209.78
  Q 143.75 214.59 137.53 212.63
  A 1.00 1.00 0.0 0 0 136.23 213.58
  L 136.26 224.66
  A 0.80 0.80 0.0 0 0 136.93 225.45
  C 139.18 225.81 138.63 217.96 138.79 216.39
  A 1.01 1.01 0.0 0 1 139.89 215.50
  L 141.31 215.64
  A 1.00 1.00 0.0 0 1 142.20 216.49
  C 143.22 223.34 140.25 227.80 135.14 232.53
  A 1.00 1.00 0.0 0 0 135.02 233.87
  L 135.46 234.46
  A 1.01 1.00 -44.2 0 0 137.05 234.48
  Q 139.50 231.39 141.63 228.06
  C 142.45 226.79 142.55 228.48 142.51 228.86
  Q 142.08 233.41 142.78 237.95
  A 0.80 0.79 -7.2 0 0 143.65 238.62
  L 144.01 238.58
  A 1.00 0.99 -3.8 0 0 144.90 237.57
  L 144.76 229.60
  Q 144.72 227.35 146.41 228.83"
/>
<path stroke="#a8d69e" vector-effect="non-scaling-stroke" d="
  M 157.21 215.60
  C 161.83 214.39 159.34 223.46 158.74 224.73
  Q 157.21 227.96 152.28 232.75
  A 1.03 1.01 -21.5 0 0 151.98 233.42
  Q 151.82 236.86 154.19 234.22
  Q 156.44 231.71 158.30 229.03
  Q 159.75 226.93 159.75 229.49
  L 159.75 237.49
  A 1.01 1.00 -2.1 0 0 160.83 238.49
  L 161.60 238.42
  A 1.00 0.99 -2.2 0 0 162.52 237.43
  L 162.52 230.10
  Q 162.52 226.83 164.35 229.54
  L 167.70 234.50
  A 1.01 1.00 -35.6 0 0 169.14 234.73
  L 169.93 234.11
  A 1.00 1.00 0.0 0 0 169.99 232.58
  Q 165.39 228.43 162.68 222.77
  Q 162.19 221.74 162.52 216.72
  A 1.01 0.99 -88.7 0 1 163.49 215.78
  L 165.14 215.74
  A 1.01 1.00 -7.2 0 1 166.13 216.50
  Q 167.12 220.38 164.69 222.99
  Q 163.36 224.42 165.30 224.66
  Q 166.77 224.84 168.07 223.80
  A 1.06 1.05 -18.1 0 0 168.45 223.06
  L 168.84 214.28
  A 1.00 1.00 0.0 0 0 167.95 213.23
  L 163.40 212.77
  A 1.00 0.99 2.9 0 1 162.50 211.78
  L 162.50 210.30
  A 1.00 0.99 -88.4 0 1 163.55 209.30
  L 168.37 209.55
  A 0.99 0.99 0.0 0 0 169.42 208.64
  L 169.49 207.77
  A 1.00 1.00 0.0 0 0 168.54 206.69
  L 163.56 206.44
  A 1.01 0.99 82.5 0 1 162.65 205.73
  L 162.04 203.73
  A 1.01 1.00 62.4 0 0 160.46 203.23
  Q 159.50 204.00 159.67 205.65
  A 1.00 0.99 -3.1 0 1 158.68 206.75
  L 153.94 206.75
  A 1.00 1.00 0.0 0 0 152.99 208.07
  L 153.16 208.57
  A 1.02 1.00 80.1 0 0 154.11 209.25
  L 158.28 209.24
  A 1.03 0.95 61.4 0 1 158.87 209.44
  Q 160.96 210.98 159.16 212.80
  A 1.00 0.97 23.9 0 1 158.37 213.09
  L 154.85 212.81
  A 1.00 1.00 0.0 0 0 153.77 213.82
  L 153.91 223.92
  A 1.06 1.04 28.5 0 0 154.07 224.44
  C 156.89 228.82 156.41 216.92 156.47 216.43
  A 0.99 0.98 87.0 0 1 157.21 215.60"
/>
<path stroke="#acd6a5" vector-effect="non-scaling-stroke" d="
  M 120.2486 204.1824
  A 1.22 1.22 0.0 0 0 119.0307 202.9603
  L 118.7307 202.9598
  A 1.22 1.22 0.0 0 0 117.5086 204.1776
  L 117.4714 225.4576
  A 1.22 1.22 0.0 0 0 118.6893 226.6797
  L 118.9893 226.6802
  A 1.22 1.22 0.0 0 0 120.2114 225.4624
  L 120.2486 204.1824"
/>
<path stroke="#a8d69e" vector-effect="non-scaling-stroke" d="
  M 105.3829 209.6631
  A 0.26 0.26 0.0 0 0 105.3521 209.2967
  L 98.7835 203.7458
  A 0.26 0.26 0.0 0 0 98.4171 203.7765
  L 96.9971 205.4569
  A 0.26 0.26 0.0 0 0 97.0279 205.8233
  L 103.5965 211.3742
  A 0.26 0.26 0.0 0 0 103.9629 211.3435
  L 105.3829 209.6631"
/>
<path stroke="#acd6a5" vector-effect="non-scaling-stroke" d="
  M 125.6967 207.6495
  A 1.17 1.17 0.0 0 0 124.1054 207.1962
  L 124.0355 207.2351
  A 1.17 1.17 0.0 0 0 123.5822 208.8264
  L 128.8833 218.3505
  A 1.17 1.17 0.0 0 0 130.4746 218.8038
  L 130.5445 218.7649
  A 1.17 1.17 0.0 0 0 130.9978 217.1736
  L 125.6967 207.6495"
/>
<path stroke="#a8d69e" vector-effect="non-scaling-stroke" d="
  M 112.34 208.24
  Q 112.11 208.31 111.89 208.45
  Q 111.39 208.76 111.16 209.62
  Q 109.54 215.44 106.68 220.75
  Q 106.16 221.72 106.34 222.42
  Q 106.48 222.96 106.84 223.42
  A 1.00 1.00 0.0 0 0 108.46 223.35
  Q 112.64 216.95 113.63 209.32
  A 1.00 0.99 -4.9 0 0 112.34 208.24"
/>
<path stroke="#a8d69e" vector-effect="non-scaling-stroke" d="
  M 103.5708 219.7284
  A 1.38 1.38 0.0 0 0 103.4177 217.7828
  L 98.8857 213.9121
  A 1.38 1.38 0.0 0 0 96.9401 214.0652
  L 96.8492 214.1716
  A 1.38 1.38 0.0 0 0 97.0023 216.1172
  L 101.5343 219.9879
  A 1.38 1.38 0.0 0 0 103.4799 219.8348
  L 103.5708 219.7284"
/>
<path stroke="#a8d69e" vector-effect="non-scaling-stroke" d="
  M 108.34 238.24
  Q 121.99 235.63 128.41 223.54
  C 129.01 222.41 128.91 220.37 127.06 221.00
  A 1.00 0.97 3.6 0 0 126.50 221.48
  Q 120.68 232.54 108.45 235.38
  Q 108.23 235.43 108.05 235.58
  Q 106.87 236.54 107.20 237.56
  A 1.01 1.00 -14.1 0 0 108.34 238.24"
/>
<path stroke="#a8d69e" vector-effect="non-scaling-stroke" d="
  M 104.3927 225.8929
  A 1.15 1.15 0.0 0 0 103.7703 224.3904
  L 103.2899 224.1914
  A 1.15 1.15 0.0 0 0 101.7874 224.8138
  L 96.9273 236.5471
  A 1.15 1.15 0.0 0 0 97.5497 238.0496
  L 98.0301 238.2486
  A 1.15 1.15 0.0 0 0 99.5326 237.6262
  L 104.3927 225.8929"
/>
</g>
<path fill="#ffffff" d="
  M 0.00 0.00
  L 271.00 0.00
  L 271.00 291.00
  L 0.00 291.00
  L 0.00 0.00
  Z
  M 134.00 41.29
  C 132.76 40.38 120.15 33.89 126.54 41.75
  Q 126.09 43.33 124.82 42.49
  A 1.02 1.00 60.4 0 0 124.23 42.32
  L 120.25 42.46
  C 120.45 42.09 125.64 34.91 122.66 36.13
  Q 120.63 36.97 117.25 39.79
  Q 112.95 39.67 109.14 37.61
  Q 111.07 31.39 111.23 29.75
  C 111.42 27.84 110.13 28.47 109.61 29.35
  Q 107.29 33.25 105.71 37.50
  C 98.33 37.21 95.33 38.94 89.54 40.83
  A 1.03 1.00 -2.9 0 0 88.87 41.55
  L 88.68 42.37
  A 1.03 1.02 77.1 0 1 88.33 42.93
  C 86.42 44.43 84.19 45.21 82.69 47.11
  Q 76.51 54.94 70.05 62.55
  C 63.23 70.58 49.96 70.33 41.39 76.45
  Q 29.52 84.94 28.47 100.76
  C 27.71 112.21 28.27 120.47 21.55 130.72
  C 14.04 142.16 7.90 151.26 13.40 165.65
  Q 15.12 170.17 18.95 176.06
  Q 24.07 183.93 28.15 194.62
  C 20.11 194.96 3.70 192.30 5.25 206.01
  Q 6.00 212.70 10.77 240.53
  Q 12.11 248.39 19.50 249.41
  L 28.93 258.70
  A 0.98 0.98 0.0 0 1 29.23 259.53
  Q 28.01 269.39 26.90 279.27
  Q 26.58 282.07 26.87 283.56
  A 1.00 1.00 0.0 0 0 28.24 284.29
  Q 44.88 277.44 60.79 269.29
  Q 70.80 264.16 77.98 257.85
  Q 81.34 261.29 84.99 264.86
  C 86.29 266.14 86.52 267.77 89.11 267.45
  A 0.98 0.93 -31.9 0 1 89.75 267.58
  Q 93.98 270.15 98.89 270.92
  A 1.00 0.99 -6.4 0 1 99.65 271.52
  C 100.09 272.55 104.21 272.27 105.62 272.66
  C 110.09 273.89 117.55 272.69 122.20 271.63
  C 132.04 269.41 138.91 270.06 149.10 272.36
  C 151.89 272.99 154.82 272.58 157.81 273.18
  C 165.69 274.76 176.81 270.92 181.72 264.25
  Q 185.08 259.68 187.96 258.36
  C 201.80 269.76 220.76 277.43 237.28 284.26
  A 1.00 1.00 0.0 0 0 238.65 283.53
  Q 238.96 281.94 238.64 279.07
  Q 237.57 269.39 236.34 259.52
  A 1.00 0.98 64.7 0 1 236.63 258.69
  L 245.78 249.53
  Q 248.16 249.18 250.79 249.25
  C 256.49 249.38 260.17 246.71 261.13 240.81
  Q 263.85 224.11 266.32 207.36
  C 267.80 197.33 263.15 194.96 253.74 195.04
  Q 246.23 195.11 238.71 194.75
  C 240.25 183.58 249.41 175.56 252.90 164.86
  C 255.20 157.83 255.18 151.33 252.59 144.60
  C 249.33 136.11 241.43 130.51 238.89 121.64
  C 237.11 115.40 237.43 108.64 237.21 102.20
  Q 236.35 77.50 212.85 71.39
  C 205.62 69.52 199.16 66.51 194.18 60.83
  Q 191.25 57.49 187.83 54.54
  L 189.54 52.75
  Q 190.64 51.81 190.56 50.37
  A 0.98 0.96 -29.3 0 1 190.74 49.75
  C 190.79 49.67 194.12 45.02 191.49 46.51
  Q 185.94 49.65 181.02 50.43
  Q 184.62 47.06 187.53 43.22
  Q 191.51 37.96 186.15 41.80
  Q 180.71 45.71 175.60 51.00
  Q 176.46 48.02 179.20 46.34
  A 1.00 0.94 -5.2 0 0 179.58 45.91
  L 183.31 38.09
  A 0.79 0.79 0.0 0 0 183.20 37.24
  C 182.41 36.28 178.61 41.12 178.00 41.79
  Q 175.30 42.33 173.29 40.50
  L 173.25 37.18
  A 0.66 0.65 18.0 0 0 172.99 36.68
  C 172.21 36.09 171.29 38.43 171.04 38.92
  Q 161.69 36.79 152.27 38.54
  A 1.04 1.04 0.0 0 0 151.70 38.87
  Q 150.35 40.41 148.42 40.51
  A 1.01 1.00 -89.5 0 1 147.38 39.44
  Q 147.47 37.95 146.04 37.50
  C 144.11 33.58 143.11 37.98 141.29 37.50
  C 137.45 28.49 147.39 27.76 150.75 22.73
  Q 152.77 19.71 148.79 20.84
  Q 143.92 22.22 141.73 27.12
  C 141.37 27.94 139.77 30.05 139.65 27.27
  C 139.45 22.35 139.88 17.25 138.90 12.45
  Q 138.73 11.62 138.55 10.78
  Q 137.35 5.19 137.28 10.91
  Q 137.24 14.71 137.72 18.50
  C 137.88 19.73 137.33 19.79 136.99 18.90
  Q 134.35 11.84 127.26 10.96
  Q 126.02 10.81 126.00 11.86
  A 1.02 1.00 -66.8 0 0 126.27 12.55
  Q 130.96 17.66 137.14 20.95
  A 1.00 1.00 0.0 0 1 137.67 21.80
  Q 137.99 29.89 135.83 37.61
  Q 135.78 37.81 135.81 38.02
  L 136.14 40.33
  A 1.00 1.00 0.0 0 1 134.98 41.46
  L 134.00 41.29
  Z"
/>
<path fill="#9a8d51" d="
  M 141.29 37.50
  L 140.88 41.12
  A 1.00 1.00 0.0 0 0 141.89 42.23
  L 142.63 42.22
  Q 140.54 43.78 140.71 46.75
  Q 139.55 46.33 138.94 46.97
  A 1.01 1.00 -48.2 0 1 137.57 47.05
  Q 134.91 44.81 134.00 41.29
  L 134.98 41.46
  A 1.00 1.00 0.0 0 0 136.14 40.33
  L 135.81 38.02
  Q 135.78 37.81 135.83 37.61
  Q 137.99 29.89 137.67 21.80
  A 1.00 1.00 0.0 0 0 137.14 20.95
  Q 130.96 17.66 126.27 12.55
  A 1.02 1.00 -66.8 0 1 126.00 11.86
  Q 126.02 10.81 127.26 10.96
  Q 134.35 11.84 136.99 18.90
  C 137.33 19.79 137.88 19.73 137.72 18.50
  Q 137.24 14.71 137.28 10.91
  Q 137.35 5.19 138.55 10.78
  Q 138.73 11.62 138.90 12.45
  C 139.88 17.25 139.45 22.35 139.65 27.27
  C 139.77 30.05 141.37 27.94 141.73 27.12
  Q 143.92 22.22 148.79 20.84
  Q 152.77 19.71 150.75 22.73
  C 147.39 27.76 137.45 28.49 141.29 37.50
  Z"
/>
<path fill="#75a149" d="
  M 109.14 37.61
  L 109.21 54.25
  Q 107.59 53.47 107.23 51.99
  Q 105.53 44.85 105.71 37.50
  Q 107.29 33.25 109.61 29.35
  C 110.13 28.47 111.42 27.84 111.23 29.75
  Q 111.07 31.39 109.14 37.61
  Z"
/>
<path fill="#568131" d="
  M 120.25 42.46
  Q 117.01 47.34 114.71 52.75
  L 113.29 53.25
  Q 112.25 45.59 117.25 39.79
  Q 120.63 36.97 122.66 36.13
  C 125.64 34.91 120.45 42.09 120.25 42.46
  Z"
/>
<path fill="#e2a44b" d="
  M 146.04 37.50
  Q 146.13 41.12 142.63 42.22
  L 141.89 42.23
  A 1.00 1.00 0.0 0 1 140.88 41.12
  L 141.29 37.50
  C 143.11 37.98 144.11 33.58 146.04 37.50
  Z"
/>
<path fill="#75a149" d="
  M 173.29 40.50
  Q 172.15 47.88 169.75 54.96
  L 168.89 55.31
  Q 168.25 46.98 171.04 38.92
  C 171.29 38.43 172.21 36.09 172.99 36.68
  A 0.66 0.65 18.0 0 1 173.25 37.18
  L 173.29 40.50
  Z"
/>
<path fill="#75a149" d="
  M 175.60 51.00
  Q 174.84 52.24 173.25 52.46
  Q 173.97 46.39 178.00 41.79
  C 178.61 41.12 182.41 36.28 183.20 37.24
  A 0.79 0.79 0.0 0 1 183.31 38.09
  L 179.58 45.91
  A 1.00 0.94 -5.2 0 1 179.20 46.34
  Q 176.46 48.02 175.60 51.00
  Z"
/>
<path fill="#f9e089" d="
  M 105.71 37.50
  Q 105.53 44.85 107.23 51.99
  Q 101.56 44.99 92.98 43.71
  Q 88.32 43.02 92.30 45.54
  L 102.00 51.71
  C 100.60 52.61 94.57 53.95 95.50 55.71
  L 93.50 55.54
  C 92.56 55.21 86.10 52.20 86.12 54.15
  A 0.77 0.77 0.0 0 0 86.37 54.72
  L 89.54 57.75
  Q 88.16 58.94 88.54 60.50
  C 80.94 68.85 78.32 76.38 66.91 79.99
  C 51.45 84.88 41.30 91.35 41.52 109.22
  C 41.66 119.83 40.33 125.44 34.17 134.61
  C 28.38 143.22 24.08 150.44 26.71 161.30
  Q 27.66 165.21 30.44 168.09
  Q 34.89 176.42 40.29 184.25
  Q 41.18 189.48 40.25 194.71
  L 28.15 194.62
  Q 24.07 183.93 18.95 176.06
  Q 15.12 170.17 13.40 165.65
  C 7.90 151.26 14.04 142.16 21.55 130.72
  C 28.27 120.47 27.71 112.21 28.47 100.76
  Q 29.52 84.94 41.39 76.45
  C 49.96 70.33 63.23 70.58 70.05 62.55
  Q 76.51 54.94 82.69 47.11
  C 84.19 45.21 86.42 44.43 88.33 42.93
  A 1.03 1.02 77.1 0 0 88.68 42.37
  L 88.87 41.55
  A 1.03 1.00 -2.9 0 1 89.54 40.83
  C 95.33 38.94 98.33 37.21 105.71 37.50
  Z"
/>
<path fill="#f9e089" d="
  M 109.14 37.61
  Q 112.95 39.67 117.25 39.79
  Q 112.25 45.59 113.29 53.25
  Q 113.11 53.62 112.77 53.75
  A 0.63 0.63 0.0 0 0 112.36 54.37
  Q 112.49 56.98 110.04 55.50
  L 109.21 54.25
  L 109.14 37.61
  Z"
/>
<path fill="#f9e089" d="
  M 146.04 37.50
  Q 147.47 37.95 147.38 39.44
  A 1.01 1.00 -89.5 0 0 148.42 40.51
  Q 150.35 40.41 151.70 38.87
  A 1.04 1.04 0.0 0 1 152.27 38.54
  Q 161.69 36.79 171.04 38.92
  Q 168.25 46.98 168.89 55.31
  Q 167.14 58.51 164.50 61.04
  Q 162.20 58.76 164.75 56.71
  C 169.10 57.97 164.63 49.06 163.77 47.29
  A 1.01 0.99 42.7 0 1 163.73 46.50
  L 163.93 45.96
  Q 164.44 44.59 163.01 44.89
  L 161.00 45.32
  A 1.01 1.00 -13.2 0 0 160.23 46.55
  L 161.79 52.50
  L 161.54 53.25
  C 160.38 51.09 159.11 52.24 157.58 52.24
  Q 155.29 52.23 152.90 52.49
  L 141.94 57.38
  A 1.00 0.99 78.5 0 1 140.54 56.45
  L 140.71 46.75
  Q 140.54 43.78 142.63 42.22
  Q 146.13 41.12 146.04 37.50
  Z"
/>
<path fill="#7c6d38" d="
  M 134.00 41.29
  Q 134.91 44.81 137.57 47.05
  A 1.01 1.00 -48.2 0 0 138.94 46.97
  Q 139.55 46.33 140.71 46.75
  L 140.54 56.45
  A 1.00 0.99 78.5 0 0 141.94 57.38
  L 152.90 52.49
  Q 147.76 57.07 141.84 60.20
  A 1.00 1.00 0.0 0 0 141.30 61.09
  Q 141.31 66.37 140.04 71.50
  Q 137.58 73.40 135.20 72.23
  Q 137.89 65.88 137.54 58.75
  Q 139.37 54.29 137.33 50.09
  A 1.11 1.05 3.1 0 0 136.92 49.66
  Q 131.19 46.39 126.54 41.75
  C 120.15 33.89 132.76 40.38 134.00 41.29
  Z"
/>
<path fill="#568131" d="
  M 181.02 50.43
  Q 175.96 52.60 171.71 56.15
  Q 169.10 58.34 172.48 57.91
  Q 173.36 57.80 174.24 57.44
  Q 178.33 55.76 182.71 55.62
  A 0.99 0.96 -63.1 0 0 183.24 55.44
  C 184.08 54.87 189.10 50.80 189.54 52.75
  L 187.83 54.54
  Q 182.72 58.72 179.45 58.94
  C 176.82 59.12 168.48 59.35 167.96 61.25
  L 166.50 62.71
  Q 164.27 64.18 163.00 66.46
  L 161.13 68.11
  A 1.01 1.00 39.8 0 0 161.28 69.72
  Q 163.84 71.28 166.47 72.78
  C 168.82 74.12 171.59 80.02 175.52 83.54
  Q 176.29 84.23 177.08 84.93
  Q 178.75 86.41 176.54 86.67
  Q 175.54 86.79 174.72 86.27
  Q 168.96 82.65 164.83 75.30
  C 164.01 73.84 162.71 72.93 161.29 72.25
  L 160.29 70.51
  A 1.00 1.00 0.0 0 0 158.70 70.32
  Q 153.94 75.31 150.75 81.41
  A 0.34 0.33 -58.4 0 1 150.26 81.53
  L 149.98 81.32
  A 0.80 0.79 -59.7 0 1 149.73 80.35
  Q 150.50 78.65 149.75 76.79
  L 151.54 74.75
  C 153.63 75.04 154.50 74.11 154.99 72.11
  C 156.05 67.76 159.97 67.23 162.41 64.47
  A 0.98 0.97 -25.7 0 0 162.66 63.77
  Q 162.59 61.84 164.50 61.04
  Q 167.14 58.51 168.89 55.31
  L 169.75 54.96
  L 173.25 52.46
  Q 174.84 52.24 175.60 51.00
  Q 180.71 45.71 186.15 41.80
  Q 191.51 37.96 187.53 43.22
  Q 184.62 47.06 181.02 50.43
  Z"
/>
<path fill="#f9e089" d="
  M 173.29 40.50
  Q 175.30 42.33 178.00 41.79
  Q 173.97 46.39 173.25 52.46
  L 169.75 54.96
  Q 172.15 47.88 173.29 40.50
  Z"
/>
<path fill="#f9e089" d="
  M 126.54 41.75
  Q 131.19 46.39 136.92 49.66
  A 1.11 1.05 3.1 0 1 137.33 50.09
  Q 139.37 54.29 137.54 58.75
  Q 137.82 57.33 136.76 57.21
  Q 124.51 55.86 115.49 53.59
  Q 114.57 53.81 114.71 52.75
  Q 117.01 47.34 120.25 42.46
  L 124.23 42.32
  A 1.02 1.00 60.4 0 1 124.82 42.49
  Q 126.09 43.33 126.54 41.75
  Z"
/>
<path fill="#568131" d="
  M 107.23 51.99
  Q 107.59 53.47 109.21 54.25
  L 110.04 55.50
  Q 110.34 56.66 109.91 58.46
  Q 109.02 57.14 108.03 56.66
  Q 105.48 53.41 102.00 51.71
  L 92.30 45.54
  Q 88.32 43.02 92.98 43.71
  Q 101.56 44.99 107.23 51.99
  Z"
/>
<path fill="#568131" d="
  M 164.75 56.71
  Q 163.69 54.29 161.79 52.50
  L 160.23 46.55
  A 1.01 1.00 -13.2 0 1 161.00 45.32
  L 163.01 44.89
  Q 164.44 44.59 163.93 45.96
  L 163.73 46.50
  A 1.01 0.99 42.7 0 0 163.77 47.29
  C 164.63 49.06 169.10 57.97 164.75 56.71
  Z"
/>
<path fill="#75a149" d="
  M 189.54 52.75
  C 189.10 50.80 184.08 54.87 183.24 55.44
  A 0.99 0.96 -63.1 0 1 182.71 55.62
  Q 178.33 55.76 174.24 57.44
  Q 173.36 57.80 172.48 57.91
  Q 169.10 58.34 171.71 56.15
  Q 175.96 52.60 181.02 50.43
  Q 185.94 49.65 191.49 46.51
  C 194.12 45.02 190.79 49.67 190.74 49.75
  A 0.98 0.96 -29.3 0 0 190.56 50.37
  Q 190.64 51.81 189.54 52.75
  Z"
/>
<path fill="#f6fff1" d="
  M 102.00 51.71
  Q 105.48 53.41 108.03 56.66
  Q 101.81 55.51 95.50 55.71
  C 94.57 53.95 100.60 52.61 102.00 51.71
  Z"
/>
<path fill="#ffffff" d="
  M 161.54 53.25
  L 161.62 59.44
  A 0.99 0.99 0.0 0 1 160.89 60.41
  L 158.93 60.95
  A 1.01 1.01 0.0 0 0 158.30 61.47
  Q 158.06 61.96 158.01 62.52
  A 1.00 0.99 87.3 0 1 157.21 63.41
  L 155.33 63.79
  A 1.02 1.00 1.3 0 0 154.56 64.51
  L 153.77 67.41
  A 1.01 1.01 0.0 0 1 153.25 68.04
  C 150.46 69.42 151.31 72.26 151.54 74.75
  L 149.75 76.79
  Q 147.22 76.30 147.53 74.16
  Q 148.51 67.35 149.00 60.50
  C 149.18 57.97 148.14 59.28 147.87 60.15
  Q 145.84 66.73 146.02 73.70
  Q 146.07 75.66 144.45 74.55
  L 140.04 71.50
  Q 141.31 66.37 141.30 61.09
  A 1.00 1.00 0.0 0 1 141.84 60.20
  Q 147.76 57.07 152.90 52.49
  Q 155.29 52.23 157.58 52.24
  C 159.11 52.24 160.38 51.09 161.54 53.25
  Z"
/>
<path fill="#e2a44b" d="
  M 161.79 52.50
  Q 163.69 54.29 164.75 56.71
  Q 162.20 58.76 164.50 61.04
  Q 162.59 61.84 162.66 63.77
  A 0.98 0.97 -25.7 0 1 162.41 64.47
  C 159.97 67.23 156.05 67.76 154.99 72.11
  C 154.50 74.11 153.63 75.04 151.54 74.75
  C 151.31 72.26 150.46 69.42 153.25 68.04
  A 1.01 1.01 0.0 0 0 153.77 67.41
  L 154.56 64.51
  A 1.02 1.00 1.3 0 1 155.33 63.79
  L 157.21 63.41
  A 1.00 0.99 87.3 0 0 158.01 62.52
  Q 158.06 61.96 158.30 61.47
  A 1.01 1.01 0.0 0 1 158.93 60.95
  L 160.89 60.41
  A 0.99 0.99 0.0 0 0 161.62 59.44
  L 161.54 53.25
  L 161.79 52.50
  Z"
/>
<path fill="#e2a44b" d="
  M 114.71 52.75
  Q 114.57 53.81 115.49 53.59
  L 116.35 59.05
  Q 116.54 60.23 117.42 59.42
  Q 117.92 58.97 117.96 58.07
  A 1.00 0.98 72.5 0 1 118.34 57.33
  C 119.71 56.25 120.36 57.67 120.56 58.82
  Q 120.67 59.46 120.82 60.08
  A 0.99 0.99 0.0 0 0 122.08 60.80
  Q 126.08 59.56 124.73 64.72
  C 124.50 65.61 125.18 66.31 125.76 65.27
  Q 127.49 62.11 129.08 58.88
  C 129.38 58.25 130.55 57.75 130.27 59.02
  Q 129.15 64.02 128.88 67.03
  A 1.00 0.99 -84.6 0 0 129.78 68.12
  Q 136.48 68.74 130.62 73.45
  Q 129.78 74.13 130.25 74.96
  Q 128.04 75.67 129.42 79.49
  A 1.00 0.98 81.9 0 0 130.29 80.15
  L 133.39 80.37
  A 1.00 1.00 0.0 0 1 134.31 81.20
  C 134.71 83.63 136.64 86.26 135.79 89.00
  L 132.87 89.22
  A 1.00 0.97 -23.9 0 1 132.08 88.93
  L 128.22 85.00
  A 0.99 0.97 -71.2 0 1 127.94 84.42
  Q 127.80 83.29 128.91 82.67
  A 1.02 1.00 86.1 0 0 129.36 82.14
  C 131.19 77.13 123.69 84.36 123.54 77.69
  A 1.01 1.01 0.0 0 0 122.40 76.72
  Q 118.56 77.25 119.70 73.24
  A 1.01 1.00 -82.1 0 0 118.74 71.96
  Q 112.39 71.97 105.96 73.35
  Q 103.84 73.81 104.74 72.46
  C 106.30 70.11 113.30 70.34 113.26 67.67
  A 1.05 1.02 21.5 0 0 112.93 66.94
  Q 110.80 65.03 112.14 61.21
  C 112.95 62.30 113.70 64.15 114.82 64.69
  Q 115.51 65.02 116.24 65.15
  Q 118.63 65.55 117.22 63.58
  Q 114.47 59.74 109.91 58.46
  Q 110.34 56.66 110.04 55.50
  Q 112.49 56.98 112.36 54.37
  A 0.63 0.63 0.0 0 1 112.77 53.75
  Q 113.11 53.62 113.29 53.25
  L 114.71 52.75
  Z"
/>
<path fill="#568131" d="
  M 93.50 55.54
  Q 93.14 59.34 89.54 57.75
  L 86.37 54.72
  A 0.77 0.77 0.0 0 1 86.12 54.15
  C 86.10 52.20 92.56 55.21 93.50 55.54
  Z"
/>
<path fill="#ffffff" d="
  M 137.54 58.75
  Q 137.89 65.88 135.20 72.23
  C 132.84 74.61 136.32 76.41 137.36 78.37
  Q 136.13 79.04 135.38 77.63
  A 1.10 1.07 88.6 0 0 134.93 77.19
  L 130.25 74.96
  Q 129.78 74.13 130.62 73.45
  Q 136.48 68.74 129.78 68.12
  A 1.00 0.99 -84.6 0 1 128.88 67.03
  Q 129.15 64.02 130.27 59.02
  C 130.55 57.75 129.38 58.25 129.08 58.88
  Q 127.49 62.11 125.76 65.27
  C 125.18 66.31 124.50 65.61 124.73 64.72
  Q 126.08 59.56 122.08 60.80
  A 0.99 0.99 0.0 0 1 120.82 60.08
  Q 120.67 59.46 120.56 58.82
  C 120.36 57.67 119.71 56.25 118.34 57.33
  A 1.00 0.98 72.5 0 0 117.96 58.07
  Q 117.92 58.97 117.42 59.42
  Q 116.54 60.23 116.35 59.05
  L 115.49 53.59
  Q 124.51 55.86 136.76 57.21
  Q 137.82 57.33 137.54 58.75
  Z"
/>
<path fill="#f9e089" d="
  M 187.83 54.54
  Q 191.25 57.49 194.18 60.83
  C 199.16 66.51 205.62 69.52 212.85 71.39
  Q 236.35 77.50 237.21 102.20
  C 237.43 108.64 237.11 115.40 238.89 121.64
  C 241.43 130.51 249.33 136.11 252.59 144.60
  C 255.18 151.33 255.20 157.83 252.90 164.86
  C 249.41 175.56 240.25 183.58 238.71 194.75
  Q 221.10 195.33 203.50 194.46
  L 221.73 193.77
  A 1.00 0.99 -83.9 0 0 222.67 193.01
  C 223.28 190.40 225.32 188.84 226.17 186.60
  Q 227.67 182.63 229.20 178.57
  A 1.01 0.99 -88.5 0 1 229.81 177.98
  Q 232.33 177.10 231.46 174.50
  C 238.30 165.22 242.12 156.33 237.70 145.35
  C 237.37 144.53 236.82 144.12 236.00 143.96
  C 236.14 142.67 236.05 141.66 235.19 140.58
  C 226.23 129.30 224.33 122.06 224.14 107.44
  C 224.00 96.46 217.46 87.98 207.94 83.04
  C 204.39 81.20 198.69 80.71 194.64 78.37
  Q 188.52 74.84 183.85 69.43
  L 186.50 69.37
  Q 189.29 69.30 186.89 67.88
  Q 181.39 64.62 175.40 62.42
  Q 171.95 61.15 168.37 61.75
  A 0.34 0.31 54.3 0 1 168.14 61.70
  Q 167.90 61.54 167.96 61.25
  C 168.48 59.35 176.82 59.12 179.45 58.94
  Q 182.72 58.72 187.83 54.54
  Z"
/>
<path fill="#75a149" d="
  M 93.50 55.54
  L 95.50 55.71
  Q 101.81 55.51 108.03 56.66
  Q 109.02 57.14 109.91 58.46
  Q 114.47 59.74 117.22 63.58
  Q 118.63 65.55 116.24 65.15
  Q 115.51 65.02 114.82 64.69
  C 113.70 64.15 112.95 62.30 112.14 61.21
  Q 100.31 59.40 88.54 60.50
  Q 88.16 58.94 89.54 57.75
  Q 93.14 59.34 93.50 55.54
  Z"
/>
<path fill="#e2a44b" d="
  M 149.75 76.79
  Q 150.50 78.65 149.73 80.35
  A 0.80 0.79 -59.7 0 0 149.98 81.32
  L 150.26 81.53
  A 0.34 0.33 -58.4 0 0 150.75 81.41
  Q 153.94 75.31 158.70 70.32
  A 1.00 1.00 0.0 0 1 160.29 70.51
  L 161.29 72.25
  L 158.61 77.77
  A 1.03 1.01 0.6 0 1 158.12 78.24
  L 155.84 79.26
  A 1.00 1.00 0.0 0 0 155.25 80.23
  Q 155.39 82.61 153.30 83.48
  A 0.97 0.97 0.0 0 0 152.73 84.09
  Q 151.54 87.79 148.53 90.61
  Q 146.66 92.36 143.24 90.79
  Q 143.97 88.64 143.65 86.22
  A 1.00 1.00 0.0 0 0 142.31 85.42
  L 141.66 85.66
  L 145.18 78.38
  A 0.40 0.40 0.0 0 0 144.88 77.80
  L 144.58 77.75
  A 0.82 0.80 20.5 0 0 143.79 78.10
  Q 142.36 80.29 139.47 79.83
  Q 138.48 78.78 137.36 78.37
  C 136.32 76.41 132.84 74.61 135.20 72.23
  Q 137.58 73.40 140.04 71.50
  L 144.45 74.55
  Q 146.07 75.66 146.02 73.70
  Q 145.84 66.73 147.87 60.15
  C 148.14 59.28 149.18 57.97 149.00 60.50
  Q 148.51 67.35 147.53 74.16
  Q 147.22 76.30 149.75 76.79
  Z"
/>
<path fill="#ffffff" d="
  M 112.14 61.21
  Q 110.80 65.03 112.93 66.94
  A 1.05 1.02 21.5 0 1 113.26 67.67
  C 113.30 70.34 106.30 70.11 104.74 72.46
  Q 103.84 73.81 105.96 73.35
  Q 112.39 71.97 118.74 71.96
  A 1.01 1.00 -82.1 0 1 119.70 73.24
  Q 118.56 77.25 122.40 76.72
  A 1.01 1.01 0.0 0 1 123.54 77.69
  C 123.69 84.36 131.19 77.13 129.36 82.14
  A 1.02 1.00 86.1 0 1 128.91 82.67
  Q 127.80 83.29 127.94 84.42
  A 0.99 0.97 -71.2 0 0 128.22 85.00
  L 132.08 88.93
  A 1.00 0.97 -23.9 0 0 132.87 89.22
  L 135.79 89.00
  C 135.78 94.07 136.87 105.53 134.96 109.75
  L 133.76 111.51
  A 1.02 0.99 -82.2 0 1 133.29 111.88
  C 131.33 112.63 130.90 111.28 131.16 109.66
  Q 131.64 106.64 129.37 104.62
  A 1.03 1.00 64.2 0 0 128.68 104.37
  Q 125.59 104.44 126.04 107.50
  A 1.02 1.01 61.1 0 1 125.82 108.28
  L 125.00 109.29
  Q 123.36 108.40 122.76 106.96
  Q 119.81 99.82 117.09 95.12
  Q 115.35 92.09 112.73 89.68
  Q 111.02 88.11 111.05 90.43
  Q 111.05 90.83 111.24 91.26
  Q 113.17 95.63 115.04 100.40
  Q 112.21 99.91 110.44 97.58
  A 1.00 0.99 -27.2 0 0 109.35 97.24
  L 107.48 97.81
  A 1.01 1.00 60.8 0 1 106.43 97.51
  L 102.96 93.50
  Q 100.36 88.27 99.26 82.51
  Q 98.85 80.38 98.04 82.39
  L 97.89 82.76
  A 1.00 1.00 0.0 0 1 96.20 83.03
  Q 96.05 82.86 95.88 82.69
  Q 94.77 81.66 95.02 83.15
  L 97.29 96.50
  C 97.15 97.43 96.57 97.00 96.29 96.55
  Q 90.04 86.51 88.19 84.56
  Q 86.29 82.56 84.22 80.73
  Q 79.72 76.74 82.69 81.97
  Q 84.56 85.26 87.23 88.77
  Q 88.80 90.83 95.29 98.01
  A 1.03 1.01 72.1 0 0 95.90 98.33
  L 97.21 98.50
  L 97.71 101.00
  L 95.50 99.96
  Q 94.01 97.91 92.08 97.70
  L 89.00 94.71
  Q 82.44 88.55 73.95 85.82
  Q 69.14 84.28 72.99 87.54
  Q 78.20 91.94 84.79 94.06
  C 83.28 93.71 65.99 89.20 66.81 91.35
  A 0.66 0.63 6.0 0 0 67.10 91.69
  Q 75.26 96.19 84.50 97.54
  Q 85.13 98.25 84.25 98.27
  Q 75.88 98.42 67.47 98.55
  A 0.64 0.63 2.6 0 0 66.85 99.11
  C 66.71 100.36 69.31 100.72 70.19 100.82
  A 1.00 0.99 84.7 0 1 71.04 101.53
  L 71.46 103.00
  C 78.78 106.67 84.62 106.03 91.85 102.92
  Q 94.62 101.72 97.71 102.00
  L 98.00 102.29
  L 98.01 102.58
  A 0.52 0.52 0.0 0 1 97.75 103.03
  C 92.65 106.02 90.48 109.61 86.83 115.28
  Q 85.94 116.66 87.69 116.19
  C 90.36 115.46 95.66 107.26 98.29 104.50
  C 98.48 104.47 104.79 103.85 100.72 105.46
  A 1.00 1.00 0.0 0 0 100.11 106.63
  C 100.71 108.98 103.77 107.48 105.28 107.64
  A 0.98 0.98 0.0 0 1 106.10 108.24
  L 107.25 110.96
  Q 100.72 113.81 93.94 115.93
  C 93.30 116.13 90.92 117.45 93.48 117.74
  C 99.81 118.45 104.50 115.48 110.18 112.99
  C 111.40 112.45 113.95 110.80 113.53 113.74
  A 1.00 1.00 0.0 0 0 114.37 114.87
  Q 118.83 115.55 120.46 112.16
  A 1.01 1.00 34.3 0 1 122.05 111.86
  Q 122.58 112.36 122.93 113.01
  Q 119.25 116.22 125.09 116.48
  A 1.02 1.01 -11.2 0 1 125.96 117.06
  C 127.71 120.86 132.15 119.62 134.46 117.25
  C 134.90 126.61 135.57 143.65 131.04 151.00
  L 130.78 146.69
  A 1.01 1.00 12.9 0 0 130.25 145.86
  Q 128.19 144.79 127.40 146.36
  A 1.00 1.00 0.0 0 1 125.75 146.57
  L 123.96 144.50
  C 123.90 140.88 123.80 134.16 122.32 134.22
  A 0.65 0.63 6.9 0 0 121.73 134.67
  Q 120.43 138.94 121.54 143.25
  Q 121.57 145.37 120.46 144.89
  A 0.98 0.97 6.9 0 1 119.88 144.16
  Q 119.50 142.13 117.69 141.71
  A 1.01 0.99 -63.9 0 0 116.67 142.07
  C 115.42 143.70 114.97 141.73 114.88 140.84
  Q 114.03 132.93 110.94 125.64
  C 110.42 124.40 109.00 123.83 109.06 126.02
  Q 109.26 132.81 112.11 139.00
  A 0.99 0.98 49.7 0 1 112.04 139.97
  Q 111.40 140.94 110.50 141.54
  L 109.29 142.50
  Q 100.76 133.23 88.73 129.60
  C 87.99 129.38 87.76 130.09 88.42 130.49
  Q 98.31 136.42 107.29 143.75
  Q 97.34 138.70 87.00 135.51
  A 0.84 0.79 -46.6 0 0 86.46 135.54
  C 85.60 135.90 86.21 136.60 86.71 136.89
  Q 89.13 138.31 91.57 139.74
  Q 96.03 142.36 90.99 141.21
  Q 90.62 141.13 90.24 141.03
  Q 88.22 140.50 88.07 141.95
  A 1.00 0.99 -78.4 0 0 88.76 143.01
  Q 90.14 143.45 91.27 144.47
  L 82.92 143.33
  A 0.24 0.21 22.5 0 0 82.74 143.39
  L 82.53 143.59
  A 0.27 0.26 -52.4 0 0 82.58 144.01
  Q 92.67 149.56 104.21 148.75
  L 108.89 150.04
  A 1.00 1.00 0.0 0 1 109.62 151.04
  L 109.54 153.25
  Q 105.11 157.75 98.55 159.29
  Q 98.29 159.35 98.11 159.55
  Q 97.51 160.22 98.42 160.23
  C 105.65 160.30 107.98 159.93 112.82 154.44
  Q 114.33 153.32 116.09 153.64
  C 114.01 155.43 115.49 161.95 115.81 164.06
  Q 72.92 162.46 30.44 168.09
  Q 27.66 165.21 26.71 161.30
  C 24.08 150.44 28.38 143.22 34.17 134.61
  C 40.33 125.44 41.66 119.83 41.52 109.22
  C 41.30 91.35 51.45 84.88 66.91 79.99
  C 78.32 76.38 80.94 68.85 88.54 60.50
  Q 100.31 59.40 112.14 61.21
  Z"
/>
<path fill="#75a149" d="
  M 167.96 61.25
  Q 167.90 61.54 168.14 61.70
  A 0.34 0.31 54.3 0 0 168.37 61.75
  Q 171.95 61.15 175.40 62.42
  Q 181.39 64.62 186.89 67.88
  Q 189.29 69.30 186.50 69.37
  L 183.85 69.43
  C 179.09 66.86 173.76 63.51 168.25 63.04
  L 166.50 62.71
  L 167.96 61.25
  Z"
/>
<path fill="#e2a44b" d="
  M 166.50 62.71
  L 168.25 63.04
  Q 168.09 63.21 168.03 63.43
  A 0.66 0.65 36.1 0 0 168.11 63.92
  Q 169.68 66.49 167.00 67.96
  A 1.00 0.98 43.2 0 1 166.08 67.98
  L 163.00 66.46
  Q 164.27 64.18 166.50 62.71
  Z"
/>
<path fill="#ffffff" d="
  M 168.25 63.04
  C 173.76 63.51 179.09 66.86 183.85 69.43
  Q 188.52 74.84 194.64 78.37
  C 198.69 80.71 204.39 81.20 207.94 83.04
  C 217.46 87.98 224.00 96.46 224.14 107.44
  C 224.33 122.06 226.23 129.30 235.19 140.58
  C 236.05 141.66 236.14 142.67 236.00 143.96
  Q 228.76 148.76 225.44 156.76
  A 1.02 1.01 -75.8 0 1 224.43 157.37
  Q 204.46 155.69 194.87 173.25
  Q 174.94 170.04 154.72 167.08
  C 150.03 166.39 144.08 166.14 138.79 165.25
  Q 138.35 157.31 139.27 149.43
  A 0.99 0.97 72.7 0 1 139.59 148.80
  Q 141.52 147.04 144.47 145.98
  Q 143.99 150.58 148.07 150.40
  A 1.01 1.01 0.0 0 0 148.83 149.98
  C 150.29 147.98 152.38 147.80 153.86 146.34
  Q 156.36 143.87 157.63 140.65
  A 1.00 1.00 0.0 0 1 158.40 140.03
  Q 161.30 139.57 162.00 136.46
  Q 169.80 142.31 179.32 140.50
  C 180.03 140.37 181.39 139.06 179.51 138.96
  Q 170.45 138.48 162.71 133.75
  Q 161.99 130.01 165.48 130.19
  Q 174.12 130.65 182.74 130.57
  C 185.24 130.55 184.35 129.36 183.06 129.02
  Q 172.71 126.29 162.01 129.48
  Q 160.06 130.06 160.54 128.00
  C 170.17 123.52 176.17 120.92 179.04 111.53
  C 179.34 110.53 179.10 109.68 177.99 110.99
  Q 174.77 114.79 171.73 118.71
  Q 171.63 118.83 171.38 118.97
  Q 170.11 119.67 170.96 118.49
  Q 174.26 113.92 176.69 108.80
  C 177.18 107.77 177.33 104.84 175.22 107.24
  Q 168.52 114.89 163.78 123.89
  L 162.96 123.25
  L 168.88 110.34
  A 0.98 0.95 52.9 0 0 168.95 109.75
  Q 168.62 107.87 169.15 106.01
  Q 169.82 103.69 168.27 105.53
  Q 167.77 106.12 167.56 106.93
  A 1.01 1.01 0.0 0 1 166.23 107.60
  L 161.65 105.85
  Q 159.41 104.99 161.71 104.33
  L 163.10 103.93
  A 1.00 1.00 0.0 0 0 163.81 103.11
  C 164.32 99.58 158.98 100.41 157.46 103.43
  L 155.99 101.18
  A 1.00 0.99 66.2 0 0 154.92 100.76
  L 146.64 102.75
  A 0.99 0.97 7.5 0 0 146.00 103.23
  Q 144.45 106.03 141.50 106.79
  Q 138.74 98.32 143.24 90.79
  Q 146.66 92.36 148.53 90.61
  Q 151.54 87.79 152.73 84.09
  A 0.97 0.97 0.0 0 1 153.30 83.48
  Q 155.39 82.61 155.25 80.23
  A 1.00 1.00 0.0 0 1 155.84 79.26
  L 158.12 78.24
  A 1.03 1.01 0.6 0 0 158.61 77.77
  L 161.29 72.25
  C 162.71 72.93 164.01 73.84 164.83 75.30
  Q 168.96 82.65 174.72 86.27
  Q 175.54 86.79 176.54 86.67
  Q 178.75 86.41 177.08 84.93
  Q 176.29 84.23 175.52 83.54
  C 171.59 80.02 168.82 74.12 166.47 72.78
  Q 163.84 71.28 161.28 69.72
  A 1.01 1.00 39.8 0 1 161.13 68.11
  L 163.00 66.46
  L 166.08 67.98
  A 1.00 0.98 43.2 0 0 167.00 67.96
  Q 169.68 66.49 168.11 63.92
  A 0.66 0.65 36.1 0 1 168.03 63.43
  Q 168.09 63.21 168.25 63.04
  Z"
/>
<path fill="#805825" d="
  M 130.25 74.96
  L 134.93 77.19
  A 1.10 1.07 88.6 0 1 135.38 77.63
  Q 136.13 79.04 137.36 78.37
  Q 138.48 78.78 139.47 79.83
  Q 139.20 83.78 141.66 85.66
  L 142.31 85.42
  A 1.00 1.00 0.0 0 1 143.65 86.22
  Q 143.97 88.64 143.24 90.79
  Q 138.74 98.32 141.50 106.79
  L 146.23 108.13
  A 1.01 1.01 0.0 0 0 147.26 107.82
  L 148.69 106.19
  Q 148.84 106.02 149.06 105.93
  C 150.04 105.52 156.59 104.86 155.70 107.11
  A 0.52 0.51 -71.5 0 1 155.09 107.42
  Q 151.33 106.41 149.88 109.57
  A 1.02 1.01 -75.9 0 1 148.92 110.15
  L 145.46 110.00
  A 1.03 0.98 -59.4 0 0 144.83 110.18
  L 141.17 112.82
  Q 137.96 126.20 140.36 139.72
  A 0.80 0.78 11.1 0 0 140.74 140.27
  Q 141.38 140.65 142.00 140.21
  Q 145.09 139.49 148.06 140.29
  A 1.01 1.01 0.0 0 0 149.09 139.96
  Q 152.41 135.96 155.42 131.60
  C 157.61 128.43 158.40 132.03 156.64 133.63
  Q 152.90 137.04 150.07 141.42
  A 1.03 0.96 -84.5 0 1 149.65 141.79
  Q 146.32 143.30 144.47 145.98
  Q 141.52 147.04 139.59 148.80
  A 0.99 0.97 72.7 0 0 139.27 149.43
  Q 138.35 157.31 138.79 165.25
  L 139.81 184.05
  L 141.01 194.98
  Q 135.14 195.77 129.25 194.79
  Q 132.26 190.53 131.71 185.25
  L 132.12 164.45
  Q 132.98 156.97 126.68 153.91
  A 1.00 1.00 0.0 0 0 125.25 154.77
  L 125.15 156.81
  A 0.99 0.99 0.0 0 1 124.79 157.53
  Q 122.63 159.32 121.97 156.80
  Q 123.98 151.67 118.13 151.58
  A 1.05 1.02 68.5 0 1 117.40 151.25
  C 114.63 148.17 121.12 146.65 122.54 150.32
  A 1.01 1.00 79.5 0 0 123.46 150.96
  Q 125.89 151.01 127.93 152.38
  A 1.03 1.00 52.1 0 0 128.82 152.50
  Q 130.17 152.03 131.04 151.00
  C 135.57 143.65 134.90 126.61 134.46 117.25
  C 134.07 114.08 136.41 112.82 134.96 109.75
  C 136.87 105.53 135.78 94.07 135.79 89.00
  C 136.64 86.26 134.71 83.63 134.31 81.20
  A 1.00 1.00 0.0 0 0 133.39 80.37
  L 130.29 80.15
  A 1.00 0.98 81.9 0 1 129.42 79.49
  Q 128.04 75.67 130.25 74.96
  Z"
/>
<path fill="#f8dcb5" d="
  M 141.66 85.66
  Q 139.20 83.78 139.47 79.83
  Q 142.36 80.29 143.79 78.10
  A 0.82 0.80 20.5 0 1 144.58 77.75
  L 144.88 77.80
  A 0.40 0.40 0.0 0 1 145.18 78.38
  L 141.66 85.66
  Z"
/>
<path fill="#75a149" d="
  M 97.29 96.50
  L 97.54 97.25
  L 97.21 98.50
  L 95.90 98.33
  A 1.03 1.01 72.1 0 1 95.29 98.01
  Q 88.80 90.83 87.23 88.77
  Q 84.56 85.26 82.69 81.97
  Q 79.72 76.74 84.22 80.73
  Q 86.29 82.56 88.19 84.56
  Q 90.04 86.51 96.29 96.55
  C 96.57 97.00 97.15 97.43 97.29 96.50
  Z"
/>
<path fill="#568131" d="
  M 102.96 93.50
  Q 100.61 93.88 99.57 95.92
  A 1.00 0.94 -89.2 0 1 99.17 96.33
  L 97.54 97.25
  L 97.29 96.50
  L 95.02 83.15
  Q 94.77 81.66 95.88 82.69
  Q 96.05 82.86 96.20 83.03
  A 1.00 1.00 0.0 0 0 97.89 82.76
  L 98.04 82.39
  Q 98.85 80.38 99.26 82.51
  Q 100.36 88.27 102.96 93.50
  Z"
/>
<path fill="#75a149" d="
  M 89.00 94.71
  Q 86.70 96.69 84.79 94.06
  Q 78.20 91.94 72.99 87.54
  Q 69.14 84.28 73.95 85.82
  Q 82.44 88.55 89.00 94.71
  Z"
/>
<path fill="#568131" d="
  M 125.00 109.29
  C 125.06 111.02 127.03 111.05 126.69 112.41
  A 1.02 1.01 -81.2 0 1 125.66 113.17
  L 122.93 113.01
  Q 122.58 112.36 122.05 111.86
  A 1.01 1.00 34.3 0 0 120.46 112.16
  Q 118.83 115.55 114.37 114.87
  A 1.00 1.00 0.0 0 1 113.53 113.74
  C 113.95 110.80 111.40 112.45 110.18 112.99
  C 104.50 115.48 99.81 118.45 93.48 117.74
  C 90.92 117.45 93.30 116.13 93.94 115.93
  Q 100.72 113.81 107.25 110.96
  Q 113.55 111.40 113.26 106.53
  A 1.01 1.00 -83.3 0 1 114.55 105.51
  Q 117.42 106.38 119.47 108.58
  A 1.01 1.00 55.4 0 0 120.65 108.80
  Q 121.78 108.24 120.61 107.10
  Q 116.56 103.15 115.04 100.40
  Q 113.17 95.63 111.24 91.26
  Q 111.05 90.83 111.05 90.43
  Q 111.02 88.11 112.73 89.68
  Q 115.35 92.09 117.09 95.12
  Q 119.81 99.82 122.76 106.96
  Q 123.36 108.40 125.00 109.29
  Z"
/>
<path fill="#568131" d="
  M 84.79 94.06
  Q 86.70 96.69 89.00 94.71
  L 92.08 97.70
  Q 88.39 98.45 84.50 97.54
  Q 75.26 96.19 67.10 91.69
  A 0.66 0.63 6.0 0 1 66.81 91.35
  C 65.99 89.20 83.28 93.71 84.79 94.06
  Z"
/>
<path fill="#e2a44b" d="
  M 102.96 93.50
  L 106.43 97.51
  A 1.01 1.00 60.8 0 0 107.48 97.81
  L 109.35 97.24
  A 1.00 0.99 -27.2 0 1 110.44 97.58
  Q 112.21 99.91 115.04 100.40
  Q 116.56 103.15 120.61 107.10
  Q 121.78 108.24 120.65 108.80
  A 1.01 1.00 55.4 0 1 119.47 108.58
  Q 117.42 106.38 114.55 105.51
  A 1.01 1.00 -83.3 0 0 113.26 106.53
  Q 113.55 111.40 107.25 110.96
  L 106.10 108.24
  A 0.98 0.98 0.0 0 0 105.28 107.64
  C 103.77 107.48 100.71 108.98 100.11 106.63
  A 1.00 1.00 0.0 0 1 100.72 105.46
  C 104.79 103.85 98.48 104.47 98.29 104.50
  Q 99.37 103.12 98.00 102.29
  L 97.71 102.00
  L 97.71 101.00
  L 97.21 98.50
  L 97.54 97.25
  L 99.17 96.33
  A 1.00 0.94 -89.2 0 0 99.57 95.92
  Q 100.61 93.88 102.96 93.50
  Z"
/>
<path fill="#75a149" d="
  M 92.08 97.70
  Q 94.01 97.91 95.50 99.96
  Q 91.98 100.52 88.50 101.27
  C 82.81 102.48 77.30 101.72 71.46 103.00
  L 71.04 101.53
  A 1.00 0.99 84.7 0 0 70.19 100.82
  C 69.31 100.72 66.71 100.36 66.85 99.11
  A 0.64 0.63 2.6 0 1 67.47 98.55
  Q 75.88 98.42 84.25 98.27
  Q 85.13 98.25 84.50 97.54
  Q 88.39 98.45 92.08 97.70
  Z"
/>
<path fill="#568131" d="
  M 95.50 99.96
  L 97.71 101.00
  L 97.71 102.00
  Q 94.62 101.72 91.85 102.92
  C 84.62 106.03 78.78 106.67 71.46 103.00
  C 77.30 101.72 82.81 102.48 88.50 101.27
  Q 91.98 100.52 95.50 99.96
  Z"
/>
<path fill="#e2a44b" d="
  M 157.46 103.43
  Q 155.47 103.85 155.96 105.32
  A 1.01 1.00 6.1 0 0 156.40 105.86
  L 160.04 108.00
  L 159.21 113.00
  Q 157.75 109.97 156.54 113.50
  Q 156.81 112.44 156.22 111.96
  A 0.79 0.78 -34.9 0 0 155.46 111.83
  C 152.20 112.93 149.21 113.78 146.10 115.30
  C 142.96 116.83 143.69 113.29 141.17 112.82
  L 144.83 110.18
  A 1.03 0.98 -59.4 0 1 145.46 110.00
  L 148.92 110.15
  A 1.02 1.01 -75.9 0 0 149.88 109.57
  Q 151.33 106.41 155.09 107.42
  A 0.52 0.51 -71.5 0 0 155.70 107.11
  C 156.59 104.86 150.04 105.52 149.06 105.93
  Q 148.84 106.02 148.69 106.19
  L 147.26 107.82
  A 1.01 1.01 0.0 0 1 146.23 108.13
  L 141.50 106.79
  Q 144.45 106.03 146.00 103.23
  A 0.99 0.97 7.5 0 1 146.64 102.75
  L 154.92 100.76
  A 1.00 0.99 66.2 0 1 155.99 101.18
  L 157.46 103.43
  Z"
/>
<path fill="#75a149" d="
  M 162.96 123.25
  Q 162.18 124.80 162.23 122.49
  Q 162.29 119.91 165.74 111.30
  A 1.00 0.99 -64.0 0 0 165.32 110.07
  Q 162.81 108.58 160.04 108.00
  L 156.40 105.86
  A 1.01 1.00 6.1 0 1 155.96 105.32
  Q 155.47 103.85 157.46 103.43
  C 158.98 100.41 164.32 99.58 163.81 103.11
  A 1.00 1.00 0.0 0 1 163.10 103.93
  L 161.71 104.33
  Q 159.41 104.99 161.65 105.85
  L 166.23 107.60
  A 1.01 1.01 0.0 0 0 167.56 106.93
  Q 167.77 106.12 168.27 105.53
  Q 169.82 103.69 169.15 106.01
  Q 168.62 107.87 168.95 109.75
  A 0.98 0.95 52.9 0 1 168.88 110.34
  L 162.96 123.25
  Z"
/>
<path fill="#75a149" d="
  M 98.00 102.29
  Q 99.37 103.12 98.29 104.50
  C 95.66 107.26 90.36 115.46 87.69 116.19
  Q 85.94 116.66 86.83 115.28
  C 90.48 109.61 92.65 106.02 97.75 103.03
  A 0.52 0.52 0.0 0 0 98.01 102.58
  L 98.00 102.29
  Z"
/>
<path fill="#e2a44b" d="
  M 134.96 109.75
  C 136.41 112.82 134.07 114.08 134.46 117.25
  C 132.15 119.62 127.71 120.86 125.96 117.06
  A 1.02 1.01 -11.2 0 0 125.09 116.48
  Q 119.25 116.22 122.93 113.01
  L 125.66 113.17
  A 1.02 1.01 -81.2 0 0 126.69 112.41
  C 127.03 111.05 125.06 111.02 125.00 109.29
  L 125.82 108.28
  A 1.02 1.01 61.1 0 0 126.04 107.50
  Q 125.59 104.44 128.68 104.37
  A 1.03 1.00 64.2 0 1 129.37 104.62
  Q 131.64 106.64 131.16 109.66
  C 130.90 111.28 131.33 112.63 133.29 111.88
  A 1.02 0.99 -82.2 0 0 133.76 111.51
  L 134.96 109.75
  Z"
/>
<path fill="#568131" d="
  M 160.54 128.00
  L 159.50 126.79
  L 163.78 123.89
  Q 168.52 114.89 175.22 107.24
  C 177.33 104.84 177.18 107.77 176.69 108.80
  Q 174.26 113.92 170.96 118.49
  Q 170.11 119.67 171.38 118.97
  Q 171.63 118.83 171.73 118.71
  Q 174.77 114.79 177.99 110.99
  C 179.10 109.68 179.34 110.53 179.04 111.53
  C 176.17 120.92 170.17 123.52 160.54 128.00
  Z"
/>
<path fill="#f6fff1" d="
  M 160.04 108.00
  Q 162.81 108.58 165.32 110.07
  A 1.00 0.99 -64.0 0 1 165.74 111.30
  Q 162.29 119.91 162.23 122.49
  Q 162.18 124.80 162.96 123.25
  L 163.78 123.89
  L 159.50 126.79
  Q 158.54 126.87 158.46 126.00
  Q 159.91 119.56 159.21 113.00
  L 160.04 108.00
  Z"
/>
<path fill="#568131" d="
  M 159.21 113.00
  Q 159.91 119.56 158.46 126.00
  Q 157.84 127.14 156.79 126.75
  Q 155.23 120.16 156.54 113.50
  Q 157.75 109.97 159.21 113.00
  Z"
/>
<path fill="#ffffff" d="
  M 156.54 113.50
  Q 155.23 120.16 156.79 126.75
  C 154.24 128.61 150.86 130.15 149.38 133.03
  A 1.07 1.03 -86.1 0 1 148.86 133.50
  L 143.14 135.77
  A 1.01 1.00 -7.3 0 0 142.52 136.56
  L 142.00 140.21
  Q 141.38 140.65 140.74 140.27
  A 0.80 0.78 11.1 0 1 140.36 139.72
  Q 137.96 126.20 141.17 112.82
  C 143.69 113.29 142.96 116.83 146.10 115.30
  C 149.21 113.78 152.20 112.93 155.46 111.83
  A 0.79 0.78 -34.9 0 1 156.22 111.96
  Q 156.81 112.44 156.54 113.50
  Z"
/>
<path fill="#e2a44b" d="
  M 121.54 143.25
  Q 122.23 145.42 123.96 144.50
  L 125.75 146.57
  A 1.00 1.00 0.0 0 0 127.40 146.36
  Q 128.19 144.79 130.25 145.86
  A 1.01 1.00 12.9 0 1 130.78 146.69
  L 131.04 151.00
  Q 130.17 152.03 128.82 152.50
  A 1.03 1.00 52.1 0 1 127.93 152.38
  Q 125.89 151.01 123.46 150.96
  A 1.01 1.00 79.5 0 1 122.54 150.32
  C 121.12 146.65 114.63 148.17 117.40 151.25
  A 1.05 1.02 68.5 0 0 118.13 151.58
  Q 123.98 151.67 121.97 156.80
  Q 120.72 155.40 119.50 155.21
  Q 120.62 153.70 119.60 152.86
  A 0.99 0.99 0.0 0 0 118.62 152.69
  L 116.09 153.64
  Q 114.33 153.32 112.82 154.44
  Q 113.28 150.96 109.54 153.25
  L 109.62 151.04
  A 1.00 1.00 0.0 0 0 108.89 150.04
  L 104.21 148.75
  L 105.75 146.04
  Q 106.96 145.56 107.29 143.75
  Q 98.31 136.42 88.42 130.49
  C 87.76 130.09 87.99 129.38 88.73 129.60
  Q 100.76 133.23 109.29 142.50
  Q 109.37 143.67 110.15 144.32
  Q 112.65 146.40 111.13 143.52
  Q 110.63 142.59 110.50 141.54
  Q 111.40 140.94 112.04 139.97
  A 0.99 0.98 49.7 0 0 112.11 139.00
  Q 109.26 132.81 109.06 126.02
  C 109.00 123.83 110.42 124.40 110.94 125.64
  Q 114.03 132.93 114.88 140.84
  C 114.97 141.73 115.42 143.70 116.67 142.07
  A 1.01 0.99 -63.9 0 1 117.69 141.71
  Q 119.50 142.13 119.88 144.16
  A 0.98 0.97 6.9 0 0 120.46 144.89
  Q 121.57 145.37 121.54 143.25
  Z"
/>
<path fill="#e2a44b" d="
  M 158.46 126.00
  Q 158.54 126.87 159.50 126.79
  L 160.54 128.00
  Q 160.06 130.06 162.01 129.48
  Q 172.71 126.29 183.06 129.02
  C 184.35 129.36 185.24 130.55 182.74 130.57
  Q 174.12 130.65 165.48 130.19
  Q 161.99 130.01 162.71 133.75
  Q 160.38 134.56 162.00 136.46
  Q 161.30 139.57 158.40 140.03
  A 1.00 1.00 0.0 0 0 157.63 140.65
  Q 156.36 143.87 153.86 146.34
  C 152.38 147.80 150.29 147.98 148.83 149.98
  A 1.01 1.01 0.0 0 1 148.07 150.40
  Q 143.99 150.58 144.47 145.98
  Q 146.32 143.30 149.65 141.79
  A 1.03 0.96 -84.5 0 0 150.07 141.42
  Q 152.90 137.04 156.64 133.63
  C 158.40 132.03 157.61 128.43 155.42 131.60
  Q 152.41 135.96 149.09 139.96
  A 1.01 1.01 0.0 0 1 148.06 140.29
  Q 145.09 139.49 142.00 140.21
  L 142.52 136.56
  A 1.01 1.00 -7.3 0 1 143.14 135.77
  L 148.86 133.50
  A 1.07 1.03 -86.1 0 0 149.38 133.03
  C 150.86 130.15 154.24 128.61 156.79 126.75
  Q 157.84 127.14 158.46 126.00
  Z"
/>
<path fill="#568131" d="
  M 162.71 133.75
  Q 170.45 138.48 179.51 138.96
  C 181.39 139.06 180.03 140.37 179.32 140.50
  Q 169.80 142.31 162.00 136.46
  Q 160.38 134.56 162.71 133.75
  Z"
/>
<path fill="#568131" d="
  M 123.96 144.50
  Q 122.23 145.42 121.54 143.25
  Q 120.43 138.94 121.73 134.67
  A 0.65 0.63 6.9 0 1 122.32 134.22
  C 123.80 134.16 123.90 140.88 123.96 144.50
  Z"
/>
<path fill="#568131" d="
  M 107.29 143.75
  Q 106.96 145.56 105.75 146.04
  C 102.17 149.65 95.36 144.75 91.27 144.47
  Q 90.14 143.45 88.76 143.01
  A 1.00 0.99 -78.4 0 1 88.07 141.95
  Q 88.22 140.50 90.24 141.03
  Q 90.62 141.13 90.99 141.21
  Q 96.03 142.36 91.57 139.74
  Q 89.13 138.31 86.71 136.89
  C 86.21 136.60 85.60 135.90 86.46 135.54
  A 0.84 0.79 -46.6 0 1 87.00 135.51
  Q 97.34 138.70 107.29 143.75
  Z"
/>
<path fill="#f9e089" d="
  M 110.50 141.54
  Q 110.63 142.59 111.13 143.52
  Q 112.65 146.40 110.15 144.32
  Q 109.37 143.67 109.29 142.50
  L 110.50 141.54
  Z"
/>
<path fill="#75a149" d="
  M 91.27 144.47
  C 95.36 144.75 102.17 149.65 105.75 146.04
  L 104.21 148.75
  Q 92.67 149.56 82.58 144.01
  A 0.27 0.26 -52.4 0 1 82.53 143.59
  L 82.74 143.39
  A 0.24 0.21 22.5 0 1 82.92 143.33
  L 91.27 144.47
  Z"
/>
<path fill="#75a149" d="
  M 236.00 143.96
  C 236.82 144.12 237.37 144.53 237.70 145.35
  C 242.12 156.33 238.30 165.22 231.46 174.50
  L 208.75 175.46
  L 196.53 174.50
  A 0.99 0.98 67.7 0 1 195.92 174.24
  L 194.87 173.25
  Q 204.46 155.69 224.43 157.37
  A 1.02 1.01 -75.8 0 0 225.44 156.76
  Q 228.76 148.76 236.00 143.96
  Z"
/>
<path fill="#568131" d="
  M 112.82 154.44
  C 107.98 159.93 105.65 160.30 98.42 160.23
  Q 97.51 160.22 98.11 159.55
  Q 98.29 159.35 98.55 159.29
  Q 105.11 157.75 109.54 153.25
  Q 113.28 150.96 112.82 154.44
  Z"
/>
<path fill="#75a149" d="
  M 119.50 155.21
  C 117.61 157.03 118.98 160.39 119.38 163.56
  Q 119.15 167.71 117.47 172.20
  A 0.64 0.63 -67.4 0 1 116.61 172.56
  C 116.41 172.47 115.91 164.43 115.81 164.06
  C 115.49 161.95 114.01 155.43 116.09 153.64
  L 118.62 152.69
  A 0.99 0.99 0.0 0 1 119.60 152.86
  Q 120.62 153.70 119.50 155.21
  Z"
/>
<path fill="#ffffff" d="
  M 132.12 164.45
  Q 131.89 164.52 131.78 164.63
  A 0.64 0.11 -46.9 0 1 131.37 164.94
  Q 125.29 165.30 119.38 163.56
  C 118.98 160.39 117.61 157.03 119.50 155.21
  Q 120.72 155.40 121.97 156.80
  Q 122.63 159.32 124.79 157.53
  A 0.99 0.99 0.0 0 0 125.15 156.81
  L 125.25 154.77
  A 1.00 1.00 0.0 0 1 126.68 153.91
  Q 132.98 156.97 132.12 164.45
  Z"
/>
<path fill="#d2b496" d="
  M 119.38 163.56
  Q 125.29 165.30 131.37 164.94
  A 0.64 0.11 -46.9 0 0 131.78 164.63
  Q 131.89 164.52 132.12 164.45
  L 131.71 185.25
  C 123.87 187.34 115.73 188.89 108.01 191.34
  Q 104.90 192.32 100.82 191.43
  Q 89.61 188.96 73.34 187.15
  C 64.00 186.10 51.54 184.25 40.29 184.25
  Q 34.89 176.42 30.44 168.09
  Q 72.92 162.46 115.81 164.06
  C 115.91 164.43 116.41 172.47 116.61 172.56
  A 0.64 0.63 -67.4 0 0 117.47 172.20
  Q 119.15 167.71 119.38 163.56
  Z"
/>
<path fill="#d2b496" d="
  M 138.79 165.25
  C 144.08 166.14 150.03 166.39 154.72 167.08
  Q 174.94 170.04 194.87 173.25
  L 195.92 174.24
  A 0.99 0.98 67.7 0 0 196.53 174.50
  L 208.75 175.46
  Q 174.04 177.65 139.81 184.05
  L 138.79 165.25
  Z"
/>
<path fill="#f8dcb5" d="
  M 231.46 174.50
  Q 232.33 177.10 229.81 177.98
  A 1.01 0.99 -88.5 0 0 229.20 178.57
  Q 227.67 182.63 226.17 186.60
  C 225.32 188.84 223.28 190.40 222.67 193.01
  A 1.00 0.99 -83.9 0 1 221.73 193.77
  L 203.50 194.46
  L 200.25 194.46
  Q 190.10 193.43 180.00 194.71
  L 141.01 194.98
  L 139.81 184.05
  Q 174.04 177.65 208.75 175.46
  L 231.46 174.50
  Z"
/>
<path fill="#e6c9a8" d="
  M 40.29 184.25
  C 51.54 184.25 64.00 186.10 73.34 187.15
  Q 89.61 188.96 100.82 191.43
  Q 104.90 192.32 108.01 191.34
  C 115.73 188.89 123.87 187.34 131.71 185.25
  Q 132.26 190.53 129.25 194.79
  Q 121.06 195.42 112.85 195.26
  C 109.98 195.20 106.65 196.00 103.48 195.73
  Q 98.56 195.32 98.49 195.31
  Q 69.38 194.52 40.25 194.71
  Q 41.18 189.48 40.29 184.25
  Z"
/>
<path fill="#d2b496" d="
  M 200.25 194.46
  Q 190.12 195.12 180.00 194.71
  Q 190.10 193.43 200.25 194.46
  Z"
/>
<path fill="#59ad4b" d="
  M 200.25 194.46
  L 203.50 194.46
  Q 221.10 195.33 238.71 194.75
  Q 246.23 195.11 253.74 195.04
  C 263.15 194.96 267.80 197.33 266.32 207.36
  Q 263.85 224.11 261.13 240.81
  C 260.17 246.71 256.49 249.38 250.79 249.25
  Q 248.16 249.18 245.78 249.53
  Q 220.29 248.68 194.80 248.91
  C 194.12 248.92 193.32 249.37 192.79 249.75
  L 176.25 249.29
  L 90.19 249.32
  L 72.90 249.55
  C 70.96 248.28 69.05 249.08 67.46 249.03
  Q 43.45 248.25 19.50 249.41
  Q 12.11 248.39 10.77 240.53
  Q 6.00 212.70 5.25 206.01
  C 3.70 192.30 20.11 194.96 28.15 194.62
  L 40.25 194.71
  Q 69.38 194.52 98.49 195.31
  Q 98.56 195.32 103.48 195.73
  C 106.65 196.00 109.98 195.20 112.85 195.26
  Q 121.06 195.42 129.25 194.79
  Q 135.14 195.77 141.01 194.98
  L 180.00 194.71
  Q 190.12 195.12 200.25 194.46
  Z
  M 146.41 228.83
  Q 147.63 229.88 148.53 231.25
  C 149.36 232.53 151.33 234.04 150.79 230.48
  A 1.01 0.96 -73.5 0 0 150.50 229.91
  L 144.80 224.42
  A 1.03 1.02 23.9 0 1 144.50 223.65
  L 144.81 216.62
  A 1.00 0.99 -1.7 0 1 145.70 215.68
  L 147.29 215.50
  A 1.00 0.99 -4.0 0 1 148.40 216.46
  L 148.55 221.17
  A 1.03 1.00 -16.8 0 1 148.05 222.07
  L 147.05 222.65
  Q 144.86 223.94 147.34 224.49
  Q 150.29 225.15 150.50 222.20
  Q 150.81 217.81 150.74 213.68
  A 1.00 1.00 0.0 0 0 149.44 212.74
  Q 144.62 214.27 144.88 210.35
  A 0.99 0.99 0.0 0 1 145.87 209.42
  L 149.87 209.40
  A 1.00 0.99 -82.4 0 0 150.83 208.66
  L 151.09 207.73
  A 1.00 1.00 0.0 0 0 150.08 206.47
  L 146.30 206.63
  A 1.01 1.01 0.0 0 1 145.31 205.96
  C 145.03 205.15 144.50 202.39 143.37 202.76
  A 0.99 0.99 0.0 0 0 142.71 203.47
  L 142.16 205.73
  A 1.00 1.00 0.0 0 1 141.19 206.50
  L 136.37 206.50
  A 1.00 1.00 0.0 0 0 135.39 207.68
  L 135.59 208.79
  A 1.00 1.00 0.0 0 0 136.68 209.61
  L 140.90 209.13
  A 1.02 1.01 76.5 0 1 141.95 209.78
  Q 143.75 214.59 137.53 212.63
  A 1.00 1.00 0.0 0 0 136.23 213.58
  L 136.26 224.66
  A 0.80 0.80 0.0 0 0 136.93 225.45
  C 139.18 225.81 138.63 217.96 138.79 216.39
  A 1.01 1.01 0.0 0 1 139.89 215.50
  L 141.31 215.64
  A 1.00 1.00 0.0 0 1 142.20 216.49
  C 143.22 223.34 140.25 227.80 135.14 232.53
  A 1.00 1.00 0.0 0 0 135.02 233.87
  L 135.46 234.46
  A 1.01 1.00 -44.2 0 0 137.05 234.48
  Q 139.50 231.39 141.63 228.06
  C 142.45 226.79 142.55 228.48 142.51 228.86
  Q 142.08 233.41 142.78 237.95
  A 0.80 0.79 -7.2 0 0 143.65 238.62
  L 144.01 238.58
  A 1.00 0.99 -3.8 0 0 144.90 237.57
  L 144.76 229.60
  Q 144.72 227.35 146.41 228.83
  Z
  M 157.21 215.60
  C 161.83 214.39 159.34 223.46 158.74 224.73
  Q 157.21 227.96 152.28 232.75
  A 1.03 1.01 -21.5 0 0 151.98 233.42
  Q 151.82 236.86 154.19 234.22
  Q 156.44 231.71 158.30 229.03
  Q 159.75 226.93 159.75 229.49
  L 159.75 237.49
  A 1.01 1.00 -2.1 0 0 160.83 238.49
  L 161.60 238.42
  A 1.00 0.99 -2.2 0 0 162.52 237.43
  L 162.52 230.10
  Q 162.52 226.83 164.35 229.54
  L 167.70 234.50
  A 1.01 1.00 -35.6 0 0 169.14 234.73
  L 169.93 234.11
  A 1.00 1.00 0.0 0 0 169.99 232.58
  Q 165.39 228.43 162.68 222.77
  Q 162.19 221.74 162.52 216.72
  A 1.01 0.99 -88.7 0 1 163.49 215.78
  L 165.14 215.74
  A 1.01 1.00 -7.2 0 1 166.13 216.50
  Q 167.12 220.38 164.69 222.99
  Q 163.36 224.42 165.30 224.66
  Q 166.77 224.84 168.07 223.80
  A 1.06 1.05 -18.1 0 0 168.45 223.06
  L 168.84 214.28
  A 1.00 1.00 0.0 0 0 167.95 213.23
  L 163.40 212.77
  A 1.00 0.99 2.9 0 1 162.50 211.78
  L 162.50 210.30
  A 1.00 0.99 -88.4 0 1 163.55 209.30
  L 168.37 209.55
  A 0.99 0.99 0.0 0 0 169.42 208.64
  L 169.49 207.77
  A 1.00 1.00 0.0 0 0 168.54 206.69
  L 163.56 206.44
  A 1.01 0.99 82.5 0 1 162.65 205.73
  L 162.04 203.73
  A 1.01 1.00 62.4 0 0 160.46 203.23
  Q 159.50 204.00 159.67 205.65
  A 1.00 0.99 -3.1 0 1 158.68 206.75
  L 153.94 206.75
  A 1.00 1.00 0.0 0 0 152.99 208.07
  L 153.16 208.57
  A 1.02 1.00 80.1 0 0 154.11 209.25
  L 158.28 209.24
  A 1.03 0.95 61.4 0 1 158.87 209.44
  Q 160.96 210.98 159.16 212.80
  A 1.00 0.97 23.9 0 1 158.37 213.09
  L 154.85 212.81
  A 1.00 1.00 0.0 0 0 153.77 213.82
  L 153.91 223.92
  A 1.06 1.04 28.5 0 0 154.07 224.44
  C 156.89 228.82 156.41 216.92 156.47 216.43
  A 0.99 0.98 87.0 0 1 157.21 215.60
  Z
  M 120.2486 204.1824
  A 1.22 1.22 0.0 0 0 119.0307 202.9603
  L 118.7307 202.9598
  A 1.22 1.22 0.0 0 0 117.5086 204.1776
  L 117.4714 225.4576
  A 1.22 1.22 0.0 0 0 118.6893 226.6797
  L 118.9893 226.6802
  A 1.22 1.22 0.0 0 0 120.2114 225.4624
  L 120.2486 204.1824
  Z
  M 105.3829 209.6631
  A 0.26 0.26 0.0 0 0 105.3521 209.2967
  L 98.7835 203.7458
  A 0.26 0.26 0.0 0 0 98.4171 203.7765
  L 96.9971 205.4569
  A 0.26 0.26 0.0 0 0 97.0279 205.8233
  L 103.5965 211.3742
  A 0.26 0.26 0.0 0 0 103.9629 211.3435
  L 105.3829 209.6631
  Z
  M 125.6967 207.6495
  A 1.17 1.17 0.0 0 0 124.1054 207.1962
  L 124.0355 207.2351
  A 1.17 1.17 0.0 0 0 123.5822 208.8264
  L 128.8833 218.3505
  A 1.17 1.17 0.0 0 0 130.4746 218.8038
  L 130.5445 218.7649
  A 1.17 1.17 0.0 0 0 130.9978 217.1736
  L 125.6967 207.6495
  Z
  M 112.34 208.24
  Q 112.11 208.31 111.89 208.45
  Q 111.39 208.76 111.16 209.62
  Q 109.54 215.44 106.68 220.75
  Q 106.16 221.72 106.34 222.42
  Q 106.48 222.96 106.84 223.42
  A 1.00 1.00 0.0 0 0 108.46 223.35
  Q 112.64 216.95 113.63 209.32
  A 1.00 0.99 -4.9 0 0 112.34 208.24
  Z
  M 103.5708 219.7284
  A 1.38 1.38 0.0 0 0 103.4177 217.7828
  L 98.8857 213.9121
  A 1.38 1.38 0.0 0 0 96.9401 214.0652
  L 96.8492 214.1716
  A 1.38 1.38 0.0 0 0 97.0023 216.1172
  L 101.5343 219.9879
  A 1.38 1.38 0.0 0 0 103.4799 219.8348
  L 103.5708 219.7284
  Z
  M 108.34 238.24
  Q 121.99 235.63 128.41 223.54
  C 129.01 222.41 128.91 220.37 127.06 221.00
  A 1.00 0.97 3.6 0 0 126.50 221.48
  Q 120.68 232.54 108.45 235.38
  Q 108.23 235.43 108.05 235.58
  Q 106.87 236.54 107.20 237.56
  A 1.01 1.00 -14.1 0 0 108.34 238.24
  Z
  M 104.3927 225.8929
  A 1.15 1.15 0.0 0 0 103.7703 224.3904
  L 103.2899 224.1914
  A 1.15 1.15 0.0 0 0 101.7874 224.8138
  L 96.9273 236.5471
  A 1.15 1.15 0.0 0 0 97.5497 238.0496
  L 98.0301 238.2486
  A 1.15 1.15 0.0 0 0 99.5326 237.6262
  L 104.3927 225.8929
  Z"
/>
<path fill="#ffffff" d="
  M 144.76 229.60
  L 144.90 237.57
  A 1.00 0.99 -3.8 0 1 144.01 238.58
  L 143.65 238.62
  A 0.80 0.79 -7.2 0 1 142.78 237.95
  Q 142.08 233.41 142.51 228.86
  C 142.55 228.48 142.45 226.79 141.63 228.06
  Q 139.50 231.39 137.05 234.48
  A 1.01 1.00 -44.2 0 1 135.46 234.46
  L 135.02 233.87
  A 1.00 1.00 0.0 0 1 135.14 232.53
  C 140.25 227.80 143.22 223.34 142.20 216.49
  A 1.00 1.00 0.0 0 0 141.31 215.64
  L 139.89 215.50
  A 1.01 1.01 0.0 0 0 138.79 216.39
  C 138.63 217.96 139.18 225.81 136.93 225.45
  A 0.80 0.80 0.0 0 1 136.26 224.66
  L 136.23 213.58
  A 1.00 1.00 0.0 0 1 137.53 212.63
  Q 143.75 214.59 141.95 209.78
  A 1.02 1.01 76.5 0 0 140.90 209.13
  L 136.68 209.61
  A 1.00 1.00 0.0 0 1 135.59 208.79
  L 135.39 207.68
  A 1.00 1.00 0.0 0 1 136.37 206.50
  L 141.19 206.50
  A 1.00 1.00 0.0 0 0 142.16 205.73
  L 142.71 203.47
  A 0.99 0.99 0.0 0 1 143.37 202.76
  C 144.50 202.39 145.03 205.15 145.31 205.96
  A 1.01 1.01 0.0 0 0 146.30 206.63
  L 150.08 206.47
  A 1.00 1.00 0.0 0 1 151.09 207.73
  L 150.83 208.66
  A 1.00 0.99 -82.4 0 1 149.87 209.40
  L 145.87 209.42
  A 0.99 0.99 0.0 0 0 144.88 210.35
  Q 144.62 214.27 149.44 212.74
  A 1.00 1.00 0.0 0 1 150.74 213.68
  Q 150.81 217.81 150.50 222.20
  Q 150.29 225.15 147.34 224.49
  Q 144.86 223.94 147.05 222.65
  L 148.05 222.07
  A 1.03 1.00 -16.8 0 0 148.55 221.17
  L 148.40 216.46
  A 1.00 0.99 -4.0 0 0 147.29 215.50
  L 145.70 215.68
  A 1.00 0.99 -1.7 0 0 144.81 216.62
  L 144.50 223.65
  A 1.03 1.02 23.9 0 0 144.80 224.42
  L 150.50 229.91
  A 1.01 0.96 -73.5 0 1 150.79 230.48
  C 151.33 234.04 149.36 232.53 148.53 231.25
  Q 147.63 229.88 146.41 228.83
  Q 144.72 227.35 144.76 229.60
  Z"
/>
<path fill="#f6fff1" d="
  M 156.47 216.43
  C 156.41 216.92 156.89 228.82 154.07 224.44
  A 1.06 1.04 28.5 0 1 153.91 223.92
  L 153.77 213.82
  A 1.00 1.00 0.0 0 1 154.85 212.81
  L 158.37 213.09
  A 1.00 0.97 23.9 0 0 159.16 212.80
  Q 160.96 210.98 158.87 209.44
  A 1.03 0.95 61.4 0 0 158.28 209.24
  L 154.11 209.25
  A 1.02 1.00 80.1 0 1 153.16 208.57
  L 152.99 208.07
  A 1.00 1.00 0.0 0 1 153.94 206.75
  L 158.68 206.75
  A 1.00 0.99 -3.1 0 0 159.67 205.65
  Q 159.50 204.00 160.46 203.23
  A 1.01 1.00 62.4 0 1 162.04 203.73
  L 162.65 205.73
  A 1.01 0.99 82.5 0 0 163.56 206.44
  L 168.54 206.69
  A 1.00 1.00 0.0 0 1 169.49 207.77
  L 169.42 208.64
  A 0.99 0.99 0.0 0 1 168.37 209.55
  L 163.55 209.30
  A 1.00 0.99 -88.4 0 0 162.50 210.30
  L 162.50 211.78
  A 1.00 0.99 2.9 0 0 163.40 212.77
  L 167.95 213.23
  A 1.00 1.00 0.0 0 1 168.84 214.28
  L 168.45 223.06
  A 1.06 1.05 -18.1 0 1 168.07 223.80
  Q 166.77 224.84 165.30 224.66
  Q 163.36 224.42 164.69 222.99
  Q 167.12 220.38 166.13 216.50
  A 1.01 1.00 -7.2 0 0 165.14 215.74
  L 163.49 215.78
  A 1.01 0.99 -88.7 0 0 162.52 216.72
  Q 162.19 221.74 162.68 222.77
  Q 165.39 228.43 169.99 232.58
  A 1.00 1.00 0.0 0 1 169.93 234.11
  L 169.14 234.73
  A 1.01 1.00 -35.6 0 1 167.70 234.50
  L 164.35 229.54
  Q 162.52 226.83 162.52 230.10
  L 162.52 237.43
  A 1.00 0.99 -2.2 0 1 161.60 238.42
  L 160.83 238.49
  A 1.01 1.00 -2.1 0 1 159.75 237.49
  L 159.75 229.49
  Q 159.75 226.93 158.30 229.03
  Q 156.44 231.71 154.19 234.22
  Q 151.82 236.86 151.98 233.42
  A 1.03 1.01 -21.5 0 1 152.28 232.75
  Q 157.21 227.96 158.74 224.73
  C 159.34 223.46 161.83 214.39 157.21 215.60
  A 0.99 0.98 87.0 0 0 156.47 216.43
  Z"
/>
<rect fill="#ffffff" x="-1.37" y="-11.86" transform="translate(118.86,214.82) rotate(0.1)" width="2.74" height="23.72" rx="1.22"/>
<rect fill="#f6fff1" x="-4.56" y="-1.36" transform="translate(101.19,207.56) rotate(40.2)" width="9.12" height="2.72" rx="0.26"/>
<rect fill="#ffffff" x="-1.21" y="-6.62" transform="translate(127.29,213.00) rotate(-29.1)" width="2.42" height="13.24" rx="1.17"/>
<path fill="#f6fff1" d="
  M 112.34 208.24
  A 1.00 0.99 -4.9 0 1 113.63 209.32
  Q 112.64 216.95 108.46 223.35
  A 1.00 1.00 0.0 0 1 106.84 223.42
  Q 106.48 222.96 106.34 222.42
  Q 106.16 221.72 106.68 220.75
  Q 109.54 215.44 111.16 209.62
  Q 111.39 208.76 111.89 208.45
  Q 112.11 208.31 112.34 208.24
  Z"
/>
<rect fill="#f6fff1" x="-4.36" y="-1.45" transform="translate(100.21,216.95) rotate(40.5)" width="8.72" height="2.90" rx="1.38"/>
<path fill="#f6fff1" d="
  M 107.20 237.56
  Q 106.87 236.54 108.05 235.58
  Q 108.23 235.43 108.45 235.38
  Q 120.68 232.54 126.50 221.48
  A 1.00 0.97 3.6 0 1 127.06 221.00
  C 128.91 220.37 129.01 222.41 128.41 223.54
  Q 121.99 235.63 108.34 238.24
  A 1.01 1.00 -14.1 0 1 107.20 237.56
  Z"
/>
<rect fill="#f6fff1" x="-1.41" y="-7.50" transform="translate(100.66,231.22) rotate(22.5)" width="2.82" height="15.00" rx="1.15"/>
<path fill="#438b4a" d="
  M 72.90 249.55
  Q 76.38 253.53 77.98 257.85
  Q 70.80 264.16 60.79 269.29
  Q 44.88 277.44 28.24 284.29
  A 1.00 1.00 0.0 0 1 26.87 283.56
  Q 26.58 282.07 26.90 279.27
  Q 28.01 269.39 29.23 259.53
  A 0.98 0.98 0.0 0 0 28.93 258.70
  L 19.50 249.41
  Q 43.45 248.25 67.46 249.03
  C 69.05 249.08 70.96 248.28 72.90 249.55
  Z"
/>
<path fill="#438b4a" d="
  M 245.78 249.53
  L 236.63 258.69
  A 1.00 0.98 64.7 0 0 236.34 259.52
  Q 237.57 269.39 238.64 279.07
  Q 238.96 281.94 238.65 283.53
  A 1.00 1.00 0.0 0 1 237.28 284.26
  C 220.76 277.43 201.80 269.76 187.96 258.36
  Q 188.88 253.36 192.79 249.75
  C 193.32 249.37 194.12 248.92 194.80 248.91
  Q 220.29 248.68 245.78 249.53
  Z"
/>
<path fill="#f9e089" d="
  M 90.19 249.32
  Q 92.91 254.98 99.50 256.23
  Q 108.98 258.02 117.85 256.15
  C 122.00 255.27 124.82 253.23 129.31 253.26
  C 133.35 253.28 137.19 252.91 141.14 253.98
  C 153.09 257.24 167.58 261.67 176.25 249.29
  L 192.79 249.75
  Q 188.88 253.36 187.96 258.36
  Q 185.08 259.68 181.72 264.25
  C 176.81 270.92 165.69 274.76 157.81 273.18
  C 154.82 272.58 151.89 272.99 149.10 272.36
  C 138.91 270.06 132.04 269.41 122.20 271.63
  C 117.55 272.69 110.09 273.89 105.62 272.66
  C 104.21 272.27 100.09 272.55 99.65 271.52
  A 1.00 0.99 -6.4 0 0 98.89 270.92
  Q 93.98 270.15 89.75 267.58
  A 0.98 0.93 -31.9 0 0 89.11 267.45
  C 86.52 267.77 86.29 266.14 84.99 264.86
  Q 81.34 261.29 77.98 257.85
  Q 76.38 253.53 72.90 249.55
  L 90.19 249.32
  Z"
/>
<path fill="#ffffff" d="
  M 90.19 249.32
  L 176.25 249.29
  C 167.58 261.67 153.09 257.24 141.14 253.98
  C 137.19 252.91 133.35 253.28 129.31 253.26
  C 124.82 253.23 122.00 255.27 117.85 256.15
  Q 108.98 258.02 99.50 256.23
  Q 92.91 254.98 90.19 249.32
  Z"
/>
</svg>
