<?xml version="1.0" encoding="UTF-8" standalone="no"?>
<!DOCTYPE svg PUBLIC "-//W3C//DTD SVG 1.1//EN" "http://www.w3.org/Graphics/SVG/1.1/DTD/svg11.dtd">
<svg xmlns="http://www.w3.org/2000/svg" version="1.1" viewBox="0.00 0.00 214.00 223.00">
<g stroke-width="2.00" fill="none" stroke-linecap="butt">
<path stroke="#faefc8" vector-effect="non-scaling-stroke" d="
  M 94.76 27.47
  Q 93.74 28.85 90.83 27.65
  Q 88.75 26.79 87.25 26.71
  C 80.07 26.35 72.90 26.62 67.98 31.22
  C 60.37 38.34 56.35 49.04 44.50 51.54
  Q 40.44 52.40 34.73 55.73
  C 29.06 59.02 25.92 63.65 24.45 70.05
  Q 23.48 74.26 23.55 76.81
  Q 23.82 86.31 19.96 94.73
  C 15.68 104.10 9.02 108.72 9.91 119.96
  Q 10.18 123.34 12.40 127.56
  Q 15.53 133.53 18.97 139.33
  C 20.31 141.58 20.83 143.60 21.46 146.04
  Q 22.10 148.52 19.79 148.69"
/>
<path stroke="#acd5a6" vector-effect="non-scaling-stroke" d="
  M 19.79 148.69
  C 9.41 148.85 4.07 148.99 6.23 161.36
  Q 8.16 172.40 9.71 183.51
  Q 10.26 187.47 12.45 189.31
  Q 13.88 190.51 17.09 191.90"
/>
<path stroke="#a3c5a6" vector-effect="non-scaling-stroke" d="
  M 17.09 191.90
  Q 20.61 195.04 23.17 197.59
  Q 24.34 198.75 23.97 201.00
  Q 22.61 209.19 22.21 217.25
  A 0.98 0.98 0.0 0 0 23.55 218.21
  Q 35.50 213.48 46.79 207.53
  Q 55.93 202.71 60.76 198.72"
/>
<path stroke="#faefc8" vector-effect="non-scaling-stroke" d="
  M 60.76 198.72
  Q 63.13 198.35 64.08 199.57"
/>
<path stroke="#f1f5ea" vector-effect="non-scaling-stroke" d="
  M 64.08 199.57
  C 63.16 202.87 65.16 203.59 66.82 205.64
  Q 67.12 206.01 67.56 206.18
  C 70.13 207.22 72.14 208.86 74.71 209.61
  Q 77.73 210.50 80.74 211.35
  Q 84.30 212.36 90.49 211.06
  C 98.87 209.31 108.59 210.12 117.19 210.12
  A 0.35 0.34 -82.2 0 0 117.52 209.86
  L 117.71 209.16
  Q 117.76 208.96 117.55 208.95
  L 98.25 208.48
  Q 98.21 208.48 98.22 208.40
  L 98.22 208.40
  A 0.16 0.15 -80.3 0 1 98.41 208.26
  Q 100.78 208.75 103.00 207.95"
/>
<path stroke="#faefc8" vector-effect="non-scaling-stroke" d="
  M 103.00 207.95
  Q 103.78 207.94 104.30 207.67"
/>
<path stroke="#f1f5ea" vector-effect="non-scaling-stroke" d="
  M 104.30 207.67
  C 108.60 208.07 112.82 209.39 117.26 208.64"
/>
<path stroke="#faefc8" vector-effect="non-scaling-stroke" d="
  M 117.26 208.64
  Q 122.12 209.68 126.93 208.84
  Q 128.00 208.65 131.02 207.21
  Q 133.28 206.13 135.89 206.16
  Q 136.41 206.16 136.13 206.60
  Q 135.61 207.42 134.57 207.48
  Q 134.51 207.49 134.50 207.56
  Q 134.50 207.59 134.50 207.63
  Q 134.50 207.78 134.65 207.80
  Q 137.87 208.13 140.87 206.53"
/>
<path stroke="#f1f5ea" vector-effect="non-scaling-stroke" d="
  M 140.87 206.53
  Q 143.46 205.03 146.12 201.37
  Q 146.85 200.38 146.60 199.61"
/>
<path stroke="#faefc8" vector-effect="non-scaling-stroke" d="
  M 146.60 199.61
  L 147.73 198.99"
/>
<path stroke="#a3c5a6" vector-effect="non-scaling-stroke" d="
  M 147.73 198.99
  Q 151.94 202.51 156.82 205.19
  Q 170.36 212.63 184.54 218.18
  A 0.98 0.98 0.0 0 0 185.88 217.23
  Q 185.52 208.93 184.08 201.00
  C 183.48 197.74 188.74 193.85 190.98 192.03"
/>
<path stroke="#acd5a6" vector-effect="non-scaling-stroke" d="
  M 190.98 192.03
  C 191.79 191.48 192.35 191.04 193.42 191.10
  C 197.94 191.36 201.58 190.37 202.60 185.42
  Q 205.26 172.38 207.05 159.19
  Q 207.63 154.87 206.82 152.86
  C 204.60 147.36 194.18 148.34 188.74 148.53"
/>
<path stroke="#faefc8" vector-effect="non-scaling-stroke" d="
  M 188.74 148.53
  Q 186.62 148.43 185.73 147.08
  A 0.95 0.95 0.0 0 1 185.64 146.21
  Q 186.84 143.21 187.86 142.23
  Q 191.13 139.11 191.74 134.59
  Q 191.81 134.11 192.13 133.74
  Q 200.00 124.54 197.62 113.11
  C 196.58 108.11 194.00 104.63 190.94 100.30
  Q 185.66 92.81 184.90 82.56
  C 184.56 78.04 184.93 72.81 183.62 68.72
  C 180.50 59.06 175.17 56.04 166.48 52.06
  Q 164.73 51.26 161.32 50.59
  Q 155.23 49.40 151.67 44.83
  Q 147.67 39.68 143.94 34.82"
/>
<path stroke="#a8be9e" vector-effect="non-scaling-stroke" d="
  M 143.94 34.82
  Q 143.92 34.09 144.47 33.57
  C 146.32 31.84 149.90 33.95 150.52 29.56
  C 150.72 28.17 149.79 26.82 149.16 25.56"
/>
<path stroke="#e3ecda" vector-effect="non-scaling-stroke" d="
  M 149.16 25.56
  C 153.06 17.45 142.00 15.56 142.04 20.63"
/>
<path stroke="#a8be9e" vector-effect="non-scaling-stroke" d="
  M 142.04 20.63
  C 140.73 21.33 139.67 21.18 138.51 20.17
  C 134.66 16.82 130.62 14.45 125.36 16.11
  Q 118.83 18.18 116.54 24.37
  A 1.17 1.17 0.0 0 1 114.48 24.63
  C 111.63 20.55 106.99 20.97 104.05 24.77"
/>
<path stroke="#a3c5a6" vector-effect="non-scaling-stroke" d="
  M 104.05 24.77
  Q 101.49 20.21 98.19 23.14"
/>
<path stroke="#a8be9e" vector-effect="non-scaling-stroke" d="
  M 98.19 23.14
  Q 95.06 21.42 96.97 19.47
  A 1.99 1.98 21.3 0 1 98.30 18.89
  C 101.05 18.80 110.96 20.00 110.65 15.63
  Q 110.36 11.56 106.30 9.93
  C 104.76 9.31 102.38 9.81 101.00 8.73
  C 97.82 6.23 94.94 4.24 90.81 5.72
  Q 86.37 7.32 83.98 11.73
  Q 83.57 12.50 81.79 12.97
  A 1.55 1.52 11.5 0 0 81.00 13.48
  C 78.40 16.72 81.71 18.24 84.17 19.23
  Q 86.41 20.13 84.16 21.01
  L 83.64 21.21
  Q 83.20 21.38 83.04 21.83
  Q 82.76 22.60 83.22 23.00
  Q 83.57 23.31 84.35 23.24
  Q 88.05 22.89 91.47 22.58
  A 1.21 1.21 0.0 0 1 92.75 23.49
  Q 93.21 25.34 94.76 27.47"
/>
<path stroke="#4c8445" vector-effect="non-scaling-stroke" d="
  M 98.19 23.14
  C 97.84 25.12 100.59 26.74 101.88 27.86
  A 1.04 1.04 0.0 0 0 103.59 27.27
  L 104.05 24.77"
/>
<path stroke="#8bab79" vector-effect="non-scaling-stroke" d="
  M 142.04 20.63
  C 145.16 20.74 147.47 23.11 149.16 25.56"
/>
<path stroke="#a3ae67" vector-effect="non-scaling-stroke" d="
  M 143.94 34.82
  Q 140.81 35.48 138.01 34.50
  A 1.80 1.80 0.0 0 0 135.80 35.41
  L 133.51 40.17"
/>
<path stroke="#a8be9e" vector-effect="non-scaling-stroke" d="
  M 133.51 40.17
  Q 127.17 49.91 115.62 50.60"
/>
<path stroke="#8bab79" vector-effect="non-scaling-stroke" d="
  M 115.62 50.60
  L 114.81 50.39
  A 1.59 1.58 76.2 0 1 114.09 49.95
  Q 113.12 48.89 111.75 48.42
  Q 111.00 48.17 111.57 48.71
  L 114.67 51.65"
/>
<path stroke="#a8be9e" vector-effect="non-scaling-stroke" d="
  M 114.67 51.65
  C 115.92 52.99 115.20 54.69 115.20 56.00
  Q 115.21 62.56 115.26 69.23
  Q 115.26 69.99 115.70 69.37
  C 123.81 57.97 138.90 55.69 149.17 65.86
  Q 150.62 67.30 152.20 68.79
  A 1.29 1.27 66.9 0 0 153.05 69.14
  Q 154.67 69.16 155.38 67.43"
/>
<path stroke="#8bab79" vector-effect="non-scaling-stroke" d="
  M 155.38 67.43
  C 160.29 68.86 163.17 68.44 167.24 73.07"
/>
<path stroke="#a8be9e" vector-effect="non-scaling-stroke" d="
  M 167.24 73.07
  Q 168.89 75.40 170.20 78.41
  C 173.08 85.01 170.21 89.06 163.29 89.30
  Q 155.05 89.58 146.65 89.36"
/>
<path stroke="#4c8445" vector-effect="non-scaling-stroke" d="
  M 146.65 89.36
  Q 144.01 89.70 141.22 89.63
  Q 140.28 89.61 139.84 89.92
  Q 139.04 90.48 139.49 91.54
  A 1.22 1.16 -47.0 0 1 139.50 92.42
  L 139.14 93.37"
/>
<path stroke="#a8be9e" vector-effect="non-scaling-stroke" d="
  M 139.14 93.37
  C 137.74 95.97 136.27 100.84 133.94 102.22
  Q 133.40 102.53 134.02 102.64
  Q 134.81 102.77 135.24 101.99
  A 1.31 1.30 17.6 0 1 136.53 101.33
  Q 139.03 101.61 138.71 103.32
  A 1.04 1.03 88.3 0 1 137.94 104.14
  C 134.95 104.89 131.86 105.23 129.03 106.36
  Q 124.40 108.21 119.76 109.85"
/>
<path stroke="#4c8445" vector-effect="non-scaling-stroke" d="
  M 119.76 109.85
  C 118.44 110.06 117.61 109.95 116.94 108.68
  Q 114.11 103.30 112.45 101.77
  Q 110.66 100.13 105.55 98.55
  Q 105.37 98.49 105.36 98.68
  L 105.32 98.98
  Q 105.30 99.25 105.55 99.34
  Q 111.61 101.51 114.51 106.76
  Q 116.64 110.61 117.40 111.70"
/>
<path stroke="#a8be9e" vector-effect="non-scaling-stroke" d="
  M 117.40 111.70
  Q 119.13 114.78 119.14 117.46"
/>
<path stroke="#5e6732" vector-effect="non-scaling-stroke" d="
  M 119.14 117.46
  Q 110.23 118.15 101.73 118.35
  C 100.13 118.39 98.52 118.04 96.87 117.86
  Q 96.40 117.81 96.22 118.25
  Q 95.09 121.10 96.98 121.06"
/>
<path stroke="#9ab489" vector-effect="non-scaling-stroke" d="
  M 96.98 121.06
  L 95.21 121.59"
/>
<path stroke="#4c8445" vector-effect="non-scaling-stroke" d="
  M 95.21 121.59
  Q 94.20 121.75 93.87 121.26
  A 0.54 0.54 0.0 0 1 94.08 120.47
  C 95.17 119.95 95.77 119.16 95.41 117.91
  Q 94.50 114.71 91.19 113.73
  A 1.35 1.32 80.0 0 1 90.48 113.22
  Q 89.38 111.65 87.80 112.70
  Q 87.37 112.99 86.84 112.93
  Q 80.58 112.16 81.85 117.87"
/>
<path stroke="#5e6732" vector-effect="non-scaling-stroke" d="
  M 81.85 117.87
  L 51.33 118.39
  Q 50.81 118.40 50.40 118.10
  Q 49.22 117.24 47.72 117.14
  A 0.77 0.77 0.0 0 1 47.01 116.51
  Q 46.90 115.90 46.34 116.17
  Q 45.86 116.40 45.88 116.92
  Q 45.91 117.72 45.67 118.53"
/>
<path stroke="#a7be9b" vector-effect="non-scaling-stroke" d="
  M 45.67 118.53
  C 44.54 114.40 47.38 111.08 49.32 107.78"
/>
<path stroke="#4c8445" vector-effect="non-scaling-stroke" d="
  M 49.32 107.78
  C 53.93 107.01 55.90 103.95 57.44 99.85"
/>
<path stroke="#a7be9b" vector-effect="non-scaling-stroke" d="
  M 57.44 99.85
  C 60.43 98.21 62.47 95.54 65.26 94.26
  Q 70.32 91.92 76.42 92.58"
/>
<path stroke="#466f36" vector-effect="non-scaling-stroke" d="
  M 76.42 92.58
  Q 77.41 93.43 79.83 94.04
  Q 80.36 94.17 80.67 94.01
  Q 81.23 93.73 81.10 92.89
  A 1.06 1.04 -75.7 0 0 80.70 92.20
  Q 79.35 91.13 78.75 89.54
  Q 78.57 89.08 79.01 88.84
  Q 80.03 88.31 81.01 87.71
  C 83.88 85.98 85.25 87.77 87.79 88.53
  Q 89.76 89.12 91.45 90.22"
/>
<path stroke="#a7be9b" vector-effect="non-scaling-stroke" d="
  M 91.45 90.22
  Q 90.55 90.08 90.39 92.83
  A 0.33 0.33 0.0 0 1 90.15 93.12
  Q 87.73 93.81 85.26 93.54
  Q 84.69 93.48 84.52 94.03
  Q 83.24 98.32 86.53 101.08
  Q 87.00 101.48 87.51 101.12
  Q 94.45 96.24 102.90 97.54
  Q 103.50 97.63 103.50 97.03
  L 103.49 75.77
  A 0.47 0.46 -89.4 0 0 103.04 75.30
  C 98.26 75.11 94.82 73.20 90.27 70.75
  C 87.51 69.26 83.86 70.01 81.77 68.78
  Q 78.73 66.98 82.21 66.38
  Q 82.56 66.32 83.99 67.24
  Q 84.57 67.61 85.48 67.60
  Q 86.39 67.58 85.64 67.07
  L 83.09 65.36
  A 0.61 0.61 0.0 0 1 82.88 64.60
  Q 83.99 62.29 83.07 59.88
  A 1.42 1.42 0.0 0 0 81.71 58.95
  Q 74.82 59.07 67.75 58.89
  Q 63.39 58.78 61.88 54.46"
/>
<path stroke="#a3ae67" vector-effect="non-scaling-stroke" d="
  M 61.88 54.46
  Q 62.27 46.96 68.52 43.33
  C 69.90 42.53 71.76 42.07 73.43 41.42
  Q 73.92 41.23 74.04 40.72
  C 74.97 36.77 78.25 36.03 81.58 37.60
  Q 82.05 37.83 82.53 37.62
  Q 99.63 30.01 107.11 46.65
  Q 107.46 47.43 108.42 47.58
  Q 108.82 47.64 108.61 47.29
  C 107.54 45.49 106.77 43.50 105.37 41.91
  C 102.66 38.85 103.50 37.05 103.46 33.26
  Q 103.45 32.60 102.81 32.40
  Q 98.20 30.98 94.76 27.47"
/>
<path stroke="#a7c56f" vector-effect="non-scaling-stroke" d="
  M 188.74 148.53
  L 173.27 148.35"
/>
<path stroke="#f5e7b8" vector-effect="non-scaling-stroke" d="
  M 173.27 148.35
  Q 172.69 145.15 173.63 143.74
  Q 178.27 136.76 182.49 129.53
  Q 186.09 123.38 186.51 119.42
  Q 187.22 112.65 183.08 106.54"
/>
<path stroke="#faefc8" vector-effect="non-scaling-stroke" d="
  M 183.08 106.54
  C 180.69 102.92 174.25 92.77 174.57 88.63
  C 175.72 73.88 171.27 63.20 155.72 59.85
  C 147.85 58.16 144.47 51.56 139.86 45.64
  Q 138.80 44.29 133.51 40.17"
/>
<path stroke="#9daf94" vector-effect="non-scaling-stroke" d="
  M 91.45 90.22
  L 100.12 90.25
  A 1.58 1.58 0.0 0 0 101.69 88.85
  C 102.17 84.51 99.95 83.35 96.50 81.77
  Q 96.03 81.55 95.78 81.10
  C 92.86 75.73 89.04 71.80 82.33 74.32
  Q 81.28 74.71 78.44 77.12
  Q 78.04 77.45 77.54 77.31
  C 75.89 76.86 74.30 76.36 72.62 76.62
  Q 64.06 77.91 61.91 87.43
  A 2.26 2.26 0.0 0 0 63.59 90.13
  C 66.93 90.93 71.84 90.26 75.37 90.27
  Q 75.92 90.27 76.04 90.81
  L 76.42 92.58"
/>
<path stroke="#a3c4a2" vector-effect="non-scaling-stroke" d="
  M 57.44 99.85
  Q 49.31 98.80 49.32 107.78"
/>
<path stroke="#b5a790" vector-effect="non-scaling-stroke" d="
  M 45.67 118.53
  Q 46.82 120.95 49.76 120.98
  Q 56.43 121.05 80.72 120.97
  Q 81.25 120.96 81.65 121.32
  C 82.92 122.44 84.31 124.29 85.10 125.07
  Q 92.47 132.27 103.01 132.82
  A 0.48 0.47 -87.5 0 1 103.45 133.31
  L 103.28 140.79"
/>
<path stroke="#f1f5e7" vector-effect="non-scaling-stroke" d="
  M 103.28 140.79
  Q 98.98 141.22 95.05 142.51
  C 91.92 143.53 87.37 141.25 84.67 139.59
  C 80.38 136.96 75.67 134.65 70.91 132.87
  C 64.92 130.62 58.42 127.38 53.30 125.47
  Q 48.83 123.79 44.28 122.35
  C 38.46 120.50 33.16 122.05 27.61 122.46"
/>
<path stroke="#e2ebd6" vector-effect="non-scaling-stroke" d="
  M 27.61 122.46
  L 22.43 122.06"
/>
<path stroke="#faefc5" vector-effect="non-scaling-stroke" d="
  M 61.88 54.46
  Q 58.80 57.13 56.23 58.19
  C 51.06 60.33 44.08 62.46 39.85 65.76
  C 34.62 69.84 33.83 75.44 34.04 82.51
  Q 34.19 87.69 32.08 94.28
  C 30.32 99.74 26.07 104.73 23.81 109.07
  Q 20.25 115.88 22.43 122.06"
/>
<path stroke="#dedca3" vector-effect="non-scaling-stroke" d="
  M 22.43 122.06
  Q 24.33 127.21 26.95 131.24
  Q 29.32 134.87 30.14 136.51
  C 31.71 139.65 35.03 144.01 32.66 147.44
  Q 31.93 148.49 30.03 148.64"
/>
<path stroke="#a7c56f" vector-effect="non-scaling-stroke" d="
  M 30.03 148.64
  L 19.79 148.69"
/>
<path stroke="#faf7ef" vector-effect="non-scaling-stroke" d="
  M 183.08 106.54
  C 182.39 109.00 182.73 111.51 182.08 113.77
  Q 181.59 115.51 180.81 116.08
  Q 175.83 119.75 173.09 125.21
  C 172.50 126.39 171.54 127.23 170.64 128.10
  A 1.55 1.53 -68.8 0 1 169.75 128.50
  Q 162.73 129.14 155.26 131.42
  Q 151.08 132.69 148.77 136.00
  Q 148.68 136.13 148.52 136.13
  Q 148.35 136.13 148.19 136.14
  Q 147.70 136.19 147.34 136.53
  L 139.85 143.65
  A 1.59 1.57 20.9 0 1 138.87 144.08
  Q 136.65 144.23 134.42 144.15
  C 133.04 144.10 132.02 143.26 130.52 143.10
  A 1.57 1.54 66.5 0 1 129.76 142.79
  Q 127.43 140.94 125.74 140.62
  Q 119.67 139.45 115.26 136.97"
/>
<path stroke="#b5a893" vector-effect="non-scaling-stroke" d="
  M 115.26 136.97
  L 115.30 122.02
  A 1.11 1.11 0.0 0 1 116.02 120.98
  Q 118.33 120.11 119.14 117.46"
/>
<path stroke="#a3c5a6" vector-effect="non-scaling-stroke" d="
  M 117.40 111.70
  L 117.37 111.04
  Q 117.34 110.45 117.91 110.31
  L 119.76 109.85"
/>
<path stroke="#a3c5a6" vector-effect="non-scaling-stroke" d="
  M 139.14 93.37
  L 146.69 95.71
  A 0.68 0.68 0.0 0 0 147.56 94.96
  L 146.65 89.36"
/>
<path stroke="#e3ecda" vector-effect="non-scaling-stroke" d="
  M 167.24 73.07
  Q 168.79 63.09 158.77 64.15
  Q 156.01 64.44 155.38 67.43"
/>
<path stroke="#e3ecda" vector-effect="non-scaling-stroke" d="
  M 114.67 51.65
  Q 114.73 50.84 115.62 50.60"
/>
<path stroke="#a79e7e" vector-effect="non-scaling-stroke" d="
  M 95.04 122.67
  L 102.35 124.90
  Q 103.81 125.35 103.72 123.82
  L 103.63 122.22
  A 1.34 1.34 0.0 0 0 102.27 120.95
  L 96.98 121.06"
/>
<path stroke="#627e3a" vector-effect="non-scaling-stroke" d="
  M 115.56 148.22
  Q 115.03 148.99 114.50 148.99
  Q 109.65 148.98 104.80 149.12
  Q 104.31 149.14 103.91 148.85
  Q 103.59 148.61 103.25 148.52"
/>
<path stroke="#a79e7e" vector-effect="non-scaling-stroke" d="
  M 103.25 148.52
  L 103.28 140.79"
/>
<path stroke="#95bb91" vector-effect="non-scaling-stroke" d="
  M 95.21 121.59
  Q 94.84 121.75 94.57 122.05
  Q 94.34 122.32 94.51 122.48
  Q 94.65 122.62 95.04 122.67"
/>
<path stroke="#596d3a" vector-effect="non-scaling-stroke" d="
  M 95.04 122.67
  C 91.87 122.95 86.79 122.64 84.76 119.34
  Q 84.05 118.19 81.85 117.87"
/>
<path stroke="#a6cd96" vector-effect="non-scaling-stroke" d="
  M 173.27 148.35
  Q 169.67 147.78 166.08 147.12
  C 160.69 146.11 156.91 146.32 151.89 147.39
  C 144.26 149.03 136.51 148.82 128.77 148.19
  Q 128.27 148.15 128.23 147.65
  L 127.88 143.78
  A 0.47 0.46 5.7 0 0 127.55 143.38
  Q 127.34 143.31 127.14 143.39
  Q 126.86 143.49 126.71 143.94
  Q 126.09 145.75 125.93 147.36
  A 1.14 1.14 0.0 0 1 124.82 148.40
  L 116.12 148.55
  Q 115.89 148.56 115.78 148.35
  Q 115.69 148.20 115.56 148.22"
/>
<path stroke="#b0a083" vector-effect="non-scaling-stroke" d="
  M 115.56 148.22
  L 115.26 136.97"
/>
<path stroke="#509b4d" vector-effect="non-scaling-stroke" d="
  M 190.98 192.03
  Q 190.96 190.86 190.01 190.83
  C 187.32 190.75 185.18 190.18 182.45 190.41
  Q 177.10 190.86 176.04 190.84
  Q 162.89 190.65 150.05 191.08"
/>
<path stroke="#a7c56f" vector-effect="non-scaling-stroke" d="
  M 150.05 191.08
  L 137.78 191.30"
/>
<path stroke="#9ecb91" vector-effect="non-scaling-stroke" d="
  M 137.78 191.30
  L 71.78 191.08"
/>
<path stroke="#a7c56f" vector-effect="non-scaling-stroke" d="
  M 71.78 191.08
  L 57.46 190.83"
/>
<path stroke="#509b4d" vector-effect="non-scaling-stroke" d="
  M 57.46 190.83
  Q 41.47 190.50 24.75 190.56
  Q 19.43 190.58 17.09 191.90"
/>
<path stroke="#8fc281" vector-effect="non-scaling-stroke" d="
  M 67.22 148.72
  L 30.03 148.64"
/>
<path stroke="#9ecb91" vector-effect="non-scaling-stroke" d="
  M 103.25 148.52
  L 103.04 148.70
  Q 102.85 148.87 102.60 148.87
  L 67.22 148.72"
/>
<path stroke="#d5e2c5" vector-effect="non-scaling-stroke" d="
  M 67.22 148.72
  Q 65.19 148.36 63.24 147.81
  C 62.19 147.52 61.40 146.05 60.50 145.37
  Q 50.02 137.46 47.18 134.82
  Q 37.57 125.87 27.61 122.46"
/>
<path stroke="#9eb56f" vector-effect="non-scaling-stroke" d="
  M 147.73 198.99
  Q 146.85 198.18 146.58 197.30
  Q 146.42 196.78 146.71 196.33
  L 150.05 191.08"
/>
<path stroke="#9eb56f" vector-effect="non-scaling-stroke" d="
  M 57.46 190.83
  L 61.81 197.00
  Q 62.16 197.50 61.70 197.90
  L 60.76 198.72"
/>
<path stroke="#ece5b3" vector-effect="non-scaling-stroke" d="
  M 71.78 191.08
  Q 70.50 192.60 71.18 193.05
  Q 78.60 198.05 87.19 197.47
  Q 88.20 197.40 95.70 195.59
  C 101.72 194.14 106.32 194.07 112.77 195.72
  C 118.46 197.18 127.47 198.88 132.84 195.86
  Q 134.86 194.72 137.78 191.30"
/>
<path stroke="#ece5b3" vector-effect="non-scaling-stroke" d="
  M 146.60 199.61
  L 140.87 206.53"
/>
<path stroke="#ece5b3" vector-effect="non-scaling-stroke" d="
  M 117.26 208.64
  L 104.30 207.67"
/>
<path stroke="#ece5b3" vector-effect="non-scaling-stroke" d="
  M 103.00 207.95
  Q 100.60 207.67 98.36 208.09
  Q 87.97 210.03 77.49 208.89
  C 76.34 208.76 75.70 208.10 74.54 207.82
  Q 74.00 207.69 73.72 207.21
  Q 73.32 206.55 72.57 206.63
  A 0.89 0.88 -26.8 0 1 71.92 206.42
  L 64.08 199.57"
/>
<path stroke="#9ab489" vector-effect="non-scaling-stroke" d="
  M 117.71 37.36
  L 119.37 35.26
  A 1.05 1.05 0.0 0 1 120.30 34.87
  L 121.44 34.97
  Q 122.19 35.04 122.30 34.30
  L 122.36 33.86
  Q 122.45 33.28 121.86 33.28
  L 115.92 33.33
  A 0.51 0.50 -89.4 0 0 115.42 33.83
  L 115.28 43.67
  A 0.78 0.78 0.0 0 0 116.13 44.46
  C 118.12 44.28 123.60 42.95 124.39 40.76
  Q 124.59 40.19 124.00 40.10
  L 118.46 39.28
  A 1.19 1.19 0.0 0 1 117.71 37.36"
/>
<path stroke="#9ab489" vector-effect="non-scaling-stroke" d="
  M 125.76 34.22
  A 0.86 0.86 0.0 0 0 124.90 33.36
  A 0.86 0.86 0.0 0 0 124.04 34.22
  A 0.86 0.86 0.0 0 0 124.90 35.08
  A 0.86 0.86 0.0 0 0 125.76 34.22"
/>
<path stroke="#9dbe90" vector-effect="non-scaling-stroke" d="
  M 127.44 35.93
  L 127.29 36.53
  Q 126.89 38.07 127.83 36.78
  L 129.43 34.56
  A 0.72 0.72 0.0 0 0 129.07 33.45
  L 128.49 33.26
  A 0.78 0.78 0.0 0 0 127.47 34.02
  L 127.50 35.41
  A 1.79 1.57 55.3 0 1 127.44 35.93"
/>
<path stroke="#9ab489" vector-effect="non-scaling-stroke" d="
  M 94.96 63.29
  L 95.08 65.03
  Q 95.10 65.46 95.46 65.69
  C 97.85 67.23 99.55 69.02 102.78 69.18
  Q 103.29 69.21 103.31 68.70
  L 103.63 59.59
  A 0.55 0.55 0.0 0 0 103.08 59.02
  L 89.72 58.95
  A 0.39 0.38 -20.8 0 0 89.43 59.59
  L 92.07 62.55
  A 0.45 0.38 13.7 0 1 92.15 62.66
  L 92.53 63.47
  Q 92.68 63.78 92.98 63.61
  L 94.23 62.90
  A 0.49 0.49 0.0 0 1 94.96 63.29"
/>
<path stroke="#a7be9b" vector-effect="non-scaling-stroke" d="
  M 123.01 98.50
  Q 123.79 98.68 124.43 99.18
  Q 125.28 99.84 125.47 98.78
  L 125.77 97.14
  A 0.62 0.61 -79.1 0 1 126.50 96.64
  C 129.98 97.39 131.71 92.64 132.34 90.07
  A 0.52 0.52 0.0 0 0 131.75 89.44
  C 128.33 90.05 124.16 89.44 121.79 89.43
  Q 118.80 89.42 115.78 89.40
  A 0.61 0.60 90.0 0 0 115.18 90.01
  L 115.32 102.45
  A 0.71 0.71 0.0 0 0 116.22 103.12
  L 121.03 101.75
  A 1.24 1.23 -5.0 0 0 121.92 100.70
  L 122.09 99.15
  A 0.76 0.75 9.5 0 1 123.01 98.50"
/>
<path stroke="#8bab79" vector-effect="non-scaling-stroke" d="
  M 86.29 90.78
  A 0.29 0.29 0.0 0 0 86.13 91.04
  L 86.13 91.48
  Q 86.13 91.83 86.46 91.92
  Q 87.94 92.34 88.66 90.99
  Q 88.93 90.48 88.36 90.43
  Q 87.29 90.34 86.29 90.78"
/>
<path stroke="#4c8445" vector-effect="non-scaling-stroke" d="
  M 78.62 94.44
  C 79.57 95.61 80.94 96.34 81.91 97.40
  A 0.33 0.33 0.0 0 0 82.43 96.99
  Q 81.11 94.98 78.94 94.02
  Q 77.90 93.56 78.62 94.44"
/>
<path stroke="#a1d598" vector-effect="non-scaling-stroke" d="
  M 114.91 164.12
  C 114.88 165.73 115.15 169.45 114.39 170.86
  Q 113.84 171.87 113.49 172.01
  Q 109.70 173.48 113.70 174.19
  Q 114.63 174.36 116.44 172.19
  Q 116.74 171.82 116.76 171.35
  L 117.09 161.78
  A 0.65 0.65 0.0 0 0 116.29 161.12
  L 110.81 162.43
  A 0.41 0.41 0.0 0 1 110.30 162.04
  L 110.16 155.37
  A 0.90 0.89 84.3 0 0 109.11 154.50
  L 108.75 154.56
  A 0.52 0.51 -4.9 0 0 108.33 155.05
  L 108.20 162.46
  Q 108.18 163.69 106.99 163.99
  L 105.29 164.42
  Q 104.15 164.71 104.09 163.54
  L 103.80 158.52
  A 0.78 0.78 0.0 0 0 102.63 157.89
  Q 102.04 158.24 101.99 159.25
  Q 101.84 162.20 102.04 164.77
  Q 102.11 165.60 101.28 165.72
  L 99.98 165.92
  A 0.70 0.70 0.0 0 1 99.18 165.18
  Q 99.22 164.37 99.01 163.58
  Q 98.88 163.11 98.40 163.06
  Q 97.63 162.96 96.88 163.13
  A 0.58 0.58 0.0 0 1 96.18 162.56
  L 96.22 155.78
  Q 96.23 154.56 95.15 155.11
  L 94.86 155.26
  Q 94.00 155.69 94.01 156.65
  L 94.06 162.44
  A 0.53 0.52 88.3 0 1 93.56 162.98
  L 91.72 163.08
  Q 90.70 163.13 90.68 164.15
  L 90.67 164.56
  Q 90.66 165.20 91.30 165.22
  L 93.59 165.27
  Q 94.14 165.28 94.13 165.84
  L 93.96 175.36
  A 0.91 0.90 -9.3 0 1 93.35 176.20
  L 90.76 177.11
  A 0.59 0.59 0.0 0 0 90.44 177.95
  L 90.61 178.25
  A 1.27 1.25 65.2 0 0 92.16 178.83
  Q 95.32 177.65 98.30 176.71
  Q 99.79 176.24 99.69 174.84
  A 0.85 0.85 0.0 0 0 98.30 174.25
  Q 97.69 174.76 96.91 174.89
  Q 96.23 175.02 96.23 174.32
  L 96.23 165.89
  Q 96.23 165.26 96.86 165.26
  L 98.47 165.25
  Q 99.22 165.25 99.20 166.00
  Q 99.12 168.18 101.25 168.14
  A 0.61 0.60 87.5 0 1 101.86 168.71
  C 102.08 172.35 101.22 178.44 102.76 181.58
  Q 103.12 182.30 103.92 182.29
  L 115.90 182.18
  A 1.37 1.36 -83.4 0 0 117.21 181.13
  Q 117.74 178.96 117.77 176.50
  Q 117.79 175.37 116.65 175.48
  A 1.05 1.05 0.0 0 0 115.72 176.71
  Q 115.98 178.12 115.40 179.33
  A 1.11 1.10 12.0 0 1 114.44 179.95
  L 105.20 180.13
  A 1.05 1.05 0.0 0 1 104.13 179.08
  L 104.11 168.17
  Q 104.11 166.93 105.31 166.62
  L 107.18 166.14
  Q 108.19 165.88 108.20 166.94
  L 108.21 175.69
  A 0.91 0.91 0.0 0 0 108.95 176.58
  L 109.38 176.66
  A 0.73 0.73 0.0 0 0 110.25 175.96
  L 110.56 165.68
  Q 110.58 165.15 111.08 164.97
  L 114.45 163.79
  A 0.34 0.34 0.0 0 1 114.91 164.12"
/>
<path stroke="#a1d598" vector-effect="non-scaling-stroke" d="
  M 125.23 170.30
  L 125.43 182.04
  Q 125.44 182.65 126.05 182.68
  L 126.53 182.70
  A 0.74 0.73 -88.5 0 0 127.29 181.97
  L 127.43 169.50
  A 0.45 0.45 0.0 0 1 127.74 169.07
  Q 128.07 168.97 128.43 169.22
  Q 128.63 169.35 128.75 169.64
  Q 129.38 171.11 130.22 172.13
  Q 130.95 173.02 131.19 171.89
  L 131.27 171.55
  A 2.11 2.10 -56.7 0 0 130.93 169.90
  L 127.74 165.43
  A 1.43 1.43 0.0 0 1 129.17 163.19
  L 130.27 163.39
  Q 130.81 163.49 130.94 162.96
  Q 131.15 162.11 131.02 161.23
  A 0.60 0.59 75.6 0 0 130.23 160.76
  Q 129.44 161.06 128.54 161.03
  A 1.03 1.03 0.0 0 1 127.54 160.02
  Q 127.49 157.96 127.28 155.89
  Q 127.23 155.41 127.03 155.17
  Q 126.50 154.54 125.64 155.31
  A 0.75 0.74 71.1 0 0 125.40 155.81
  L 125.19 160.33
  A 0.51 0.50 -87.1 0 1 124.67 160.81
  L 121.75 160.74
  Q 121.18 160.73 120.94 161.24
  Q 120.55 162.06 120.92 162.79
  Q 121.18 163.31 121.74 163.18
  Q 122.93 162.90 124.12 163.06
  A 0.82 0.81 -80.1 0 1 124.81 164.05
  Q 123.84 168.30 121.24 171.78
  A 2.50 2.45 60.3 0 0 120.77 173.56
  L 120.93 174.77
  A 0.45 0.45 0.0 0 0 121.77 174.94
  L 124.45 170.10
  Q 125.20 168.74 125.23 170.30"
/>
<path stroke="#a1d598" vector-effect="non-scaling-stroke" d="
  M 67.4988 161.1584
  A 3.88 1.23 45.1 0 0 65.6313 157.5418
  A 3.88 1.23 45.1 0 0 62.0212 155.6616
  A 3.88 1.23 45.1 0 0 63.8887 159.2782
  A 3.88 1.23 45.1 0 0 67.4988 161.1584"
/>
<path stroke="#a1d598" vector-effect="non-scaling-stroke" d="
  M 137.9137 157.2665
  A 1.03 1.03 0.0 0 0 137.3398 155.9276
  L 137.2656 155.8979
  A 1.03 1.03 0.0 0 0 135.9267 156.4717
  L 131.3663 167.8735
  A 1.03 1.03 0.0 0 0 131.9402 169.2124
  L 132.0144 169.2421
  A 1.03 1.03 0.0 0 0 133.3533 168.6683
  L 137.9137 157.2665"
/>
<path stroke="#a1d598" vector-effect="non-scaling-stroke" d="
  M 146.29 169.09
  L 147.83 168.43
  A 0.26 0.26 0.0 0 0 147.97 168.09
  L 143.22 156.91
  A 1.71 0.47 67.0 0 0 142.12 155.52
  L 140.96 156.01
  A 1.71 0.47 67.0 0 0 141.20 157.77
  L 145.94 168.95
  A 0.26 0.26 0.0 0 0 146.29 169.09"
/>
<path stroke="#a1d598" vector-effect="non-scaling-stroke" d="
  M 85.4215 156.9629
  A 1.05 1.05 0.0 0 0 84.3678 155.9166
  L 70.9479 155.9635
  A 1.05 1.05 0.0 0 0 69.9016 157.0171
  L 69.9385 167.5971
  A 1.05 1.05 0.0 0 0 70.9922 168.6434
  L 84.4121 168.5965
  A 1.05 1.05 0.0 0 0 85.4584 167.5429
  L 85.4215 156.9629"
/>
<path stroke="#a1d598" vector-effect="non-scaling-stroke" d="
  M 66.4072 167.8645
  A 0.95 0.95 0.0 0 0 66.3978 166.5210
  L 62.8946 163.0664
  A 0.95 0.95 0.0 0 0 61.5511 163.0758
  L 61.4528 163.1755
  A 0.95 0.95 0.0 0 0 61.4622 164.5190
  L 64.9654 167.9736
  A 0.95 0.95 0.0 0 0 66.3089 167.9642
  L 66.4072 167.8645"
/>
<path stroke="#a1d598" vector-effect="non-scaling-stroke" d="
  M 142.60 178.31
  L 135.98 179.53
  A 0.54 0.53 8.2 0 1 135.40 178.76
  Q 138.42 172.90 140.13 166.52
  A 0.59 0.59 0.0 0 0 139.56 165.78
  L 139.24 165.78
  Q 138.25 165.79 137.97 166.74
  Q 135.89 173.90 131.88 180.14
  A 1.26 1.26 0.0 0 0 133.15 182.06
  L 143.41 180.37
  A 0.93 0.93 0.0 0 1 144.45 181.01
  Q 144.74 181.92 145.05 182.30
  Q 146.37 183.97 146.57 181.85
  C 146.76 179.70 143.84 174.27 142.57 171.95
  A 0.61 0.61 0.0 0 0 141.54 171.89
  L 141.32 172.20
  A 1.10 1.10 0.0 0 0 141.20 173.27
  L 143.01 177.56
  A 0.55 0.55 0.0 0 1 142.60 178.31"
/>
<path stroke="#a1d598" vector-effect="non-scaling-stroke" d="
  M 73.48 180.16
  Q 70.60 179.51 67.71 179.97
  Q 66.90 180.10 66.78 180.91
  L 66.72 181.32
  A 0.56 0.56 0.0 0 0 67.27 181.95
  L 86.75 182.00
  A 1.02 1.02 0.0 0 0 87.78 180.98
  L 87.78 180.61
  Q 87.79 180.06 87.24 180.04
  L 81.73 179.87
  A 0.85 0.84 -87.7 0 1 80.92 178.98
  L 81.32 171.25
  A 1.16 1.16 0.0 0 0 80.24 170.03
  L 79.66 170.00
  A 0.61 0.60 -86.9 0 0 79.01 170.59
  L 78.82 179.04
  Q 78.80 180.12 77.71 180.06
  L 77.25 180.03
  A 1.03 1.03 0.0 0 1 76.28 179.00
  L 76.21 170.74
  Q 76.21 169.75 75.24 169.95
  L 74.88 170.03
  A 0.96 0.95 83.8 0 0 74.12 170.98
  L 74.21 179.57
  A 0.60 0.60 0.0 0 1 73.48 180.16"
/>
<path stroke="#a1d598" vector-effect="non-scaling-stroke" d="
  M 82.9482 178.0806
  A 4.17 1.06 115.6 0 0 85.7059 174.7780
  A 4.17 1.06 115.6 0 0 86.5518 170.5594
  A 4.17 1.06 115.6 0 0 83.7941 173.8620
  A 4.17 1.06 115.6 0 0 82.9482 178.0806"
/>
<path stroke="#a1d598" vector-effect="non-scaling-stroke" d="
  M 65.7102 172.3197
  A 1.03 1.03 0.0 0 0 64.9907 171.0532
  L 64.9135 171.0319
  A 1.03 1.03 0.0 0 0 63.6470 171.7514
  L 61.0498 181.1803
  A 1.03 1.03 0.0 0 0 61.7693 182.4468
  L 61.8465 182.4681
  A 1.03 1.03 0.0 0 0 63.1130 181.7486
  L 65.7102 172.3197"
/>
<path stroke="#9ecb91" vector-effect="non-scaling-stroke" d="
  M 72.2428 178.0130
  A 3.90 1.04 64.6 0 0 71.5095 174.0439
  A 3.90 1.04 64.6 0 0 68.8972 170.9670
  A 3.90 1.04 64.6 0 0 69.6305 174.9361
  A 3.90 1.04 64.6 0 0 72.2428 178.0130"
/>
<path stroke="#a1d598" vector-effect="non-scaling-stroke" d="
  M 83.3208 158.8796
  A 0.63 0.63 0.0 0 0 82.7109 158.2301
  L 72.5759 157.9116
  A 0.63 0.63 0.0 0 0 71.9264 158.5215
  L 71.8592 160.6604
  A 0.63 0.63 0.0 0 0 72.4691 161.3099
  L 82.6041 161.6284
  A 0.63 0.63 0.0 0 0 83.2536 161.0185
  L 83.3208 158.8796"
/>
<path stroke="#a1d598" vector-effect="non-scaling-stroke" d="
  M 83.3730 164.1398
  A 0.69 0.69 0.0 0 0 82.6854 163.4474
  L 72.7255 163.4126
  A 0.69 0.69 0.0 0 0 72.0331 164.1002
  L 72.0270 165.8602
  A 0.69 0.69 0.0 0 0 72.7146 166.5526
  L 82.6745 166.5874
  A 0.69 0.69 0.0 0 0 83.3669 165.8998
  L 83.3730 164.1398"
/>
</g>
<path fill="#ffffff" d="
  M 0.00 0.00
  L 214.00 0.00
  L 214.00 223.00
  L 0.00 223.00
  L 0.00 0.00
  Z
  M 94.76 27.47
  Q 93.74 28.85 90.83 27.65
  Q 88.75 26.79 87.25 26.71
  C 80.07 26.35 72.90 26.62 67.98 31.22
  C 60.37 38.34 56.35 49.04 44.50 51.54
  Q 40.44 52.40 34.73 55.73
  C 29.06 59.02 25.92 63.65 24.45 70.05
  Q 23.48 74.26 23.55 76.81
  Q 23.82 86.31 19.96 94.73
  C 15.68 104.10 9.02 108.72 9.91 119.96
  Q 10.18 123.34 12.40 127.56
  Q 15.53 133.53 18.97 139.33
  C 20.31 141.58 20.83 143.60 21.46 146.04
  Q 22.10 148.52 19.79 148.69
  C 9.41 148.85 4.07 148.99 6.23 161.36
  Q 8.16 172.40 9.71 183.51
  Q 10.26 187.47 12.45 189.31
  Q 13.88 190.51 17.09 191.90
  Q 20.61 195.04 23.17 197.59
  Q 24.34 198.75 23.97 201.00
  Q 22.61 209.19 22.21 217.25
  A 0.98 0.98 0.0 0 0 23.55 218.21
  Q 35.50 213.48 46.79 207.53
  Q 55.93 202.71 60.76 198.72
  Q 63.13 198.35 64.08 199.57
  C 63.16 202.87 65.16 203.59 66.82 205.64
  Q 67.12 206.01 67.56 206.18
  C 70.13 207.22 72.14 208.86 74.71 209.61
  Q 77.73 210.50 80.74 211.35
  Q 84.30 212.36 90.49 211.06
  C 98.87 209.31 108.59 210.12 117.19 210.12
  A 0.35 0.34 -82.2 0 0 117.52 209.86
  L 117.71 209.16
  Q 117.76 208.96 117.55 208.95
  L 98.25 208.48
  Q 98.21 208.48 98.22 208.40
  L 98.22 208.40
  A 0.16 0.15 -80.3 0 1 98.41 208.26
  Q 100.78 208.75 103.00 207.95
  Q 103.78 207.94 104.30 207.67
  C 108.60 208.07 112.82 209.39 117.26 208.64
  Q 122.12 209.68 126.93 208.84
  Q 128.00 208.65 131.02 207.21
  Q 133.28 206.13 135.89 206.16
  Q 136.41 206.16 136.13 206.60
  Q 135.61 207.42 134.57 207.48
  Q 134.51 207.49 134.50 207.56
  Q 134.50 207.59 134.50 207.63
  Q 134.50 207.78 134.65 207.80
  Q 137.87 208.13 140.87 206.53
  Q 143.46 205.03 146.12 201.37
  Q 146.85 200.38 146.60 199.61
  L 147.73 198.99
  Q 151.94 202.51 156.82 205.19
  Q 170.36 212.63 184.54 218.18
  A 0.98 0.98 0.0 0 0 185.88 217.23
  Q 185.52 208.93 184.08 201.00
  C 183.48 197.74 188.74 193.85 190.98 192.03
  C 191.79 191.48 192.35 191.04 193.42 191.10
  C 197.94 191.36 201.58 190.37 202.60 185.42
  Q 205.26 172.38 207.05 159.19
  Q 207.63 154.87 206.82 152.86
  C 204.60 147.36 194.18 148.34 188.74 148.53
  Q 186.62 148.43 185.73 147.08
  A 0.95 0.95 0.0 0 1 185.64 146.21
  Q 186.84 143.21 187.86 142.23
  Q 191.13 139.11 191.74 134.59
  Q 191.81 134.11 192.13 133.74
  Q 200.00 124.54 197.62 113.11
  C 196.58 108.11 194.00 104.63 190.94 100.30
  Q 185.66 92.81 184.90 82.56
  C 184.56 78.04 184.93 72.81 183.62 68.72
  C 180.50 59.06 175.17 56.04 166.48 52.06
  Q 164.73 51.26 161.32 50.59
  Q 155.23 49.40 151.67 44.83
  Q 147.67 39.68 143.94 34.82
  Q 143.92 34.09 144.47 33.57
  C 146.32 31.84 149.90 33.95 150.52 29.56
  C 150.72 28.17 149.79 26.82 149.16 25.56
  C 153.06 17.45 142.00 15.56 142.04 20.63
  C 140.73 21.33 139.67 21.18 138.51 20.17
  C 134.66 16.82 130.62 14.45 125.36 16.11
  Q 118.83 18.18 116.54 24.37
  A 1.17 1.17 0.0 0 1 114.48 24.63
  C 111.63 20.55 106.99 20.97 104.05 24.77
  Q 101.49 20.21 98.19 23.14
  Q 95.06 21.42 96.97 19.47
  A 1.99 1.98 21.3 0 1 98.30 18.89
  C 101.05 18.80 110.96 20.00 110.65 15.63
  Q 110.36 11.56 106.30 9.93
  C 104.76 9.31 102.38 9.81 101.00 8.73
  C 97.82 6.23 94.94 4.24 90.81 5.72
  Q 86.37 7.32 83.98 11.73
  Q 83.57 12.50 81.79 12.97
  A 1.55 1.52 11.5 0 0 81.00 13.48
  C 78.40 16.72 81.71 18.24 84.17 19.23
  Q 86.41 20.13 84.16 21.01
  L 83.64 21.21
  Q 83.20 21.38 83.04 21.83
  Q 82.76 22.60 83.22 23.00
  Q 83.57 23.31 84.35 23.24
  Q 88.05 22.89 91.47 22.58
  A 1.21 1.21 0.0 0 1 92.75 23.49
  Q 93.21 25.34 94.76 27.47
  Z"
/>
<path fill="#507d3d" d="
  M 98.19 23.14
  C 97.84 25.12 100.59 26.74 101.88 27.86
  A 1.04 1.04 0.0 0 0 103.59 27.27
  L 104.05 24.77
  C 106.99 20.97 111.63 20.55 114.48 24.63
  A 1.17 1.17 0.0 0 0 116.54 24.37
  Q 118.83 18.18 125.36 16.11
  C 130.62 14.45 134.66 16.82 138.51 20.17
  C 139.67 21.18 140.73 21.33 142.04 20.63
  C 145.16 20.74 147.47 23.11 149.16 25.56
  C 149.79 26.82 150.72 28.17 150.52 29.56
  C 149.90 33.95 146.32 31.84 144.47 33.57
  Q 143.92 34.09 143.94 34.82
  Q 140.81 35.48 138.01 34.50
  A 1.80 1.80 0.0 0 0 135.80 35.41
  L 133.51 40.17
  Q 127.17 49.91 115.62 50.60
  L 114.81 50.39
  A 1.59 1.58 76.2 0 1 114.09 49.95
  Q 113.12 48.89 111.75 48.42
  Q 111.00 48.17 111.57 48.71
  L 114.67 51.65
  C 115.92 52.99 115.20 54.69 115.20 56.00
  Q 115.21 62.56 115.26 69.23
  Q 115.26 69.99 115.70 69.37
  C 123.81 57.97 138.90 55.69 149.17 65.86
  Q 150.62 67.30 152.20 68.79
  A 1.29 1.27 66.9 0 0 153.05 69.14
  Q 154.67 69.16 155.38 67.43
  C 160.29 68.86 163.17 68.44 167.24 73.07
  Q 168.89 75.40 170.20 78.41
  C 173.08 85.01 170.21 89.06 163.29 89.30
  Q 155.05 89.58 146.65 89.36
  Q 144.01 89.70 141.22 89.63
  Q 140.28 89.61 139.84 89.92
  Q 139.04 90.48 139.49 91.54
  A 1.22 1.16 -47.0 0 1 139.50 92.42
  L 139.14 93.37
  C 137.74 95.97 136.27 100.84 133.94 102.22
  Q 133.40 102.53 134.02 102.64
  Q 134.81 102.77 135.24 101.99
  A 1.31 1.30 17.6 0 1 136.53 101.33
  Q 139.03 101.61 138.71 103.32
  A 1.04 1.03 88.3 0 1 137.94 104.14
  C 134.95 104.89 131.86 105.23 129.03 106.36
  Q 124.40 108.21 119.76 109.85
  C 118.44 110.06 117.61 109.95 116.94 108.68
  Q 114.11 103.30 112.45 101.77
  Q 110.66 100.13 105.55 98.55
  Q 105.37 98.49 105.36 98.68
  L 105.32 98.98
  Q 105.30 99.25 105.55 99.34
  Q 111.61 101.51 114.51 106.76
  Q 116.64 110.61 117.40 111.70
  Q 119.13 114.78 119.14 117.46
  Q 110.23 118.15 101.73 118.35
  C 100.13 118.39 98.52 118.04 96.87 117.86
  Q 96.40 117.81 96.22 118.25
  Q 95.09 121.10 96.98 121.06
  L 95.21 121.59
  Q 94.20 121.75 93.87 121.26
  A 0.54 0.54 0.0 0 1 94.08 120.47
  C 95.17 119.95 95.77 119.16 95.41 117.91
  Q 94.50 114.71 91.19 113.73
  A 1.35 1.32 80.0 0 1 90.48 113.22
  Q 89.38 111.65 87.80 112.70
  Q 87.37 112.99 86.84 112.93
  Q 80.58 112.16 81.85 117.87
  L 51.33 118.39
  Q 50.81 118.40 50.40 118.10
  Q 49.22 117.24 47.72 117.14
  A 0.77 0.77 0.0 0 1 47.01 116.51
  Q 46.90 115.90 46.34 116.17
  Q 45.86 116.40 45.88 116.92
  Q 45.91 117.72 45.67 118.53
  C 44.54 114.40 47.38 111.08 49.32 107.78
  C 53.93 107.01 55.90 103.95 57.44 99.85
  C 60.43 98.21 62.47 95.54 65.26 94.26
  Q 70.32 91.92 76.42 92.58
  Q 77.41 93.43 79.83 94.04
  Q 80.36 94.17 80.67 94.01
  Q 81.23 93.73 81.10 92.89
  A 1.06 1.04 -75.7 0 0 80.70 92.20
  Q 79.35 91.13 78.75 89.54
  Q 78.57 89.08 79.01 88.84
  Q 80.03 88.31 81.01 87.71
  C 83.88 85.98 85.25 87.77 87.79 88.53
  Q 89.76 89.12 91.45 90.22
  Q 90.55 90.08 90.39 92.83
  A 0.33 0.33 0.0 0 1 90.15 93.12
  Q 87.73 93.81 85.26 93.54
  Q 84.69 93.48 84.52 94.03
  Q 83.24 98.32 86.53 101.08
  Q 87.00 101.48 87.51 101.12
  Q 94.45 96.24 102.90 97.54
  Q 103.50 97.63 103.50 97.03
  L 103.49 75.77
  A 0.47 0.46 -89.4 0 0 103.04 75.30
  C 98.26 75.11 94.82 73.20 90.27 70.75
  C 87.51 69.26 83.86 70.01 81.77 68.78
  Q 78.73 66.98 82.21 66.38
  Q 82.56 66.32 83.99 67.24
  Q 84.57 67.61 85.48 67.60
  Q 86.39 67.58 85.64 67.07
  L 83.09 65.36
  A 0.61 0.61 0.0 0 1 82.88 64.60
  Q 83.99 62.29 83.07 59.88
  A 1.42 1.42 0.0 0 0 81.71 58.95
  Q 74.82 59.07 67.75 58.89
  Q 63.39 58.78 61.88 54.46
  Q 62.27 46.96 68.52 43.33
  C 69.90 42.53 71.76 42.07 73.43 41.42
  Q 73.92 41.23 74.04 40.72
  C 74.97 36.77 78.25 36.03 81.58 37.60
  Q 82.05 37.83 82.53 37.62
  Q 99.63 30.01 107.11 46.65
  Q 107.46 47.43 108.42 47.58
  Q 108.82 47.64 108.61 47.29
  C 107.54 45.49 106.77 43.50 105.37 41.91
  C 102.66 38.85 103.50 37.05 103.46 33.26
  Q 103.45 32.60 102.81 32.40
  Q 98.20 30.98 94.76 27.47
  Q 93.21 25.34 92.75 23.49
  A 1.21 1.21 0.0 0 0 91.47 22.58
  Q 88.05 22.89 84.35 23.24
  Q 83.57 23.31 83.22 23.00
  Q 82.76 22.60 83.04 21.83
  Q 83.20 21.38 83.64 21.21
  L 84.16 21.01
  Q 86.41 20.13 84.17 19.23
  C 81.71 18.24 78.40 16.72 81.00 13.48
  A 1.55 1.52 11.5 0 1 81.79 12.97
  Q 83.57 12.50 83.98 11.73
  Q 86.37 7.32 90.81 5.72
  C 94.94 4.24 97.82 6.23 101.00 8.73
  C 102.38 9.81 104.76 9.31 106.30 9.93
  Q 110.36 11.56 110.65 15.63
  C 110.96 20.00 101.05 18.80 98.30 18.89
  A 1.99 1.98 21.3 0 0 96.97 19.47
  Q 95.06 21.42 98.19 23.14
  Z
  M 117.71 37.36
  L 119.37 35.26
  A 1.05 1.05 0.0 0 1 120.30 34.87
  L 121.44 34.97
  Q 122.19 35.04 122.30 34.30
  L 122.36 33.86
  Q 122.45 33.28 121.86 33.28
  L 115.92 33.33
  A 0.51 0.50 -89.4 0 0 115.42 33.83
  L 115.28 43.67
  A 0.78 0.78 0.0 0 0 116.13 44.46
  C 118.12 44.28 123.60 42.95 124.39 40.76
  Q 124.59 40.19 124.00 40.10
  L 118.46 39.28
  A 1.19 1.19 0.0 0 1 117.71 37.36
  Z
  M 125.76 34.22
  A 0.86 0.86 0.0 0 0 124.90 33.36
  A 0.86 0.86 0.0 0 0 124.04 34.22
  A 0.86 0.86 0.0 0 0 124.90 35.08
  A 0.86 0.86 0.0 0 0 125.76 34.22
  Z
  M 127.44 35.93
  L 127.29 36.53
  Q 126.89 38.07 127.83 36.78
  L 129.43 34.56
  A 0.72 0.72 0.0 0 0 129.07 33.45
  L 128.49 33.26
  A 0.78 0.78 0.0 0 0 127.47 34.02
  L 127.50 35.41
  A 1.79 1.57 55.3 0 1 127.44 35.93
  Z
  M 94.96 63.29
  L 95.08 65.03
  Q 95.10 65.46 95.46 65.69
  C 97.85 67.23 99.55 69.02 102.78 69.18
  Q 103.29 69.21 103.31 68.70
  L 103.63 59.59
  A 0.55 0.55 0.0 0 0 103.08 59.02
  L 89.72 58.95
  A 0.39 0.38 -20.8 0 0 89.43 59.59
  L 92.07 62.55
  A 0.45 0.38 13.7 0 1 92.15 62.66
  L 92.53 63.47
  Q 92.68 63.78 92.98 63.61
  L 94.23 62.90
  A 0.49 0.49 0.0 0 1 94.96 63.29
  Z
  M 123.01 98.50
  Q 123.79 98.68 124.43 99.18
  Q 125.28 99.84 125.47 98.78
  L 125.77 97.14
  A 0.62 0.61 -79.1 0 1 126.50 96.64
  C 129.98 97.39 131.71 92.64 132.34 90.07
  A 0.52 0.52 0.0 0 0 131.75 89.44
  C 128.33 90.05 124.16 89.44 121.79 89.43
  Q 118.80 89.42 115.78 89.40
  A 0.61 0.60 90.0 0 0 115.18 90.01
  L 115.32 102.45
  A 0.71 0.71 0.0 0 0 116.22 103.12
  L 121.03 101.75
  A 1.24 1.23 -5.0 0 0 121.92 100.70
  L 122.09 99.15
  A 0.76 0.75 9.5 0 1 123.01 98.50
  Z
  M 86.29 90.78
  A 0.29 0.29 0.0 0 0 86.13 91.04
  L 86.13 91.48
  Q 86.13 91.83 86.46 91.92
  Q 87.94 92.34 88.66 90.99
  Q 88.93 90.48 88.36 90.43
  Q 87.29 90.34 86.29 90.78
  Z
  M 78.62 94.44
  C 79.57 95.61 80.94 96.34 81.91 97.40
  A 0.33 0.33 0.0 0 0 82.43 96.99
  Q 81.11 94.98 78.94 94.02
  Q 77.90 93.56 78.62 94.44
  Z"
/>
<path fill="#c6d8b4" d="
  M 149.16 25.56
  C 147.47 23.11 145.16 20.74 142.04 20.63
  C 142.00 15.56 153.06 17.45 149.16 25.56
  Z"
/>
<path fill="#478a4c" d="
  M 104.05 24.77
  L 103.59 27.27
  A 1.04 1.04 0.0 0 1 101.88 27.86
  C 100.59 26.74 97.84 25.12 98.19 23.14
  Q 101.49 20.21 104.05 24.77
  Z"
/>
<path fill="#f5df91" d="
  M 94.76 27.47
  Q 98.20 30.98 102.81 32.40
  Q 103.45 32.60 103.46 33.26
  C 103.50 37.05 102.66 38.85 105.37 41.91
  C 106.77 43.50 107.54 45.49 108.61 47.29
  Q 108.82 47.64 108.42 47.58
  Q 107.46 47.43 107.11 46.65
  Q 99.63 30.01 82.53 37.62
  Q 82.05 37.83 81.58 37.60
  C 78.25 36.03 74.97 36.77 74.04 40.72
  Q 73.92 41.23 73.43 41.42
  C 71.76 42.07 69.90 42.53 68.52 43.33
  Q 62.27 46.96 61.88 54.46
  Q 58.80 57.13 56.23 58.19
  C 51.06 60.33 44.08 62.46 39.85 65.76
  C 34.62 69.84 33.83 75.44 34.04 82.51
  Q 34.19 87.69 32.08 94.28
  C 30.32 99.74 26.07 104.73 23.81 109.07
  Q 20.25 115.88 22.43 122.06
  Q 24.33 127.21 26.95 131.24
  Q 29.32 134.87 30.14 136.51
  C 31.71 139.65 35.03 144.01 32.66 147.44
  Q 31.93 148.49 30.03 148.64
  L 19.79 148.69
  Q 22.10 148.52 21.46 146.04
  C 20.83 143.60 20.31 141.58 18.97 139.33
  Q 15.53 133.53 12.40 127.56
  Q 10.18 123.34 9.91 119.96
  C 9.02 108.72 15.68 104.10 19.96 94.73
  Q 23.82 86.31 23.55 76.81
  Q 23.48 74.26 24.45 70.05
  C 25.92 63.65 29.06 59.02 34.73 55.73
  Q 40.44 52.40 44.50 51.54
  C 56.35 49.04 60.37 38.34 67.98 31.22
  C 72.90 26.62 80.07 26.35 87.25 26.71
  Q 88.75 26.79 90.83 27.65
  Q 93.74 28.85 94.76 27.47
  Z"
/>
<path fill="#e3ebd5" d="
  M 117.71 37.36
  A 1.19 1.19 0.0 0 0 118.46 39.28
  L 124.00 40.10
  Q 124.59 40.19 124.39 40.76
  C 123.60 42.95 118.12 44.28 116.13 44.46
  A 0.78 0.78 0.0 0 1 115.28 43.67
  L 115.42 33.83
  A 0.51 0.50 -89.4 0 1 115.92 33.33
  L 121.86 33.28
  Q 122.45 33.28 122.36 33.86
  L 122.30 34.30
  Q 122.19 35.04 121.44 34.97
  L 120.30 34.87
  A 1.05 1.05 0.0 0 0 119.37 35.26
  L 117.71 37.36
  Z"
/>
<circle fill="#e3ebd5" cx="124.90" cy="34.22" r="0.86"/>
<path fill="#e9fee2" d="
  M 127.50 35.41
  L 127.47 34.02
  A 0.78 0.78 0.0 0 1 128.49 33.26
  L 129.07 33.45
  A 0.72 0.72 0.0 0 1 129.43 34.56
  L 127.83 36.78
  Q 126.89 38.07 127.29 36.53
  L 127.44 35.93
  A 1.79 1.57 55.3 0 0 127.50 35.41
  Z"
/>
<path fill="#f5df91" d="
  M 143.94 34.82
  Q 147.67 39.68 151.67 44.83
  Q 155.23 49.40 161.32 50.59
  Q 164.73 51.26 166.48 52.06
  C 175.17 56.04 180.50 59.06 183.62 68.72
  C 184.93 72.81 184.56 78.04 184.90 82.56
  Q 185.66 92.81 190.94 100.30
  C 194.00 104.63 196.58 108.11 197.62 113.11
  Q 200.00 124.54 192.13 133.74
  Q 191.81 134.11 191.74 134.59
  Q 191.13 139.11 187.86 142.23
  Q 186.84 143.21 185.64 146.21
  A 0.95 0.95 0.0 0 0 185.73 147.08
  Q 186.62 148.43 188.74 148.53
  L 173.27 148.35
  Q 172.69 145.15 173.63 143.74
  Q 178.27 136.76 182.49 129.53
  Q 186.09 123.38 186.51 119.42
  Q 187.22 112.65 183.08 106.54
  C 180.69 102.92 174.25 92.77 174.57 88.63
  C 175.72 73.88 171.27 63.20 155.72 59.85
  C 147.85 58.16 144.47 51.56 139.86 45.64
  Q 138.80 44.29 133.51 40.17
  L 135.80 35.41
  A 1.80 1.80 0.0 0 1 138.01 34.50
  Q 140.81 35.48 143.94 34.82
  Z"
/>
<path fill="#ffffff" d="
  M 133.51 40.17
  Q 138.80 44.29 139.86 45.64
  C 144.47 51.56 147.85 58.16 155.72 59.85
  C 171.27 63.20 175.72 73.88 174.57 88.63
  C 174.25 92.77 180.69 102.92 183.08 106.54
  C 182.39 109.00 182.73 111.51 182.08 113.77
  Q 181.59 115.51 180.81 116.08
  Q 175.83 119.75 173.09 125.21
  C 172.50 126.39 171.54 127.23 170.64 128.10
  A 1.55 1.53 -68.8 0 1 169.75 128.50
  Q 162.73 129.14 155.26 131.42
  Q 151.08 132.69 148.77 136.00
  Q 148.68 136.13 148.52 136.13
  Q 148.35 136.13 148.19 136.14
  Q 147.70 136.19 147.34 136.53
  L 139.85 143.65
  A 1.59 1.57 20.9 0 1 138.87 144.08
  Q 136.65 144.23 134.42 144.15
  C 133.04 144.10 132.02 143.26 130.52 143.10
  A 1.57 1.54 66.5 0 1 129.76 142.79
  Q 127.43 140.94 125.74 140.62
  Q 119.67 139.45 115.26 136.97
  L 115.30 122.02
  A 1.11 1.11 0.0 0 1 116.02 120.98
  Q 118.33 120.11 119.14 117.46
  Q 119.13 114.78 117.40 111.70
  L 117.37 111.04
  Q 117.34 110.45 117.91 110.31
  L 119.76 109.85
  Q 124.40 108.21 129.03 106.36
  C 131.86 105.23 134.95 104.89 137.94 104.14
  A 1.04 1.03 88.3 0 0 138.71 103.32
  Q 139.03 101.61 136.53 101.33
  A 1.31 1.30 17.6 0 0 135.24 101.99
  Q 134.81 102.77 134.02 102.64
  Q 133.40 102.53 133.94 102.22
  C 136.27 100.84 137.74 95.97 139.14 93.37
  L 146.69 95.71
  A 0.68 0.68 0.0 0 0 147.56 94.96
  L 146.65 89.36
  Q 155.05 89.58 163.29 89.30
  C 170.21 89.06 173.08 85.01 170.20 78.41
  Q 168.89 75.40 167.24 73.07
  Q 168.79 63.09 158.77 64.15
  Q 156.01 64.44 155.38 67.43
  Q 154.67 69.16 153.05 69.14
  A 1.29 1.27 66.9 0 1 152.20 68.79
  Q 150.62 67.30 149.17 65.86
  C 138.90 55.69 123.81 57.97 115.70 69.37
  Q 115.26 69.99 115.26 69.23
  Q 115.21 62.56 115.20 56.00
  C 115.20 54.69 115.92 52.99 114.67 51.65
  Q 114.73 50.84 115.62 50.60
  Q 127.17 49.91 133.51 40.17
  Z"
/>
<path fill="#c6d8b4" d="
  M 115.62 50.60
  Q 114.73 50.84 114.67 51.65
  L 111.57 48.71
  Q 111.00 48.17 111.75 48.42
  Q 113.12 48.89 114.09 49.95
  A 1.59 1.58 76.2 0 0 114.81 50.39
  L 115.62 50.60
  Z"
/>
<path fill="#fefef8" d="
  M 61.88 54.46
  Q 63.39 58.78 67.75 58.89
  Q 74.82 59.07 81.71 58.95
  A 1.42 1.42 0.0 0 1 83.07 59.88
  Q 83.99 62.29 82.88 64.60
  A 0.61 0.61 0.0 0 0 83.09 65.36
  L 85.64 67.07
  Q 86.39 67.58 85.48 67.60
  Q 84.57 67.61 83.99 67.24
  Q 82.56 66.32 82.21 66.38
  Q 78.73 66.98 81.77 68.78
  C 83.86 70.01 87.51 69.26 90.27 70.75
  C 94.82 73.20 98.26 75.11 103.04 75.30
  A 0.47 0.46 -89.4 0 1 103.49 75.77
  L 103.50 97.03
  Q 103.50 97.63 102.90 97.54
  Q 94.45 96.24 87.51 101.12
  Q 87.00 101.48 86.53 101.08
  Q 83.24 98.32 84.52 94.03
  Q 84.69 93.48 85.26 93.54
  Q 87.73 93.81 90.15 93.12
  A 0.33 0.33 0.0 0 0 90.39 92.83
  Q 90.55 90.08 91.45 90.22
  L 100.12 90.25
  A 1.58 1.58 0.0 0 0 101.69 88.85
  C 102.17 84.51 99.95 83.35 96.50 81.77
  Q 96.03 81.55 95.78 81.10
  C 92.86 75.73 89.04 71.80 82.33 74.32
  Q 81.28 74.71 78.44 77.12
  Q 78.04 77.45 77.54 77.31
  C 75.89 76.86 74.30 76.36 72.62 76.62
  Q 64.06 77.91 61.91 87.43
  A 2.26 2.26 0.0 0 0 63.59 90.13
  C 66.93 90.93 71.84 90.26 75.37 90.27
  Q 75.92 90.27 76.04 90.81
  L 76.42 92.58
  Q 70.32 91.92 65.26 94.26
  C 62.47 95.54 60.43 98.21 57.44 99.85
  Q 49.31 98.80 49.32 107.78
  C 47.38 111.08 44.54 114.40 45.67 118.53
  Q 46.82 120.95 49.76 120.98
  Q 56.43 121.05 80.72 120.97
  Q 81.25 120.96 81.65 121.32
  C 82.92 122.44 84.31 124.29 85.10 125.07
  Q 92.47 132.27 103.01 132.82
  A 0.48 0.47 -87.5 0 1 103.45 133.31
  L 103.28 140.79
  Q 98.98 141.22 95.05 142.51
  C 91.92 143.53 87.37 141.25 84.67 139.59
  C 80.38 136.96 75.67 134.65 70.91 132.87
  C 64.92 130.62 58.42 127.38 53.30 125.47
  Q 48.83 123.79 44.28 122.35
  C 38.46 120.50 33.16 122.05 27.61 122.46
  L 22.43 122.06
  Q 20.25 115.88 23.81 109.07
  C 26.07 104.73 30.32 99.74 32.08 94.28
  Q 34.19 87.69 34.04 82.51
  C 33.83 75.44 34.62 69.84 39.85 65.76
  C 44.08 62.46 51.06 60.33 56.23 58.19
  Q 58.80 57.13 61.88 54.46
  Z"
/>
<path fill="#e3ebd5" d="
  M 94.23 62.90
  L 92.98 63.61
  Q 92.68 63.78 92.53 63.47
  L 92.15 62.66
  A 0.45 0.38 13.7 0 0 92.07 62.55
  L 89.43 59.59
  A 0.39 0.38 -20.8 0 1 89.72 58.95
  L 103.08 59.02
  A 0.55 0.55 0.0 0 1 103.63 59.59
  L 103.31 68.70
  Q 103.29 69.21 102.78 69.18
  C 99.55 69.02 97.85 67.23 95.46 65.69
  Q 95.10 65.46 95.08 65.03
  L 94.96 63.29
  A 0.49 0.49 0.0 0 0 94.23 62.90
  Z"
/>
<path fill="#c6d8b4" d="
  M 167.24 73.07
  C 163.17 68.44 160.29 68.86 155.38 67.43
  Q 156.01 64.44 158.77 64.15
  Q 168.79 63.09 167.24 73.07
  Z"
/>
<path fill="#3c602f" d="
  M 91.45 90.22
  Q 89.76 89.12 87.79 88.53
  C 85.25 87.77 83.88 85.98 81.01 87.71
  Q 80.03 88.31 79.01 88.84
  Q 78.57 89.08 78.75 89.54
  Q 79.35 91.13 80.70 92.20
  A 1.06 1.04 -75.7 0 1 81.10 92.89
  Q 81.23 93.73 80.67 94.01
  Q 80.36 94.17 79.83 94.04
  Q 77.41 93.43 76.42 92.58
  L 76.04 90.81
  Q 75.92 90.27 75.37 90.27
  C 71.84 90.26 66.93 90.93 63.59 90.13
  A 2.26 2.26 0.0 0 1 61.91 87.43
  Q 64.06 77.91 72.62 76.62
  C 74.30 76.36 75.89 76.86 77.54 77.31
  Q 78.04 77.45 78.44 77.12
  Q 81.28 74.71 82.33 74.32
  C 89.04 71.80 92.86 75.73 95.78 81.10
  Q 96.03 81.55 96.50 81.77
  C 99.95 83.35 102.17 84.51 101.69 88.85
  A 1.58 1.58 0.0 0 1 100.12 90.25
  L 91.45 90.22
  Z"
/>
<path fill="#478a4c" d="
  M 146.65 89.36
  L 147.56 94.96
  A 0.68 0.68 0.0 0 1 146.69 95.71
  L 139.14 93.37
  L 139.50 92.42
  A 1.22 1.16 -47.0 0 0 139.49 91.54
  Q 139.04 90.48 139.84 89.92
  Q 140.28 89.61 141.22 89.63
  Q 144.01 89.70 146.65 89.36
  Z"
/>
<path fill="#fefef8" d="
  M 122.09 99.15
  L 121.92 100.70
  A 1.24 1.23 -5.0 0 1 121.03 101.75
  L 116.22 103.12
  A 0.71 0.71 0.0 0 1 115.32 102.45
  L 115.18 90.01
  A 0.61 0.60 -90.0 0 1 115.78 89.40
  Q 118.80 89.42 121.79 89.43
  C 124.16 89.44 128.33 90.05 131.75 89.44
  A 0.52 0.52 0.0 0 1 132.34 90.07
  C 131.71 92.64 129.98 97.39 126.50 96.64
  A 0.62 0.61 -79.1 0 0 125.77 97.14
  L 125.47 98.78
  Q 125.28 99.84 124.43 99.18
  Q 123.79 98.68 123.01 98.50
  A 0.76 0.75 9.5 0 0 122.09 99.15
  Z"
/>
<path fill="#c6d8b4" d="
  M 86.29 90.78
  Q 87.29 90.34 88.36 90.43
  Q 88.93 90.48 88.66 90.99
  Q 87.94 92.34 86.46 91.92
  Q 86.13 91.83 86.13 91.48
  L 86.13 91.04
  A 0.29 0.29 0.0 0 1 86.29 90.78
  Z"
/>
<path fill="#478a4c" d="
  M 81.91 97.40
  C 80.94 96.34 79.57 95.61 78.62 94.44
  Q 77.90 93.56 78.94 94.02
  Q 81.11 94.98 82.43 96.99
  A 0.33 0.33 0.0 0 1 81.91 97.40
  Z"
/>
<path fill="#478a4c" d="
  M 119.76 109.85
  L 117.91 110.31
  Q 117.34 110.45 117.37 111.04
  L 117.40 111.70
  Q 116.64 110.61 114.51 106.76
  Q 111.61 101.51 105.55 99.34
  Q 105.30 99.25 105.32 98.98
  L 105.36 98.68
  Q 105.37 98.49 105.55 98.55
  Q 110.66 100.13 112.45 101.77
  Q 114.11 103.30 116.94 108.68
  C 117.61 109.95 118.44 110.06 119.76 109.85
  Z"
/>
<path fill="#478a4c" d="
  M 57.44 99.85
  C 55.90 103.95 53.93 107.01 49.32 107.78
  Q 49.31 98.80 57.44 99.85
  Z"
/>
<path fill="#f4efde" d="
  M 183.08 106.54
  Q 187.22 112.65 186.51 119.42
  Q 186.09 123.38 182.49 129.53
  Q 178.27 136.76 173.63 143.74
  Q 172.69 145.15 173.27 148.35
  Q 169.67 147.78 166.08 147.12
  C 160.69 146.11 156.91 146.32 151.89 147.39
  C 144.26 149.03 136.51 148.82 128.77 148.19
  Q 128.27 148.15 128.23 147.65
  L 127.88 143.78
  A 0.47 0.46 5.7 0 0 127.55 143.38
  Q 127.34 143.31 127.14 143.39
  Q 126.86 143.49 126.71 143.94
  Q 126.09 145.75 125.93 147.36
  A 1.14 1.14 0.0 0 1 124.82 148.40
  L 116.12 148.55
  Q 115.89 148.56 115.78 148.35
  Q 115.69 148.20 115.56 148.22
  L 115.26 136.97
  Q 119.67 139.45 125.74 140.62
  Q 127.43 140.94 129.76 142.79
  A 1.57 1.54 66.5 0 0 130.52 143.10
  C 132.02 143.26 133.04 144.10 134.42 144.15
  Q 136.65 144.23 138.87 144.08
  A 1.59 1.57 20.9 0 0 139.85 143.65
  L 147.34 136.53
  Q 147.70 136.19 148.19 136.14
  Q 148.35 136.13 148.52 136.13
  Q 148.68 136.13 148.77 136.00
  Q 151.08 132.69 155.26 131.42
  Q 162.73 129.14 169.75 128.50
  A 1.55 1.53 -68.8 0 0 170.64 128.10
  C 171.54 127.23 172.50 126.39 173.09 125.21
  Q 175.83 119.75 180.81 116.08
  Q 181.59 115.51 182.08 113.77
  C 182.73 111.51 182.39 109.00 183.08 106.54
  Z"
/>
<path fill="#478a4c" d="
  M 95.21 121.59
  Q 94.84 121.75 94.57 122.05
  Q 94.34 122.32 94.51 122.48
  Q 94.65 122.62 95.04 122.67
  C 91.87 122.95 86.79 122.64 84.76 119.34
  Q 84.05 118.19 81.85 117.87
  Q 80.58 112.16 86.84 112.93
  Q 87.37 112.99 87.80 112.70
  Q 89.38 111.65 90.48 113.22
  A 1.35 1.32 80.0 0 0 91.19 113.73
  Q 94.50 114.71 95.41 117.91
  C 95.77 119.16 95.17 119.95 94.08 120.47
  A 0.54 0.54 0.0 0 0 93.87 121.26
  Q 94.20 121.75 95.21 121.59
  Z"
/>
<path fill="#6b5027" d="
  M 81.85 117.87
  Q 84.05 118.19 84.76 119.34
  C 86.79 122.64 91.87 122.95 95.04 122.67
  L 102.35 124.90
  Q 103.81 125.35 103.72 123.82
  L 103.63 122.22
  A 1.34 1.34 0.0 0 0 102.27 120.95
  L 96.98 121.06
  Q 95.09 121.10 96.22 118.25
  Q 96.40 117.81 96.87 117.86
  C 98.52 118.04 100.13 118.39 101.73 118.35
  Q 110.23 118.15 119.14 117.46
  Q 118.33 120.11 116.02 120.98
  A 1.11 1.11 0.0 0 0 115.30 122.02
  L 115.26 136.97
  L 115.56 148.22
  Q 115.03 148.99 114.50 148.99
  Q 109.65 148.98 104.80 149.12
  Q 104.31 149.14 103.91 148.85
  Q 103.59 148.61 103.25 148.52
  L 103.28 140.79
  L 103.45 133.31
  A 0.48 0.47 -87.5 0 0 103.01 132.82
  Q 92.47 132.27 85.10 125.07
  C 84.31 124.29 82.92 122.44 81.65 121.32
  Q 81.25 120.96 80.72 120.97
  Q 56.43 121.05 49.76 120.98
  Q 46.82 120.95 45.67 118.53
  Q 45.91 117.72 45.88 116.92
  Q 45.86 116.40 46.34 116.17
  Q 46.90 115.90 47.01 116.51
  A 0.77 0.77 0.0 0 0 47.72 117.14
  Q 49.22 117.24 50.40 118.10
  Q 50.81 118.40 51.33 118.39
  L 81.85 117.87
  Z"
/>
<path fill="#e3ebd5" d="
  M 96.98 121.06
  L 102.27 120.95
  A 1.34 1.34 0.0 0 1 103.63 122.22
  L 103.72 123.82
  Q 103.81 125.35 102.35 124.90
  L 95.04 122.67
  Q 94.65 122.62 94.51 122.48
  Q 94.34 122.32 94.57 122.05
  Q 94.84 121.75 95.21 121.59
  L 96.98 121.06
  Z"
/>
<path fill="#e3ebd5" d="
  M 103.28 140.79
  L 103.25 148.52
  L 103.04 148.70
  Q 102.85 148.87 102.60 148.87
  L 67.22 148.72
  Q 65.19 148.36 63.24 147.81
  C 62.19 147.52 61.40 146.05 60.50 145.37
  Q 50.02 137.46 47.18 134.82
  Q 37.57 125.87 27.61 122.46
  C 33.16 122.05 38.46 120.50 44.28 122.35
  Q 48.83 123.79 53.30 125.47
  C 58.42 127.38 64.92 130.62 70.91 132.87
  C 75.67 134.65 80.38 136.96 84.67 139.59
  C 87.37 141.25 91.92 143.53 95.05 142.51
  Q 98.98 141.22 103.28 140.79
  Z"
/>
<path fill="#c6d8b4" d="
  M 22.43 122.06
  L 27.61 122.46
  Q 37.57 125.87 47.18 134.82
  Q 50.02 137.46 60.50 145.37
  C 61.40 146.05 62.19 147.52 63.24 147.81
  Q 65.19 148.36 67.22 148.72
  L 30.03 148.64
  Q 31.93 148.49 32.66 147.44
  C 35.03 144.01 31.71 139.65 30.14 136.51
  Q 29.32 134.87 26.95 131.24
  Q 24.33 127.21 22.43 122.06
  Z"
/>
<path fill="#58ab4d" d="
  M 173.27 148.35
  L 188.74 148.53
  C 194.18 148.34 204.60 147.36 206.82 152.86
  Q 207.63 154.87 207.05 159.19
  Q 205.26 172.38 202.60 185.42
  C 201.58 190.37 197.94 191.36 193.42 191.10
  C 192.35 191.04 191.79 191.48 190.98 192.03
  Q 190.96 190.86 190.01 190.83
  C 187.32 190.75 185.18 190.18 182.45 190.41
  Q 177.10 190.86 176.04 190.84
  Q 162.89 190.65 150.05 191.08
  L 137.78 191.30
  L 71.78 191.08
  L 57.46 190.83
  Q 41.47 190.50 24.75 190.56
  Q 19.43 190.58 17.09 191.90
  Q 13.88 190.51 12.45 189.31
  Q 10.26 187.47 9.71 183.51
  Q 8.16 172.40 6.23 161.36
  C 4.07 148.99 9.41 148.85 19.79 148.69
  L 30.03 148.64
  L 67.22 148.72
  L 102.60 148.87
  Q 102.85 148.87 103.04 148.70
  L 103.25 148.52
  Q 103.59 148.61 103.91 148.85
  Q 104.31 149.14 104.80 149.12
  Q 109.65 148.98 114.50 148.99
  Q 115.03 148.99 115.56 148.22
  Q 115.69 148.20 115.78 148.35
  Q 115.89 148.56 116.12 148.55
  L 124.82 148.40
  A 1.14 1.14 0.0 0 0 125.93 147.36
  Q 126.09 145.75 126.71 143.94
  Q 126.86 143.49 127.14 143.39
  Q 127.34 143.31 127.55 143.38
  A 0.47 0.46 5.7 0 1 127.88 143.78
  L 128.23 147.65
  Q 128.27 148.15 128.77 148.19
  C 136.51 148.82 144.26 149.03 151.89 147.39
  C 156.91 146.32 160.69 146.11 166.08 147.12
  Q 169.67 147.78 173.27 148.35
  Z
  M 114.91 164.12
  C 114.88 165.73 115.15 169.45 114.39 170.86
  Q 113.84 171.87 113.49 172.01
  Q 109.70 173.48 113.70 174.19
  Q 114.63 174.36 116.44 172.19
  Q 116.74 171.82 116.76 171.35
  L 117.09 161.78
  A 0.65 0.65 0.0 0 0 116.29 161.12
  L 110.81 162.43
  A 0.41 0.41 0.0 0 1 110.30 162.04
  L 110.16 155.37
  A 0.90 0.89 84.3 0 0 109.11 154.50
  L 108.75 154.56
  A 0.52 0.51 -4.9 0 0 108.33 155.05
  L 108.20 162.46
  Q 108.18 163.69 106.99 163.99
  L 105.29 164.42
  Q 104.15 164.71 104.09 163.54
  L 103.80 158.52
  A 0.78 0.78 0.0 0 0 102.63 157.89
  Q 102.04 158.24 101.99 159.25
  Q 101.84 162.20 102.04 164.77
  Q 102.11 165.60 101.28 165.72
  L 99.98 165.92
  A 0.70 0.70 0.0 0 1 99.18 165.18
  Q 99.22 164.37 99.01 163.58
  Q 98.88 163.11 98.40 163.06
  Q 97.63 162.96 96.88 163.13
  A 0.58 0.58 0.0 0 1 96.18 162.56
  L 96.22 155.78
  Q 96.23 154.56 95.15 155.11
  L 94.86 155.26
  Q 94.00 155.69 94.01 156.65
  L 94.06 162.44
  A 0.53 0.52 88.3 0 1 93.56 162.98
  L 91.72 163.08
  Q 90.70 163.13 90.68 164.15
  L 90.67 164.56
  Q 90.66 165.20 91.30 165.22
  L 93.59 165.27
  Q 94.14 165.28 94.13 165.84
  L 93.96 175.36
  A 0.91 0.90 -9.3 0 1 93.35 176.20
  L 90.76 177.11
  A 0.59 0.59 0.0 0 0 90.44 177.95
  L 90.61 178.25
  A 1.27 1.25 65.2 0 0 92.16 178.83
  Q 95.32 177.65 98.30 176.71
  Q 99.79 176.24 99.69 174.84
  A 0.85 0.85 0.0 0 0 98.30 174.25
  Q 97.69 174.76 96.91 174.89
  Q 96.23 175.02 96.23 174.32
  L 96.23 165.89
  Q 96.23 165.26 96.86 165.26
  L 98.47 165.25
  Q 99.22 165.25 99.20 166.00
  Q 99.12 168.18 101.25 168.14
  A 0.61 0.60 87.5 0 1 101.86 168.71
  C 102.08 172.35 101.22 178.44 102.76 181.58
  Q 103.12 182.30 103.92 182.29
  L 115.90 182.18
  A 1.37 1.36 -83.4 0 0 117.21 181.13
  Q 117.74 178.96 117.77 176.50
  Q 117.79 175.37 116.65 175.48
  A 1.05 1.05 0.0 0 0 115.72 176.71
  Q 115.98 178.12 115.40 179.33
  A 1.11 1.10 12.0 0 1 114.44 179.95
  L 105.20 180.13
  A 1.05 1.05 0.0 0 1 104.13 179.08
  L 104.11 168.17
  Q 104.11 166.93 105.31 166.62
  L 107.18 166.14
  Q 108.19 165.88 108.20 166.94
  L 108.21 175.69
  A 0.91 0.91 0.0 0 0 108.95 176.58
  L 109.38 176.66
  A 0.73 0.73 0.0 0 0 110.25 175.96
  L 110.56 165.68
  Q 110.58 165.15 111.08 164.97
  L 114.45 163.79
  A 0.34 0.34 0.0 0 1 114.91 164.12
  Z
  M 125.23 170.30
  L 125.43 182.04
  Q 125.44 182.65 126.05 182.68
  L 126.53 182.70
  A 0.74 0.73 -88.5 0 0 127.29 181.97
  L 127.43 169.50
  A 0.45 0.45 0.0 0 1 127.74 169.07
  Q 128.07 168.97 128.43 169.22
  Q 128.63 169.35 128.75 169.64
  Q 129.38 171.11 130.22 172.13
  Q 130.95 173.02 131.19 171.89
  L 131.27 171.55
  A 2.11 2.10 -56.7 0 0 130.93 169.90
  L 127.74 165.43
  A 1.43 1.43 0.0 0 1 129.17 163.19
  L 130.27 163.39
  Q 130.81 163.49 130.94 162.96
  Q 131.15 162.11 131.02 161.23
  A 0.60 0.59 75.6 0 0 130.23 160.76
  Q 129.44 161.06 128.54 161.03
  A 1.03 1.03 0.0 0 1 127.54 160.02
  Q 127.49 157.96 127.28 155.89
  Q 127.23 155.41 127.03 155.17
  Q 126.50 154.54 125.64 155.31
  A 0.75 0.74 71.1 0 0 125.40 155.81
  L 125.19 160.33
  A 0.51 0.50 -87.1 0 1 124.67 160.81
  L 121.75 160.74
  Q 121.18 160.73 120.94 161.24
  Q 120.55 162.06 120.92 162.79
  Q 121.18 163.31 121.74 163.18
  Q 122.93 162.90 124.12 163.06
  A 0.82 0.81 -80.1 0 1 124.81 164.05
  Q 123.84 168.30 121.24 171.78
  A 2.50 2.45 60.3 0 0 120.77 173.56
  L 120.93 174.77
  A 0.45 0.45 0.0 0 0 121.77 174.94
  L 124.45 170.10
  Q 125.20 168.74 125.23 170.30
  Z
  M 67.4988 161.1584
  A 3.88 1.23 45.1 0 0 65.6313 157.5418
  A 3.88 1.23 45.1 0 0 62.0212 155.6616
  A 3.88 1.23 45.1 0 0 63.8887 159.2782
  A 3.88 1.23 45.1 0 0 67.4988 161.1584
  Z
  M 137.9137 157.2665
  A 1.03 1.03 0.0 0 0 137.3398 155.9276
  L 137.2656 155.8979
  A 1.03 1.03 0.0 0 0 135.9267 156.4717
  L 131.3663 167.8735
  A 1.03 1.03 0.0 0 0 131.9402 169.2124
  L 132.0144 169.2421
  A 1.03 1.03 0.0 0 0 133.3533 168.6683
  L 137.9137 157.2665
  Z
  M 146.29 169.09
  L 147.83 168.43
  A 0.26 0.26 0.0 0 0 147.97 168.09
  L 143.22 156.91
  A 1.71 0.47 67.0 0 0 142.12 155.52
  L 140.96 156.01
  A 1.71 0.47 67.0 0 0 141.20 157.77
  L 145.94 168.95
  A 0.26 0.26 0.0 0 0 146.29 169.09
  Z
  M 85.4215 156.9629
  A 1.05 1.05 0.0 0 0 84.3678 155.9166
  L 70.9479 155.9635
  A 1.05 1.05 0.0 0 0 69.9016 157.0171
  L 69.9385 167.5971
  A 1.05 1.05 0.0 0 0 70.9922 168.6434
  L 84.4121 168.5965
  A 1.05 1.05 0.0 0 0 85.4584 167.5429
  L 85.4215 156.9629
  Z
  M 66.4072 167.8645
  A 0.95 0.95 0.0 0 0 66.3978 166.5210
  L 62.8946 163.0664
  A 0.95 0.95 0.0 0 0 61.5511 163.0758
  L 61.4528 163.1755
  A 0.95 0.95 0.0 0 0 61.4622 164.5190
  L 64.9654 167.9736
  A 0.95 0.95 0.0 0 0 66.3089 167.9642
  L 66.4072 167.8645
  Z
  M 142.60 178.31
  L 135.98 179.53
  A 0.54 0.53 8.2 0 1 135.40 178.76
  Q 138.42 172.90 140.13 166.52
  A 0.59 0.59 0.0 0 0 139.56 165.78
  L 139.24 165.78
  Q 138.25 165.79 137.97 166.74
  Q 135.89 173.90 131.88 180.14
  A 1.26 1.26 0.0 0 0 133.15 182.06
  L 143.41 180.37
  A 0.93 0.93 0.0 0 1 144.45 181.01
  Q 144.74 181.92 145.05 182.30
  Q 146.37 183.97 146.57 181.85
  C 146.76 179.70 143.84 174.27 142.57 171.95
  A 0.61 0.61 0.0 0 0 141.54 171.89
  L 141.32 172.20
  A 1.10 1.10 0.0 0 0 141.20 173.27
  L 143.01 177.56
  A 0.55 0.55 0.0 0 1 142.60 178.31
  Z
  M 73.48 180.16
  Q 70.60 179.51 67.71 179.97
  Q 66.90 180.10 66.78 180.91
  L 66.72 181.32
  A 0.56 0.56 0.0 0 0 67.27 181.95
  L 86.75 182.00
  A 1.02 1.02 0.0 0 0 87.78 180.98
  L 87.78 180.61
  Q 87.79 180.06 87.24 180.04
  L 81.73 179.87
  A 0.85 0.84 -87.7 0 1 80.92 178.98
  L 81.32 171.25
  A 1.16 1.16 0.0 0 0 80.24 170.03
  L 79.66 170.00
  A 0.61 0.60 -86.9 0 0 79.01 170.59
  L 78.82 179.04
  Q 78.80 180.12 77.71 180.06
  L 77.25 180.03
  A 1.03 1.03 0.0 0 1 76.28 179.00
  L 76.21 170.74
  Q 76.21 169.75 75.24 169.95
  L 74.88 170.03
  A 0.96 0.95 83.8 0 0 74.12 170.98
  L 74.21 179.57
  A 0.60 0.60 0.0 0 1 73.48 180.16
  Z
  M 82.9482 178.0806
  A 4.17 1.06 115.6 0 0 85.7059 174.7780
  A 4.17 1.06 115.6 0 0 86.5518 170.5594
  A 4.17 1.06 115.6 0 0 83.7941 173.8620
  A 4.17 1.06 115.6 0 0 82.9482 178.0806
  Z
  M 65.7102 172.3197
  A 1.03 1.03 0.0 0 0 64.9907 171.0532
  L 64.9135 171.0319
  A 1.03 1.03 0.0 0 0 63.6470 171.7514
  L 61.0498 181.1803
  A 1.03 1.03 0.0 0 0 61.7693 182.4468
  L 61.8465 182.4681
  A 1.03 1.03 0.0 0 0 63.1130 181.7486
  L 65.7102 172.3197
  Z
  M 72.2428 178.0130
  A 3.90 1.04 64.6 0 0 71.5095 174.0439
  A 3.90 1.04 64.6 0 0 68.8972 170.9670
  A 3.90 1.04 64.6 0 0 69.6305 174.9361
  A 3.90 1.04 64.6 0 0 72.2428 178.0130
  Z"
/>
<path fill="#e9fee2" d="
  M 114.91 164.12
  A 0.34 0.34 0.0 0 0 114.45 163.79
  L 111.08 164.97
  Q 110.58 165.15 110.56 165.68
  L 110.25 175.96
  A 0.73 0.73 0.0 0 1 109.38 176.66
  L 108.95 176.58
  A 0.91 0.91 0.0 0 1 108.21 175.69
  L 108.20 166.94
  Q 108.19 165.88 107.18 166.14
  L 105.31 166.62
  Q 104.11 166.93 104.11 168.17
  L 104.13 179.08
  A 1.05 1.05 0.0 0 0 105.20 180.13
  L 114.44 179.95
  A 1.11 1.10 12.0 0 0 115.40 179.33
  Q 115.98 178.12 115.72 176.71
  A 1.05 1.05 0.0 0 1 116.65 175.48
  Q 117.79 175.37 117.77 176.50
  Q 117.74 178.96 117.21 181.13
  A 1.37 1.36 -83.4 0 1 115.90 182.18
  L 103.92 182.29
  Q 103.12 182.30 102.76 181.58
  C 101.22 178.44 102.08 172.35 101.86 168.71
  A 0.61 0.60 87.5 0 0 101.25 168.14
  Q 99.12 168.18 99.20 166.00
  Q 99.22 165.25 98.47 165.25
  L 96.86 165.26
  Q 96.23 165.26 96.23 165.89
  L 96.23 174.32
  Q 96.23 175.02 96.91 174.89
  Q 97.69 174.76 98.30 174.25
  A 0.85 0.85 0.0 0 1 99.69 174.84
  Q 99.79 176.24 98.30 176.71
  Q 95.32 177.65 92.16 178.83
  A 1.27 1.25 65.2 0 1 90.61 178.25
  L 90.44 177.95
  A 0.59 0.59 0.0 0 1 90.76 177.11
  L 93.35 176.20
  A 0.91 0.90 -9.3 0 0 93.96 175.36
  L 94.13 165.84
  Q 94.14 165.28 93.59 165.27
  L 91.30 165.22
  Q 90.66 165.20 90.67 164.56
  L 90.68 164.15
  Q 90.70 163.13 91.72 163.08
  L 93.56 162.98
  A 0.53 0.52 88.3 0 0 94.06 162.44
  L 94.01 156.65
  Q 94.00 155.69 94.86 155.26
  L 95.15 155.11
  Q 96.23 154.56 96.22 155.78
  L 96.18 162.56
  A 0.58 0.58 0.0 0 0 96.88 163.13
  Q 97.63 162.96 98.40 163.06
  Q 98.88 163.11 99.01 163.58
  Q 99.22 164.37 99.18 165.18
  A 0.70 0.70 0.0 0 0 99.98 165.92
  L 101.28 165.72
  Q 102.11 165.60 102.04 164.77
  Q 101.84 162.20 101.99 159.25
  Q 102.04 158.24 102.63 157.89
  A 0.78 0.78 0.0 0 1 103.80 158.52
  L 104.09 163.54
  Q 104.15 164.71 105.29 164.42
  L 106.99 163.99
  Q 108.18 163.69 108.20 162.46
  L 108.33 155.05
  A 0.52 0.51 -4.9 0 1 108.75 154.56
  L 109.11 154.50
  A 0.90 0.89 84.3 0 1 110.16 155.37
  L 110.30 162.04
  A 0.41 0.41 0.0 0 0 110.81 162.43
  L 116.29 161.12
  A 0.65 0.65 0.0 0 1 117.09 161.78
  L 116.76 171.35
  Q 116.74 171.82 116.44 172.19
  Q 114.63 174.36 113.70 174.19
  Q 109.70 173.48 113.49 172.01
  Q 113.84 171.87 114.39 170.86
  C 115.15 169.45 114.88 165.73 114.91 164.12
  Z"
/>
<path fill="#e9fee2" d="
  M 125.23 170.30
  Q 125.20 168.74 124.45 170.10
  L 121.77 174.94
  A 0.45 0.45 0.0 0 1 120.93 174.77
  L 120.77 173.56
  A 2.50 2.45 60.3 0 1 121.24 171.78
  Q 123.84 168.30 124.81 164.05
  A 0.82 0.81 -80.1 0 0 124.12 163.06
  Q 122.93 162.90 121.74 163.18
  Q 121.18 163.31 120.92 162.79
  Q 120.55 162.06 120.94 161.24
  Q 121.18 160.73 121.75 160.74
  L 124.67 160.81
  A 0.51 0.50 -87.1 0 0 125.19 160.33
  L 125.40 155.81
  A 0.75 0.74 71.1 0 1 125.64 155.31
  Q 126.50 154.54 127.03 155.17
  Q 127.23 155.41 127.28 155.89
  Q 127.49 157.96 127.54 160.02
  A 1.03 1.03 0.0 0 0 128.54 161.03
  Q 129.44 161.06 130.23 160.76
  A 0.60 0.59 75.6 0 1 131.02 161.23
  Q 131.15 162.11 130.94 162.96
  Q 130.81 163.49 130.27 163.39
  L 129.17 163.19
  A 1.43 1.43 0.0 0 0 127.74 165.43
  L 130.93 169.90
  A 2.11 2.10 -56.7 0 1 131.27 171.55
  L 131.19 171.89
  Q 130.95 173.02 130.22 172.13
  Q 129.38 171.11 128.75 169.64
  Q 128.63 169.35 128.43 169.22
  Q 128.07 168.97 127.74 169.07
  A 0.45 0.45 0.0 0 0 127.43 169.50
  L 127.29 181.97
  A 0.74 0.73 -88.5 0 1 126.53 182.70
  L 126.05 182.68
  Q 125.44 182.65 125.43 182.04
  L 125.23 170.30
  Z"
/>
<ellipse fill="#e9fee2" cx="0.00" cy="0.00" transform="translate(64.76,158.41) rotate(45.1)" rx="3.88" ry="1.23"/>
<rect fill="#e9fee2" x="-1.07" y="-7.17" transform="translate(134.64,162.57) rotate(21.8)" width="2.14" height="14.34" rx="1.03"/>
<path fill="#e9fee2" d="
  M 146.29 169.09
  A 0.26 0.26 0.0 0 1 145.94 168.95
  L 141.20 157.77
  A 1.71 0.47 67.0 0 1 140.96 156.01
  L 142.12 155.52
  A 1.71 0.47 67.0 0 1 143.22 156.91
  L 147.97 168.09
  A 0.26 0.26 0.0 0 1 147.83 168.43
  L 146.29 169.09
  Z"
/>
<path fill="#e9fee2" d="
  M 85.4584 167.5429
  A 1.05 1.05 0.0 0 1 84.4121 168.5965
  L 70.9922 168.6434
  A 1.05 1.05 0.0 0 1 69.9385 167.5971
  L 69.9016 157.0171
  A 1.05 1.05 0.0 0 1 70.9479 155.9635
  L 84.3678 155.9166
  A 1.05 1.05 0.0 0 1 85.4215 156.9629
  L 85.4584 167.5429
  Z
  M 83.3208 158.8796
  A 0.63 0.63 0.0 0 0 82.7109 158.2301
  L 72.5759 157.9116
  A 0.63 0.63 0.0 0 0 71.9264 158.5215
  L 71.8592 160.6604
  A 0.63 0.63 0.0 0 0 72.4691 161.3099
  L 82.6041 161.6284
  A 0.63 0.63 0.0 0 0 83.2536 161.0185
  L 83.3208 158.8796
  Z
  M 83.3730 164.1398
  A 0.69 0.69 0.0 0 0 82.6854 163.4474
  L 72.7255 163.4126
  A 0.69 0.69 0.0 0 0 72.0331 164.1002
  L 72.0270 165.8602
  A 0.69 0.69 0.0 0 0 72.7146 166.5526
  L 82.6745 166.5874
  A 0.69 0.69 0.0 0 0 83.3669 165.8998
  L 83.3730 164.1398
  Z"
/>
<rect fill="#58ab4d" x="-5.70" y="-1.70" transform="translate(77.59,159.77) rotate(1.8)" width="11.40" height="3.40" rx="0.63"/>
<rect fill="#e9fee2" x="-3.41" y="-1.02" transform="translate(63.93,165.52) rotate(44.6)" width="6.82" height="2.04" rx="0.95"/>
<rect fill="#58ab4d" x="-5.67" y="-1.57" transform="translate(77.70,165.00) rotate(0.2)" width="11.34" height="3.14" rx="0.69"/>
<path fill="#e9fee2" d="
  M 143.01 177.56
  L 141.20 173.27
  A 1.10 1.10 0.0 0 1 141.32 172.20
  L 141.54 171.89
  A 0.61 0.61 0.0 0 1 142.57 171.95
  C 143.84 174.27 146.76 179.70 146.57 181.85
  Q 146.37 183.97 145.05 182.30
  Q 144.74 181.92 144.45 181.01
  A 0.93 0.93 0.0 0 0 143.41 180.37
  L 133.15 182.06
  A 1.26 1.26 0.0 0 1 131.88 180.14
  Q 135.89 173.90 137.97 166.74
  Q 138.25 165.79 139.24 165.78
  L 139.56 165.78
  A 0.59 0.59 0.0 0 1 140.13 166.52
  Q 138.42 172.90 135.40 178.76
  A 0.54 0.53 8.2 0 0 135.98 179.53
  L 142.60 178.31
  A 0.55 0.55 0.0 0 0 143.01 177.56
  Z"
/>
<path fill="#e9fee2" d="
  M 74.21 179.57
  L 74.12 170.98
  A 0.96 0.95 83.8 0 1 74.88 170.03
  L 75.24 169.95
  Q 76.21 169.75 76.21 170.74
  L 76.28 179.00
  A 1.03 1.03 0.0 0 0 77.25 180.03
  L 77.71 180.06
  Q 78.80 180.12 78.82 179.04
  L 79.01 170.59
  A 0.61 0.60 -86.9 0 1 79.66 170.00
  L 80.24 170.03
  A 1.16 1.16 0.0 0 1 81.32 171.25
  L 80.92 178.98
  A 0.85 0.84 -87.7 0 0 81.73 179.87
  L 87.24 180.04
  Q 87.79 180.06 87.78 180.61
  L 87.78 180.98
  A 1.02 1.02 0.0 0 1 86.75 182.00
  L 67.27 181.95
  A 0.56 0.56 0.0 0 1 66.72 181.32
  L 66.78 180.91
  Q 66.90 180.10 67.71 179.97
  Q 70.60 179.51 73.48 180.16
  A 0.60 0.60 0.0 0 0 74.21 179.57
  Z"
/>
<ellipse fill="#e9fee2" cx="0.00" cy="0.00" transform="translate(84.75,174.32) rotate(115.6)" rx="4.17" ry="1.06"/>
<rect fill="#e9fee2" x="-1.07" y="-5.92" transform="translate(63.38,176.75) rotate(15.4)" width="2.14" height="11.84" rx="1.03"/>
<ellipse fill="#e3ebd5" cx="0.00" cy="0.00" transform="translate(70.57,174.49) rotate(64.6)" rx="3.90" ry="1.04"/>
<path fill="#478a4c" d="
  M 190.98 192.03
  C 188.74 193.85 183.48 197.74 184.08 201.00
  Q 185.52 208.93 185.88 217.23
  A 0.98 0.98 0.0 0 1 184.54 218.18
  Q 170.36 212.63 156.82 205.19
  Q 151.94 202.51 147.73 198.99
  Q 146.85 198.18 146.58 197.30
  Q 146.42 196.78 146.71 196.33
  L 150.05 191.08
  Q 162.89 190.65 176.04 190.84
  Q 177.10 190.86 182.45 190.41
  C 185.18 190.18 187.32 190.75 190.01 190.83
  Q 190.96 190.86 190.98 192.03
  Z"
/>
<path fill="#478a4c" d="
  M 57.46 190.83
  L 61.81 197.00
  Q 62.16 197.50 61.70 197.90
  L 60.76 198.72
  Q 55.93 202.71 46.79 207.53
  Q 35.50 213.48 23.55 218.21
  A 0.98 0.98 0.0 0 1 22.21 217.25
  Q 22.61 209.19 23.97 201.00
  Q 24.34 198.75 23.17 197.59
  Q 20.61 195.04 17.09 191.90
  Q 19.43 190.58 24.75 190.56
  Q 41.47 190.50 57.46 190.83
  Z"
/>
<path fill="#f5df91" d="
  M 71.78 191.08
  Q 70.50 192.60 71.18 193.05
  Q 78.60 198.05 87.19 197.47
  Q 88.20 197.40 95.70 195.59
  C 101.72 194.14 106.32 194.07 112.77 195.72
  C 118.46 197.18 127.47 198.88 132.84 195.86
  Q 134.86 194.72 137.78 191.30
  L 150.05 191.08
  L 146.71 196.33
  Q 146.42 196.78 146.58 197.30
  Q 146.85 198.18 147.73 198.99
  L 146.60 199.61
  L 140.87 206.53
  Q 137.87 208.13 134.65 207.80
  Q 134.50 207.78 134.50 207.63
  Q 134.50 207.59 134.50 207.56
  Q 134.51 207.49 134.57 207.48
  Q 135.61 207.42 136.13 206.60
  Q 136.41 206.16 135.89 206.16
  Q 133.28 206.13 131.02 207.21
  Q 128.00 208.65 126.93 208.84
  Q 122.12 209.68 117.26 208.64
  L 104.30 207.67
  Q 103.78 207.94 103.00 207.95
  Q 100.60 207.67 98.36 208.09
  Q 87.97 210.03 77.49 208.89
  C 76.34 208.76 75.70 208.10 74.54 207.82
  Q 74.00 207.69 73.72 207.21
  Q 73.32 206.55 72.57 206.63
  A 0.89 0.88 -26.8 0 1 71.92 206.42
  L 64.08 199.57
  Q 63.13 198.35 60.76 198.72
  L 61.70 197.90
  Q 62.16 197.50 61.81 197.00
  L 57.46 190.83
  L 71.78 191.08
  Z"
/>
<path fill="#e3ebd5" d="
  M 137.78 191.30
  Q 134.86 194.72 132.84 195.86
  C 127.47 198.88 118.46 197.18 112.77 195.72
  C 106.32 194.07 101.72 194.14 95.70 195.59
  Q 88.20 197.40 87.19 197.47
  Q 78.60 198.05 71.18 193.05
  Q 70.50 192.60 71.78 191.08
  L 137.78 191.30
  Z"
/>
<path fill="#e3ebd5" d="
  M 64.08 199.57
  L 71.92 206.42
  A 0.89 0.88 -26.8 0 0 72.57 206.63
  Q 73.32 206.55 73.72 207.21
  Q 74.00 207.69 74.54 207.82
  C 75.70 208.10 76.34 208.76 77.49 208.89
  Q 87.97 210.03 98.36 208.09
  Q 100.60 207.67 103.00 207.95
  Q 100.78 208.75 98.41 208.26
  A 0.16 0.15 -80.3 0 0 98.22 208.40
  L 98.22 208.40
  Q 98.21 208.48 98.25 208.48
  L 117.55 208.95
  Q 117.76 208.96 117.71 209.16
  L 117.52 209.86
  A 0.35 0.34 -82.2 0 1 117.19 210.12
  C 108.59 210.12 98.87 209.31 90.49 211.06
  Q 84.30 212.36 80.74 211.35
  Q 77.73 210.50 74.71 209.61
  C 72.14 208.86 70.13 207.22 67.56 206.18
  Q 67.12 206.01 66.82 205.64
  C 65.16 203.59 63.16 202.87 64.08 199.57
  Z"
/>
<path fill="#e3ebd5" d="
  M 146.60 199.61
  Q 146.85 200.38 146.12 201.37
  Q 143.46 205.03 140.87 206.53
  L 146.60 199.61
  Z"
/>
<path fill="#e3ebd5" d="
  M 117.26 208.64
  C 112.82 209.39 108.60 208.07 104.30 207.67
  L 117.26 208.64
  Z"
/>
</svg>
