<?xml version="1.0" encoding="UTF-8" standalone="no"?>
<!DOCTYPE svg PUBLIC "-//W3C//DTD SVG 1.1//EN" "http://www.w3.org/Graphics/SVG/1.1/DTD/svg11.dtd">
<svg xmlns="http://www.w3.org/2000/svg" version="1.1" viewBox="0 0 174 152">
<g stroke-width="2.00" fill="none" stroke-linecap="butt">
<path stroke="#6ddd09" vector-effect="non-scaling-stroke" d="
  M 142.00 44.46
  Q 139.63 45.32 139.46 47.75"
/>
<path stroke="#98ec07" vector-effect="non-scaling-stroke" d="
  M 139.46 47.75
  C 134.11 37.60 123.39 28.98 114.49 22.60
  C 111.60 20.53 107.98 19.29 104.68 17.58
  A 0.32 0.13 25.5 0 0 104.31 17.56
  L 104.24 17.85
  A 0.27 0.26 -74.2 0 1 103.91 18.04
  Q 92.95 14.71 80.76 14.49
  Q 78.11 14.44 76.04 15.20
  A 1.00 0.99 51.7 0 1 75.15 15.09
  C 72.59 13.41 58.53 20.82 55.82 22.59
  Q 55.00 23.12 54.02 23.22
  A 1.05 0.99 21.7 0 0 53.49 23.43
  Q 46.68 28.80 39.89 34.20
  C 37.49 36.10 35.45 39.36 33.15 42.18
  Q 30.01 46.02 26.04 56.25"
/>
<path stroke="#6ddd09" vector-effect="non-scaling-stroke" d="
  M 26.04 56.25
  Q 26.91 53.66 25.15 52.86
  A 1.01 1.01 0.0 0 1 24.59 51.69
  Q 24.72 51.21 24.50 50.71"
/>
<path stroke="#6ddd09" vector-effect="non-scaling-stroke" d="
  M 150.08 71.98
  Q 149.51 70.55 149.18 71.08
  A 0.51 0.51 0.0 0 1 148.38 71.16
  L 147.06 69.75
  A 1.01 1.01 0.0 0 1 146.79 69.09
  Q 146.74 67.34 145.73 65.85
  A 1.09 1.03 -62.9 0 1 145.56 65.27
  Q 145.61 61.78 143.52 58.81"
/>
<path stroke="#6ddd09" vector-effect="non-scaling-stroke" d="
  M 22.71 72.00
  Q 21.97 77.72 19.13 72.45"
/>
<path stroke="#78e104" vector-effect="non-scaling-stroke" d="
  M 139.46 47.75
  Q 142.38 52.99 143.52 58.81"
/>
<path stroke="#98ec07" vector-effect="non-scaling-stroke" d="
  M 143.52 58.81
  Q 147.52 78.38 142.45 98.48
  Q 140.45 106.41 136.21 112.53
  Q 136.06 112.75 136.04 113.02
  Q 135.85 115.31 133.90 116.58
  A 1.04 1.02 82.5 0 0 133.49 117.13
  Q 133.19 118.10 132.24 118.29
  A 1.00 0.98 4.2 0 0 131.50 118.92
  Q 129.89 123.29 125.55 125.12
  A 0.98 0.96 89.5 0 0 125.01 125.68
  Q 124.48 127.06 124.79 128.50"
/>
<path stroke="#98ec07" vector-effect="non-scaling-stroke" d="
  M 22.24 97.05
  Q 24.02 93.85 23.80 92.24
  Q 22.44 82.17 22.71 72.00"
/>
<path stroke="#78e104" vector-effect="non-scaling-stroke" d="
  M 22.71 72.00
  Q 23.50 63.94 26.04 56.25"
/>
<path stroke="#aef802" vector-effect="non-scaling-stroke" d="
  M 71.00 22.53
  Q 69.83 25.30 66.59 23.37"
/>
<path stroke="#c2f656" vector-effect="non-scaling-stroke" d="
  M 66.59 23.37
  Q 55.42 24.98 47.07 33.50"
/>
<path stroke="#b8f53d" vector-effect="non-scaling-stroke" d="
  M 47.07 33.50
  Q 40.20 37.66 36.66 45.48"
/>
<path stroke="#aef802" vector-effect="non-scaling-stroke" d="
  M 36.66 45.48
  Q 30.86 52.43 29.75 58.75
  C 28.60 65.26 26.69 71.73 28.45 78.56
  A 0.99 0.99 0.0 0 0 29.33 79.31
  L 31.78 79.52
  A 0.52 0.52 0.0 0 1 32.25 79.98
  Q 32.29 80.47 32.73 80.35
  A 0.64 0.63 -13.9 0 1 33.51 80.81
  L 34.30 83.88
  Q 34.36 84.12 34.30 84.35
  C 34.08 85.33 33.24 90.77 34.39 91.05
  A 0.41 0.41 0.0 0 1 34.70 91.37
  Q 36.77 101.96 41.62 111.58
  C 42.57 113.47 46.17 118.09 48.04 119.13
  Q 49.82 120.13 50.10 120.50
  Q 51.83 122.86 54.31 124.41
  C 59.49 127.63 64.74 130.79 70.66 132.35
  Q 75.04 133.50 78.64 134.04
  Q 81.79 134.51 83.60 134.39
  L 95.75 133.54"
/>
<path stroke="#aef802" vector-effect="non-scaling-stroke" d="
  M 95.75 133.54
  Q 107.75 130.92 117.36 123.29
  C 122.88 118.92 134.63 111.99 131.46 104.00"
/>
<path stroke="#aef802" vector-effect="non-scaling-stroke" d="
  M 131.46 104.00
  L 131.54 103.25"
/>
<path stroke="#aef802" vector-effect="non-scaling-stroke" d="
  M 131.54 103.25
  C 132.69 103.34 133.24 98.71 133.64 97.68
  C 135.74 92.35 135.64 88.82 136.31 83.32
  C 137.58 72.93 134.10 63.98 131.27 55.74
  Q 130.69 54.04 129.41 52.15
  A 0.98 0.97 34.3 0 1 129.26 51.39
  Q 129.40 50.68 128.80 50.75
  A 0.65 0.65 0.0 0 1 128.16 50.40
  C 127.83 49.76 125.36 46.03 125.73 45.70
  A 0.41 0.41 0.0 0 0 125.82 45.21
  C 123.69 40.99 119.43 38.04 116.81 35.66
  Q 113.39 32.56 109.08 30.64
  Q 108.14 30.23 109.17 30.24
  L 109.49 30.25
  Q 111.01 30.27 109.63 29.62
  Q 103.06 26.54 96.06 24.72
  Q 93.62 24.09 90.38 24.36
  C 88.40 24.52 79.55 23.86 78.54 24.50"
/>
<path stroke="#c2f656" vector-effect="non-scaling-stroke" d="
  M 78.54 24.50
  Q 77.83 14.73 71.00 22.53"
/>
<path stroke="#cdfe56" vector-effect="non-scaling-stroke" d="
  M 78.54 24.50
  Q 73.83 29.69 71.00 22.53"
/>
<path stroke="#b9ff01" vector-effect="non-scaling-stroke" d="
  M 131.54 103.25
  Q 131.45 100.97 132.87 97.06
  Q 134.12 93.62 133.69 87.59
  C 133.66 87.18 133.93 84.95 133.64 85.18
  Q 133.30 85.45 133.30 85.02
  Q 133.28 73.96 128.36 64.08
  Q 128.33 64.01 128.31 64.06
  L 128.26 64.25
  Q 128.20 64.44 128.02 64.22
  Q 122.59 57.85 114.79 54.59
  A 1.05 0.97 81.9 0 1 114.36 54.24
  C 112.04 50.98 106.11 50.36 102.50 50.74
  A 1.08 1.07 -69.1 0 0 101.92 51.00
  L 101.28 51.60
  A 1.00 1.00 0.0 0 1 100.08 51.73
  Q 95.40 48.89 89.87 49.28
  A 1.02 1.01 68.7 0 1 89.02 48.90
  Q 87.13 46.51 84.64 47.80
  A 1.00 1.00 0.0 0 0 84.10 48.60
  Q 83.94 50.57 82.91 52.23
  A 1.01 1.00 33.5 0 1 81.48 52.52
  Q 78.31 50.28 74.40 50.63
  A 0.99 0.99 0.0 0 1 73.52 50.24
  C 71.48 47.58 67.95 51.95 67.60 53.92
  A 1.00 0.99 -1.8 0 1 66.84 54.72
  Q 65.36 55.06 63.96 54.84
  A 0.81 0.80 -76.8 0 0 63.08 55.39
  C 62.65 56.71 60.65 55.28 60.02 54.80
  A 0.99 0.99 0.0 0 0 58.85 54.76
  Q 57.95 55.38 56.96 54.78
  A 1.00 1.00 0.0 0 0 55.78 54.89
  L 43.75 65.58
  Q 43.61 65.71 43.44 65.77
  Q 41.93 66.33 42.50 67.55
  A 1.00 0.99 -40.6 0 1 42.42 68.53
  Q 39.03 73.54 39.18 79.54
  Q 39.19 79.77 39.09 79.98
  Q 38.49 81.32 38.49 82.75
  Q 38.49 83.17 38.24 83.01
  L 37.98 82.83
  A 0.22 0.22 0.0 0 0 37.65 82.98
  Q 36.63 89.68 38.74 96.11
  A 0.63 0.63 0.0 0 1 38.71 96.58
  L 38.59 96.84
  A 1.02 0.98 -41.2 0 0 38.53 97.51
  C 39.96 102.94 42.37 110.05 46.11 114.31
  C 48.30 116.80 50.00 119.36 52.43 121.33
  Q 65.45 131.87 82.43 133.30"
/>
<path stroke="#b9ff01" vector-effect="non-scaling-stroke" d="
  M 82.43 133.30
  Q 89.09 134.18 95.75 133.54"
/>
<path stroke="#c3fd3d" vector-effect="non-scaling-stroke" d="
  M 36.66 45.48
  C 35.34 48.07 33.65 49.97 34.10 53.31
  A 1.02 1.01 87.5 0 0 35.04 54.18
  L 36.75 54.26
  A 1.01 1.00 19.3 0 0 37.62 53.85
  C 39.32 51.44 41.46 51.15 42.24 48.08
  A 1.05 1.02 -15.9 0 1 42.51 47.61
  C 46.13 44.13 48.65 40.32 52.50 37.04"
/>
<path stroke="#cdfe56" vector-effect="non-scaling-stroke" d="
  M 52.50 37.04
  Q 59.11 32.03 66.71 28.71
  A 1.01 1.00 88.7 0 0 67.26 28.13
  Q 67.87 26.41 66.59 23.37"
/>
<path stroke="#b9ff01" vector-effect="non-scaling-stroke" d="
  M 131.46 104.00
  C 129.93 102.94 128.33 102.58 126.56 103.58
  C 123.06 105.58 117.43 107.12 119.00 112.34
  A 1.00 1.00 0.0 0 1 118.81 113.26
  C 115.62 117.12 112.29 120.80 107.48 122.76
  Q 105.41 123.61 101.99 125.16
  Q 98.23 126.87 92.56 126.80
  Q 89.90 126.77 92.29 125.59
  Q 93.39 125.04 94.37 124.24
  A 1.00 0.96 -60.3 0 1 95.11 124.02
  L 97.88 124.31
  A 0.79 0.79 0.0 0 0 98.74 123.70
  L 98.83 123.33
  A 0.99 0.97 -7.4 0 1 99.35 122.67
  Q 101.64 121.50 103.44 119.81
  Q 104.02 119.26 106.28 117.69
  Q 108.50 116.15 108.15 113.31
  A 1.00 1.00 0.0 0 0 106.90 112.46
  Q 105.32 112.88 104.13 111.73
  A 1.05 1.02 60.4 0 0 103.23 111.47
  Q 94.90 113.21 86.56 111.56
  A 0.97 0.94 71.0 0 1 86.07 111.31
  Q 84.60 109.94 82.48 110.02
  Q 80.33 110.10 78.94 108.52
  C 77.39 106.75 75.81 105.74 73.29 105.32
  Q 68.63 104.54 63.97 102.08
  Q 60.40 100.19 59.88 104.03
  L 59.03 110.39
  A 1.02 1.01 30.6 0 0 59.23 111.15
  L 64.93 118.38
  A 0.98 0.97 74.4 0 0 65.58 118.75
  Q 67.01 118.95 67.71 120.04
  A 1.00 0.98 -15.9 0 0 68.55 120.50
  Q 69.45 120.51 69.51 121.29
  A 1.00 0.99 13.7 0 0 70.00 122.09
  C 73.26 123.98 76.90 125.04 80.69 124.76
  Q 81.59 124.69 82.36 125.15
  A 1.00 0.99 38.5 0 1 82.54 126.72
  Q 82.07 127.19 82.00 127.93
  Q 81.74 130.63 82.43 133.30"
/>
<path stroke="#d7fb91" vector-effect="non-scaling-stroke" d="
  M 52.50 37.04
  L 50.89 37.79
  A 0.99 0.98 -39.5 0 1 49.89 37.70
  Q 47.67 36.12 47.07 33.50"
/>
</g>
<path fill="#8de80c" d="
  M 142.00 44.46
  Q 139.63 45.32 139.46 47.75
  C 134.11 37.60 123.39 28.98 114.49 22.60
  C 111.60 20.53 107.98 19.29 104.68 17.58
  A 0.32 0.13 25.5 0 0 104.31 17.56
  L 104.24 17.85
  A 0.27 0.26 -74.2 0 1 103.91 18.04
  Q 92.95 14.71 80.76 14.49
  Q 78.11 14.44 76.04 15.20
  A 1.00 0.99 51.7 0 1 75.15 15.09
  C 72.59 13.41 58.53 20.82 55.82 22.59
  Q 55.00 23.12 54.02 23.22
  A 1.05 0.99 21.7 0 0 53.49 23.43
  Q 46.68 28.80 39.89 34.20
  C 37.49 36.10 35.45 39.36 33.15 42.18
  Q 30.01 46.02 26.04 56.25
  Q 26.91 53.66 25.15 52.86
  A 1.01 1.01 0.0 0 1 24.59 51.69
  Q 24.72 51.21 24.50 50.71
  C 32.29 31.29 50.14 17.48 69.97 12.60
  C 73.12 11.82 78.44 11.05 81.98 10.96
  C 107.24 10.36 129.28 22.52 142.00 44.46
  Z"
/>
<path fill="#a3f002" d="
  M 139.46 47.75
  Q 142.38 52.99 143.52 58.81
  Q 147.52 78.38 142.45 98.48
  Q 140.45 106.41 136.21 112.53
  Q 136.06 112.75 136.04 113.02
  Q 135.85 115.31 133.90 116.58
  A 1.04 1.02 82.5 0 0 133.49 117.13
  Q 133.19 118.10 132.24 118.29
  A 1.00 0.98 4.2 0 0 131.50 118.92
  Q 129.89 123.29 125.55 125.12
  A 0.98 0.96 89.5 0 0 125.01 125.68
  Q 124.48 127.06 124.79 128.50
  Q 111.56 138.91 96.30 141.30
  C 62.96 146.53 33.79 128.80 22.24 97.05
  Q 24.02 93.85 23.80 92.24
  Q 22.44 82.17 22.71 72.00
  Q 23.50 63.94 26.04 56.25
  Q 30.01 46.02 33.15 42.18
  C 35.45 39.36 37.49 36.10 39.89 34.20
  Q 46.68 28.80 53.49 23.43
  A 1.05 0.99 21.7 0 1 54.02 23.22
  Q 55.00 23.12 55.82 22.59
  C 58.53 20.82 72.59 13.41 75.15 15.09
  A 1.00 0.99 51.7 0 0 76.04 15.20
  Q 78.11 14.44 80.76 14.49
  Q 92.95 14.71 103.91 18.04
  A 0.27 0.26 -74.2 0 0 104.24 17.85
  L 104.31 17.56
  A 0.32 0.13 25.5 0 1 104.68 17.58
  C 107.98 19.29 111.60 20.53 114.49 22.60
  C 123.39 28.98 134.11 37.60 139.46 47.75
  Z
  M 71.00 22.53
  Q 69.83 25.30 66.59 23.37
  Q 55.42 24.98 47.07 33.50
  Q 40.20 37.66 36.66 45.48
  Q 30.86 52.43 29.75 58.75
  C 28.60 65.26 26.69 71.73 28.45 78.56
  A 0.99 0.99 0.0 0 0 29.33 79.31
  L 31.78 79.52
  A 0.52 0.52 0.0 0 1 32.25 79.98
  Q 32.29 80.47 32.73 80.35
  A 0.64 0.63 -13.9 0 1 33.51 80.81
  L 34.30 83.88
  Q 34.36 84.12 34.30 84.35
  C 34.08 85.33 33.24 90.77 34.39 91.05
  A 0.41 0.41 0.0 0 1 34.70 91.37
  Q 36.77 101.96 41.62 111.58
  C 42.57 113.47 46.17 118.09 48.04 119.13
  Q 49.82 120.13 50.10 120.50
  Q 51.83 122.86 54.31 124.41
  C 59.49 127.63 64.74 130.79 70.66 132.35
  Q 75.04 133.50 78.64 134.04
  Q 81.79 134.51 83.60 134.39
  L 95.75 133.54
  Q 107.75 130.92 117.36 123.29
  C 122.88 118.92 134.63 111.99 131.46 104.00
  L 131.54 103.25
  C 132.69 103.34 133.24 98.71 133.64 97.68
  C 135.74 92.35 135.64 88.82 136.31 83.32
  C 137.58 72.93 134.10 63.98 131.27 55.74
  Q 130.69 54.04 129.41 52.15
  A 0.98 0.97 34.3 0 1 129.26 51.39
  Q 129.40 50.68 128.80 50.75
  A 0.65 0.65 0.0 0 1 128.16 50.40
  C 127.83 49.76 125.36 46.03 125.73 45.70
  A 0.41 0.41 0.0 0 0 125.82 45.21
  C 123.69 40.99 119.43 38.04 116.81 35.66
  Q 113.39 32.56 109.08 30.64
  Q 108.14 30.23 109.17 30.24
  L 109.49 30.25
  Q 111.01 30.27 109.63 29.62
  Q 103.06 26.54 96.06 24.72
  Q 93.62 24.09 90.38 24.36
  C 88.40 24.52 79.55 23.86 78.54 24.50
  Q 77.83 14.73 71.00 22.53
  Z"
/>
<path fill="#e0fcaa" d="
  M 78.54 24.50
  Q 73.83 29.69 71.00 22.53
  Q 77.83 14.73 78.54 24.50
  Z"
/>
<path fill="#b9ff01" d="
  M 71.00 22.53
  Q 73.83 29.69 78.54 24.50
  C 79.55 23.86 88.40 24.52 90.38 24.36
  Q 93.62 24.09 96.06 24.72
  Q 103.06 26.54 109.63 29.62
  Q 111.01 30.27 109.49 30.25
  L 109.17 30.24
  Q 108.14 30.23 109.08 30.64
  Q 113.39 32.56 116.81 35.66
  C 119.43 38.04 123.69 40.99 125.82 45.21
  A 0.41 0.41 0.0 0 1 125.73 45.70
  C 125.36 46.03 127.83 49.76 128.16 50.40
  A 0.65 0.65 0.0 0 0 128.80 50.75
  Q 129.40 50.68 129.26 51.39
  A 0.98 0.97 34.3 0 0 129.41 52.15
  Q 130.69 54.04 131.27 55.74
  C 134.10 63.98 137.58 72.93 136.31 83.32
  C 135.64 88.82 135.74 92.35 133.64 97.68
  C 133.24 98.71 132.69 103.34 131.54 103.25
  Q 131.45 100.97 132.87 97.06
  Q 134.12 93.62 133.69 87.59
  C 133.66 87.18 133.93 84.95 133.64 85.18
  Q 133.30 85.45 133.30 85.02
  Q 133.28 73.96 128.36 64.08
  Q 128.33 64.01 128.31 64.06
  L 128.26 64.25
  Q 128.20 64.44 128.02 64.22
  Q 122.59 57.85 114.79 54.59
  A 1.05 0.97 81.9 0 1 114.36 54.24
  C 112.04 50.98 106.11 50.36 102.50 50.74
  A 1.08 1.07 -69.1 0 0 101.92 51.00
  L 101.28 51.60
  A 1.00 1.00 0.0 0 1 100.08 51.73
  Q 95.40 48.89 89.87 49.28
  A 1.02 1.01 68.7 0 1 89.02 48.90
  Q 87.13 46.51 84.64 47.80
  A 1.00 1.00 0.0 0 0 84.10 48.60
  Q 83.94 50.57 82.91 52.23
  A 1.01 1.00 33.5 0 1 81.48 52.52
  Q 78.31 50.28 74.40 50.63
  A 0.99 0.99 0.0 0 1 73.52 50.24
  C 71.48 47.58 67.95 51.95 67.60 53.92
  A 1.00 0.99 -1.8 0 1 66.84 54.72
  Q 65.36 55.06 63.96 54.84
  A 0.81 0.80 -76.8 0 0 63.08 55.39
  C 62.65 56.71 60.65 55.28 60.02 54.80
  A 0.99 0.99 0.0 0 0 58.85 54.76
  Q 57.95 55.38 56.96 54.78
  A 1.00 1.00 0.0 0 0 55.78 54.89
  L 43.75 65.58
  Q 43.61 65.71 43.44 65.77
  Q 41.93 66.33 42.50 67.55
  A 1.00 0.99 -40.6 0 1 42.42 68.53
  Q 39.03 73.54 39.18 79.54
  Q 39.19 79.77 39.09 79.98
  Q 38.49 81.32 38.49 82.75
  Q 38.49 83.17 38.24 83.01
  L 37.98 82.83
  A 0.22 0.22 0.0 0 0 37.65 82.98
  Q 36.63 89.68 38.74 96.11
  A 0.63 0.63 0.0 0 1 38.71 96.58
  L 38.59 96.84
  A 1.02 0.98 -41.2 0 0 38.53 97.51
  C 39.96 102.94 42.37 110.05 46.11 114.31
  C 48.30 116.80 50.00 119.36 52.43 121.33
  Q 65.45 131.87 82.43 133.30
  Q 89.09 134.18 95.75 133.54
  L 83.60 134.39
  Q 81.79 134.51 78.64 134.04
  Q 75.04 133.50 70.66 132.35
  C 64.74 130.79 59.49 127.63 54.31 124.41
  Q 51.83 122.86 50.10 120.50
  Q 49.82 120.13 48.04 119.13
  C 46.17 118.09 42.57 113.47 41.62 111.58
  Q 36.77 101.96 34.70 91.37
  A 0.41 0.41 0.0 0 0 34.39 91.05
  C 33.24 90.77 34.08 85.33 34.30 84.35
  Q 34.36 84.12 34.30 83.88
  L 33.51 80.81
  A 0.64 0.63 -13.9 0 0 32.73 80.35
  Q 32.29 80.47 32.25 79.98
  A 0.52 0.52 0.0 0 0 31.78 79.52
  L 29.33 79.31
  A 0.99 0.99 0.0 0 1 28.45 78.56
  C 26.69 71.73 28.60 65.26 29.75 58.75
  Q 30.86 52.43 36.66 45.48
  C 35.34 48.07 33.65 49.97 34.10 53.31
  A 1.02 1.01 87.5 0 0 35.04 54.18
  L 36.75 54.26
  A 1.01 1.00 19.3 0 0 37.62 53.85
  C 39.32 51.44 41.46 51.15 42.24 48.08
  A 1.05 1.02 -15.9 0 1 42.51 47.61
  C 46.13 44.13 48.65 40.32 52.50 37.04
  Q 59.11 32.03 66.71 28.71
  A 1.01 1.00 88.7 0 0 67.26 28.13
  Q 67.87 26.41 66.59 23.37
  Q 69.83 25.30 71.00 22.53
  Z"
/>
<path fill="#e0fcaa" d="
  M 66.59 23.37
  Q 67.87 26.41 67.26 28.13
  A 1.01 1.00 88.7 0 1 66.71 28.71
  Q 59.11 32.03 52.50 37.04
  L 50.89 37.79
  A 0.99 0.98 -39.5 0 1 49.89 37.70
  Q 47.67 36.12 47.07 33.50
  Q 55.42 24.98 66.59 23.37
  Z"
/>
<path fill="#cdfa78" d="
  M 47.07 33.50
  Q 47.67 36.12 49.89 37.70
  A 0.99 0.98 -39.5 0 0 50.89 37.79
  L 52.50 37.04
  C 48.65 40.32 46.13 44.13 42.51 47.61
  A 1.05 1.02 -15.9 0 0 42.24 48.08
  C 41.46 51.15 39.32 51.44 37.62 53.85
  A 1.01 1.00 19.3 0 1 36.75 54.26
  L 35.04 54.18
  A 1.02 1.01 87.5 0 1 34.10 53.31
  C 33.65 49.97 35.34 48.07 36.66 45.48
  Q 40.20 37.66 47.07 33.50
  Z"
/>
<path fill="#4cd206" d="
  M 142.00 44.46
  Q 149.33 57.24 150.08 71.98
  Q 149.51 70.55 149.18 71.08
  A 0.51 0.51 0.0 0 1 148.38 71.16
  L 147.06 69.75
  A 1.01 1.01 0.0 0 1 146.79 69.09
  Q 146.74 67.34 145.73 65.85
  A 1.09 1.03 -62.9 0 1 145.56 65.27
  Q 145.61 61.78 143.52 58.81
  Q 142.38 52.99 139.46 47.75
  Q 139.63 45.32 142.00 44.46
  Z"
/>
<path fill="#b9ff01" d="
  M 131.54 103.25
  L 131.46 104.00
  C 129.93 102.94 128.33 102.58 126.56 103.58
  C 123.06 105.58 117.43 107.12 119.00 112.34
  A 1.00 1.00 0.0 0 1 118.81 113.26
  C 115.62 117.12 112.29 120.80 107.48 122.76
  Q 105.41 123.61 101.99 125.16
  Q 98.23 126.87 92.56 126.80
  Q 89.90 126.77 92.29 125.59
  Q 93.39 125.04 94.37 124.24
  A 1.00 0.96 -60.3 0 1 95.11 124.02
  L 97.88 124.31
  A 0.79 0.79 0.0 0 0 98.74 123.70
  L 98.83 123.33
  A 0.99 0.97 -7.4 0 1 99.35 122.67
  Q 101.64 121.50 103.44 119.81
  Q 104.02 119.26 106.28 117.69
  Q 108.50 116.15 108.15 113.31
  A 1.00 1.00 0.0 0 0 106.90 112.46
  Q 105.32 112.88 104.13 111.73
  A 1.05 1.02 60.4 0 0 103.23 111.47
  Q 94.90 113.21 86.56 111.56
  A 0.97 0.94 71.0 0 1 86.07 111.31
  Q 84.60 109.94 82.48 110.02
  Q 80.33 110.10 78.94 108.52
  C 77.39 106.75 75.81 105.74 73.29 105.32
  Q 68.63 104.54 63.97 102.08
  Q 60.40 100.19 59.88 104.03
  L 59.03 110.39
  A 1.02 1.01 30.6 0 0 59.23 111.15
  L 64.93 118.38
  A 0.98 0.97 74.4 0 0 65.58 118.75
  Q 67.01 118.95 67.71 120.04
  A 1.00 0.98 -15.9 0 0 68.55 120.50
  Q 69.45 120.51 69.51 121.29
  A 1.00 0.99 13.7 0 0 70.00 122.09
  C 73.26 123.98 76.90 125.04 80.69 124.76
  Q 81.59 124.69 82.36 125.15
  A 1.00 0.99 38.5 0 1 82.54 126.72
  Q 82.07 127.19 82.00 127.93
  Q 81.74 130.63 82.43 133.30
  Q 65.45 131.87 52.43 121.33
  C 50.00 119.36 48.30 116.80 46.11 114.31
  C 42.37 110.05 39.96 102.94 38.53 97.51
  A 1.02 0.98 -41.2 0 1 38.59 96.84
  L 38.71 96.58
  A 0.63 0.63 0.0 0 0 38.74 96.11
  Q 36.63 89.68 37.65 82.98
  A 0.22 0.22 0.0 0 1 37.98 82.83
  L 38.24 83.01
  Q 38.49 83.17 38.49 82.75
  Q 38.49 81.32 39.09 79.98
  Q 39.19 79.77 39.18 79.54
  Q 39.03 73.54 42.42 68.53
  A 1.00 0.99 -40.6 0 0 42.50 67.55
  Q 41.93 66.33 43.44 65.77
  Q 43.61 65.71 43.75 65.58
  L 55.78 54.89
  A 1.00 1.00 0.0 0 1 56.96 54.78
  Q 57.95 55.38 58.85 54.76
  A 0.99 0.99 0.0 0 1 60.02 54.80
  C 60.65 55.28 62.65 56.71 63.08 55.39
  A 0.81 0.80 -76.8 0 1 63.96 54.84
  Q 65.36 55.06 66.84 54.72
  A 1.00 0.99 -1.8 0 0 67.60 53.92
  C 67.95 51.95 71.48 47.58 73.52 50.24
  A 0.99 0.99 0.0 0 0 74.40 50.63
  Q 78.31 50.28 81.48 52.52
  A 1.01 1.00 33.5 0 0 82.91 52.23
  Q 83.94 50.57 84.10 48.60
  A 1.00 1.00 0.0 0 1 84.64 47.80
  Q 87.13 46.51 89.02 48.90
  A 1.02 1.01 68.7 0 0 89.87 49.28
  Q 95.40 48.89 100.08 51.73
  A 1.00 1.00 0.0 0 0 101.28 51.60
  L 101.92 51.00
  A 1.08 1.07 -69.1 0 1 102.50 50.74
  C 106.11 50.36 112.04 50.98 114.36 54.24
  A 1.05 0.97 81.9 0 0 114.79 54.59
  Q 122.59 57.85 128.02 64.22
  Q 128.20 64.44 128.26 64.25
  L 128.31 64.06
  Q 128.33 64.01 128.36 64.08
  Q 133.28 73.96 133.30 85.02
  Q 133.30 85.45 133.64 85.18
  C 133.93 84.95 133.66 87.18 133.69 87.59
  Q 134.12 93.62 132.87 97.06
  Q 131.45 100.97 131.54 103.25
  Z"
/>
<path fill="#4cd206" d="
  M 24.50 50.71
  Q 24.72 51.21 24.59 51.69
  A 1.01 1.01 0.0 0 0 25.15 52.86
  Q 26.91 53.66 26.04 56.25
  Q 23.50 63.94 22.71 72.00
  Q 21.97 77.72 19.13 72.45
  C 19.97 64.89 21.11 57.64 24.50 50.71
  Z"
/>
<path fill="#8de80c" d="
  M 143.52 58.81
  Q 145.61 61.78 145.56 65.27
  A 1.09 1.03 -62.9 0 0 145.73 65.85
  Q 146.74 67.34 146.79 69.09
  A 1.01 1.01 0.0 0 0 147.06 69.75
  L 148.38 71.16
  A 0.51 0.51 0.0 0 0 149.18 71.08
  Q 149.51 70.55 150.08 71.98
  C 151.89 94.16 142.32 114.87 124.79 128.50
  Q 124.48 127.06 125.01 125.68
  A 0.98 0.96 89.5 0 1 125.55 125.12
  Q 129.89 123.29 131.50 118.92
  A 1.00 0.98 4.2 0 1 132.24 118.29
  Q 133.19 118.10 133.49 117.13
  A 1.04 1.02 82.5 0 1 133.90 116.58
  Q 135.85 115.31 136.04 113.02
  Q 136.06 112.75 136.21 112.53
  Q 140.45 106.41 142.45 98.48
  Q 147.52 78.38 143.52 58.81
  Z"
/>
<path fill="#8de80c" d="
  M 22.71 72.00
  Q 22.44 82.17 23.80 92.24
  Q 24.02 93.85 22.24 97.05
  Q 18.29 85.08 19.13 72.45
  Q 21.97 77.72 22.71 72.00
  Z"
/>
<path fill="#b9ff01" d="
  M 131.46 104.00
  C 134.63 111.99 122.88 118.92 117.36 123.29
  Q 107.75 130.92 95.75 133.54
  Q 89.09 134.18 82.43 133.30
  Q 81.74 130.63 82.00 127.93
  Q 82.07 127.19 82.54 126.72
  A 1.00 0.99 38.5 0 0 82.36 125.15
  Q 81.59 124.69 80.69 124.76
  C 76.90 125.04 73.26 123.98 70.00 122.09
  A 1.00 0.99 13.7 0 1 69.51 121.29
  Q 69.45 120.51 68.55 120.50
  A 1.00 0.98 -15.9 0 1 67.71 120.04
  Q 67.01 118.95 65.58 118.75
  A 0.98 0.97 74.4 0 1 64.93 118.38
  L 59.23 111.15
  A 1.02 1.01 30.6 0 1 59.03 110.39
  L 59.88 104.03
  Q 60.40 100.19 63.97 102.08
  Q 68.63 104.54 73.29 105.32
  C 75.81 105.74 77.39 106.75 78.94 108.52
  Q 80.33 110.10 82.48 110.02
  Q 84.60 109.94 86.07 111.31
  A 0.97 0.94 71.0 0 0 86.56 111.56
  Q 94.90 113.21 103.23 111.47
  A 1.05 1.02 60.4 0 1 104.13 111.73
  Q 105.32 112.88 106.90 112.46
  A 1.00 1.00 0.0 0 1 108.15 113.31
  Q 108.50 116.15 106.28 117.69
  Q 104.02 119.26 103.44 119.81
  Q 101.64 121.50 99.35 122.67
  A 0.99 0.97 -7.4 0 0 98.83 123.33
  L 98.74 123.70
  A 0.79 0.79 0.0 0 1 97.88 124.31
  L 95.11 124.02
  A 1.00 0.96 -60.3 0 0 94.37 124.24
  Q 93.39 125.04 92.29 125.59
  Q 89.90 126.77 92.56 126.80
  Q 98.23 126.87 101.99 125.16
  Q 105.41 123.61 107.48 122.76
  C 112.29 120.80 115.62 117.12 118.81 113.26
  A 1.00 1.00 0.0 0 0 119.00 112.34
  C 117.43 107.12 123.06 105.58 126.56 103.58
  C 128.33 102.58 129.93 102.94 131.46 104.00
  Z"
/>
</svg>
